<?xml version="1.0" encoding="utf-8"?>
<!-- Generator: Adobe Illustrator 22.1.0, SVG Export Plug-In . SVG Version: 6.00 Build 0)  -->
<svg version="1.1" id="Capa_1" xmlns="http://www.w3.org/2000/svg" xmlns:xlink="http://www.w3.org/1999/xlink" x="0px" y="0px"
	 viewBox="796 397 512 320" style="enable-background:new 796 397 512 320;" xml:space="preserve">
<g>
	<path d="M1030.9,430.3c9.7,13.3,14.5,29.1,14.5,47.6c0,19-4.8,34.4-14.6,46c-5.5,6.4-13.5,12.4-24.2,17.7
		c16.1,5.8,28.3,15,36.6,27.6c8.2,12.5,12.3,27.8,12.3,45.7c0,18.5-4.7,35.1-14.1,49.8c-6,9.7-13.4,17.9-22.4,24.5
		c-10.1,7.6-22,12.8-35.7,15.7c-13.8,2.8-28.6,4.2-44.7,4.2H796V397h152.9C987.5,397.6,1014.8,408.6,1030.9,430.3z M859.1,451.2
		v68.9H936c13.7,0,24.9-2.6,33.5-7.7c8.5-5.2,12.9-14.3,12.9-27.4c0-14.6-5.7-24.2-17-28.9c-9.8-3.2-22.3-4.9-37.4-4.9H859.1z
		 M859.1,571.7V655h76.8c13.7,0,24.4-1.8,32.1-5.5c13.9-6.8,20.8-19.8,20.8-39c0-16.3-6.7-27.4-20.1-33.5
		c-7.6-3.4-18.1-5.2-31.7-5.2H859.1L859.1,571.7z M1246.8,483c16.4,7.2,29.8,18.6,40.4,34.1c9.7,13.7,15.9,29.6,18.7,47.7
		c1.7,10.6,2.3,25.9,2,45.8h-170.5c1,23.1,9.1,39.4,24.5,48.7c9.3,5.8,20.5,8.7,33.8,8.7c13.9,0,25.2-3.5,33.9-10.6
		c4.8-3.8,9-9.1,12.6-15.9h62.5c-1.7,13.7-9.2,27.6-22.7,41.7c-21,22.4-50.3,33.6-88,33.6c-31.2,0-58.6-9.4-82.4-28.4
		c-23.9-18.9-35.7-49.7-35.7-92.4c0-40,10.8-70.7,32.2-92c21.5-21.3,49.4-32,83.6-32C1212.2,472.2,1230.5,475.8,1246.8,483z
		 M1155.3,535.1c-8.6,8.8-14.1,20.7-16.3,35.7h105.4c-1.1-16-6.6-28.2-16.3-36.5c-9.8-8.3-21.9-12.4-36.3-12.4
		C1176.2,522,1163.9,526.4,1155.3,535.1z M1123.2,450.4h135.6v-38.8h-135.6L1123.2,450.4L1123.2,450.4z"/>
</g>
</svg>
