<?xml version="1.0" encoding="utf-8"?>
<!-- Generator: Adobe Illustrator 22.1.0, SVG Export Plug-In . SVG Version: 6.00 Build 0)  -->
<svg version="1.1" id="Capa_1" xmlns="http://www.w3.org/2000/svg" xmlns:xlink="http://www.w3.org/1999/xlink" x="0px" y="0px"
	 viewBox="533 262 512 512" style="enable-background:new 533 262 512 512;" xml:space="preserve">
<path d="M789,262c-141.2,0-256,114.8-256,256s114.8,256,256,256s256-114.8,256-256S930.2,262,789,262z M789,742
	c-123.5,0-224-100.5-224-224c0-123.5,100.5-224,224-224c123.5,0,224,100.5,224,224C1013,641.5,912.5,742,789,742z"/>
<path d="M911.5,370.2C878.2,342.6,835.6,326,789,326c-13.4,0-26.6,1.4-39.2,4c23.3,33,44.4,67.4,63.1,103
	C848.1,416.6,881.2,395.4,911.5,370.2z"/>
<path d="M850.2,514.8c42.5-8.7,86.7-9.5,130.6-2.3c-1.3-45.8-18.5-87.5-46.4-119.8c-32.9,27.7-69.2,50.8-107.6,68.7
	C835.1,479,842.9,496.8,850.2,514.8z"/>
<path d="M717.6,339.9C660,363,616.3,413.1,602.1,474.7c62.1,2.7,123.6-7.7,180.9-29.6C763.8,408.7,742,373.5,717.6,339.9z"/>
<path d="M797.3,474.1c-55.4,21.6-114.6,33.4-174.8,33.4c-8.3,0-16.6-0.5-24.9-1c-0.2,3.8-0.6,7.6-0.6,11.5
	c0,47.1,17.1,90.3,45.2,123.7c46.1-57.2,108.1-98.3,176.7-118.9C812.3,506.4,805,490.2,797.3,474.1z"/>
<path d="M861.9,545.1c15.3,42.6,27.2,86.3,36,130.9c43.3-29.9,73.5-77,81.1-131.5C939.7,537.6,900.1,538,861.9,545.1z"/>
<path d="M665,664.4c33.5,28.4,76.7,45.6,124,45.6c28.4,0,55.3-6.3,79.6-17.4c-8.8-47.8-21.6-94.6-38.1-140
	C766,571.4,707.7,610.1,665,664.4z"/>
</svg>
