<?xml version="1.0" encoding="utf-8"?>
<!-- Generator: Adobe Illustrator 22.1.0, SVG Export Plug-In . SVG Version: 6.00 Build 0)  -->
<svg version="1.1" id="content" xmlns="http://www.w3.org/2000/svg" xmlns:xlink="http://www.w3.org/1999/xlink" x="0px" y="0px"
	 viewBox="0 0 235.3 236.7" style="enable-background:new 0 0 235.3 236.7;" xml:space="preserve">
<style type="text/css">
	.st0{fill:#16110D;}
	.st1{fill:#FFEB00;}
	.st2{fill:#FFFFFF;}
	.st3{fill:#FFBE2E;}
</style>
<g>
	<g id="_x36_">
		<g id="XMLID_1041_">
			<path id="XMLID_1037_" class="st0" d="M78.7,216.5c-0.5,0.3-0.5,0.8,0,1.1s1.3,0.3,1.8,0c0.5-0.3,0.5-0.8,0-1.1
				C80.1,216.2,79.2,216.2,78.7,216.5z"/>
			<path id="XMLID_1036_" class="st0" d="M74,213.8c-0.5,0.3-0.5,0.8,0,1.1c0.5,0.3,1.3,0.3,1.8,0c0.5-0.3,0.5-0.8,0-1.1
				C75.3,213.5,74.5,213.5,74,213.8z"/>
			<path id="XMLID_1035_" class="st0" d="M69.2,211c-0.5,0.3-0.5,0.8,0,1.1c0.5,0.3,1.3,0.3,1.8,0c0.5-0.3,0.5-0.8,0-1.1
				C70.5,210.7,69.7,210.7,69.2,211z"/>
			<path id="XMLID_1034_" class="st0" d="M64.4,208.3c-0.5,0.3-0.5,0.8,0,1.1c0.5,0.3,1.3,0.3,1.8,0c0.5-0.3,0.5-0.8,0-1.1
				C65.7,208,64.9,208,64.4,208.3z"/>
			<path id="XMLID_1033_" class="st0" d="M88.3,216.5c-0.5,0.3-0.5,0.8,0,1.1c0.5,0.3,1.3,0.3,1.8,0c0.5-0.3,0.5-0.8,0-1.1
				C89.7,216.2,88.8,216.2,88.3,216.5z"/>
			<path id="XMLID_1032_" class="st0" d="M83.6,213.7c-0.5,0.3-0.5,0.8,0,1.1c0.5,0.3,1.3,0.3,1.8,0c0.5-0.3,0.5-0.8,0-1.1
				C84.9,213.5,84.1,213.5,83.6,213.7z"/>
			<path id="XMLID_1031_" class="st0" d="M78.8,211c-0.5,0.3-0.5,0.8,0,1.1c0.5,0.3,1.3,0.3,1.8,0c0.5-0.3,0.5-0.8,0-1.1
				C80.1,210.7,79.3,210.7,78.8,211z"/>
			<path id="XMLID_1030_" class="st0" d="M74,208.2c-0.5,0.3-0.5,0.8,0,1.1c0.5,0.3,1.3,0.3,1.8,0c0.5-0.3,0.5-0.8,0-1.1
				C75.3,207.9,74.5,207.9,74,208.2z"/>
			<path id="XMLID_1029_" class="st0" d="M69.2,205.5c-0.5,0.3-0.5,0.8,0,1.1c0.5,0.3,1.3,0.3,1.8,0c0.5-0.3,0.5-0.8,0-1.1
				C70.6,205.2,69.7,205.2,69.2,205.5z"/>
			<path id="XMLID_1028_" class="st0" d="M93.1,213.7c-0.5,0.3-0.5,0.8,0,1.1c0.5,0.3,1.3,0.3,1.8,0c0.5-0.3,0.5-0.8,0-1.1
				C94.4,213.5,93.6,213.5,93.1,213.7z"/>
			<path id="XMLID_1027_" class="st0" d="M88.3,211c-0.5,0.3-0.5,0.8,0,1.1c0.5,0.3,1.3,0.3,1.8,0c0.5-0.3,0.5-0.8,0-1.1
				C89.7,210.7,88.8,210.7,88.3,211z"/>
			<path id="XMLID_1025_" class="st0" d="M78.8,205.5c-0.5,0.3-0.5,0.8,0,1.1c0.5,0.3,1.3,0.3,1.8,0c0.5-0.3,0.5-0.8,0-1.1
				C80.1,205.2,79.3,205.2,78.8,205.5z"/>
			<path id="XMLID_1024_" class="st0" d="M74,202.7c-0.5,0.3-0.5,0.8,0,1.1c0.5,0.3,1.3,0.3,1.8,0c0.5-0.3,0.5-0.8,0-1.1
				C75.3,202.4,74.5,202.4,74,202.7z"/>
			<path id="XMLID_1023_" class="st0" d="M97.9,211c-0.5,0.3-0.5,0.8,0,1.1c0.5,0.3,1.3,0.3,1.8,0c0.5-0.3,0.5-0.8,0-1.1
				S98.4,210.7,97.9,211z"/>
			<path id="XMLID_1021_" class="st0" d="M93.1,208.2c-0.5,0.3-0.5,0.8,0,1.1c0.5,0.3,1.3,0.3,1.8,0c0.5-0.3,0.5-0.8,0-1.1
				C94.4,207.9,93.6,207.9,93.1,208.2z"/>
			<path id="XMLID_1020_" class="st0" d="M88.3,205.5c-0.5,0.3-0.5,0.8,0,1.1c0.5,0.3,1.3,0.3,1.8,0c0.5-0.3,0.5-0.8,0-1.1
				C89.7,205.2,88.8,205.2,88.3,205.5z"/>
			<path id="XMLID_1019_" class="st0" d="M83.6,202.7c-0.5,0.3-0.5,0.8,0,1.1c0.5,0.3,1.3,0.3,1.8,0c0.5-0.3,0.5-0.8,0-1.1
				C84.9,202.4,84.1,202.4,83.6,202.7z"/>
			<path id="XMLID_1018_" class="st0" d="M78.8,200c-0.5,0.3-0.5,0.8,0,1.1c0.5,0.3,1.3,0.3,1.8,0c0.5-0.3,0.5-0.8,0-1.1
				C80.1,199.7,79.3,199.7,78.8,200z"/>
			<path id="XMLID_1017_" class="st0" d="M102.7,208.2c-0.5,0.3-0.5,0.8,0,1.1s1.3,0.3,1.8,0c0.5-0.3,0.5-0.8,0-1.1
				C104,207.9,103.2,207.9,102.7,208.2z"/>
			<path id="XMLID_1016_" class="st0" d="M97.9,205.5c-0.5,0.3-0.5,0.8,0,1.1c0.5,0.3,1.3,0.3,1.8,0c0.5-0.3,0.5-0.8,0-1.1
				C99.2,205.2,98.4,205.2,97.9,205.5z"/>
			<path id="XMLID_1015_" class="st0" d="M93.1,202.7c-0.5,0.3-0.5,0.8,0,1.1c0.5,0.3,1.3,0.3,1.8,0c0.5-0.3,0.5-0.8,0-1.1
				C94.4,202.4,93.6,202.4,93.1,202.7z"/>
			<path id="XMLID_1014_" class="st0" d="M88.3,200c-0.5,0.3-0.5,0.8,0,1.1c0.5,0.3,1.3,0.3,1.8,0c0.5-0.3,0.5-0.8,0-1.1
				C89.7,199.7,88.8,199.7,88.3,200z"/>
			<path id="XMLID_1012_" class="st0" d="M83.6,197.2c-0.5,0.3-0.5,0.8,0,1.1c0.5,0.3,1.3,0.3,1.8,0c0.5-0.3,0.5-0.8,0-1.1
				C84.9,196.9,84.1,196.9,83.6,197.2z"/>
			<path id="XMLID_1010_" class="st0" d="M155.2,233c-0.5,0.3-0.5,0.8,0,1.1c0.5,0.3,1.3,0.3,1.8,0c0.5-0.3,0.5-0.8,0-1.1
				C156.5,232.7,155.7,232.7,155.2,233z"/>
			<path id="XMLID_1009_" class="st0" d="M150.4,230.3c-0.5,0.3-0.5,0.8,0,1.1c0.5,0.3,1.3,0.3,1.8,0c0.5-0.3,0.5-0.8,0-1.1
				C151.7,230,150.9,230,150.4,230.3z"/>
			<path id="XMLID_1008_" class="st0" d="M145.6,227.5c-0.5,0.3-0.5,0.8,0,1.1c0.5,0.3,1.3,0.3,1.8,0c0.5-0.3,0.5-0.8,0-1.1
				C147,227.2,146.1,227.2,145.6,227.5z"/>
			<path id="XMLID_1007_" class="st0" d="M140.9,224.8c-0.5,0.3-0.5,0.8,0,1.1c0.5,0.3,1.3,0.3,1.8,0c0.5-0.3,0.5-0.8,0-1.1
				C142.2,224.5,141.4,224.5,140.9,224.8z"/>
			<path id="XMLID_1006_" class="st0" d="M136.1,222c-0.5,0.3-0.5,0.8,0,1.1c0.5,0.3,1.3,0.3,1.8,0c0.5-0.3,0.5-0.8,0-1.1
				C137.4,221.7,136.6,221.7,136.1,222z"/>
			<path id="XMLID_1005_" class="st0" d="M131.3,219.3c-0.5,0.3-0.5,0.8,0,1.1c0.5,0.3,1.3,0.3,1.8,0c0.5-0.3,0.5-0.8,0-1.1
				C132.6,219,131.8,219,131.3,219.3z"/>
			<ellipse id="XMLID_1004_" class="st0" cx="127.4" cy="217" rx="1.3" ry="0.7"/>
			<path id="XMLID_1002_" class="st0" d="M121.8,213.7c-0.5,0.3-0.5,0.8,0,1.1c0.5,0.3,1.3,0.3,1.8,0c0.5-0.3,0.5-0.8,0-1.1
				C123.1,213.5,122.3,213.5,121.8,213.7z"/>
			<path id="XMLID_1001_" class="st0" d="M117,211c-0.5,0.3-0.5,0.8,0,1.1c0.5,0.3,1.3,0.3,1.8,0c0.5-0.3,0.5-0.8,0-1.1
				C118.3,210.7,117.5,210.7,117,211z"/>
			<path id="XMLID_1000_" class="st0" d="M112.2,208.2c-0.5,0.3-0.5,0.8,0,1.1c0.5,0.3,1.3,0.3,1.8,0c0.5-0.3,0.5-0.8,0-1.1
				C113.5,207.9,112.7,207.9,112.2,208.2z"/>
			<path id="XMLID_999_" class="st0" d="M107.4,205.5c-0.5,0.3-0.5,0.8,0,1.1c0.5,0.3,1.3,0.3,1.8,0c0.5-0.3,0.5-0.8,0-1.1
				C108.8,205.2,107.9,205.2,107.4,205.5z"/>
			<ellipse id="XMLID_998_" class="st0" cx="103.6" cy="203.3" rx="1.3" ry="0.7"/>
			<path id="XMLID_997_" class="st0" d="M97.9,200c-0.5,0.3-0.5,0.8,0,1.1c0.5,0.3,1.3,0.3,1.8,0c0.5-0.3,0.5-0.8,0-1.1
				C99.2,199.7,98.4,199.7,97.9,200z"/>
			<path id="XMLID_996_" class="st0" d="M93.1,197.2c-0.5,0.3-0.5,0.8,0,1.1c0.5,0.3,1.3,0.3,1.8,0c0.5-0.3,0.5-0.8,0-1.1
				C94.4,196.9,93.6,196.9,93.1,197.2z"/>
			<path id="XMLID_995_" class="st0" d="M88.3,194.5c-0.5,0.3-0.5,0.8,0,1.1c0.5,0.3,1.3,0.3,1.8,0c0.5-0.3,0.5-0.8,0-1.1
				C89.7,194.2,88.8,194.2,88.3,194.5z"/>
			<path id="XMLID_994_" class="st0" d="M164.7,233c-0.5,0.3-0.5,0.8,0,1.1c0.5,0.3,1.3,0.3,1.8,0c0.5-0.3,0.5-0.8,0-1.1
				C166.1,232.7,165.2,232.7,164.7,233z"/>
			<path id="XMLID_993_" class="st0" d="M160,230.3c-0.5,0.3-0.5,0.8,0,1.1c0.5,0.3,1.3,0.3,1.8,0c0.5-0.3,0.5-0.8,0-1.1
				C161.3,230,160.5,230,160,230.3z"/>
			<path id="XMLID_992_" class="st0" d="M155.2,227.5c-0.5,0.3-0.5,0.8,0,1.1c0.5,0.3,1.3,0.3,1.8,0c0.5-0.3,0.5-0.8,0-1.1
				C156.5,227.2,155.7,227.2,155.2,227.5z"/>
			<path id="XMLID_991_" class="st0" d="M150.4,224.8c-0.5,0.3-0.5,0.8,0,1.1c0.5,0.3,1.3,0.3,1.8,0c0.5-0.3,0.5-0.8,0-1.1
				C151.7,224.5,150.9,224.5,150.4,224.8z"/>
			<path id="XMLID_990_" class="st0" d="M145.6,222c-0.5,0.3-0.5,0.8,0,1.1c0.5,0.3,1.3,0.3,1.8,0c0.5-0.3,0.5-0.8,0-1.1
				C147,221.7,146.1,221.7,145.6,222z"/>
			<path id="XMLID_989_" class="st0" d="M140.9,219.3c-0.5,0.3-0.5,0.8,0,1.1c0.5,0.3,1.3,0.3,1.8,0c0.5-0.3,0.5-0.8,0-1.1
				C142.2,219,141.4,219,140.9,219.3z"/>
			<path id="XMLID_988_" class="st0" d="M136.1,216.5c-0.5,0.3-0.5,0.8,0,1.1c0.5,0.3,1.3,0.3,1.8,0c0.5-0.3,0.5-0.8,0-1.1
				C137.4,216.2,136.6,216.2,136.1,216.5z"/>
			<path id="XMLID_987_" class="st0" d="M131.3,213.7c-0.5,0.3-0.5,0.8,0,1.1c0.5,0.3,1.3,0.3,1.8,0c0.5-0.3,0.5-0.8,0-1.1
				C132.6,213.5,131.8,213.5,131.3,213.7z"/>
			<path id="XMLID_986_" class="st0" d="M126.5,211c-0.5,0.3-0.5,0.8,0,1.1c0.5,0.3,1.3,0.3,1.8,0c0.5-0.3,0.5-0.8,0-1.1
				C127.9,210.7,127,210.7,126.5,211z"/>
			<path id="XMLID_984_" class="st0" d="M121.8,208.2c-0.5,0.3-0.5,0.8,0,1.1c0.5,0.3,1.3,0.3,1.8,0c0.5-0.3,0.5-0.8,0-1.1
				C123.1,207.9,122.3,207.9,121.8,208.2z"/>
			<path id="XMLID_983_" class="st0" d="M117,205.5c-0.5,0.3-0.5,0.8,0,1.1c0.5,0.3,1.3,0.3,1.8,0c0.5-0.3,0.5-0.8,0-1.1
				C118.3,205.2,117.5,205.2,117,205.5z"/>
			<path id="XMLID_982_" class="st0" d="M112.2,202.7c-0.5,0.3-0.5,0.8,0,1.1c0.5,0.3,1.3,0.3,1.8,0c0.5-0.3,0.5-0.8,0-1.1
				C113.5,202.4,112.7,202.4,112.2,202.7z"/>
			<path id="XMLID_981_" class="st0" d="M107.4,200c-0.5,0.3-0.5,0.8,0,1.1c0.5,0.3,1.3,0.3,1.8,0c0.5-0.3,0.5-0.8,0-1.1
				C108.8,199.7,107.9,199.7,107.4,200z"/>
			<ellipse id="XMLID_980_" class="st0" cx="103.6" cy="197.7" rx="1.3" ry="0.7"/>
			<path id="XMLID_979_" class="st0" d="M97.9,194.5c-0.5,0.3-0.5,0.8,0,1.1c0.5,0.3,1.3,0.3,1.8,0c0.5-0.3,0.5-0.8,0-1.1
				C99.2,194.2,98.4,194.2,97.9,194.5z"/>
			<path id="XMLID_830_" class="st0" d="M93.1,191.7c-0.5,0.3-0.5,0.8,0,1.1c0.5,0.3,1.3,0.3,1.8,0c0.5-0.3,0.5-0.8,0-1.1
				C94.4,191.4,93.6,191.4,93.1,191.7z"/>
			<path id="XMLID_828_" class="st0" d="M164.7,227.5c-0.5,0.3-0.5,0.8,0,1.1c0.5,0.3,1.3,0.3,1.8,0c0.5-0.3,0.5-0.8,0-1.1
				C166.1,227.2,165.2,227.2,164.7,227.5z"/>
			<path id="XMLID_827_" class="st0" d="M160,224.8c-0.5,0.3-0.5,0.8,0,1.1c0.5,0.3,1.3,0.3,1.8,0c0.5-0.3,0.5-0.8,0-1.1
				C161.3,224.5,160.5,224.5,160,224.8z"/>
			<path id="XMLID_826_" class="st0" d="M155.2,222c-0.5,0.3-0.5,0.8,0,1.1c0.5,0.3,1.3,0.3,1.8,0c0.5-0.3,0.5-0.8,0-1.1
				S155.7,221.7,155.2,222z"/>
			<path id="XMLID_825_" class="st0" d="M150.4,219.3c-0.5,0.3-0.5,0.8,0,1.1c0.5,0.3,1.3,0.3,1.8,0c0.5-0.3,0.5-0.8,0-1.1
				C151.7,219,150.9,219,150.4,219.3z"/>
			<path id="XMLID_821_" class="st0" d="M145.6,216.5c-0.5,0.3-0.5,0.8,0,1.1c0.5,0.3,1.3,0.3,1.8,0c0.5-0.3,0.5-0.8,0-1.1
				C147,216.2,146.1,216.2,145.6,216.5z"/>
			<path id="XMLID_820_" class="st0" d="M140.9,213.7c-0.5,0.3-0.5,0.8,0,1.1c0.5,0.3,1.3,0.3,1.8,0c0.5-0.3,0.5-0.8,0-1.1
				C142.2,213.5,141.4,213.5,140.9,213.7z"/>
			<path id="XMLID_819_" class="st0" d="M136.1,211c-0.5,0.3-0.5,0.8,0,1.1c0.5,0.3,1.3,0.3,1.8,0c0.5-0.3,0.5-0.8,0-1.1
				C137.4,210.7,136.6,210.7,136.1,211z"/>
			<path id="XMLID_818_" class="st0" d="M131.3,208.2c-0.5,0.3-0.5,0.8,0,1.1c0.5,0.3,1.3,0.3,1.8,0c0.5-0.3,0.5-0.8,0-1.1
				S131.8,207.9,131.3,208.2z"/>
			<path id="XMLID_817_" class="st0" d="M126.5,205.5c-0.5,0.3-0.5,0.8,0,1.1c0.5,0.3,1.3,0.3,1.8,0c0.5-0.3,0.5-0.8,0-1.1
				C127.9,205.2,127,205.2,126.5,205.5z"/>
			<path id="XMLID_816_" class="st0" d="M121.8,202.7c-0.5,0.3-0.5,0.8,0,1.1c0.5,0.3,1.3,0.3,1.8,0c0.5-0.3,0.5-0.8,0-1.1
				C123.1,202.4,122.3,202.4,121.8,202.7z"/>
			<path id="XMLID_815_" class="st0" d="M117,200c-0.5,0.3-0.5,0.8,0,1.1c0.5,0.3,1.3,0.3,1.8,0c0.5-0.3,0.5-0.8,0-1.1
				C118.3,199.7,117.5,199.7,117,200z"/>
			<path id="XMLID_814_" class="st0" d="M112.2,197.2c-0.5,0.3-0.5,0.8,0,1.1c0.5,0.3,1.3,0.3,1.8,0c0.5-0.3,0.5-0.8,0-1.1
				C113.5,196.9,112.7,196.9,112.2,197.2z"/>
			<path id="XMLID_813_" class="st0" d="M107.4,194.5c-0.5,0.3-0.5,0.8,0,1.1c0.5,0.3,1.3,0.3,1.8,0c0.5-0.3,0.5-0.8,0-1.1
				C108.8,194.2,107.9,194.2,107.4,194.5z"/>
			<path id="XMLID_812_" class="st0" d="M102.7,191.7c-0.5,0.3-0.5,0.8,0,1.1c0.5,0.3,1.3,0.3,1.8,0c0.5-0.3,0.5-0.8,0-1.1
				C104,191.4,103.2,191.4,102.7,191.7z"/>
			<path id="XMLID_811_" class="st0" d="M97.9,188.9c-0.5,0.3-0.5,0.8,0,1.1c0.5,0.3,1.3,0.3,1.8,0c0.5-0.3,0.5-0.8,0-1.1
				C99.2,188.7,98.4,188.7,97.9,188.9z"/>
			<path id="XMLID_801_" class="st0" d="M61.5,205.5c-0.5-0.3-1.3-0.3-1.8,0c-0.5,0.3-0.5,0.8,0,1.1c0.5,0.3,1.3,0.3,1.8,0
				C62,206.3,62,205.8,61.5,205.5z"/>
			<path id="XMLID_795_" class="st0" d="M54.9,202.8c-0.5,0.3-0.5,0.8,0,1.1c0.5,0.3,1.3,0.3,1.8,0c0.5-0.3,0.5-0.8,0-1.1
				C56.2,202.5,55.4,202.5,54.9,202.8z"/>
			<path id="XMLID_784_" class="st0" d="M50.1,200c-0.5,0.3-0.5,0.8,0,1.1c0.5,0.3,1.3,0.3,1.8,0c0.5-0.3,0.5-0.8,0-1.1
				C51.4,199.7,50.6,199.7,50.1,200z"/>
			<path id="XMLID_781_" class="st0" d="M66.3,202.8c-0.5-0.3-1.3-0.3-1.8,0c-0.5,0.3-0.5,0.8,0,1.1c0.5,0.3,1.3,0.3,1.8,0
				C66.8,203.5,66.8,203.1,66.3,202.8z"/>
			<path id="XMLID_780_" class="st0" d="M59.7,200c-0.5,0.3-0.5,0.8,0,1.1c0.5,0.3,1.3,0.3,1.8,0c0.5-0.3,0.5-0.8,0-1.1
				C61,199.7,60.2,199.7,59.7,200z"/>
			<path id="XMLID_779_" class="st0" d="M54.9,197.2c-0.5,0.3-0.5,0.8,0,1.1c0.5,0.3,1.3,0.3,1.8,0c0.5-0.3,0.5-0.8,0-1.1
				C56.2,197,55.4,197,54.9,197.2z"/>
			<path id="XMLID_778_" class="st0" d="M50.1,194.5c-0.5,0.3-0.5,0.8,0,1.1c0.5,0.3,1.3,0.3,1.8,0c0.5-0.3,0.5-0.8,0-1.1
				C51.4,194.2,50.6,194.2,50.1,194.5z"/>
			<path id="XMLID_776_" class="st0" d="M71.1,200c-0.5-0.3-1.3-0.3-1.8,0c-0.5,0.3-0.5,0.8,0,1.1c0.5,0.3,1.3,0.3,1.8,0
				C71.6,200.8,71.6,200.3,71.1,200z"/>
			<path id="XMLID_775_" class="st0" d="M64.4,197.2c-0.5,0.3-0.5,0.8,0,1.1c0.5,0.3,1.3,0.3,1.8,0c0.5-0.3,0.5-0.8,0-1.1
				C65.8,197,64.9,197,64.4,197.2z"/>
			<path id="XMLID_774_" class="st0" d="M59.7,194.5c-0.5,0.3-0.5,0.8,0,1.1c0.5,0.3,1.3,0.3,1.8,0c0.5-0.3,0.5-0.8,0-1.1
				C61,194.2,60.2,194.2,59.7,194.5z"/>
			<ellipse id="XMLID_773_" class="st0" cx="55.8" cy="192.3" rx="1.3" ry="0.7"/>
			<path id="XMLID_771_" class="st0" d="M75.8,197.3c-0.5-0.3-1.3-0.3-1.8,0c-0.5,0.3-0.5,0.8,0,1.1c0.5,0.3,1.3,0.3,1.8,0
				C76.3,198,76.3,197.5,75.8,197.3z"/>
			<path id="XMLID_770_" class="st0" d="M69.2,194.5c-0.5,0.3-0.5,0.8,0,1.1c0.5,0.3,1.3,0.3,1.8,0c0.5-0.3,0.5-0.8,0-1.1
				C70.5,194.2,69.7,194.2,69.2,194.5z"/>
			<path id="XMLID_769_" class="st0" d="M64.4,191.7c-0.5,0.3-0.5,0.8,0,1.1c0.5,0.3,1.3,0.3,1.8,0c0.5-0.3,0.5-0.8,0-1.1
				C65.8,191.4,64.9,191.4,64.4,191.7z"/>
			<path id="XMLID_768_" class="st0" d="M59.7,189c-0.5,0.3-0.5,0.8,0,1.1c0.5,0.3,1.3,0.3,1.8,0c0.5-0.3,0.5-0.8,0-1.1
				C61,188.7,60.2,188.7,59.7,189z"/>
			<path id="XMLID_767_" class="st0" d="M54.9,186.2c-0.5,0.3-0.5,0.8,0,1.1c0.5,0.3,1.3,0.3,1.8,0c0.5-0.3,0.5-0.8,0-1.1
				C56.2,185.9,55.4,185.9,54.9,186.2z"/>
			<path id="XMLID_766_" class="st0" d="M80.6,194.5c-0.5-0.3-1.3-0.3-1.8,0c-0.5,0.3-0.5,0.8,0,1.1c0.5,0.3,1.3,0.3,1.8,0
				C81.1,195.3,81.1,194.8,80.6,194.5z"/>
			<path id="XMLID_758_" class="st0" d="M74,191.7c-0.5,0.3-0.5,0.8,0,1.1c0.5,0.3,1.3,0.3,1.8,0c0.5-0.3,0.5-0.8,0-1.1
				C75.3,191.4,74.5,191.4,74,191.7z"/>
			<ellipse id="XMLID_747_" class="st0" cx="70.1" cy="189.5" rx="1.3" ry="0.7"/>
			<path id="XMLID_746_" class="st0" d="M64.4,186.2c-0.5,0.3-0.5,0.8,0,1.1c0.5,0.3,1.3,0.3,1.8,0c0.5-0.3,0.5-0.8,0-1.1
				C65.8,185.9,64.9,185.9,64.4,186.2z"/>
			<path id="XMLID_745_" class="st0" d="M61.5,183.5c-0.5-0.3-1.3-0.3-1.8,0c-0.5,0.3-0.5,0.8,0,1.1c0.5,0.3,1.3,0.3,1.8,0
				C62,184.2,62,183.8,61.5,183.5C61,183.2,62,183.8,61.5,183.5z"/>
			<path id="XMLID_744_" class="st0" d="M85.4,191.7c-0.5-0.3-1.3-0.3-1.8,0c-0.5,0.3-0.5,0.8,0,1.1c0.5,0.3,1.3,0.3,1.8,0
				C85.9,192.5,85.9,192,85.4,191.7z"/>
			<path id="XMLID_743_" class="st0" d="M78.8,189c-0.5,0.3-0.5,0.8,0,1.1c0.5,0.3,1.3,0.3,1.8,0c0.5-0.3,0.5-0.8,0-1.1
				C80.1,188.7,79.3,188.7,78.8,189z"/>
			<path id="XMLID_742_" class="st0" d="M74,186.2c-0.5,0.3-0.5,0.8,0,1.1c0.5,0.3,1.3,0.3,1.8,0c0.5-0.3,0.5-0.8,0-1.1
				C75.3,185.9,74.5,185.9,74,186.2z"/>
			<path id="XMLID_741_" class="st0" d="M69.2,183.5c-0.5,0.3-0.5,0.8,0,1.1c0.5,0.3,1.3,0.3,1.8,0c0.5-0.3,0.5-0.8,0-1.1
				C70.5,183.2,69.7,183.2,69.2,183.5z"/>
			<path id="XMLID_740_" class="st0" d="M64.4,180.7c-0.5,0.3-0.5,0.8,0,1.1c0.5,0.3,1.3,0.3,1.8,0c0.5-0.3,0.5-0.8,0-1.1
				C65.8,180.4,64.9,180.4,64.4,180.7z"/>
			<path id="XMLID_739_" class="st0" d="M59.7,178c-0.5,0.3-0.5,0.8,0,1.1c0.5,0.3,1.3,0.3,1.8,0c0.5-0.3,0.5-0.8,0-1.1
				C61,177.7,60.2,177.7,59.7,178z"/>
			<path id="XMLID_738_" class="st0" d="M54.9,175.2c-0.5,0.3-0.5,0.8,0,1.1c0.5,0.3,1.3,0.3,1.8,0c0.5-0.3,0.5-0.8,0-1.1
				C56.2,174.9,55.4,174.9,54.9,175.2z"/>
			<path id="XMLID_737_" class="st0" d="M50.1,172.5c-0.5,0.3-0.5,0.8,0,1.1c0.5,0.3,1.3,0.3,1.8,0c0.5-0.3,0.5-0.8,0-1.1
				C51.4,172.2,50.6,172.2,50.1,172.5z"/>
			<ellipse id="XMLID_736_" class="st0" cx="46.3" cy="170.2" rx="1.3" ry="0.7"/>
			<path id="XMLID_735_" class="st0" d="M40.6,166.9c-0.5,0.3-0.5,0.8,0,1.1c0.5,0.3,1.3,0.3,1.8,0c0.5-0.3,0.5-0.8,0-1.1
				C41.9,166.7,41.1,166.7,40.6,166.9z"/>
			<path id="XMLID_734_" class="st0" d="M35.8,164.2c-0.5,0.3-0.5,0.8,0,1.1c0.5,0.3,1.3,0.3,1.8,0c0.5-0.3,0.5-0.8,0-1.1
				C37.1,163.9,36.3,163.9,35.8,164.2z"/>
			<path id="XMLID_733_" class="st0" d="M31,161.4c-0.5,0.3-0.5,0.8,0,1.1c0.5,0.3,1.3,0.3,1.8,0c0.5-0.3,0.5-0.8,0-1.1
				C32.3,161.1,31.5,161.1,31,161.4z"/>
			<path id="XMLID_732_" class="st0" d="M26.2,158.7c-0.5,0.3-0.5,0.8,0,1.1c0.5,0.3,1.3,0.3,1.8,0c0.5-0.3,0.5-0.8,0-1.1
				C27.6,158.4,26.7,158.4,26.2,158.7z"/>
			<path id="XMLID_731_" class="st0" d="M21.5,155.9c-0.5,0.3-0.5,0.8,0,1.1c0.5,0.3,1.3,0.3,1.8,0c0.5-0.3,0.5-0.8,0-1.1
				C22.8,155.6,22,155.6,21.5,155.9z"/>
			<path id="XMLID_730_" class="st0" d="M16.7,153.2c-0.5,0.3-0.5,0.8,0,1.1c0.5,0.3,1.3,0.3,1.8,0c0.5-0.3,0.5-0.8,0-1.1
				C18,152.9,17.2,152.9,16.7,153.2z"/>
			<path id="XMLID_728_" class="st0" d="M90.2,189c-0.5-0.3-1.3-0.3-1.8,0c-0.5,0.3-0.5,0.8,0,1.1c0.5,0.3,1.3,0.3,1.8,0
				C90.7,189.8,90.7,189.3,90.2,189z"/>
			<path id="XMLID_727_" class="st0" d="M83.5,186.2c-0.5,0.3-0.5,0.8,0,1.1c0.5,0.3,1.3,0.3,1.8,0c0.5-0.3,0.5-0.8,0-1.1
				C84.9,185.9,84,185.9,83.5,186.2z"/>
			<path id="XMLID_726_" class="st0" d="M78.8,183.5c-0.5,0.3-0.5,0.8,0,1.1c0.5,0.3,1.3,0.3,1.8,0c0.5-0.3,0.5-0.8,0-1.1
				C80.1,183.2,79.3,183.2,78.8,183.5z"/>
			<path id="XMLID_725_" class="st0" d="M74,180.7c-0.5,0.3-0.5,0.8,0,1.1c0.5,0.3,1.3,0.3,1.8,0c0.5-0.3,0.5-0.8,0-1.1
				C75.3,180.4,74.5,180.4,74,180.7z"/>
			<ellipse id="XMLID_724_" class="st0" cx="70.1" cy="178.5" rx="1.3" ry="0.7"/>
			<path id="XMLID_723_" class="st0" d="M64.4,175.2c-0.5,0.3-0.5,0.8,0,1.1c0.5,0.3,1.3,0.3,1.8,0c0.5-0.3,0.5-0.8,0-1.1
				C65.8,174.9,64.9,174.9,64.4,175.2z"/>
			<path id="XMLID_722_" class="st0" d="M59.7,172.5c-0.5,0.3-0.5,0.8,0,1.1c0.5,0.3,1.3,0.3,1.8,0c0.5-0.3,0.5-0.8,0-1.1
				C61,172.2,60.2,172.2,59.7,172.5z"/>
			<path id="XMLID_721_" class="st0" d="M54.9,169.7c-0.5,0.3-0.5,0.8,0,1.1c0.5,0.3,1.3,0.3,1.8,0c0.5-0.3,0.5-0.8,0-1.1
				C56.2,169.4,55.4,169.4,54.9,169.7z"/>
			<path id="XMLID_720_" class="st0" d="M50.1,166.9c-0.5,0.3-0.5,0.8,0,1.1c0.5,0.3,1.3,0.3,1.8,0c0.5-0.3,0.5-0.8,0-1.1
				C51.4,166.7,50.6,166.7,50.1,166.9z"/>
			<path id="XMLID_719_" class="st0" d="M45.3,164.2c-0.5,0.3-0.5,0.8,0,1.1c0.5,0.3,1.3,0.3,1.8,0c0.5-0.3,0.5-0.8,0-1.1
				C46.7,163.9,45.8,163.9,45.3,164.2z"/>
			<ellipse id="XMLID_718_" class="st0" cx="41.5" cy="162" rx="1.3" ry="0.7"/>
			<path id="XMLID_717_" class="st0" d="M35.8,158.7c-0.5,0.3-0.5,0.8,0,1.1c0.5,0.3,1.3,0.3,1.8,0c0.5-0.3,0.5-0.8,0-1.1
				C37.1,158.4,36.3,158.4,35.8,158.7z"/>
			<path id="XMLID_716_" class="st0" d="M31,155.9c-0.5,0.3-0.5,0.8,0,1.1c0.5,0.3,1.3,0.3,1.8,0c0.5-0.3,0.5-0.8,0-1.1
				C32.3,155.6,31.5,155.6,31,155.9z"/>
			<path id="XMLID_715_" class="st0" d="M26.2,153.2c-0.5,0.3-0.5,0.8,0,1.1c0.5,0.3,1.3,0.3,1.8,0c0.5-0.3,0.5-0.8,0-1.1
				C27.6,152.9,26.7,152.9,26.2,153.2z"/>
			<path id="XMLID_714_" class="st0" d="M21.5,150.4c-0.5,0.3-0.5,0.8,0,1.1c0.5,0.3,1.3,0.3,1.8,0c0.5-0.3,0.5-0.8,0-1.1
				C22.8,150.1,22,150.1,21.5,150.4z"/>
			<path id="XMLID_713_" class="st0" d="M16.7,147.7c-0.5,0.3-0.5,0.8,0,1.1c0.5,0.3,1.3,0.3,1.8,0c0.5-0.3,0.5-0.8,0-1.1
				C18,147.4,17.2,147.4,16.7,147.7z"/>
			<path id="XMLID_712_" class="st0" d="M94.9,186.2c-0.5-0.3-1.3-0.3-1.8,0c-0.5,0.3-0.5,0.8,0,1.1c0.5,0.3,1.3,0.3,1.8,0
				C95.4,187,95.4,186.5,94.9,186.2z"/>
			<path id="XMLID_711_" class="st0" d="M88.3,183.5c-0.5,0.3-0.5,0.8,0,1.1c0.5,0.3,1.3,0.3,1.8,0c0.5-0.3,0.5-0.8,0-1.1
				C89.6,183.2,88.8,183.2,88.3,183.5z"/>
			<path id="XMLID_710_" class="st0" d="M83.5,180.7c-0.5,0.3-0.5,0.8,0,1.1c0.5,0.3,1.3,0.3,1.8,0c0.5-0.3,0.5-0.8,0-1.1
				C84.9,180.4,84,180.4,83.5,180.7z"/>
			<path id="XMLID_709_" class="st0" d="M78.8,178c-0.5,0.3-0.5,0.8,0,1.1c0.5,0.3,1.3,0.3,1.8,0c0.5-0.3,0.5-0.8,0-1.1
				C80.1,177.7,79.3,177.7,78.8,178z"/>
			<path id="XMLID_708_" class="st0" d="M74,175.2c-0.5,0.3-0.5,0.8,0,1.1c0.5,0.3,1.3,0.3,1.8,0c0.5-0.3,0.5-0.8,0-1.1
				C75.3,174.9,74.5,174.9,74,175.2z"/>
			<path id="XMLID_707_" class="st0" d="M69.2,172.5c-0.5,0.3-0.5,0.8,0,1.1c0.5,0.3,1.3,0.3,1.8,0c0.5-0.3,0.5-0.8,0-1.1
				C70.5,172.2,69.7,172.2,69.2,172.5z"/>
			<path id="XMLID_706_" class="st0" d="M64.4,169.7c-0.5,0.3-0.5,0.8,0,1.1c0.5,0.3,1.3,0.3,1.8,0c0.5-0.3,0.5-0.8,0-1.1
				C65.8,169.4,64.9,169.4,64.4,169.7z"/>
			<path id="XMLID_705_" class="st0" d="M59.7,166.9c-0.5,0.3-0.5,0.8,0,1.1c0.5,0.3,1.3,0.3,1.8,0c0.5-0.3,0.5-0.8,0-1.1
				C61,166.7,60.2,166.7,59.7,166.9z"/>
			<path id="XMLID_704_" class="st0" d="M54.9,164.2c-0.5,0.3-0.5,0.8,0,1.1c0.5,0.3,1.3,0.3,1.8,0c0.5-0.3,0.5-0.8,0-1.1
				C56.2,163.9,55.4,163.9,54.9,164.2z"/>
			<path id="XMLID_703_" class="st0" d="M50.1,161.4c-0.5,0.3-0.5,0.8,0,1.1c0.5,0.3,1.3,0.3,1.8,0c0.5-0.3,0.5-0.8,0-1.1
				C51.4,161.1,50.6,161.1,50.1,161.4z"/>
			<ellipse id="XMLID_702_" class="st0" cx="46.3" cy="159.2" rx="1.3" ry="0.7"/>
			<path id="XMLID_701_" class="st0" d="M40.6,155.9c-0.5,0.3-0.5,0.8,0,1.1c0.5,0.3,1.3,0.3,1.8,0c0.5-0.3,0.5-0.8,0-1.1
				C41.9,155.6,41.1,155.6,40.6,155.9z"/>
			<path id="XMLID_700_" class="st0" d="M35.8,153.2c-0.5,0.3-0.5,0.8,0,1.1c0.5,0.3,1.3,0.3,1.8,0c0.5-0.3,0.5-0.8,0-1.1
				C37.1,152.9,36.3,152.9,35.8,153.2z"/>
			<path id="XMLID_699_" class="st0" d="M31,150.4c-0.5,0.3-0.5,0.8,0,1.1c0.5,0.3,1.3,0.3,1.8,0s0.5-0.8,0-1.1
				C32.3,150.1,31.5,150.1,31,150.4z"/>
			<path id="XMLID_698_" class="st0" d="M26.2,147.7c-0.5,0.3-0.5,0.8,0,1.1c0.5,0.3,1.3,0.3,1.8,0c0.5-0.3,0.5-0.8,0-1.1
				C27.6,147.4,26.7,147.4,26.2,147.7z"/>
		</g>
		<g id="_x34__2_">
			<g id="XMLID_327_">
				<path id="XMLID_338_" class="st1" d="M169.6,84.9L28.5,4.4c-1.8-1-3.4-1-4.5-0.1L17,8.5l5.1,7.3v109.4c0,4.6,2.8,9.9,6.3,11.9
					l131.8,75.1l6.8,9.7l6.5-3.9c1.4-0.7,2.3-2.5,2.3-5.1V96.8C175.9,92.2,173.1,86.9,169.6,84.9z"/>
				<path id="XMLID_329_" class="st2" d="M136.2,79.1L18.9,13.5L17,9.2l5.2-3.1c1.1-0.9,2.7-0.9,4.5,0.1l141.1,80.5
					c1.9,1.1,3.7,3.2,4.8,5.7l0.2,0.7l-8.4,5L136.2,79.1z"/>
				<polygon id="XMLID_296_" class="st2" points="173.8,97.3 166.2,101.8 166.9,104.6 173.8,100.4 				"/>
				<path id="XMLID_468_" class="st0" d="M23.5,3.9c1.4-1.1,3.3-1.1,5.3,0l141.1,80.5c3.7,2.1,6.6,7.7,6.6,12.5v116.1
					c0,2.8-1,4.9-2.7,5.7l-7.1,4.2l-7.1-10L28.1,137.7c-3.7-2.1-6.6-7.7-6.6-12.5V16l-5.4-7.7L23.5,3.9z M22.8,15.6v109.6
					c0,4.4,2.7,9.4,6,11.3l131.8,75.1l6.6,9.3l1.4-0.8l0.3-2.1l5.2-3.2c0.7-0.4,1.2-1.2,1.2-2c0,0,0,0,0,0V96.8
					c0-4.4-2.7-9.4-6-11.3L28.1,5c-1.5-0.8-2.8-0.9-3.8-0.1L18,8.7L22.8,15.6z"/>
			</g>
			<g id="_x31_8_1_">
				<path id="XMLID_319_" class="st0" d="M62.7,183.8l28.6-16.2c2.8-1.6,7.4-1.4,10.6,0.4l17.4,9.9l8.3,3.7v3.8h-0.1
					c-0.2,1-0.9,1.8-2,2.5l-35.3,20c-1.3,0.7-2.9,1.1-4.7,1.1c-2.1,0-4.2-0.5-5.9-1.5l-22.9-13.1c-1.7-1-2.6-2.2-2.8-3.6
					c0-0.1,0-0.2,0-0.3v-3.1L62.7,183.8z"/>
				<g id="XMLID_325_">
					<path id="XMLID_330_" class="st1" d="M125.2,184.4l-35.3,20c-2.5,1.5-7,1.3-9.9-0.4l-22.9-13.1c-2.9-1.7-3.3-4.2-0.7-5.7
						l35.3-20c2.5-1.5,7-1.3,9.9,0.4l22.9,13.1C127.4,180.4,127.8,182.9,125.2,184.4z"/>
					<path id="XMLID_326_" class="st2" d="M60.3,188.2l9.6-5.7c3.1-1.9,7-1.9,10.2-0.1l24,13.7l-14.5,8.2c-2.5,1.5-7,1.3-9.9-0.4
						L61,193.9C58,192.2,57.7,189.7,60.3,188.2z"/>
					<path id="XMLID_331_" class="st0" d="M85.6,206.1c1.7,0,3.4-0.4,4.7-1.1l35.3-20c1.3-0.8,2.1-1.8,2.1-3c0-1.4-1-2.8-2.8-3.8
						l-22.9-13.1c-3.2-1.8-7.8-2-10.6-0.4l-35.3,20c-1.3,0.8-2.1,1.8-2.1,3c0,1.4,1,2.8,2.8,3.8l22.9,13.1
						C81.4,205.6,83.6,206.1,85.6,206.1z M124.9,183.8l-35.3,20c-2.4,1.3-6.5,1.2-9.3-0.4l-22.9-13.1c-1.3-0.8-2.1-1.7-2.1-2.6
						c0-0.9,0.8-1.5,1.4-1.9l35.3-20c2.4-1.3,6.5-1.2,9.3,0.4l22.9,13.1c1.3,0.8,2.1,1.7,2.1,2.6
						C126.3,182.8,125.5,183.4,124.9,183.8L124.9,183.8z"/>
				</g>
			</g>
			<path id="XMLID_343_" class="st0" d="M17,7.7C18.4,6.9,20.1,7,21.9,8L163,88.5c3.7,2.1,6.6,7.7,6.6,12.5v116.1
				c0,2.6-1,3.8-1.9,4.3c-0.6,0.3-1.3,0.5-2,0.5c-1.2,0-2.6-0.4-4-1.2L21.2,141.9c-3.7-2.1-6.6-7.7-6.6-12.5V13.3
				C14.5,10.7,15.5,8.6,17,7.7z"/>
			<g id="XMLID_323_">
				<path id="XMLID_308_" class="st1" d="M15.2,115.9V130c0,4.3,3,9.5,6.8,11.6l140.2,79.9c3.7,2.1,6.8,0.4,6.8-3.9v-14.1
					L15.2,115.9z"/>
				<path id="XMLID_309_" class="st0" d="M165.2,223.1c0.8,0,1.5-0.2,2.1-0.6c1.5-0.9,2.3-2.6,2.3-4.9v-14.5l-0.3-0.2L14.5,114.7
					V130c0,4.5,3.2,9.9,7.1,12.2l140.2,79.9C163,222.8,164.2,223.1,165.2,223.1z M168.3,204v13.7c0,1.8-0.6,3.1-1.6,3.7
					c-1.1,0.6-2.5,0.5-4.1-0.5L22.3,141c-3.5-2-6.4-7-6.4-11v-12.9L168.3,204z"/>
			</g>
			<g id="XMLID_322_">
				<path id="XMLID_289_" class="st1" d="M159.8,189.6L24.4,112.4c-1.2-0.7-2.2-2.6-2.2-4.2V19.5c0-1.6,1-2.4,2.2-1.7l135.4,77.2
					c1.2,0.7,2.2,2.6,2.2,4.2v88.7C162,189.5,161,190.3,159.8,189.6z"/>
				<path id="XMLID_304_" class="st0" d="M160.7,190.5c0.3,0,0.6-0.1,0.9-0.2c0.7-0.4,1.1-1.3,1.1-2.4V99.3c0-1.9-1.1-4-2.6-4.8
					L24.7,17.3c-0.8-0.4-1.5-0.5-2.1-0.1c-0.7,0.4-1.1,1.3-1.1,2.4v88.7c0,1.9,1.1,4,2.6,4.8l135.4,77.2
					C159.9,190.4,160.3,190.5,160.7,190.5z M23.5,18.3c0.2,0,0.4,0.1,0.6,0.2l135.4,77.2c1,0.6,1.9,2.2,1.9,3.6v88.7
					c0,0.6-0.2,1-0.4,1.2c-0.3,0.1-0.6,0-0.8-0.1L24.7,111.8c-1-0.6-1.9-2.2-1.9-3.6V19.5c0-0.6,0.2-1,0.4-1.2
					C23.3,18.3,23.4,18.3,23.5,18.3z"/>
			</g>
		</g>
	</g>
	<g id="_x35_">
		<g id="XMLID_52_">
			<g id="XMLID_324_">
				<path id="XMLID_440_" class="st1" d="M13.4,51.9c-4.3-2.5-7.8-8.5-7.8-13.5s3.5-7,7.8-4.5l56.3,32.5c4.3,2.5,7.8,8.5,7.8,13.5
					c0,5-3.5,7-7.8,4.5L21.3,56.4c-1,6.7-11.2,2.9-9,2C14.6,57.6,13.4,51.9,13.4,51.9L13.4,51.9z"/>
				<path id="XMLID_360_" class="st2" d="M9.7,55.3c-4.3-2.5-7.8-8.5-7.8-13.5s3.5-7,7.8-4.5l56.3,32.5c4.3,2.5,7.8,8.5,7.8,13.5
					c0,5-3.5,7-7.8,4.5L17.7,59.9c-1,6.7-11.2,2.9-9,2C10.9,61,9.7,55.3,9.7,55.3L9.7,55.3z"/>
				<path id="XMLID_361_" class="st0" d="M73.2,86.4c0.9,0,1.7-0.2,2.5-0.6c1.7-1,2.7-3.1,2.7-5.8c0-5.2-3.7-11.6-8.2-14.2
					L13.8,33.3c-2.4-1.4-4.6-1.6-6.4-0.5c-1.7,1-2.7,3.1-2.7,5.8c0,5.1,3.5,11.3,7.9,14c0.4,2.1,0.4,4.9-0.6,5.3
					c-0.8,0.3-0.9,0.9-0.8,1.3c0.3,1.4,3.4,2.2,5.4,2.1c2.6-0.1,4.5-1.3,5.2-3.4l47.4,27.4C70.7,86,72,86.4,73.2,86.4z M9.9,33.8
					c0.9,0,2,0.3,3.1,1l56.3,32.5c4.1,2.4,7.4,8.1,7.4,12.8c0,2.1-0.7,3.6-1.9,4.3c-1.2,0.7-2.9,0.5-4.7-0.5L20.6,55.2l-0.2,1.2
					c-0.2,1.6-1.1,2.6-2.5,3c-1.7,0.5-3.7,0-4.7-0.4c1.9-1.6,1.1-6.2,0.9-7.2l-0.1-0.4l-0.3-0.2c-4.1-2.4-7.4-8.1-7.4-12.8
					c0-2.1,0.7-3.6,1.9-4.3C8.7,33.9,9.3,33.8,9.9,33.8z"/>
			</g>
			<g id="XMLID_345_">
				<path id="XMLID_388_" class="st1" d="M60.3,74.4c0.3,0.5,0.8,0.7,1.1,0.6c1.4-0.7,5.3-3,3-7c-1.8-3.2-3.3-2.5-3.7-1.8
					c-0.1,0.1-0.3,0-0.4-0.2c-0.5-1.2-2.3-4-4.1-2.5C54.4,65.1,58.7,72,60.3,74.4z"/>
				<path id="XMLID_389_" class="st0" d="M60.8,75.7c0.4,0.2,0.7,0.3,1,0.1c1.4-0.7,3.9-2.3,3.9-4.9c0-1-0.3-2.1-0.9-3.2
					c-1.1-1.9-2.1-2.6-2.8-2.9c-0.7-0.3-1.2-0.1-1.6,0.2c-0.5-0.9-1.2-1.8-2.1-2.4c-0.7-0.4-1.7-0.8-2.7,0.1
					c-2.2,1.9,2.2,9.1,4.2,12.1l0,0C60.1,75.2,60.4,75.5,60.8,75.7z M62.5,66.6c0.4,0.2,0.9,0.8,1.3,1.6c0.4,0.6,0.5,1.2,0.5,1.8
					c0,1.5-1.3,3.1-3.5,4.1c-0.1,0-0.1,0-0.2-0.1c-2.5-3.9-5.1-8.7-4-9.7c0.5-0.4,1-0.5,1.5-0.2c0.6,0.4,1.2,1.4,1.4,1.9
					c0.2,0.4,0.5,0.8,0.8,1c0.3,0.2,0.6,0.1,0.8-0.2c0.1-0.2,0.5-0.5,1-0.3C62.4,66.5,62.4,66.6,62.5,66.6z"/>
			</g>
			<g id="XMLID_337_">
				<g id="XMLID_351_">
					<path id="XMLID_372_" class="st1" d="M21.4,49.2l0.3,0.2c1,0.6,1.9,0,1.9-1.4v-2.6c0-1.4-0.8-3-1.9-3.6l-0.3-0.2
						c-1-0.6-1.9,0-1.9,1.4v2.6C19.5,47,20.4,48.6,21.4,49.2z"/>
					<path id="XMLID_373_" class="st0" d="M21.5,50.1L21.5,50.1c1.5,0.9,2.8,0.2,2.8-1.6v-3c0-1.7-1.2-3.8-2.7-4.7
						c-1.5-0.9-2.8-0.2-2.8,1.6v3C18.8,47.1,20,49.2,21.5,50.1z M21.5,42.4c0.8,0.4,1.4,1.5,1.4,2.4v3c0,0.9-0.6,1.2-1.4,0.8l0,0
						c-0.7-0.4-1.4-1.5-1.4-2.3v-3C20.2,42.3,20.8,42,21.5,42.4z"/>
				</g>
				<polygon id="XMLID_368_" class="st0" points="22.2,49.7 22.2,52.9 20.9,52.1 20.9,48.9 				"/>
				<polygon id="XMLID_401_" class="st0" points="18.9,50.2 24.1,53.2 24.1,54.8 18.9,51.8 				"/>
			</g>
			<g id="XMLID_19_">
				<path id="XMLID_18_" class="st1" d="M31.2,54v3.9c0,0.4,0.3,1,0.7,1.2l3,1.8c0.4,0.2,0.7,0,0.7-0.4v-3.9l2.2,1.3
					c0.2,0.1,0.3-0.1,0.2-0.3l-3.9-7.9c-0.3-0.7-1-1.1-1.3-0.8l-4,3.3c-0.2,0.1,0,0.6,0.2,0.7L31.2,54z"/>
				<path id="XMLID_20_" class="st0" d="M35.2,61.5c-0.2,0-0.4-0.1-0.6-0.2l-3-1.8c-0.6-0.3-1-1.1-1-1.7v-3.5l-1.8-1
					c-0.3-0.2-0.6-0.6-0.6-1c0-0.3,0.1-0.6,0.3-0.7l4-3.3c0.2-0.2,0.6-0.3,0.9-0.2c0.5,0.1,1,0.6,1.3,1.2l3.9,7.9
					c0.2,0.4,0.1,0.8-0.1,1c-0.2,0.2-0.6,0.3-0.9,0.1l-1.4-0.8v2.9c0,0.4-0.2,0.8-0.5,1C35.6,61.4,35.4,61.5,35.2,61.5z M29.5,52.3
					l2.3,1.4v4.2c0,0.2,0.2,0.6,0.4,0.7l2.8,1.6l0-4.6l1.9,1.1l-3.3-6.8c-0.2-0.3-0.4-0.5-0.5-0.5L29.5,52.3z"/>
			</g>
			<g id="XMLID_34_">
				<g id="XMLID_17_">
					<path id="XMLID_29_" class="st1" d="M49.8,69.1l-5.6-3.2c-0.9-0.5-1.6-1.9-1.6-3v-5.9c0-1.2,0.7-1.7,1.6-1.2l5.6,3.2
						c0.9,0.5,1.6,1.9,1.6,3v5.9C51.4,69.1,50.7,69.6,49.8,69.1z"/>
					<path id="XMLID_31_" class="st0" d="M50.5,69.8c-0.3,0-0.6-0.1-0.9-0.3L44,66.3c-1-0.6-1.8-2.1-1.8-3.5v-5.9
						c0-0.8,0.3-1.4,0.8-1.7c0.5-0.3,1-0.2,1.6,0.1l5.6,3.2c1,0.6,1.8,2.1,1.8,3.5v5.9c0,0.8-0.3,1.4-0.8,1.7
						C50.9,69.8,50.7,69.8,50.5,69.8z M43.6,56.1c0,0-0.1,0-0.1,0c-0.1,0.1-0.3,0.3-0.3,0.8v5.9c0,1,0.6,2.1,1.3,2.5l5.6,3.2
						c0.1,0.1,0.3,0.2,0.5,0.1c0.1-0.1,0.3-0.3,0.3-0.8V62c0-1-0.6-2.1-1.3-2.5L44,56.2C43.9,56.2,43.7,56.1,43.6,56.1z"/>
				</g>
				<g id="XMLID_23_">
					<path id="XMLID_30_" class="st0" d="M47.3,62.8c-0.1,0-0.2,0-0.3,0c-0.4-0.1-0.8-0.4-1-0.9l-3.4-6l1.1-0.6l3.3,6
						c0.1,0.1,0.1,0.2,0.2,0.2l3.3-1.9l0.6,1.1l-3.4,2C47.7,62.8,47.5,62.8,47.3,62.8z"/>
				</g>
			</g>
		</g>
		<g id="XMLID_35_">
			<g id="XMLID_335_">
				<path id="XMLID_441_" class="st1" d="M44.2,130.3c-4.3-2.5-7.8-8.5-7.8-13.5s3.5-7,7.8-4.5L78.6,132c4.3,2.5,7.8,8.5,7.8,13.5
					c0,5-3.5,7-7.8,4.5l-26.4-15.1c-1,6.7-11.2,2.9-9,2C45.4,136,44.2,130.3,44.2,130.3L44.2,130.3z"/>
				<path id="XMLID_356_" class="st2" d="M40.6,133.6c-4.3-2.5-7.8-8.5-7.8-13.5s3.5-7,7.8-4.5l34.4,19.7c4.3,2.5,7.8,8.5,7.8,13.5
					s-3.5,7-7.8,4.5l-26.4-15.1c-1,6.7-11.2,2.9-9,2C41.8,139.3,40.6,133.6,40.6,133.6L40.6,133.6z"/>
				<path id="XMLID_357_" class="st0" d="M82.1,151.9c0.9,0,1.7-0.2,2.5-0.6c1.7-1,2.7-3.1,2.7-5.8c0-5.2-3.7-11.6-8.2-14.2
					l-34.4-19.7c-2.4-1.4-4.6-1.6-6.4-0.5c-1.7,1-2.7,3.1-2.7,5.8c0,5.1,3.5,11.3,7.9,14c0.4,2.1,0.4,4.9-0.6,5.3
					c-0.8,0.3-0.9,0.9-0.8,1.3c0.3,1.4,3.4,2.2,5.4,2.1c2.6-0.1,4.5-1.3,5.2-3.5l25.5,14.5C79.5,151.5,80.9,151.9,82.1,151.9z
					 M40.7,112.1c0.9,0,2,0.3,3.1,1l34.4,19.7c4.1,2.3,7.4,8.1,7.4,12.8c0,2.1-0.7,3.6-1.9,4.3c-1.2,0.7-2.9,0.5-4.7-0.5l-27.5-15.7
					l-0.2,1.2c-0.2,1.6-1.1,2.6-2.5,3c-1.7,0.5-3.7,0-4.7-0.4c1.9-1.7,1.1-6.2,0.9-7.2l-0.1-0.4l-0.3-0.2c-4.1-2.4-7.4-8.1-7.4-12.8
					c0-2.1,0.7-3.6,1.9-4.3C39.6,112.2,40.1,112.1,40.7,112.1z"/>
			</g>
			<g id="XMLID_383_">
				<path id="XMLID_387_" class="st1" d="M52.8,131.2c0.3,0.5,0.8,0.7,1.1,0.6c1.5-0.7,5.3-3,3-7c-1.8-3.2-3.4-2.5-3.7-1.8
					c-0.1,0.1-0.3,0-0.4-0.2c-0.5-1.2-2.3-4.1-4.1-2.5C46.8,121.8,51.2,128.8,52.8,131.2z"/>
				<path id="XMLID_384_" class="st0" d="M53.3,132.5c0.4,0.2,0.7,0.3,1,0.1c1.4-0.7,3.9-2.3,3.9-5c0-1-0.3-2.1-0.9-3.2
					c-1.1-1.9-2.1-2.6-2.8-2.9c-0.7-0.3-1.3-0.1-1.6,0.2c-0.5-0.9-1.2-1.9-2.1-2.4c-0.7-0.4-1.7-0.8-2.7,0.1
					c-2.2,1.9,2.2,9.1,4.2,12.1l0,0C52.6,132,52.9,132.3,53.3,132.5z M55,123.4c0.4,0.2,0.9,0.8,1.4,1.6c0.4,0.6,0.5,1.2,0.5,1.8
					c0,1.5-1.3,3.1-3.5,4.1c-0.1,0-0.1,0-0.2-0.1c-2.6-3.9-5.1-8.8-4-9.8c0.5-0.4,1-0.5,1.6-0.2c0.7,0.4,1.2,1.4,1.4,1.9
					c0,0.1,0.1,0.1,0.1,0.2c0.2,0.4,0.5,0.7,0.7,0.8c0.3,0.2,0.6,0.1,0.8-0.2c0.1-0.2,0.5-0.5,1-0.3C54.9,123.3,54.9,123.3,55,123.4
					z"/>
			</g>
			<g id="XMLID_36_">
				<g id="XMLID_39_">
					<path id="XMLID_43_" class="st1" d="M69.9,141.5l-5.6-3.2c-0.9-0.5-1.6-1.9-1.6-3v-5.9c0-1.2,0.7-1.7,1.6-1.2l5.6,3.2
						c0.9,0.5,1.6,1.9,1.6,3v5.9C71.5,141.5,70.8,142,69.9,141.5z"/>
					<path id="XMLID_40_" class="st0" d="M70.5,142.3c-0.3,0-0.6-0.1-0.9-0.3l-5.6-3.2c-1-0.6-1.8-2.1-1.8-3.5v-5.9
						c0-0.8,0.3-1.4,0.8-1.7c0.5-0.3,1-0.2,1.6,0.1l5.6,3.2c1,0.6,1.8,2.1,1.8,3.5v5.9c0,0.8-0.3,1.4-0.8,1.7
						C71,142.2,70.8,142.3,70.5,142.3z M63.7,128.5c0,0-0.1,0-0.1,0c-0.1,0.1-0.3,0.3-0.3,0.8v5.9c0,1,0.6,2.1,1.3,2.5l5.6,3.2
						c0.1,0.1,0.3,0.2,0.5,0.1c0.1-0.1,0.3-0.3,0.3-0.8v-5.9c0-1-0.6-2.1-1.3-2.5l-5.6-3.2C63.9,128.6,63.8,128.5,63.7,128.5z"/>
				</g>
				<g id="XMLID_37_">
					<path id="XMLID_38_" class="st0" d="M67.4,135.3c-0.1,0-0.2,0-0.3,0c-0.4-0.1-0.8-0.4-1-0.9l-3.4-6l1.1-0.6l3.3,6
						c0.1,0.1,0.1,0.2,0.2,0.2l3.3-1.9l0.6,1.1l-3.4,2C67.7,135.2,67.6,135.3,67.4,135.3z"/>
				</g>
			</g>
		</g>
	</g>
	<g id="_x34_">
		<path id="XMLID_311_" class="st2" d="M220.7,54.5L220.7,54.5c-4.4-2.6-8.2-1.8-9.7,0.4c-0.3,0.4-0.9,0.1-1.2-0.7
			c-1.5-3.8-5.2-9.5-9.5-12.1v0c-2.8-1.7-5.4-2-7.3-1l0,0l-0.2,0.1c-0.1,0.1-1,0.6-1.1,0.6l-12,6.9c0,0,9.5,31.8,9.7,33.2
			c0.3,1.4,11.6,20.4,11.6,20.4l12.4-7.1c0.1-0.1,0.3-0.1,0.4-0.2l13.9-10.5c2.5-1.9,4-5.6,4-10.3l0,0
			C231.7,67,226.8,58.1,220.7,54.5z"/>
		<path id="XMLID_303_" class="st0" d="M191.3,41.2c0.1,0,1-0.6,1.1-0.6l0.8-0.5c2.2-0.8,4.8-0.2,7.5,1.4c4.3,2.6,8.2,8.3,9.9,12.5
			c0,0,0,0.1,0,0.1c1.8-2.2,5.9-3,10.5-0.3c6.2,3.8,11.3,13,11.3,20.6c0,4.9-1.5,8.8-4.3,10.9l-13.9,10.5c-0.2,0.1-0.4,0.2-0.6,0.3
			l-13,7.5l-0.4-0.7c-2.7-4.5-11.5-19.3-11.7-20.7c-0.2-1-5.9-20.3-9.7-33.1l-0.2-0.7L191.3,41.2z M190.2,81.9
			c0.3,1.1,6.8,12.3,11.1,19.5l11.7-6.7c0.2-0.1,0.3-0.1,0.3-0.2l13.9-10.5c2.3-1.8,3.6-5.2,3.6-9.6c0-7-4.7-15.6-10.5-19.1
			c-4-2.4-7.4-1.7-8.6,0.2c-0.1,0.2-0.2,0.3-0.4,0.4l4.9,7.2l-8.2,8.9L194,74.7c0,0-5.4-10-5.4-12c0-2,2.3-10.5,2.3-10.5l11.8-7.2
			c-0.9-0.8-1.7-1.5-2.6-2.1c-2.5-1.5-4.8-1.8-6.6-1l-0.2,0.1c-0.1,0.1-1,0.5-1.1,0.6l-11.5,6.6C182.2,54.6,189.9,80.5,190.2,81.9z"
			/>
		<path id="XMLID_305_" class="st2" d="M220.7,54.7L220.7,54.7c-2.9-1.8-5.6-2-7.5-1.2l0,0l-0.2,0.1c-0.4,0.2-0.7,0.4-1,0.6
			l-11.3,6.6l-5.8,19.1l5.8,21.8c0.1,0.5,0.7,0.8,1.2,0.5l11.5-6.6c0.1-0.1,0.3-0.1,0.4-0.2l13.9-10.5c2.5-1.9,4-5.6,4-10.3
			C231.6,67.2,226.7,58.3,220.7,54.7z"/>
		<path id="XMLID_317_" class="st0" d="M200,60.1l11.6-6.7c0.3-0.2,0.7-0.4,1.1-0.6l0.6-0.4l0.1,0.1c2.3-0.7,5-0.1,7.7,1.5
			c6.2,3.8,11.3,13,11.3,20.6c0,4.9-1.5,8.8-4.3,10.9L214.2,96c-0.2,0.1-0.4,0.2-0.6,0.3l-11.4,6.6c-0.2,0.1-0.4,0.2-0.6,0.2
			l-0.2,0.1l0-0.1c-0.2,0-0.4,0-0.6-0.1c-0.5-0.2-0.8-0.6-1-1.1l-5.9-22L200,60.1z M220.3,55.4c-2.4-1.5-4.9-1.9-6.8-1.2l-0.1,0.1
			c-0.4,0.2-0.6,0.3-0.9,0.5l-11.1,6.5l-5.7,18.6l4.4,16.4l6.4-5.5l8.8-20.4l12.2-7.2C225.6,59.9,223,57.1,220.3,55.4z"/>
		<g id="XMLID_290_">
			<path id="XMLID_294_" class="st1" d="M214.9,92c2.5-1.9,4-5.6,4-10.3v0c0-7.3-4.9-16.2-10.9-19.8l0,0c-4.4-2.6-8.2-1.8-9.7,0.4
				c-0.3,0.4-0.9,0.1-1.2-0.7c-1.5-3.8-5.2-9.5-9.5-12.1h0c-6.1-3.7-11-0.7-11,6.6v0c0,4.7,1.4,10,4,15.1l13.9,27.2
				c1.8,3.5,4.8,5.3,6.6,4L214.9,92z"/>
			<path id="XMLID_293_" class="st2" d="M208.8,95.6c2.2-1.7,3.4-4.8,3.4-8.8l0,0c0-6.3-4.2-13.9-9.4-17l0,0
				c-3.7-2.3-7.1-1.6-8.3,0.4c-0.2,0.3-0.8,0.1-1-0.6c-1.3-3.2-4.5-8.1-8.2-10.3l0,0c-5.2-3.1-9.4-0.6-9.4,5.7l0,0
				c0,4,1.2,8.6,3.4,12.9l11.9,23.3c1.5,3,4.2,4.6,5.7,3.4L208.8,95.6z"/>
			<path id="XMLID_291_" class="st0" d="M199.7,103.7c-0.3,0-0.6,0-0.9-0.1c-1.9-0.5-3.8-2.3-5.1-4.8l-13.9-27.2
				c-2.6-5.2-4.1-10.6-4.1-15.4c0-3.9,1.3-6.8,3.6-8.2c2.3-1.4,5.4-1.1,8.6,0.8c4.3,2.6,8.2,8.3,9.9,12.5c0,0,0,0.1,0,0.1
				c1.8-2.2,5.9-3,10.5-0.3c6.2,3.8,11.3,13,11.3,20.6c0,4.9-1.5,8.8-4.3,10.9l0,0l-13.9,10.5C201,103.5,200.4,103.7,199.7,103.7z
				 M182.6,48.8c-0.9,0-1.7,0.2-2.5,0.7c-1.8,1.1-2.8,3.5-2.8,6.7c0,4.5,1.4,9.7,3.9,14.7l13.9,27.2c1,2,2.6,3.6,4,3.9
				c0.6,0.1,1,0.1,1.4-0.2l13.9-10.5c2.3-1.8,3.6-5.2,3.6-9.6c0-7-4.7-15.6-10.5-19.1c-4-2.4-7.4-1.7-8.6,0.2
				c-0.2,0.4-0.7,0.6-1.1,0.5c-0.6-0.1-1.2-0.6-1.5-1.4c-1.5-3.9-5.2-9.3-9.2-11.7C185.5,49.3,184,48.8,182.6,48.8z"/>
		</g>
	</g>
	<g>
		<g id="XMLID_248_">
			<g id="XMLID_5249_">
				<g id="XMLID_5227_">
					<path id="XMLID_5240_" class="st3" d="M101,85.8L101,85.8l-6.9,3.9l31.4,57.2l6.7-3.8c0.2-0.1,0,0,0.2-0.1l0,0l0,0
						c0.9-0.7,1.5-2,1.6-3.9l0.6-28.1c0.1-3.8-2.1-8.2-4.9-9.8l-25.1-15.2C103.2,85.1,102,85.1,101,85.8z"/>
					<path id="XMLID_5247_" class="st1" d="M101,85.8L101,85.8l-6.9,3.9l31.4,57.2l6.7-3.8c0.2-0.1,0,0,0.2-0.1l0,0l0,0
						c0.9-0.7,1.5-2,1.6-3.9l0.6-28.1c0.1-3.8-2.1-8.2-4.9-9.8l-25.1-15.2C103.2,85.1,102,85.1,101,85.8z"/>
					<path id="XMLID_5241_" class="st0" d="M133.3,104.5c-0.9-1.6-2.1-3-3.4-3.8l-25.1-15.2c-1.5-0.9-3-0.9-4.1-0.1l-6.7,3.8
						l31.3,58.3l7.1-4c0.1,0,0.2-0.1,0.2-0.2c1.1-0.8,1.7-2.3,1.7-4.2L135,111C135.1,108.8,134.4,106.5,133.3,104.5z M94.7,89.8
						l6.5-3.7c0.8-0.6,1.9-0.5,3.1,0.2l25.1,15.2c2.7,1.6,4.8,5.9,4.7,9.5l-0.6,28.1c0,1.7-0.5,2.9-1.4,3.6c0,0-0.1,0.1-0.1,0.1l0,0
						l-6.3,3.6L94.7,89.8z"/>
				</g>
				<g id="XMLID_5226_">
					<path id="XMLID_5236_" class="st1" d="M97.9,89.7l25.1,15.2c2.8,1.7,5,6.1,4.9,9.8l-0.6,28.1c-0.1,3.8-2.4,5.4-5.2,3.7
						L97,131.4c-2.8-1.7-5-6.1-4.9-9.8l0.6-28.1C92.8,89.7,95.1,88,97.9,89.7z"/>
					<path id="XMLID_320_" class="st2" d="M100.4,88.1l25.1,15.2c2.8,1.7,5,6.1,4.9,9.8l-0.6,28.1c-0.1,3.8-2.4,5.4-5.2,3.7
						l-25.1-15.2c-2.8-1.7-5-6.1-4.9-9.8l0.6-28.1C95.3,88.1,97.6,86.4,100.4,88.1z"/>
					<path id="XMLID_5237_" class="st0" d="M126.6,108.3c-0.9-1.6-2.1-3-3.4-3.8L98.1,89.3c-1.3-0.8-2.7-0.9-3.8-0.3
						c-1.3,0.7-2,2.3-2.1,4.4l-0.6,28.1c-0.1,3.9,2.2,8.5,5.1,10.2l25.1,15.2c1.3,0.8,2.7,0.9,3.8,0.3c1.3-0.7,2-2.3,2.1-4.4
						l0.6-28.1C128.4,112.6,127.7,110.3,126.6,108.3z M94.2,127.5c-1-1.8-1.6-4-1.6-6l0.6-28.1c0-1.8,0.6-3.2,1.6-3.7
						c0.8-0.4,1.8-0.3,2.9,0.3l25.1,15.2c2.7,1.6,4.8,5.9,4.7,9.5l-0.6,28.1c0,1.8-0.6,3.2-1.6,3.7c-0.8,0.4-1.8,0.3-2.9-0.3
						L97.3,131C96.1,130.3,95,129,94.2,127.5z"/>
				</g>
				<polygon id="XMLID_5244_" class="st0" points="126.5,109.1 133.3,105.4 134.4,108.5 134.7,113.9 133.9,140.6 133,142.8 
					125.6,146.9 127.3,144.8 127.4,139.1 127.7,112.3 				"/>
				<polygon id="XMLID_5245_" class="st0" points="125,106.7 131.8,103 130.3,101.5 123.5,105.3 				"/>
				<polygon id="XMLID_5246_" class="st0" points="97.6,89.4 104,85.8 102.7,85.3 98,87 94.5,89.3 97.6,89.4 				"/>
			</g>
			<g id="XMLID_258_">
				<path id="XMLID_256_" class="st0" d="M147,109.2c0.5,0.3,0.9,0.1,0.9-0.5c0-0.6-0.4-1.3-0.9-1.6c-0.5-0.3-0.9-0.1-0.9,0.5
					S146.5,108.9,147,109.2z"/>
				<path id="XMLID_255_" class="st0" d="M146.9,114.7c0.5,0.3,0.9,0.1,0.9-0.5c0-0.6-0.4-1.3-0.9-1.6c-0.5-0.3-0.9-0.1-0.9,0.5
					C146,113.6,146.4,114.4,146.9,114.7z"/>
				<path id="XMLID_254_" class="st0" d="M146.8,120.1c0.5,0.3,0.9,0.1,0.9-0.5c0-0.6-0.4-1.3-0.9-1.6c-0.5-0.3-0.9-0.1-0.9,0.5
					C145.9,119.1,146.3,119.8,146.8,120.1z"/>
				<path id="XMLID_253_" class="st0" d="M146.6,125.6c0.5,0.3,0.9,0.1,0.9-0.5c0-0.6-0.4-1.3-0.9-1.6c-0.5-0.3-0.9-0.1-0.9,0.5
					C145.8,124.5,146.1,125.3,146.6,125.6z"/>
				<path id="XMLID_252_" class="st0" d="M146.5,131c0.5,0.3,0.9,0.1,0.9-0.5c0-0.6-0.4-1.3-0.9-1.6c-0.5-0.3-0.9-0.1-0.9,0.5
					C145.6,130,146,130.7,146.5,131z"/>
				<path id="XMLID_251_" class="st0" d="M146.4,136.5c0.5,0.3,0.9,0.1,0.9-0.5c0-0.6-0.4-1.3-0.9-1.6c-0.5-0.3-0.9-0.1-0.9,0.5
					C145.5,135.4,145.9,136.2,146.4,136.5z"/>
				<path id="XMLID_250_" class="st0" d="M146.3,141.9c0.5,0.3,0.9,0.1,0.9-0.5c0-0.6-0.4-1.3-0.9-1.6c-0.5-0.3-0.9-0.1-0.9,0.5
					C145.4,140.9,145.8,141.6,146.3,141.9z"/>
				<path id="XMLID_249_" class="st0" d="M146.2,147.4c0.5,0.3,0.9,0.1,0.9-0.5c0-0.6-0.4-1.3-0.9-1.6c-0.5-0.3-0.9-0.1-0.9,0.5
					C145.3,146.4,145.7,147.1,146.2,147.4z"/>
				<path id="XMLID_247_" class="st0" d="M142.4,100.9c0.5,0.3,0.9,0.1,0.9-0.5c0-0.6-0.4-1.3-0.9-1.6c-0.5-0.3-0.9-0.1-0.9,0.5
					C141.5,99.9,141.9,100.6,142.4,100.9z"/>
				<path id="XMLID_246_" class="st0" d="M142.3,106.4c0.5,0.3,0.9,0.1,0.9-0.5c0-0.6-0.4-1.3-0.9-1.6c-0.5-0.3-0.9-0.1-0.9,0.5
					C141.4,105.4,141.8,106.1,142.3,106.4z"/>
				<path id="XMLID_245_" class="st0" d="M142.2,111.8c0.5,0.3,0.9,0.1,0.9-0.5c0-0.6-0.4-1.3-0.9-1.6c-0.5-0.3-0.9-0.1-0.9,0.5
					C141.3,110.8,141.7,111.5,142.2,111.8z"/>
				<path id="XMLID_244_" class="st0" d="M142.1,117.3c0.5,0.3,0.9,0.1,0.9-0.5c0-0.6-0.4-1.3-0.9-1.6c-0.5-0.3-0.9-0.1-0.9,0.5
					C141.2,116.3,141.6,117,142.1,117.3z"/>
				<path id="XMLID_243_" class="st0" d="M142,122.7c0.5,0.3,0.9,0.1,0.9-0.5c0-0.6-0.4-1.3-0.9-1.6c-0.5-0.3-0.9-0.1-0.9,0.5
					C141.1,121.7,141.5,122.4,142,122.7z"/>
				
					<ellipse id="XMLID_242_" transform="matrix(0.8763 -0.4817 0.4817 0.8763 -43.6962 84.0698)" class="st0" cx="141.9" cy="127.1" rx="0.7" ry="1.3"/>
				<path id="XMLID_241_" class="st0" d="M141.8,133.6c0.5,0.3,0.9,0.1,0.9-0.5c0-0.6-0.4-1.3-0.9-1.6c-0.5-0.3-0.9-0.1-0.9,0.5
					C140.9,132.6,141.3,133.3,141.8,133.6z"/>
				<path id="XMLID_240_" class="st0" d="M141.6,139.1c0.5,0.3,0.9,0.1,0.9-0.5c0-0.6-0.4-1.3-0.9-1.6c-0.5-0.3-0.9-0.1-0.9,0.5
					C140.8,138.1,141.1,138.8,141.6,139.1z"/>
				
					<ellipse id="XMLID_239_" transform="matrix(0.8763 -0.4817 0.4817 0.8763 -51.6148 85.9286)" class="st0" cx="141.5" cy="143.5" rx="0.7" ry="1.3"/>
				
					<ellipse id="XMLID_238_" transform="matrix(0.8763 -0.4817 0.4817 0.8763 -54.2543 86.5482)" class="st0" cx="141.4" cy="148.9" rx="0.7" ry="1.3"/>
				<path id="XMLID_237_" class="st0" d="M137.7,98.1c0.5,0.3,0.9,0.1,0.9-0.5c0-0.6-0.4-1.3-0.9-1.6c-0.5-0.3-0.9-0.1-0.9,0.5
					C136.8,97.1,137.2,97.8,137.7,98.1z"/>
				<path id="XMLID_236_" class="st0" d="M137.6,103.5c0.5,0.3,0.9,0.1,0.9-0.5c0-0.6-0.4-1.3-0.9-1.6c-0.5-0.3-0.9-0.1-0.9,0.5
					C136.7,102.5,137.1,103.2,137.6,103.5z"/>
				<path id="XMLID_235_" class="st0" d="M137.5,109c0.5,0.3,0.9,0.1,0.9-0.5c0-0.6-0.4-1.3-0.9-1.6c-0.5-0.3-0.9-0.1-0.9,0.5
					C136.6,108,137,108.7,137.5,109z"/>
				
					<ellipse id="XMLID_234_" transform="matrix(0.8763 -0.4817 0.4817 0.8763 -37.6275 80.211)" class="st0" cx="137.4" cy="113.4" rx="0.7" ry="1.3"/>
				<path id="XMLID_233_" class="st0" d="M137.3,119.9c0.5,0.3,0.9,0.1,0.9-0.5c0-0.6-0.4-1.3-0.9-1.6c-0.5-0.3-0.9-0.1-0.9,0.5
					C136.4,118.9,136.8,119.6,137.3,119.9z"/>
				<path id="XMLID_232_" class="st0" d="M137.2,125.3c0.5,0.3,0.9,0.1,0.9-0.5c0-0.6-0.4-1.3-0.9-1.6c-0.5-0.3-0.9-0.1-0.9,0.5
					C136.3,124.3,136.7,125,137.2,125.3z"/>
				<path id="XMLID_231_" class="st0" d="M137,130.8c0.5,0.3,0.9,0.1,0.9-0.5c0-0.6-0.4-1.3-0.9-1.6c-0.5-0.3-0.9-0.1-0.9,0.5
					C136.2,129.8,136.6,130.5,137,130.8z"/>
				<path id="XMLID_230_" class="st0" d="M136.9,136.2c0.5,0.3,0.9,0.1,0.9-0.5c0-0.6-0.4-1.3-0.9-1.6c-0.5-0.3-0.9-0.1-0.9,0.5
					C136,135.2,136.4,135.9,136.9,136.2z"/>
				<path id="XMLID_229_" class="st0" d="M136.8,141.7c0.5,0.3,0.9,0.1,0.9-0.5c0-0.6-0.4-1.3-0.9-1.6c-0.5-0.3-0.9-0.1-0.9,0.5
					C135.9,140.7,136.3,141.4,136.8,141.7z"/>
				<path id="XMLID_228_" class="st0" d="M136.7,147.1c0.5,0.3,0.9,0.1,0.9-0.5c0-0.6-0.4-1.3-0.9-1.6c-0.5-0.3-0.9-0.1-0.9,0.5
					C135.8,146.1,136.2,146.8,136.7,147.1z"/>
				<path id="XMLID_227_" class="st0" d="M133.1,95.3c0.5,0.3,0.9,0.1,0.9-0.5c0-0.6-0.4-1.3-0.9-1.6c-0.5-0.3-0.9-0.1-0.9,0.5
					C132.2,94.2,132.6,95,133.1,95.3z"/>
				<path id="XMLID_226_" class="st0" d="M132.9,100.7c0.5,0.3,0.9,0.1,0.9-0.5c0-0.6-0.4-1.3-0.9-1.6c-0.5-0.3-0.9-0.1-0.9,0.5
					C132.1,99.7,132.5,100.4,132.9,100.7z"/>
				<path id="XMLID_225_" class="st0" d="M128.4,92.4c0.5,0.3,0.9,0.1,0.9-0.5c0-0.6-0.4-1.3-0.9-1.6c-0.5-0.3-0.9-0.1-0.9,0.5
					C127.5,91.4,127.9,92.1,128.4,92.4z"/>
				<path id="XMLID_224_" class="st0" d="M128.3,97.9c0.5,0.3,0.9,0.1,0.9-0.5c0-0.6-0.4-1.3-0.9-1.6c-0.5-0.3-0.9-0.1-0.9,0.5
					C127.4,96.9,127.8,97.6,128.3,97.9z"/>
				
					<ellipse id="XMLID_223_" transform="matrix(0.8763 -0.4817 0.4817 0.8763 -27.3553 70.5664)" class="st0" cx="123.8" cy="88.6" rx="0.7" ry="1.3"/>
				<path id="XMLID_222_" class="st0" d="M123.6,95.1c0.5,0.3,0.9,0.1,0.9-0.5c0-0.6-0.4-1.3-0.9-1.6c-0.5-0.3-0.9-0.1-0.9,0.5
					C122.7,94,123.1,94.8,123.6,95.1z"/>
				<path id="XMLID_221_" class="st0" d="M119.1,86.8c0.5,0.3,0.9,0.1,0.9-0.5c0-0.6-0.4-1.3-0.9-1.6c-0.5-0.3-0.9-0.1-0.9,0.5
					C118.2,85.8,118.6,86.5,119.1,86.8z"/>
				<path id="XMLID_220_" class="st0" d="M119,92.2c0.5,0.3,0.9,0.1,0.9-0.5c0-0.6-0.4-1.3-0.9-1.6c-0.5-0.3-0.9-0.1-0.9,0.5
					C118.1,91.2,118.5,91.9,119,92.2z"/>
				<path id="XMLID_219_" class="st0" d="M114.4,84c0.5,0.3,0.9,0.1,0.9-0.5c0-0.6-0.4-1.3-0.9-1.6c-0.5-0.3-0.9-0.1-0.9,0.5
					C113.5,82.9,113.9,83.7,114.4,84z"/>
				<path id="XMLID_178_" class="st0" d="M114.3,89.4c0.5,0.3,0.9,0.1,0.9-0.5c0-0.6-0.4-1.3-0.9-1.6c-0.5-0.3-0.9-0.1-0.9,0.5
					C113.4,88.4,113.8,89.1,114.3,89.4z"/>
				<path id="XMLID_141_" class="st0" d="M109.7,81.1c0.5,0.3,0.9,0.1,0.9-0.5c0-0.6-0.4-1.3-0.9-1.6c-0.5-0.3-0.9-0.1-0.9,0.5
					C108.9,80.1,109.3,80.8,109.7,81.1z"/>
				<path id="XMLID_140_" class="st0" d="M109.6,86.6c0.5,0.3,0.9,0.1,0.9-0.5c0-0.6-0.4-1.3-0.9-1.6c-0.5-0.3-0.9-0.1-0.9,0.5
					C108.8,85.6,109.1,86.3,109.6,86.6z"/>
				<path id="XMLID_129_" class="st0" d="M105,83.8c0.5,0.3,0.9,0.1,0.9-0.5c0-0.6-0.4-1.3-0.9-1.6c-0.5-0.3-0.9-0.1-0.9,0.5
					C104.1,82.7,104.5,83.5,105,83.8z"/>
			</g>
		</g>
		<g id="XMLID_516_">
			<path id="XMLID_473_" class="st1" d="M118.1,134.7c-0.7-3.2-2.2-8.2-5.3-10.2c-0.6-0.4-1.1-0.7-1.6-1l-0.1-2.1
				c0.6-0.3,1.1-0.9,1.3-1.8l0,0l1.3-5c0-0.1,0.1-0.2,0.1-0.4l0-0.1l0,0c0.1-0.3,0.1-0.6,0.1-0.9c0.1-3.4-2.1-7.7-5-9.5
				c-2.9-1.8-5.4-0.5-5.5,2.9c0,0.3,0,0.7,0,1l0,0l0,0.1c0,0.2,0,0.4,0.1,0.6l0.8,6.2l0,0c0.1,1.1,0.5,2.3,1.1,3.3l-0.3,1.9
				c-0.5-0.3-1-0.6-1.6-1c-3.2-2-5,0.9-5.9,3.2c-0.4,1,0.3,2.8,1.5,3.5l8.5,5.4l0.4,0.2l8.5,5.3C117.6,137,118.4,136.2,118.1,134.7z
				"/>
			<path id="XMLID_783_" class="st0" d="M119.6,135.8c-0.3,0.2-0.7,0.3-1.2,0.1c-0.2-0.1-0.3-0.1-0.5-0.2l-17.3-10.9
				c-1.3-0.8-2.1-2.8-1.6-4c0.3-0.7,0.7-1.6,1.2-2.3l0.6-0.7c0.1-0.1,0.1-0.1,0.2-0.2c0.1-0.1,0.1-0.1,0.2-0.1
				c0.1-0.1,0.2-0.2,0.3-0.2c0.1,0,0.1-0.1,0.2-0.1c0.1-0.1,0.3-0.1,0.4-0.2c0,0,0.1,0,0.1-0.1c0,0,0,0,0.1,0c0.1,0,0.1,0,0.2,0
				c0.1,0,0.2-0.1,0.4-0.1c0,0,0.1,0,0.1,0c0.2,0,0.3,0,0.5,0c0.1,0,0.1,0,0.2,0c0.1,0,0.2,0,0.4,0.1c0.1,0,0.2,0,0.2,0.1
				c0.1,0,0.3,0.1,0.4,0.1c0.1,0,0.2,0.1,0.3,0.1c0.1,0,0.2,0.1,0.3,0.1c0.1,0,0.1,0.1,0.2,0.1l0.1,0.1c0.1,0.1,0.4,0.3,0.7,0.4
				c0.1,0.1,0.2,0.1,0.3,0.2l0.2-1.2c-0.6-1.1-1-2.3-1.1-3.4l-0.8-6.2c0-0.2-0.1-0.4-0.1-0.6l0-0.8c0-0.1,0-0.3,0-0.4
				c0-0.9,0.2-1.7,0.6-2.3l0.4-0.6c0,0,0,0,0,0c0.3-0.3,0.6-0.6,0.9-0.7c0,0,0,0,0.1,0c0,0,0,0,0,0c0.2-0.1,0.3-0.1,0.5-0.2
				c0,0,0.1,0,0.1,0c0.2,0,0.4-0.1,0.6-0.1c0,0,0,0,0,0c0.4,0,0.8,0,1.3,0.2c0.1,0,0.1,0,0.2,0.1c0.1,0,0.3,0.1,0.4,0.2
				c0.1,0,0.2,0.1,0.3,0.1c0.1,0.1,0.2,0.1,0.3,0.2c0.1,0.1,0.2,0.1,0.3,0.2c3,1.9,5.3,6.3,5.2,9.8c0,0.2,0,0.5-0.1,0.8l0,0l0,0l0,0
				l0,0.1l-0.1,0.2c0,0.1-0.1,0.3-0.1,0.4l-1.3,5c-0.1,0.2-0.1,0.4-0.2,0.6c-0.2,0.6-0.6,1-1.1,1.3l0.1,1.7l1.4,0.9
				c3.2,2,4.7,6.8,5.5,10.5c0.1,0.5,0.1,0.9,0,1.2C120,135.3,119.8,135.6,119.6,135.8z M117.6,134.6c-0.6-2.9-2.1-7.9-5.1-9.8
				l-1.7-1.1l-0.2-2.5l0.2-0.1c0.6-0.3,0.9-0.8,1.1-1.6l1.3-5c0-0.1,0.1-0.2,0.1-0.4l0-0.1c0.1-0.3,0.1-0.6,0.1-0.9
				c0.1-3.3-2-7.4-4.8-9.2c-0.8-0.5-1.7-0.8-2.4-0.8c-0.4,0.6-0.7,1.4-0.7,2.4c0,0.3,0,0.6,0,1l0,0.2c0,0.2,0,0.3,0.1,0.5l0.8,6.3
				c0.1,1,0.5,2.2,1.1,3.2l0.1,0.1l-0.3,1.9l0,0.3l-0.3,0.2l-1.8,0.9l-1.7-1.1c-0.7-0.4-1.4-0.6-2-0.6c-0.7,0.7-1.2,1.8-1.6,2.6
				c-0.3,0.9,0.3,2.5,1.3,3.1L117.6,134.6z"/>
		</g>
	</g>
</g>
</svg>
