<?xml version="1.0" encoding="utf-8"?>
<!-- Generator: Adobe Illustrator 22.1.0, SVG Export Plug-In . SVG Version: 6.00 Build 0)  -->
<svg version="1.1" id="content" xmlns="http://www.w3.org/2000/svg" xmlns:xlink="http://www.w3.org/1999/xlink" x="0px" y="0px"
	 viewBox="0 0 42.3 83.3" style="enable-background:new 0 0 42.3 83.3;" xml:space="preserve">
<style type="text/css">
	.st0{fill:#FFBE2E;}
	.st1{fill:#FFEB00;}
	.st2{fill:#FFFFFF;}
	.st3{fill:#16110D;}
</style>
<g id="XMLID_7629_">
	<g id="XMLID_6917_">
		<path id="XMLID_7266_" class="st0" d="M34.7,36.7L18.7,56c-1.4,1.7-3.3,2.7-5.4,3l-0.2,0c-2.2,0.3-4.5-0.4-6.2-1.8l0,0
			c-1.7-1.4-2.8-3.5-3-5.8l0-0.1c-0.2-2.1,0.5-4.2,1.9-5.9L21.7,26l4.3,0l7.8,6.4L34.7,36.7z"/>
		<path id="XMLID_7271_" class="st1" d="M32,33.1L16.1,52.4c-1.4,1.7-3.3,2.7-5.4,3l-0.2,0C8.3,55.6,6,55,4.3,53.5l0,0
			c-1.7-1.4-2.8-3.5-3-5.8l0-0.1c-0.2-2.1,0.5-4.2,1.9-5.9l15.9-19.4l4.3,0l7.8,6.4L32,33.1z"/>
		<path id="XMLID_7274_" class="st2" d="M6.7,57.7c1.7,1.4,4,2.1,6.2,1.8l0.2,0c2.1-0.2,4.1-1.3,5.4-3L34,37.7l-0.4-2.2l-7.8-6.4
			l-4.3,0L5.6,48.4c-1,1.2-1.6,2.5-1.8,4C4.1,54.5,5.1,56.3,6.7,57.7z"/>
	</g>
	<g id="XMLID_6923_">
		<rect id="XMLID_7254_" x="5.1" y="21" class="st2" width="1" height="16.5"/>
	</g>
	<g id="XMLID_6924_">
		<rect id="XMLID_7253_" x="17.9" y="1.2" class="st2" width="1" height="13.3"/>
	</g>
	<g id="XMLID_6926_">
		<rect id="XMLID_7252_" x="36.7" y="13.6" class="st2" width="1" height="7.3"/>
	</g>
	<g id="XMLID_7276_">
		<rect id="XMLID_7277_" x="4.2" y="20.2" class="st3" width="1" height="16.5"/>
	</g>
	<g id="XMLID_7269_">
		<rect id="XMLID_7272_" x="17" y="0.4" class="st3" width="1" height="13.3"/>
	</g>
	<g id="XMLID_7267_">
		<rect id="XMLID_7268_" x="35.9" y="12.8" class="st3" width="1" height="7.3"/>
	</g>
	<g id="XMLID_3366_">
		<path id="XMLID_7251_" class="st2" d="M11,64.2c-1.3,0-2.8-0.3-4.2-1c-4.8-2.6-5.3-6.7-5.3-6.9l1-0.1c0,0.2,0.4,3.8,4.8,6.1
			c4.7,2.5,9.7-0.9,9.8-0.9l0.6,0.8C17.4,62.3,14.5,64.2,11,64.2z"/>
	</g>
	<g id="XMLID_7278_">
		<path id="XMLID_7279_" class="st3" d="M11,63.1c-1.3,0-2.8-0.3-4.2-1c-4.8-2.6-5.3-6.7-5.3-6.9l1-0.1c0,0.2,0.4,3.8,4.8,6.1
			c4.7,2.5,9.7-0.9,9.8-0.9l0.6,0.8C17.4,61.2,14.5,63.1,11,63.1z"/>
	</g>
	<path id="XMLID_7275_" class="st3" d="M34.3,32.2l-8.1-6.6l-4.7,0L5.4,45.1c-1.4,1.8-2.1,4-2,6.2l0,0.1c0.2,2.4,1.3,4.6,3.2,6.1
		c1.6,1.3,3.6,2,5.6,2c0.3,0,0.6,0,1-0.1l0.2,0c2.3-0.3,4.3-1.4,5.8-3.1L35,37l0.1-0.2L34.3,32.2z M4.4,51.2c-0.1-2,0.5-4,1.8-5.5
		L22,26.5l3.9,0l5.8,4.8l0,0c0.2,1.1-0.1,2.2-0.8,3.1l-14.8,18c-1.4,1.7-3.3,2.7-5.4,3l-0.2,0c-0.8,0.1-1.6,0.1-2.4-0.1
		c-2-0.4-3.5-1.9-3.7-3.9c0,0,0,0,0,0L4.4,51.2z"/>
	<g id="XMLID_6918_">
		<path id="XMLID_7262_" class="st1" d="M14.2,34.7l1.8-6.7c0.3-1.2,1.1-2.3,2.1-3l9-6.3c0.9-0.6,1.9,0.4,1.4,1.3l-3.6,6
			c-0.3,0.4-0.6,0.8-0.9,1.2l-8.1,8.4C15.2,36.3,14,35.7,14.2,34.7z"/>
		<path id="XMLID_7263_" class="st3" d="M15.2,36.4c-0.2,0-0.5-0.1-0.7-0.2c-0.6-0.3-0.9-1-0.7-1.6l1.8-6.7c0.4-1.3,1.2-2.5,2.3-3.3
			l9-6.3c0.6-0.4,1.3-0.4,1.9,0.1c0.5,0.5,0.6,1.2,0.3,1.8l-3.6,6c-0.3,0.5-0.6,0.9-1,1.3L16.2,36C15.9,36.3,15.5,36.4,15.2,36.4z
			 M27.7,19.1c-0.1,0-0.2,0-0.3,0.1l-9,6.3c-0.9,0.7-1.6,1.6-1.9,2.7l-1.8,6.7c-0.1,0.3,0.1,0.5,0.2,0.5c0.1,0,0.3,0.1,0.5-0.1
			l8.1-8.4c0.3-0.3,0.6-0.7,0.8-1.1l3.6-6c0.2-0.3,0-0.5-0.1-0.6C27.9,19.2,27.8,19.1,27.7,19.1z"/>
	</g>
	<g id="XMLID_6921_">
		<path id="XMLID_7258_" class="st1" d="M27.8,45.7l6.2-3c1.1-0.6,2-1.5,2.5-2.7L40.9,30c0.4-1-0.8-1.8-1.6-1.1l-5.2,4.7
			c-0.4,0.3-0.7,0.7-1,1.1l-6.6,9.6C26,45.1,26.9,46.1,27.8,45.7z"/>
		<path id="XMLID_7259_" class="st3" d="M27.4,46.3c-0.4,0-0.8-0.2-1.1-0.5c-0.4-0.5-0.5-1.2-0.1-1.8l6.6-9.6c0.3-0.4,0.7-0.8,1-1.2
			l5.2-4.7c0.5-0.5,1.3-0.5,1.9-0.1c0.6,0.4,0.8,1.1,0.5,1.8L37,40.2c-0.6,1.3-1.5,2.3-2.8,2.9l-6.2,3l-0.2-0.4l0.2,0.4
			C27.8,46.3,27.6,46.3,27.4,46.3z M40,29.1c-0.1,0-0.2,0-0.3,0.1L34.5,34c-0.3,0.3-0.6,0.7-0.9,1L27,44.6c-0.2,0.3,0,0.5,0,0.5
			c0.1,0.1,0.3,0.3,0.5,0.1l6.2-3c1-0.5,1.9-1.4,2.3-2.4l4.4-10.1c0.1-0.3-0.1-0.5-0.2-0.6C40.3,29.1,40.2,29.1,40,29.1z"/>
	</g>
	<g id="XMLID_6920_">
		<path id="XMLID_7250_" class="st1" d="M34.5,25.3l-12.3,15c-0.4,0.5-1.2,0.6-1.7,0.2l0,0c-0.5-0.4-0.6-1.2-0.2-1.7l12.3-15
			c0.4-0.5,1.2-0.6,1.7-0.2l0,0C34.8,24,34.9,24.8,34.5,25.3z"/>
		<path id="XMLID_7255_" class="st3" d="M21.2,41.2c-0.4,0-0.8-0.1-1.1-0.4c-0.3-0.3-0.6-0.7-0.6-1.1c0-0.4,0.1-0.9,0.4-1.2l12.3-15
			c0.6-0.7,1.7-0.8,2.4-0.2c0.7,0.6,0.8,1.7,0.2,2.4l-12.3,15C22.2,41,21.7,41.2,21.2,41.2z M33.6,23.8c-0.2,0-0.4,0.1-0.5,0.3
			l-12.3,15c-0.2,0.3-0.2,0.7,0.1,1c0.3,0.2,0.7,0.2,1-0.1l12.3-15c0.2-0.3,0.2-0.7-0.1-1C33.9,23.9,33.7,23.8,33.6,23.8z"/>
	</g>
	<g id="XMLID_7585_">
		<path id="XMLID_7584_" class="st3" d="M21.3,80.7c0.3,0.2,0.3,0.4,0,0.6c-0.3,0.2-0.7,0.2-1,0c-0.3-0.2-0.3-0.4,0-0.6
			C20.6,80.6,21,80.6,21.3,80.7z"/>
		<path id="XMLID_7583_" class="st3" d="M23.8,79.3c0.3,0.2,0.3,0.4,0,0.6c-0.3,0.2-0.7,0.2-1,0c-0.3-0.2-0.3-0.4,0-0.6
			C23.1,79.1,23.5,79.1,23.8,79.3z"/>
		<ellipse id="XMLID_7582_" class="st3" cx="25.8" cy="78.1" rx="0.7" ry="0.4"/>
		<ellipse id="XMLID_7581_" class="st3" cx="28.4" cy="76.6" rx="0.7" ry="0.4"/>
		<path id="XMLID_7580_" class="st3" d="M31.4,74.9c0.3,0.2,0.3,0.4,0,0.6c-0.3,0.2-0.7,0.2-1,0c-0.3-0.2-0.3-0.4,0-0.6
			C30.7,74.7,31.1,74.7,31.4,74.9z"/>
		<path id="XMLID_7579_" class="st3" d="M16.2,80.7c0.3,0.2,0.3,0.4,0,0.6c-0.3,0.2-0.7,0.2-1,0c-0.3-0.2-0.3-0.4,0-0.6
			C15.5,80.6,15.9,80.6,16.2,80.7z"/>
		<path id="XMLID_7578_" class="st3" d="M18.7,79.3c0.3,0.2,0.3,0.4,0,0.6c-0.3,0.2-0.7,0.2-1,0c-0.3-0.2-0.3-0.4,0-0.6
			C18,79.1,18.5,79.1,18.7,79.3z"/>
		<path id="XMLID_7577_" class="st3" d="M21.3,77.8c0.3,0.2,0.3,0.4,0,0.6c-0.3,0.2-0.7,0.2-1,0c-0.3-0.2-0.3-0.4,0-0.6
			C20.6,77.6,21,77.6,21.3,77.8z"/>
		<path id="XMLID_7576_" class="st3" d="M23.8,76.3c0.3,0.2,0.3,0.4,0,0.6c-0.3,0.2-0.7,0.2-1,0c-0.3-0.2-0.3-0.4,0-0.6
			C23.1,76.2,23.5,76.2,23.8,76.3z"/>
		<path id="XMLID_7575_" class="st3" d="M26.3,74.9c0.3,0.2,0.3,0.4,0,0.6c-0.3,0.2-0.7,0.2-1,0c-0.3-0.2-0.3-0.4,0-0.6
			C25.6,74.7,26.1,74.7,26.3,74.9z"/>
		<path id="XMLID_7574_" class="st3" d="M28.9,73.4c0.3,0.2,0.3,0.4,0,0.6c-0.3,0.2-0.7,0.2-1,0c-0.3-0.2-0.3-0.4,0-0.6
			C28.2,73.3,28.6,73.3,28.9,73.4z"/>
		<path id="XMLID_7567_" class="st3" d="M31.4,72c0.3,0.2,0.3,0.4,0,0.6c-0.3,0.2-0.7,0.2-1,0c-0.3-0.2-0.3-0.4,0-0.6
			C30.7,71.8,31.1,71.8,31.4,72z"/>
		<path id="XMLID_7366_" class="st3" d="M13.7,79.3c0.3,0.2,0.3,0.4,0,0.6c-0.3,0.2-0.7,0.2-1,0c-0.3-0.2-0.3-0.4,0-0.6
			C13,79.1,13.4,79.1,13.7,79.3z"/>
		<path id="XMLID_7365_" class="st3" d="M16.2,77.8c0.3,0.2,0.3,0.4,0,0.6c-0.3,0.2-0.7,0.2-1,0c-0.3-0.2-0.3-0.4,0-0.6
			C15.5,77.6,15.9,77.6,16.2,77.8z"/>
		<ellipse id="XMLID_7364_" class="st3" cx="18.3" cy="76.6" rx="0.7" ry="0.4"/>
		<path id="XMLID_7363_" class="st3" d="M21.3,74.9c0.3,0.2,0.3,0.4,0,0.6c-0.3,0.2-0.7,0.2-1,0c-0.3-0.2-0.3-0.4,0-0.6
			C20.6,74.7,21,74.7,21.3,74.9z"/>
		<ellipse id="XMLID_7362_" class="st3" cx="23.3" cy="73.7" rx="0.7" ry="0.4"/>
		<ellipse id="XMLID_7361_" class="st3" cx="25.8" cy="72.2" rx="0.7" ry="0.4"/>
		<ellipse id="XMLID_7360_" class="st3" cx="28.4" cy="70.8" rx="0.7" ry="0.4"/>
		<ellipse id="XMLID_7359_" class="st3" cx="10.7" cy="78.1" rx="0.7" ry="0.4"/>
		<ellipse id="XMLID_7358_" class="st3" cx="13.2" cy="76.6" rx="0.7" ry="0.4"/>
		<path id="XMLID_7357_" class="st3" d="M16.2,74.9c0.3,0.2,0.3,0.4,0,0.6c-0.3,0.2-0.7,0.2-1,0c-0.3-0.2-0.3-0.4,0-0.6
			C15.5,74.7,15.9,74.7,16.2,74.9z"/>
		<path id="XMLID_7356_" class="st3" d="M18.7,73.4c0.3,0.2,0.3,0.4,0,0.6c-0.3,0.2-0.7,0.2-1,0c-0.3-0.2-0.3-0.4,0-0.6
			C18,73.3,18.5,73.3,18.7,73.4z"/>
		<path id="XMLID_7355_" class="st3" d="M21.3,72c0.3,0.2,0.3,0.4,0,0.6c-0.3,0.2-0.7,0.2-1,0c-0.3-0.2-0.3-0.4,0-0.6
			C20.6,71.8,21,71.8,21.3,72z"/>
		<path id="XMLID_7354_" class="st3" d="M23.8,70.5c0.3,0.2,0.3,0.4,0,0.6c-0.3,0.2-0.7,0.2-1,0c-0.3-0.2-0.3-0.4,0-0.6
			C23.1,70.3,23.5,70.3,23.8,70.5z"/>
		<path id="XMLID_7353_" class="st3" d="M26.3,69c0.3,0.2,0.3,0.4,0,0.6c-0.3,0.2-0.7,0.2-1,0c-0.3-0.2-0.3-0.4,0-0.6
			C25.6,68.9,26.1,68.9,26.3,69z"/>
		<path id="XMLID_7352_" class="st3" d="M8.6,76.3c0.3,0.2,0.3,0.4,0,0.6c-0.3,0.2-0.7,0.2-1,0c-0.3-0.2-0.3-0.4,0-0.6
			C7.9,76.2,8.3,76.2,8.6,76.3z"/>
		<path id="XMLID_7351_" class="st3" d="M11.1,74.9c0.3,0.2,0.3,0.4,0,0.6c-0.3,0.2-0.7,0.2-1,0c-0.3-0.2-0.3-0.4,0-0.6
			C10.4,74.7,10.9,74.7,11.1,74.9z"/>
		<ellipse id="XMLID_7350_" class="st3" cx="13.2" cy="73.7" rx="0.7" ry="0.4"/>
		<path id="XMLID_7349_" class="st3" d="M16.2,72c0.3,0.2,0.3,0.4,0,0.6c-0.3,0.2-0.7,0.2-1,0c-0.3-0.2-0.3-0.4,0-0.6
			C15.5,71.8,15.9,71.8,16.2,72z"/>
		<path id="XMLID_7348_" class="st3" d="M18.7,70.5c0.3,0.2,0.3,0.4,0,0.6c-0.3,0.2-0.7,0.2-1,0c-0.3-0.2-0.3-0.4,0-0.6
			C18,70.3,18.5,70.3,18.7,70.5z"/>
		<path id="XMLID_7347_" class="st3" d="M21.3,69c0.3,0.2,0.3,0.4,0,0.6c-0.3,0.2-0.7,0.2-1,0c-0.3-0.2-0.3-0.4,0-0.6
			C20.6,68.9,21,68.9,21.3,69z"/>
		<ellipse id="XMLID_7346_" class="st3" cx="23.3" cy="67.9" rx="0.7" ry="0.4"/>
		<path id="XMLID_7345_" class="st3" d="M6.1,74.9c0.3,0.2,0.3,0.4,0,0.6c-0.3,0.2-0.7,0.2-1,0c-0.3-0.2-0.3-0.4,0-0.6
			C5.4,74.7,5.8,74.7,6.1,74.9z"/>
		<ellipse id="XMLID_7344_" class="st3" cx="8.1" cy="73.7" rx="0.7" ry="0.4"/>
		<ellipse id="XMLID_7343_" class="st3" cx="10.6" cy="72.2" rx="0.7" ry="0.4"/>
		<path id="XMLID_7342_" class="st3" d="M13.7,70.5c0.3,0.2,0.3,0.4,0,0.6c-0.3,0.2-0.7,0.2-1,0c-0.3-0.2-0.3-0.4,0-0.6
			C13,70.3,13.4,70.3,13.7,70.5z"/>
		<path id="XMLID_7341_" class="st3" d="M16.2,69c0.3,0.2,0.3,0.4,0,0.6c-0.3,0.2-0.7,0.2-1,0c-0.3-0.2-0.3-0.4,0-0.6
			C15.5,68.9,15.9,68.9,16.2,69z"/>
		<path id="XMLID_7340_" class="st3" d="M18.7,67.6c0.3,0.2,0.3,0.4,0,0.6c-0.3,0.2-0.7,0.2-1,0c-0.3-0.2-0.3-0.4,0-0.6
			C18,67.4,18.4,67.4,18.7,67.6z"/>
		<path id="XMLID_7339_" class="st3" d="M21.2,66.1c0.3,0.2,0.3,0.4,0,0.6c-0.3,0.2-0.7,0.2-1,0c-0.3-0.2-0.3-0.4,0-0.6
			C20.5,65.9,21,65.9,21.2,66.1z"/>
		<path id="XMLID_7338_" class="st3" d="M6.1,71.9c0.3,0.2,0.3,0.4,0,0.6c-0.3,0.2-0.7,0.2-1,0c-0.3-0.2-0.3-0.4,0-0.6
			C5.4,71.8,5.8,71.8,6.1,71.9z"/>
		<ellipse id="XMLID_7337_" class="st3" cx="8.1" cy="70.8" rx="0.7" ry="0.4"/>
		<path id="XMLID_7336_" class="st3" d="M11.1,69c0.3,0.2,0.3,0.4,0,0.6c-0.3,0.2-0.7,0.2-1,0c-0.3-0.2-0.3-0.4,0-0.6
			C10.4,68.9,10.9,68.9,11.1,69z"/>
		<path id="XMLID_7335_" class="st3" d="M13.7,67.6c0.3,0.2,0.3,0.4,0,0.6c-0.3,0.2-0.7,0.2-1,0c-0.3-0.2-0.3-0.4,0-0.6
			C13,67.4,13.4,67.4,13.7,67.6z"/>
		<path id="XMLID_7334_" class="st3" d="M16.2,66.1c0.3,0.2,0.3,0.4,0,0.6c-0.3,0.2-0.7,0.2-1,0c-0.3-0.2-0.3-0.4,0-0.6
			C15.5,65.9,15.9,65.9,16.2,66.1z"/>
	</g>
</g>
</svg>
