<?xml version="1.0" encoding="utf-8"?>
<!-- Generator: Adobe Illustrator 22.1.0, SVG Export Plug-In . SVG Version: 6.00 Build 0)  -->
<svg version="1.1" id="content" xmlns="http://www.w3.org/2000/svg" xmlns:xlink="http://www.w3.org/1999/xlink" x="0px" y="0px"
	 viewBox="0 0 58.2 58" style="enable-background:new 0 0 58.2 58;" xml:space="preserve">
<style type="text/css">
	.st0{fill:#FFEB00;}
	.st1{fill:#16110D;}
	.st2{fill:#FFEECC;}
</style>
<g>
	<path id="XMLID_1628_" class="st0" d="M30.7,51.7L30.7,51.7l4.4-3.1l-1.5-2c0.2-1.2,0.3-2.5,0.2-3.9c-0.7-8.7-7.7-18.9-15.6-22.7
		c-1.3-0.6-2.6-1-3.7-1.2L13,16.7l-4.3,2.9l0,0c-2.6,1.6-4,4.8-3.6,9.4c0.7,8.7,7.7,18.9,15.6,22.7C24.8,53.7,28.3,53.6,30.7,51.7z"
		/>
	<path id="XMLID_1625_" class="st1" d="M34.1,46.5c0.2-1.2,0.3-2.5,0.2-3.8c-0.7-8.9-7.8-19.2-15.9-23.1c-1.2-0.6-2.4-1-3.6-1.2
		L13.1,16l-4.6,3.2c-2.8,1.7-4.2,5.3-3.9,9.9c0.7,8.9,7.8,19.2,15.9,23.1c2.1,1,4,1.5,5.8,1.5c1.8,0,3.4-0.5,4.7-1.5l4.8-3.4
		L34.1,46.5z M9,20.1l3.8-2.6l1.3,1.9l0.2,0c1.2,0.2,2.4,0.6,3.6,1.2c7.8,3.7,14.6,13.7,15.3,22.2c0,0.2,0,0.4,0,0.6l-13.6-5.7
		l-8.5,5.1C10,41.1,8.9,39.3,8,37.4l4.3-2.5l-1.6-3.8l-4.3,2.4C6,32.1,5.7,30.5,5.6,29C5.3,24.8,6.5,21.6,9,20.1z"/>
	<g id="XMLID_1620_">
		
			<ellipse id="XMLID_1624_" transform="matrix(0.8238 -0.5669 0.5669 0.8238 -14.3293 19.3896)" class="st0" cx="24" cy="32.7" rx="11.2" ry="19.5"/>
		<path id="XMLID_1621_" class="st1" d="M30.9,50.5c-1.8,0-3.7-0.5-5.8-1.5C17,45.2,9.9,34.8,9.2,26c-0.3-4.4,0.9-7.8,3.5-9.6
			c2.6-1.8,6.3-1.8,10.3,0.2c8,3.8,15.2,14.2,15.9,23.1l0,0c0.4,4.4-0.9,7.8-3.5,9.6C34.1,50.1,32.5,50.5,30.9,50.5z M17.2,16
			c-1.5,0-2.8,0.4-3.9,1.1c-2.3,1.6-3.4,4.7-3.1,8.7c0.7,8.6,7.5,18.6,15.3,22.2c3.7,1.7,7,1.8,9.3,0.2c2.3-1.6,3.4-4.7,3.1-8.7l0,0
			c-0.7-8.6-7.5-18.6-15.3-22.2C20.6,16.5,18.8,16,17.2,16z"/>
	</g>
	<g id="XMLID_1615_">
		
			<ellipse id="XMLID_1619_" transform="matrix(0.8238 -0.5669 0.5669 0.8238 -15.0052 20.0025)" class="st2" cx="24.7" cy="34.1" rx="8" ry="13.9"/>
		<path id="XMLID_1616_" class="st1" d="M29.7,45.1c-1.3,0-2.7-0.4-4.2-1.1c-5.8-2.8-10.9-10.2-11.4-16.6c-0.3-3.2,0.7-5.7,2.6-7
			c1.9-1.3,4.6-1.3,7.5,0.1c5.8,2.8,10.9,10.2,11.4,16.6l0,0c0.3,3.2-0.7,5.7-2.6,7C32,44.8,30.9,45.1,29.7,45.1z M19.9,20.5
			c-1,0-1.9,0.3-2.7,0.8c-1.6,1.1-2.4,3.3-2.1,6.1c0.5,6.1,5.3,13.1,10.8,15.7c2.6,1.2,4.9,1.3,6.5,0.2c1.6-1.1,2.4-3.3,2.1-6.1l0,0
			c-0.5-6.1-5.3-13.1-10.8-15.7C22.3,20.8,21.1,20.5,19.9,20.5z"/>
	</g>
	<g id="XMLID_1610_">
		<path id="XMLID_1614_" class="st0" d="M31.3,34.9c0.3,3.7-2.2,5.3-5.5,3.8c-3.3-1.6-6.2-5.8-6.5-9.5c-0.3-3.7,2.2-5.3,5.5-3.8
			C28.1,27,31,31.2,31.3,34.9z"/>
		<path id="XMLID_1611_" class="st1" d="M28.2,39.8c-0.8,0-1.7-0.2-2.6-0.6c-3.5-1.6-6.5-6.1-6.8-9.9c-0.2-2,0.4-3.5,1.6-4.3
			c1.2-0.8,2.8-0.8,4.6,0c3.5,1.6,6.5,6.1,6.8,9.9v0c0.2,2-0.4,3.5-1.6,4.3C29.6,39.6,28.9,39.8,28.2,39.8z M22.4,25.3
			c-0.6,0-1.1,0.1-1.5,0.4c-0.9,0.6-1.3,1.8-1.2,3.4c0.3,3.5,3.1,7.6,6.2,9.1c1.4,0.7,2.7,0.7,3.6,0.1c0.9-0.6,1.3-1.8,1.2-3.4v0
			c-0.3-3.5-3.1-7.6-6.2-9.1C23.8,25.5,23.1,25.3,22.4,25.3z"/>
	</g>
	<g id="XMLID_1605_">
		<path id="XMLID_1609_" class="st2" d="M27.7,34.9c0.1,1.3-0.8,1.9-2,1.4c-1.2-0.6-2.3-2.1-2.4-3.4c-0.1-1.3,0.8-1.9,2-1.4
			C26.5,32,27.6,33.6,27.7,34.9z"/>
		<path id="XMLID_1606_" class="st1" d="M26.6,35.1c-0.3,0-0.7-0.1-1.1-0.3c-1.4-0.6-2.5-2.3-2.6-3.8c-0.1-0.8,0.2-1.5,0.7-1.8
			c0.5-0.4,1.2-0.4,2,0c1.4,0.6,2.5,2.3,2.6,3.8l0,0c0.1,0.8-0.2,1.5-0.7,1.8C27.3,35.1,27,35.1,26.6,35.1z M24.6,29.9
			c-0.1,0-0.3,0-0.4,0.1c-0.2,0.1-0.3,0.5-0.3,0.9c0.1,1.1,1,2.5,2.1,3c0.4,0.2,0.8,0.2,1,0.1c0.2-0.1,0.3-0.5,0.3-0.9l0,0
			c-0.1-1.1-1-2.5-2.1-3C25,30,24.8,29.9,24.6,29.9z"/>
	</g>
	<g id="XMLID_1600_">
		<g id="XMLID_1603_">
			
				<rect id="XMLID_1604_" x="24.8" y="13.9" transform="matrix(0.168 -0.9858 0.9858 0.168 8.9512 39.3129)" class="st2" width="5.9" height="1"/>
		</g>
		<g id="XMLID_1601_">
			
				<rect id="XMLID_1602_" x="24.3" y="12.9" transform="matrix(0.168 -0.9858 0.9858 0.168 9.4116 38.0282)" class="st1" width="5.9" height="1"/>
		</g>
	</g>
	<g id="XMLID_1595_">
		<g id="XMLID_1598_">
			
				<rect id="XMLID_1599_" x="37.8" y="26.9" transform="matrix(1 -7.099111e-03 7.099111e-03 1 -0.1933 0.2899)" class="st2" width="5.9" height="1"/>
		</g>
		<g id="XMLID_1596_">
			
				<rect id="XMLID_1597_" x="36.9" y="26.2" transform="matrix(1 -7.099821e-03 7.099821e-03 1 -0.1887 0.2833)" class="st1" width="5.9" height="1"/>
		</g>
	</g>
	<g id="XMLID_1590_">
		<g id="XMLID_1593_">
			
				<rect id="XMLID_1594_" x="27.4" y="8" transform="matrix(0.373 -0.9278 0.9278 0.373 13.9231 37.5798)" class="st2" width="14.6" height="1"/>
		</g>
		<g id="XMLID_1591_">
			
				<rect id="XMLID_1592_" x="26.9" y="7.1" transform="matrix(0.3731 -0.9278 0.9278 0.3731 14.4374 36.5121)" class="st1" width="14.6" height="1"/>
		</g>
	</g>
	<g id="XMLID_1574_">
		<g id="XMLID_1585_">
			
				<rect id="XMLID_1589_" x="27.5" y="14.9" transform="matrix(0.7961 -0.6052 0.6052 0.7961 -1.2505 27.5875)" class="st2" width="25.7" height="1.5"/>
			<path id="XMLID_1586_" d="M30.5,24.7l-1.5-2L50.2,6.6l1.5,2L30.5,24.7z M30.3,22.7l0.4,0.7L50.4,8.5L50,7.8L30.3,22.7z"/>
		</g>
		<path id="XMLID_1584_" class="st0" d="M25.3,27.6l8-2.3l-3.3-1.9l-0.9-3.7l-4.4,7.1C24.5,27.3,24.9,27.7,25.3,27.6z"/>
		<path id="XMLID_1583_" class="st2" d="M28.8,25.5l-0.9-3.7l-3.3,5.4c0.1,0.2,0.4,0.6,0.6,0.5l5.1-1.3L28.8,25.5z"/>
		<path id="XMLID_1580_" d="M25.2,28.1c-0.3,0-0.6-0.1-0.8-0.4c-0.3-0.3-0.3-0.8-0.1-1.1l5-8.1l1.2,4.6l4.1,2.4l-9.2,2.6
			C25.4,28.1,25.3,28.1,25.2,28.1z M28.9,21l-3.8,6.1l0,0l6.9-2l-2.5-1.4L28.9,21z"/>
		<path id="XMLID_1579_" class="st0" d="M51.6,2.6l-5,3.8l-2.9,6.1c-0.2,0.4,0.1,0.8,0.5,0.7l6.6-1.2l5-3.8l-5.1-0.5L51.6,2.6z"/>
		<path id="XMLID_1578_" class="st2" d="M50.5,12.2l3-2.3L50,9.6l0.8-4.6l-5,3.8l-2.3,4.6c0.1,0.1,0.2,0.2,0.4,0.1L50.5,12.2z"/>
		<path id="XMLID_1575_" d="M51.4,7.2l1-5.8l-6.1,4.6l-3,6.2c-0.2,0.3-0.1,0.7,0.1,1c0.2,0.2,0.5,0.4,0.8,0.4c0.1,0,0.1,0,0.2,0
			l6.7-1.2l6.1-4.6L51.4,7.2z M50.7,11.5l-6.5,1.2l2.9-6L48,6l-0.6,3.4l1,0.2l0.8-4.5l1.8-1.3l-0.7,4.3l4.4,0.5L50.7,11.5z"/>
	</g>
	<g id="XMLID_1534_">
		<path id="XMLID_1572_" class="st1" d="M29.7,56.7c0.3,0.2,0.3,0.4,0,0.6c-0.3,0.2-0.7,0.2-1,0c-0.3-0.2-0.3-0.4,0-0.6
			C29,56.5,29.4,56.5,29.7,56.7z"/>
		<path id="XMLID_1571_" class="st1" d="M32.2,55.2c0.3,0.2,0.3,0.4,0,0.6c-0.3,0.2-0.7,0.2-1,0c-0.3-0.2-0.3-0.4,0-0.6
			C31.5,55.1,31.9,55.1,32.2,55.2z"/>
		<ellipse id="XMLID_1570_" class="st1" cx="34.3" cy="54.1" rx="0.7" ry="0.4"/>
		<path id="XMLID_1569_" class="st1" d="M24.6,56.7c0.3,0.2,0.3,0.4,0,0.6c-0.3,0.2-0.7,0.2-1,0c-0.3-0.2-0.3-0.4,0-0.6
			C23.9,56.5,24.4,56.5,24.6,56.7z"/>
		<path id="XMLID_1568_" class="st1" d="M27.2,55.2c0.3,0.2,0.3,0.4,0,0.6s-0.7,0.2-1,0c-0.3-0.2-0.3-0.4,0-0.6
			C26.5,55.1,26.9,55.1,27.2,55.2z"/>
		<path id="XMLID_1567_" class="st1" d="M29.7,53.8c0.3,0.2,0.3,0.4,0,0.6c-0.3,0.2-0.7,0.2-1,0c-0.3-0.2-0.3-0.4,0-0.6
			C29,53.6,29.4,53.6,29.7,53.8z"/>
		<ellipse id="XMLID_1566_" class="st1" cx="31.7" cy="52.6" rx="0.7" ry="0.4"/>
		<ellipse id="XMLID_1565_" class="st1" cx="34.3" cy="51.1" rx="0.7" ry="0.4"/>
		<ellipse id="XMLID_1564_" class="st1" cx="19.1" cy="57" rx="0.7" ry="0.4"/>
		<path id="XMLID_1563_" class="st1" d="M22.1,55.2c0.3,0.2,0.3,0.4,0,0.6c-0.3,0.2-0.7,0.2-1,0c-0.3-0.2-0.3-0.4,0-0.6
			C21.4,55.1,21.8,55.1,22.1,55.2z"/>
		<path id="XMLID_1562_" class="st1" d="M24.6,53.8c0.3,0.2,0.3,0.4,0,0.6c-0.3,0.2-0.7,0.2-1,0c-0.3-0.2-0.3-0.4,0-0.6
			C23.9,53.6,24.4,53.6,24.6,53.8z"/>
		<path id="XMLID_1561_" class="st1" d="M14.5,56.7c0.3,0.2,0.3,0.4,0,0.6c-0.3,0.2-0.7,0.2-1,0c-0.3-0.2-0.3-0.4,0-0.6
			C13.8,56.5,14.2,56.5,14.5,56.7z"/>
		<path id="XMLID_1560_" class="st1" d="M17,55.2c0.3,0.2,0.3,0.4,0,0.6c-0.3,0.2-0.7,0.2-1,0c-0.3-0.2-0.3-0.4,0-0.6
			C16.3,55.1,16.8,55.1,17,55.2z"/>
		<path id="XMLID_1559_" class="st1" d="M19.6,53.8c0.3,0.2,0.3,0.4,0,0.6c-0.3,0.2-0.7,0.2-1,0c-0.3-0.2-0.3-0.4,0-0.6
			C18.9,53.6,19.3,53.6,19.6,53.8z"/>
		<path id="XMLID_1558_" class="st1" d="M12,55.2c0.3,0.2,0.3,0.4,0,0.6c-0.3,0.2-0.7,0.2-1,0c-0.3-0.2-0.3-0.4,0-0.6
			C11.3,55.1,11.7,55.1,12,55.2z"/>
		<ellipse id="XMLID_1557_" class="st1" cx="14" cy="54.1" rx="0.7" ry="0.4"/>
		<path id="XMLID_1556_" class="st1" d="M17,52.3c0.3,0.2,0.3,0.4,0,0.6c-0.3,0.2-0.7,0.2-1,0c-0.3-0.2-0.3-0.4,0-0.6
			C16.3,52.2,16.8,52.2,17,52.3z"/>
		<ellipse id="XMLID_1555_" class="st1" cx="9" cy="54.1" rx="0.7" ry="0.4"/>
		<path id="XMLID_1554_" class="st1" d="M12,52.3c0.3,0.2,0.3,0.4,0,0.6c-0.3,0.2-0.7,0.2-1,0c-0.3-0.2-0.3-0.4,0-0.6
			C11.3,52.2,11.7,52.2,12,52.3z"/>
		<path id="XMLID_1553_" class="st1" d="M14.5,50.9c0.3,0.2,0.3,0.4,0,0.6c-0.3,0.2-0.7,0.2-1,0c-0.3-0.2-0.3-0.4,0-0.6
			C13.8,50.7,14.2,50.7,14.5,50.9z"/>
		<path id="XMLID_1552_" class="st1" d="M6.9,52.3c0.3,0.2,0.3,0.4,0,0.6c-0.3,0.2-0.7,0.2-1,0c-0.3-0.2-0.3-0.4,0-0.6
			C6.2,52.2,6.6,52.2,6.9,52.3z"/>
		<ellipse id="XMLID_1551_" class="st1" cx="9" cy="51.1" rx="0.7" ry="0.4"/>
		<path id="XMLID_1550_" class="st1" d="M12,49.4c0.3,0.2,0.3,0.4,0,0.6c-0.3,0.2-0.7,0.2-1,0c-0.3-0.2-0.3-0.4,0-0.6
			C11.3,49.2,11.7,49.2,12,49.4z"/>
		<path id="XMLID_1549_" class="st1" d="M14.5,47.9c0.3,0.2,0.3,0.4,0,0.6c-0.3,0.2-0.7,0.2-1,0c-0.3-0.2-0.3-0.4,0-0.6
			C13.8,47.8,14.2,47.8,14.5,47.9z"/>
		<ellipse id="XMLID_1548_" class="st1" cx="3.9" cy="51.1" rx="0.7" ry="0.4"/>
		<path id="XMLID_1547_" class="st1" d="M6.9,49.4c0.3,0.2,0.3,0.4,0,0.6c-0.3,0.2-0.7,0.2-1,0c-0.3-0.2-0.3-0.4,0-0.6
			C6.2,49.2,6.6,49.2,6.9,49.4z"/>
		<ellipse id="XMLID_1546_" class="st1" cx="9" cy="48.2" rx="0.7" ry="0.4"/>
		<path id="XMLID_1545_" class="st1" d="M12,46.5c0.3,0.2,0.3,0.4,0,0.6c-0.3,0.2-0.7,0.2-1,0c-0.3-0.2-0.3-0.4,0-0.6
			C11.3,46.3,11.7,46.3,12,46.5z"/>
		<path id="XMLID_1544_" class="st1" d="M1.8,49.4c0.3,0.2,0.3,0.4,0,0.6c-0.3,0.2-0.7,0.2-1,0c-0.3-0.2-0.3-0.4,0-0.6
			C1.1,49.2,1.6,49.2,1.8,49.4z"/>
		<path id="XMLID_1543_" class="st1" d="M4.4,47.9c0.3,0.2,0.3,0.4,0,0.6c-0.3,0.2-0.7,0.2-1,0c-0.3-0.2-0.3-0.4,0-0.6
			C3.7,47.8,4.1,47.8,4.4,47.9z"/>
		<path id="XMLID_1542_" class="st1" d="M6.9,46.5c0.3,0.2,0.3,0.4,0,0.6c-0.3,0.2-0.7,0.2-1,0c-0.3-0.2-0.3-0.4,0-0.6
			C6.2,46.3,6.6,46.3,6.9,46.5z"/>
		<path id="XMLID_1541_" class="st1" d="M9.4,45c0.3,0.2,0.3,0.4,0,0.6c-0.3,0.2-0.7,0.2-1,0c-0.3-0.2-0.3-0.4,0-0.6
			C8.7,44.8,9.1,44.8,9.4,45z"/>
		<ellipse id="XMLID_1540_" class="st1" cx="1.3" cy="46.7" rx="0.7" ry="0.4"/>
		<path id="XMLID_1539_" class="st1" d="M4.4,45c0.3,0.2,0.3,0.4,0,0.6c-0.3,0.2-0.7,0.2-1,0c-0.3-0.2-0.3-0.4,0-0.6
			C3.7,44.8,4.1,44.8,4.4,45z"/>
		<path id="XMLID_1538_" class="st1" d="M6.9,43.5c0.3,0.2,0.3,0.4,0,0.6c-0.3,0.2-0.7,0.2-1,0c-0.3-0.2-0.3-0.4,0-0.6
			C6.2,43.4,6.6,43.4,6.9,43.5z"/>
		<path id="XMLID_1537_" class="st1" d="M9.4,42.1c0.3,0.2,0.3,0.4,0,0.6c-0.3,0.2-0.7,0.2-1,0c-0.3-0.2-0.3-0.4,0-0.6
			C8.7,41.9,9.1,41.9,9.4,42.1z"/>
		<path id="XMLID_1536_" class="st1" d="M4.4,42.1c0.3,0.2,0.3,0.4,0,0.6c-0.3,0.2-0.7,0.2-1,0c-0.3-0.2-0.3-0.4,0-0.6
			C3.7,41.9,4.1,41.9,4.4,42.1z"/>
		<ellipse id="XMLID_1535_" class="st1" cx="6.4" cy="40.9" rx="0.7" ry="0.4"/>
	</g>
</g>
</svg>
