<?xml version="1.0" encoding="utf-8"?>
<!-- Generator: Adobe Illustrator 22.1.0, SVG Export Plug-In . SVG Version: 6.00 Build 0)  -->
<svg version="1.1" id="content" xmlns="http://www.w3.org/2000/svg" xmlns:xlink="http://www.w3.org/1999/xlink" x="0px" y="0px"
	 viewBox="0 0 212.7 260.7" style="enable-background:new 0 0 212.7 260.7;" xml:space="preserve">
<style type="text/css">
	.st0{fill:#16110D;}
	.st1{fill:#FFEB00;}
	.st2{fill:#FFFFFF;}
	.st3{fill:#FFBE2E;}
</style>
<g>
	<path id="XMLID_875_" class="st0" d="M203.5,91.5L96.4,29.8c-0.8-0.5-1.7-0.6-2.4-0.4l0-0.1l-3.8,2.1l3,4.3l0.1,91
		c0,2.9,1.8,6.3,4,7.5l104.5,64l0.2,0.1l1.3-0.5l2.2-1.2l0.5-0.3c0.9-0.6,1.4-1.8,1.4-3.3l0.2-94C207.5,96.2,205.7,92.8,203.5,91.5z
		"/>
	<g id="XMLID_951_">
		<path id="XMLID_1654_" class="st1" d="M200.6,197.8L93.5,136.2c-2.1-1.2-3.8-4.4-3.8-7.2l-0.1-94.4c0-2.8,1.7-4,3.7-2.8
			l107.1,61.7c2.1,1.2,3.8,4.4,3.8,7.2l0.1,91.6C204.4,195,202.7,199,200.6,197.8z"/>
		<path id="XMLID_1655_" class="st0" d="M201.4,198.5c-0.3,0-0.7-0.1-1-0.3L93.3,136.6c-2.2-1.3-4-4.7-4-7.6l-0.1-94.4
			c0-1.6,0.6-2.9,1.5-3.4c0.8-0.5,1.9-0.4,2.9,0.2L200.8,93c2.2,1.3,4,4.7,4,7.6l0.1,91.6c0,2.2-1,5.1-2.5,6
			C202,198.4,201.7,198.5,201.4,198.5z M92,31.7c-0.3,0-0.5,0.1-0.7,0.2c-0.7,0.4-1.1,1.4-1.1,2.6l0.1,94.4c0,2.6,1.6,5.7,3.5,6.8
			l107.1,61.7c0.4,0.2,0.7,0.2,1,0c1.2-0.7,2.1-3.3,2.1-5.2l-0.1-91.6c0-2.6-1.6-5.7-3.5-6.8L93.2,32.1C92.8,31.9,92.4,31.7,92,31.7
			z"/>
	</g>
	<g id="XMLID_950_">
		<path id="XMLID_1643_" class="st2" d="M198,188.1L96,129.4c-0.9-0.5-1.7-1.9-1.7-3.2l-0.1-85c0-1.2,0.7-1.8,1.7-1.3l101.9,58.7
			c0.9,0.5,1.7,1.9,1.7,3.2l0.1,85C199.6,188,198.9,188.6,198,188.1z"/>
		<path id="XMLID_1644_" class="st0" d="M198.6,188.7c-0.3,0-0.6-0.1-0.9-0.3L95.8,129.7c-1.1-0.6-1.9-2.2-1.9-3.6l-0.1-85
			c0-0.8,0.3-1.4,0.8-1.7c0.4-0.3,1-0.2,1.5,0.1l101.9,58.7c1.1,0.6,1.9,2.2,1.9,3.6l0.1,85c0,0.8-0.3,1.4-0.8,1.7
			C199.1,188.7,198.9,188.7,198.6,188.7z M198.2,187.7c0.1,0.1,0.4,0.2,0.6,0.1c0.2-0.1,0.3-0.5,0.3-1l-0.1-85
			c0-1.1-0.7-2.3-1.4-2.8L95.8,40.3c-0.1-0.1-0.4-0.2-0.6-0.1c-0.2,0.1-0.3,0.5-0.3,1l0.1,85c0,1.1,0.7,2.3,1.4,2.8L198.2,187.7z"/>
	</g>
	<path id="XMLID_876_" class="st0" d="M147.4,64.3l-0.4-0.2c-0.4-0.2-0.8-0.2-1.1,0c-0.4,0.2-0.6,0.6-0.6,1.2c0,0.9,0.5,1.8,1.2,2.2
		l0.4,0.2c0.2,0.1,0.4,0.2,0.6,0.2c0.2,0,0.3,0,0.5-0.1c0.4-0.2,0.6-0.6,0.6-1.2C148.6,65.7,148.1,64.7,147.4,64.3z"/>
	<path id="XMLID_873_" class="st0" d="M193.9,196.6L91.5,137.6c-2.2-1.3-6-1.1-8.5,0.3L8.5,181.1l-4.3-0.4l0,3.2l0.2,0
		c0.2,1,0.7,2.1,1.5,2.5l107.1,61.7c1,0.6,2.3,0.9,3.7,0.9c1.7,0,3.4-0.4,4.8-1.2l76.7-41.8c1.4-0.8,2.2-1.9,2.2-3l0-6L193.9,196.6z
		"/>
	<path id="XMLID_1631_" class="st1" d="M113.1,244.9L6,183.3c-2.1-1.2-1.8-3.3,0.6-4.7l76.7-44.4c2.4-1.4,6-1.5,8.1-0.3l107.1,61.7
		c2.1,1.2,1.8,3.3-0.6,4.7l-76.7,44.4C118.8,246,115.1,246.1,113.1,244.9z"/>
	<path id="XMLID_880_" class="st2" d="M91.4,135.8c-2.1-1.2-5.7-1-8.1,0.3L6.7,180.5c-1,0.6-1.6,1.3-1.8,2c0.2,0.4,0.6,0.9,1.2,1.2
		l107.1,61.7c2.1,1.2,5.7,1,8.1-0.3l76.7-44.4c1-0.6,1.6-1.3,1.8-2c-0.2-0.4-0.6-0.9-1.2-1.2L91.4,135.8z"/>
	<g id="XMLID_944_">
		<path id="XMLID_1627_" class="st1" d="M143.9,224.2L41.9,165.4c-0.9-0.5-0.8-1.5,0.3-2.1L85,138.5c1.1-0.6,2.7-0.7,3.6-0.2
			l101.9,58.7c0.9,0.5,0.8,1.5-0.3,2.1L147.4,224C146.4,224.6,144.8,224.7,143.9,224.2z"/>
		<path id="XMLID_1628_" class="st0" d="M145.4,225c-0.7,0-1.3-0.1-1.8-0.4L41.7,165.8c-0.5-0.3-0.8-0.8-0.8-1.3
			c0-0.6,0.4-1.2,1.1-1.6l42.8-24.8c1.2-0.7,3-0.8,4-0.2l101.9,58.7c0.5,0.3,0.8,0.8,0.8,1.3c0,0.6-0.4,1.2-1.1,1.6l-42.8,24.8
			C147,224.8,146.2,225,145.4,225z M144.1,223.8c0.8,0.4,2.2,0.4,3.1-0.2l42.8-24.8c0.4-0.2,0.7-0.5,0.7-0.8c0-0.2-0.2-0.4-0.4-0.5
			L88.3,138.8c-0.8-0.4-2.2-0.4-3.1,0.2l-42.8,24.8c-0.4,0.2-0.7,0.5-0.7,0.8c0,0.2,0.2,0.4,0.4,0.5L144.1,223.8z"/>
	</g>
	<g id="XMLID_943_">
		<path id="XMLID_1623_" class="st1" d="M77.9,219.7l-28.2-16.3c-0.5-0.3-0.4-0.8,0.1-1.1l22.8-13.3c0.6-0.3,1.4-0.4,1.9-0.1
			l28.2,16.3c0.5,0.3,0.4,0.8-0.1,1.1l-22.8,13.3C79.2,220,78.4,220,77.9,219.7z"/>
		<path id="XMLID_1624_" class="st0" d="M78.7,220.4c-0.4,0-0.8-0.1-1.1-0.2l-28.2-16.3c-0.4-0.2-0.6-0.5-0.6-0.9
			c0-0.4,0.3-0.8,0.7-1l22.8-13.3c0.7-0.4,1.7-0.4,2.4-0.1l28.2,16.3c0.4,0.2,0.6,0.5,0.6,0.9c0,0.4-0.2,0.8-0.7,1L80,220
			C79.6,220.2,79.2,220.4,78.7,220.4z M73.7,189.3c-0.3,0-0.6,0.1-0.9,0.2L50,202.8c-0.2,0.1-0.2,0.2-0.2,0.2c0,0,0,0,0.1,0.1
			l28.2,16.3c0.4,0.2,1,0.2,1.5-0.1l22.8-13.3c0.2-0.1,0.2-0.2,0.2-0.2c0,0,0,0-0.1-0.1l-28.2-16.3
			C74.2,189.3,73.9,189.3,73.7,189.3z"/>
	</g>
	<path id="XMLID_874_" class="st0" d="M190.7,196.7L88.8,138c-1.1-0.6-2.8-0.5-4,0.2L41.9,163c-0.7,0.4-1.1,1-1.1,1.6
		c0,0.5,0.3,1,0.8,1.3l0.7,0.4l42.8-24.8c0.9-0.5,2.3-0.6,3.1-0.2l101.4,58.4l0.2,0.1l0.5-0.3c0.7-0.4,1.1-1,1.1-1.6
		C191.6,197.5,191.3,197,190.7,196.7z"/>
	<path id="XMLID_872_" class="st0" d="M103,204.9l-28.2-16.3c-0.6-0.4-1.6-0.3-2.4,0.1L49.6,202c-0.4,0.3-0.7,0.6-0.7,1
		c0,0.3,0.2,0.7,0.6,0.9l1,0.6l22.4-13c0.4-0.2,1.1-0.3,1.5-0.1l27.4,15.8l0.2,0.1l0.9-0.5c0.4-0.3,0.7-0.6,0.7-1
		C103.5,205.4,103.3,205.1,103,204.9z"/>
	<g id="XMLID_940_">
		<path id="XMLID_1612_" class="st0" d="M79.1,220.6c-0.6,0-1.4-0.4-1.4-0.5l-26.6-15.3c-0.4-0.2-0.8-0.4-0.7-0.8
			c0-0.2,0.1-0.4,0.4-0.6l5.5-3.2c0.4-0.2,1.2,0.2,1.5,0.3l26.4,15.2c0.9,0.5,0.9,0.8,0.9,1v0.3l-0.3,0.2l-5.5,3.3
			C79.4,220.6,79.3,220.6,79.1,220.6z M51.6,204.1C51.6,204.1,51.6,204.1,51.6,204.1l0.2,0.1l26.5,15.2c0.3,0.2,0.7,0.3,0.9,0.3l5-3
			c0,0-0.1-0.1-0.2-0.1l-26.4-15.2c-0.3-0.2-0.6-0.3-0.7-0.3L51.6,204.1z"/>
	</g>
	<g id="XMLID_800_">
		<path id="XMLID_802_" class="st0" d="M82.4,147.4l2.9,1.6c0.4,0.2,0.9,0.3,1.4,0.3c0.6,0,1.3-0.2,1.8-0.5l1.2-0.7
			c0.6-0.3,0.9-0.8,0.9-1.3c0-0.4-0.3-0.8-0.7-1.1l-2.9-1.6c-0.9-0.5-2.3-0.4-3.3,0.1l-1.2,0.7c-0.6,0.3-0.9,0.8-0.9,1.3
			C81.7,146.7,81.9,147.1,82.4,147.4z"/>
		<path id="XMLID_1607_" class="st0" d="M88.8,150.4c0,0.4,0.3,0.8,0.7,1.1l2.9,1.6h0c0.4,0.2,0.9,0.3,1.4,0.3
			c0.6,0,1.3-0.2,1.8-0.5l1.2-0.7c0.6-0.3,0.9-0.8,0.9-1.3c0-0.4-0.3-0.8-0.7-1.1l-2.9-1.6c-0.9-0.5-2.3-0.4-3.3,0.1l-1.2,0.7
			C89.2,149.4,88.8,149.9,88.8,150.4z"/>
		<path id="XMLID_1670_" class="st0" d="M96,154.5c0,0.4,0.3,0.8,0.7,1.1l2.9,1.6c0.4,0.2,0.9,0.3,1.4,0.3c0.6,0,1.3-0.2,1.8-0.5
			l1.2-0.7c0.6-0.3,0.9-0.8,0.9-1.3c0-0.4-0.3-0.8-0.7-1.1l-2.9-1.6c-0.9-0.5-2.3-0.4-3.3,0.1l-1.2,0.7C96.3,153.5,96,154,96,154.5z
			"/>
		<path id="XMLID_1671_" class="st0" d="M103.1,158.6c0,0.4,0.3,0.8,0.7,1.1l2.9,1.6c0.4,0.2,0.9,0.3,1.4,0.3c0.6,0,1.3-0.2,1.8-0.5
			l1.2-0.7c0.6-0.3,0.9-0.8,0.9-1.3c0-0.4-0.3-0.8-0.7-1.1l-2.9-1.6c-0.9-0.5-2.3-0.4-3.3,0.1l-1.2,0.7
			C103.4,157.6,103.1,158.1,103.1,158.6z"/>
		<path id="XMLID_1672_" class="st0" d="M110.2,162.7c0,0.4,0.3,0.8,0.7,1.1l2.9,1.6c0.4,0.2,0.9,0.3,1.4,0.3c0.6,0,1.3-0.2,1.8-0.5
			l1.2-0.7c0.6-0.3,0.9-0.8,0.9-1.3c0-0.4-0.3-0.8-0.7-1.1l-2.9-1.6c-0.9-0.5-2.3-0.4-3.3,0.1l-1.2,0.7
			C110.5,161.7,110.2,162.2,110.2,162.7z"/>
		<path id="XMLID_1673_" class="st0" d="M117.3,166.8c0,0.4,0.3,0.8,0.7,1.1l2.9,1.6h0c0.4,0.2,0.9,0.3,1.4,0.3
			c0.6,0,1.3-0.2,1.8-0.5l1.2-0.7c0.6-0.3,0.9-0.8,0.9-1.3c0-0.4-0.3-0.8-0.7-1.1l-2.9-1.6c-0.9-0.5-2.3-0.4-3.3,0.1l-1.2,0.7
			C117.7,165.8,117.3,166.3,117.3,166.8z"/>
		<path id="XMLID_1674_" class="st0" d="M124.5,170.9c0,0.4,0.3,0.8,0.7,1.1l2.9,1.6c0.4,0.2,0.9,0.3,1.4,0.3c0.6,0,1.3-0.2,1.8-0.5
			l1.2-0.7c0.6-0.3,0.9-0.8,0.9-1.3c0-0.4-0.3-0.8-0.7-1.1l-2.9-1.6c-0.9-0.5-2.3-0.4-3.3,0.1l-1.2,0.7
			C124.8,169.9,124.5,170.4,124.5,170.9z"/>
		<path id="XMLID_1675_" class="st0" d="M131.6,175c0,0.4,0.3,0.8,0.7,1.1l2.9,1.6c0.4,0.2,0.9,0.3,1.4,0.3c0.6,0,1.3-0.2,1.8-0.5
			l1.2-0.7c0.6-0.3,0.9-0.8,0.9-1.3c0-0.4-0.3-0.8-0.7-1.1l-2.9-1.6c-0.9-0.5-2.3-0.4-3.3,0.1l-1.2,0.7
			C131.9,174,131.6,174.5,131.6,175z"/>
		<path id="XMLID_1676_" class="st0" d="M138.7,179.1c0,0.4,0.3,0.8,0.7,1.1l2.9,1.6h0c0.4,0.2,0.9,0.3,1.4,0.3
			c0.6,0,1.3-0.2,1.8-0.5l1.2-0.7c0.6-0.3,0.9-0.8,0.9-1.3c0-0.4-0.3-0.8-0.7-1.1l-2.9-1.6c-0.9-0.5-2.3-0.4-3.3,0.1l-1.2,0.7
			C139.1,178.2,138.7,178.6,138.7,179.1z"/>
		<path id="XMLID_1677_" class="st0" d="M145.9,183.2c0,0.4,0.3,0.8,0.7,1.1l2.9,1.6h0c0.4,0.2,0.9,0.3,1.4,0.3
			c0.6,0,1.3-0.2,1.8-0.5l1.2-0.7c0.6-0.3,0.9-0.8,0.9-1.3c0-0.4-0.3-0.8-0.7-1.1l-2.9-1.6c-0.9-0.5-2.3-0.4-3.3,0.1l-1.2,0.7
			C146.2,182.3,145.9,182.7,145.9,183.2z"/>
		<path id="XMLID_1678_" class="st0" d="M153.2,187.5c0,0.4,0.3,0.8,0.7,1.1l2.9,1.6c0.4,0.2,0.9,0.3,1.4,0.3c0.6,0,1.3-0.2,1.8-0.5
			l1.2-0.7c0.6-0.3,0.9-0.8,0.9-1.3c0-0.4-0.3-0.8-0.7-1.1l-2.9-1.6c-0.9-0.5-2.3-0.4-3.3,0.1l-1.2,0.7
			C153.5,186.5,153.2,187,153.2,187.5z"/>
		<path id="XMLID_1679_" class="st0" d="M160.3,191.6c0,0.4,0.3,0.8,0.7,1.1l2.9,1.6h0c0.4,0.2,0.9,0.3,1.4,0.3
			c0.6,0,1.3-0.2,1.8-0.5l1.2-0.7c0.6-0.3,0.9-0.8,0.9-1.3c0-0.4-0.3-0.8-0.7-1.1l-2.9-1.6c-0.9-0.5-2.3-0.4-3.3,0.1l-1.2,0.7
			C160.7,190.6,160.3,191.1,160.3,191.6z"/>
		<path id="XMLID_1680_" class="st0" d="M167.5,195.7c0,0.4,0.3,0.8,0.7,1.1l2.9,1.6c0.4,0.2,0.9,0.3,1.4,0.3c0.6,0,1.3-0.2,1.8-0.5
			l1.2-0.7c0.6-0.3,0.9-0.8,0.9-1.3c0-0.4-0.3-0.8-0.7-1.1l-2.9-1.6c-0.9-0.5-2.3-0.4-3.3,0.1l-1.2,0.7
			C167.8,194.7,167.5,195.2,167.5,195.7z"/>
		<path id="XMLID_1681_" class="st0" d="M182.8,199.3l-2.9-1.6c-0.9-0.5-2.3-0.4-3.3,0.1l-1.2,0.7c-0.6,0.3-0.9,0.8-0.9,1.3
			c0,0.4,0.3,0.8,0.7,1.1l2.9,1.6c0.4,0.2,0.9,0.3,1.4,0.3c0.6,0,1.3-0.2,1.8-0.5l1.2-0.7c0.6-0.3,0.9-0.8,0.9-1.3
			C183.5,200,183.2,199.6,182.8,199.3z"/>
		<path id="XMLID_1682_" class="st0" d="M74.1,152.1l3,1.7c0.4,0.2,0.9,0.3,1.4,0.3c0.6,0,1.3-0.2,1.8-0.5l3.5-2
			c0.6-0.3,0.9-0.8,0.9-1.3c0-0.4-0.3-0.8-0.7-1.1l-3-1.7c-0.9-0.5-2.3-0.4-3.3,0.1l-3.5,2c-0.6,0.3-0.9,0.8-0.9,1.3
			C73.4,151.5,73.6,151.8,74.1,152.1z"/>
		<path id="XMLID_1683_" class="st0" d="M91.1,153.4l-3-1.7c-0.9-0.5-2.3-0.4-3.3,0.1l-3.5,2c-0.6,0.3-0.9,0.8-0.9,1.3
			c0,0.4,0.3,0.8,0.7,1.1l3,1.7c0.4,0.2,0.9,0.3,1.4,0.3c0.6,0,1.3-0.2,1.8-0.5l3.5-2c0.6-0.3,0.9-0.8,0.9-1.3
			C91.8,154.1,91.6,153.7,91.1,153.4z"/>
		<path id="XMLID_1684_" class="st0" d="M98.3,157.6l-3-1.7c-0.9-0.5-2.3-0.4-3.3,0.1l-3.5,2c-0.6,0.3-0.9,0.8-0.9,1.3
			c0,0.4,0.3,0.8,0.7,1.1l3,1.7c0.4,0.2,0.9,0.3,1.4,0.3c0.6,0,1.3-0.2,1.8-0.5l3.5-2c0.6-0.3,0.9-0.8,0.9-1.3
			C99,158.2,98.8,157.8,98.3,157.6z"/>
		<path id="XMLID_1685_" class="st0" d="M105.5,161.7l-3-1.7c-0.9-0.5-2.3-0.4-3.3,0.1l-3.5,2c-0.6,0.3-0.9,0.8-0.9,1.3
			c0,0.4,0.3,0.8,0.7,1.1l3,1.7c0.4,0.2,0.9,0.3,1.4,0.3c0.6,0,1.3-0.2,1.8-0.5l3.5-2c0.6-0.3,0.9-0.8,0.9-1.3
			C106.2,162.3,105.9,161.9,105.5,161.7z"/>
		<path id="XMLID_1686_" class="st0" d="M112.6,165.8l-3-1.7c-0.9-0.5-2.3-0.4-3.3,0.1l-3.5,2c-0.6,0.3-0.9,0.8-0.9,1.3
			c0,0.4,0.3,0.8,0.7,1.1l3,1.7c0.4,0.2,0.9,0.3,1.4,0.3c0.6,0,1.3-0.2,1.8-0.5l3.5-2c0.6-0.3,0.9-0.8,0.9-1.3
			C113.3,166.4,113,166,112.6,165.8z"/>
		<path id="XMLID_1687_" class="st0" d="M119.8,169.9l-3-1.7c-0.9-0.5-2.3-0.4-3.3,0.1l-3.5,2c-0.6,0.3-0.9,0.8-0.9,1.3
			c0,0.4,0.3,0.8,0.7,1.1l3,1.7c0.4,0.2,0.9,0.3,1.4,0.3c0.6,0,1.3-0.2,1.8-0.5l3.5-2c0.6-0.3,0.9-0.8,0.9-1.3
			C120.5,170.6,120.2,170.2,119.8,169.9z"/>
		<path id="XMLID_1688_" class="st0" d="M126.9,174l-3-1.7c-0.9-0.5-2.3-0.4-3.3,0.1l-3.5,2c-0.6,0.3-0.9,0.8-0.9,1.3
			c0,0.4,0.3,0.8,0.7,1.1l3,1.7c0.4,0.2,0.9,0.3,1.4,0.3c0.6,0,1.3-0.2,1.8-0.5l3.5-2c0.6-0.3,0.9-0.8,0.9-1.3
			C127.6,174.7,127.4,174.3,126.9,174z"/>
		<path id="XMLID_1689_" class="st0" d="M134.1,178.2l-3-1.7c-0.9-0.5-2.3-0.4-3.3,0.1l-3.5,2c-0.6,0.3-0.9,0.8-0.9,1.3
			c0,0.4,0.3,0.8,0.7,1.1l3,1.7c0.4,0.2,0.9,0.3,1.4,0.3c0.6,0,1.3-0.2,1.8-0.5l3.5-2c0.6-0.3,0.9-0.8,0.9-1.3
			C134.8,178.8,134.6,178.4,134.1,178.2z"/>
		<path id="XMLID_1690_" class="st0" d="M141.2,182.3l-3-1.7c-0.9-0.5-2.3-0.4-3.3,0.1l-3.5,2c-0.6,0.3-0.9,0.8-0.9,1.3
			c0,0.4,0.3,0.8,0.7,1.1l3,1.7c0.4,0.2,0.9,0.3,1.4,0.3c0.6,0,1.3-0.2,1.8-0.5l3.5-2c0.6-0.3,0.9-0.8,0.9-1.3
			C142,182.9,141.7,182.6,141.2,182.3z"/>
		<path id="XMLID_1691_" class="st0" d="M148.4,186.4l-3-1.7c-0.9-0.5-2.3-0.4-3.3,0.1l-3.5,2c-0.6,0.3-0.9,0.8-0.9,1.3
			c0,0.4,0.3,0.8,0.7,1.1l3,1.7c0.4,0.2,0.9,0.3,1.4,0.3c0.6,0,1.3-0.2,1.8-0.5l3.5-2c0.6-0.3,0.9-0.8,0.9-1.3
			C149.1,187,148.8,186.7,148.4,186.4z"/>
		<path id="XMLID_1692_" class="st0" d="M150.1,195.4c0.6,0,1.3-0.2,1.8-0.5l3.5-2c0.6-0.3,0.9-0.8,0.9-1.3c0-0.4-0.3-0.8-0.7-1.1
			l-3-1.7c-0.9-0.5-2.3-0.4-3.3,0.1l-3.5,2c-0.6,0.3-0.9,0.8-0.9,1.3c0,0.4,0.3,0.8,0.7,1.1l3,1.7
			C149,195.3,149.6,195.4,150.1,195.4z"/>
		<path id="XMLID_1693_" class="st0" d="M157.2,199.5c0.6,0,1.3-0.2,1.8-0.5l3.5-2c0.6-0.3,0.9-0.8,0.9-1.3c0-0.4-0.3-0.8-0.7-1.1
			l-3-1.7c-0.9-0.5-2.3-0.4-3.3,0.1l-3.5,2c-0.6,0.3-0.9,0.8-0.9,1.3c0,0.4,0.3,0.8,0.7,1.1l3,1.7
			C156.2,199.4,156.7,199.5,157.2,199.5z"/>
		<path id="XMLID_1694_" class="st0" d="M159.9,201.5l3,1.7c0.4,0.2,0.9,0.3,1.4,0.3c0.6,0,1.3-0.2,1.8-0.5l3.5-2
			c0.6-0.3,0.9-0.8,0.9-1.3c0-0.4-0.3-0.8-0.7-1.1l-3-1.7c-0.9-0.5-2.3-0.4-3.3,0.1l-3.5,2c-0.6,0.3-0.9,0.8-0.9,1.3
			C159.2,200.9,159.4,201.3,159.9,201.5z"/>
		<path id="XMLID_1695_" class="st0" d="M177,202.9l-3-1.7c-0.9-0.5-2.3-0.4-3.3,0.1l-3.5,2c-0.6,0.3-0.9,0.8-0.9,1.3
			c0,0.4,0.3,0.8,0.7,1.1l3,1.7c0.4,0.2,0.9,0.3,1.4,0.3c0.6,0,1.3-0.2,1.8-0.5l3.5-2c0.6-0.3,0.9-0.8,0.9-1.3
			C177.7,203.6,177.5,203.2,177,202.9z"/>
		<path id="XMLID_1696_" class="st0" d="M65.8,157l3,1.7c0.4,0.2,0.9,0.3,1.4,0.3c0.6,0,1.3-0.2,1.8-0.5l3.5-2
			c0.6-0.3,0.9-0.8,0.9-1.3c0-0.4-0.3-0.8-0.7-1.1l-3-1.7c-0.9-0.5-2.3-0.4-3.3,0.1l-3.5,2c-0.6,0.3-0.9,0.8-0.9,1.3
			C65.1,156.3,65.4,156.7,65.8,157z"/>
		<path id="XMLID_1697_" class="st0" d="M76.6,156.7l-3.5,2c-0.6,0.3-0.9,0.8-0.9,1.3c0,0.4,0.3,0.8,0.7,1.1l3,1.7
			c0.4,0.2,0.9,0.3,1.4,0.3c0.6,0,1.3-0.2,1.8-0.5l3.5-2c0.6-0.3,0.9-0.8,0.9-1.3c0-0.4-0.3-0.8-0.7-1.1l-3-1.7
			C79,156.1,77.6,156.1,76.6,156.7z"/>
		<path id="XMLID_1698_" class="st0" d="M90.8,163.5c0-0.4-0.3-0.8-0.7-1.1l-3-1.7c-0.9-0.5-2.3-0.4-3.3,0.1l-3.5,2
			c-0.6,0.3-0.9,0.8-0.9,1.3c0,0.4,0.3,0.8,0.7,1.1l3,1.7c0.4,0.2,0.9,0.3,1.4,0.3c0.6,0,1.3-0.2,1.8-0.5l3.5-2
			C90.5,164.5,90.8,164,90.8,163.5z"/>
		<path id="XMLID_1699_" class="st0" d="M87.3,169.3l3,1.7c0.4,0.2,0.9,0.3,1.4,0.3c0.6,0,1.3-0.2,1.8-0.5l3.5-2
			c0.6-0.3,0.9-0.8,0.9-1.3c0-0.4-0.3-0.8-0.7-1.1l-3-1.7c-0.9-0.5-2.3-0.4-3.3,0.1l-3.5,2c-0.6,0.3-0.9,0.8-0.9,1.3
			C86.6,168.7,86.8,169.1,87.3,169.3z"/>
		<path id="XMLID_1700_" class="st0" d="M94.4,173.4l3,1.7c0.4,0.2,0.9,0.3,1.4,0.3c0.6,0,1.3-0.2,1.8-0.5l3.5-2
			c0.6-0.3,0.9-0.8,0.9-1.3c0-0.4-0.3-0.8-0.7-1.1l-3-1.7c-0.9-0.5-2.3-0.4-3.3,0.1l-3.5,2c-0.6,0.3-0.9,0.8-0.9,1.3
			C93.7,172.8,94,173.2,94.4,173.4z"/>
		<path id="XMLID_1701_" class="st0" d="M101.6,177.6l3,1.7c0.4,0.2,0.9,0.3,1.4,0.3c0.6,0,1.3-0.2,1.8-0.5l3.5-2
			c0.6-0.3,0.9-0.8,0.9-1.3c0-0.4-0.3-0.8-0.7-1.1l-3-1.7c-0.9-0.5-2.3-0.4-3.3,0.1l-3.5,2c-0.6,0.3-0.9,0.8-0.9,1.3
			C100.9,176.9,101.2,177.3,101.6,177.6z"/>
		<path id="XMLID_1702_" class="st0" d="M108.8,181.7l3,1.7c0.4,0.2,0.9,0.3,1.4,0.3c0.6,0,1.3-0.2,1.8-0.5l3.5-2
			c0.6-0.3,0.9-0.8,0.9-1.3c0-0.4-0.3-0.8-0.7-1.1l-3-1.7c-0.9-0.5-2.3-0.4-3.3,0.1l-3.5,2c-0.6,0.3-0.9,0.8-0.9,1.3
			C108.1,181,108.3,181.4,108.8,181.7z"/>
		<path id="XMLID_1703_" class="st0" d="M116,185.8l3,1.7c0.4,0.2,0.9,0.3,1.4,0.3c0.6,0,1.3-0.2,1.8-0.5l3.5-2
			c0.6-0.3,0.9-0.8,0.9-1.3c0-0.4-0.3-0.8-0.7-1.1l-3-1.7c-0.9-0.5-2.3-0.4-3.3,0.1l-3.5,2c-0.6,0.3-0.9,0.8-0.9,1.3
			C115.3,185.2,115.5,185.6,116,185.8z"/>
		<path id="XMLID_1704_" class="st0" d="M123.1,190l3,1.7c0.4,0.2,0.9,0.3,1.4,0.3c0.6,0,1.3-0.2,1.8-0.5l3.5-2
			c0.6-0.3,0.9-0.8,0.9-1.3c0-0.4-0.3-0.8-0.7-1.1l-3-1.7c-0.9-0.5-2.3-0.4-3.3,0.1l-3.5,2c-0.6,0.3-0.9,0.8-0.9,1.3
			C122.4,189.3,122.6,189.7,123.1,190z"/>
		<path id="XMLID_1705_" class="st0" d="M130.2,194.1l3,1.7c0.4,0.2,0.9,0.3,1.4,0.3c0.6,0,1.3-0.2,1.8-0.5l3.5-2
			c0.6-0.3,0.9-0.8,0.9-1.3c0-0.4-0.3-0.8-0.7-1.1l-3-1.7c-0.9-0.5-2.3-0.4-3.3,0.1l-3.5,2c-0.6,0.3-0.9,0.8-0.9,1.3
			C129.5,193.4,129.8,193.8,130.2,194.1z"/>
		<path id="XMLID_1706_" class="st0" d="M137.4,198.2l3,1.7c0.4,0.2,0.9,0.3,1.4,0.3c0.6,0,1.3-0.2,1.8-0.5l3.5-2
			c0.6-0.3,0.9-0.8,0.9-1.3c0-0.4-0.3-0.8-0.7-1.1l-3-1.7c-0.9-0.5-2.3-0.4-3.3,0.1l-3.5,2c-0.6,0.3-0.9,0.8-0.9,1.3
			C136.7,197.6,137,197.9,137.4,198.2z"/>
		<path id="XMLID_1708_" class="st0" d="M155.2,200.6c0-0.4-0.3-0.8-0.7-1.1l-3-1.7c-0.9-0.5-2.3-0.4-3.3,0.1l-3.5,2
			c-0.6,0.3-0.9,0.8-0.9,1.3c0,0.4,0.3,0.8,0.7,1.1l3,1.7c0.4,0.2,0.9,0.3,1.4,0.3c0.6,0,1.3-0.2,1.8-0.5l3.5-2
			C154.9,201.6,155.2,201.1,155.2,200.6z"/>
		<path id="XMLID_1709_" class="st0" d="M168.8,207.8l-10.2-5.9c-0.9-0.5-2.3-0.4-3.3,0.1l-3.5,2c-0.6,0.3-0.9,0.8-0.9,1.3
			c0,0.4,0.3,0.8,0.7,1.1l10.2,5.9c0.4,0.2,0.9,0.3,1.4,0.3c0.6,0,1.3-0.2,1.8-0.5l3.5-2c0.6-0.3,0.9-0.8,0.9-1.3
			C169.5,208.4,169.3,208,168.8,207.8z"/>
		<path id="XMLID_1710_" class="st0" d="M57.2,161.8l10.1,5.8c0.4,0.2,0.9,0.3,1.4,0.3c0.6,0,1.3-0.2,1.8-0.5l3.5-2
			c0.6-0.3,0.9-0.8,0.9-1.3c0-0.4-0.3-0.8-0.7-1.1l-10.1-5.8c-0.9-0.5-2.3-0.4-3.3,0.1l-3.5,2c-0.6,0.3-0.9,0.8-0.9,1.3
			C56.5,161.2,56.8,161.6,57.2,161.8z"/>
		<path id="XMLID_1722_" class="st0" d="M70.9,169c0,0.4,0.3,0.8,0.7,1.1l3,1.7c0.4,0.2,0.9,0.3,1.4,0.3c0.6,0,1.3-0.2,1.8-0.5
			l3.5-2c0.6-0.3,0.9-0.8,0.9-1.3c0-0.4-0.3-0.8-0.7-1.1l-3-1.7c-0.9-0.5-2.3-0.4-3.3,0.1l-3.5,2C71.2,168,70.9,168.5,70.9,169z"/>
		<path id="XMLID_1723_" class="st0" d="M78.7,174.2l3,1.7c0.4,0.2,0.9,0.3,1.4,0.3c0.6,0,1.3-0.2,1.8-0.5l3.5-2
			c0.6-0.3,0.9-0.8,0.9-1.3c0-0.4-0.3-0.8-0.7-1.1l-3-1.7c-0.9-0.5-2.3-0.4-3.3,0.1l-3.5,2c-0.6,0.3-0.9,0.8-0.9,1.3
			C78,173.6,78.2,173.9,78.7,174.2z"/>
		<path id="XMLID_1724_" class="st0" d="M85.8,178.3l3,1.7c0.4,0.2,0.9,0.3,1.4,0.3c0.6,0,1.3-0.2,1.8-0.5l3.5-2
			c0.6-0.3,0.9-0.8,0.9-1.3c0-0.4-0.3-0.8-0.7-1.1l-3-1.7c-0.9-0.5-2.3-0.4-3.3,0.1l-3.5,2c-0.6,0.3-0.9,0.8-0.9,1.3
			C85.1,177.7,85.4,178,85.8,178.3z"/>
		<path id="XMLID_1725_" class="st0" d="M93,182.5l3,1.7c0.4,0.2,0.9,0.3,1.4,0.3c0.6,0,1.3-0.2,1.8-0.5l3.5-2
			c0.6-0.3,0.9-0.8,0.9-1.3c0-0.4-0.3-0.8-0.7-1.1l-3-1.7c-0.9-0.5-2.3-0.4-3.3,0.1l-3.5,2c-0.6,0.3-0.9,0.8-0.9,1.3
			C92.3,181.8,92.6,182.2,93,182.5z"/>
		<path id="XMLID_1726_" class="st0" d="M100.2,186.6l3,1.7c0.4,0.2,0.9,0.3,1.4,0.3c0.6,0,1.3-0.2,1.8-0.5l3.5-2
			c0.6-0.3,0.9-0.8,0.9-1.3c0-0.4-0.3-0.8-0.7-1.1l-3-1.7c-0.9-0.5-2.3-0.4-3.3,0.1l-3.5,2c-0.6,0.3-0.9,0.8-0.9,1.3
			C99.5,185.9,99.7,186.3,100.2,186.6z"/>
		<path id="XMLID_1727_" class="st0" d="M107.4,190.7l3,1.7c0.4,0.2,0.9,0.3,1.4,0.3c0.6,0,1.3-0.2,1.8-0.5l3.5-2
			c0.6-0.3,0.9-0.8,0.9-1.3c0-0.4-0.3-0.8-0.7-1.1l-3-1.7c-0.9-0.5-2.3-0.4-3.3,0.1l-3.5,2c-0.6,0.3-0.9,0.8-0.9,1.3
			C106.7,190.1,106.9,190.4,107.4,190.7z"/>
		<path id="XMLID_1728_" class="st0" d="M114.5,194.8l3,1.7c0.4,0.2,0.9,0.3,1.4,0.3c0.6,0,1.3-0.2,1.8-0.5l3.5-2
			c0.6-0.3,0.9-0.8,0.9-1.3c0-0.4-0.3-0.8-0.7-1.1l-3-1.7c-0.9-0.5-2.3-0.4-3.3,0.1l-3.5,2c-0.6,0.3-0.9,0.8-0.9,1.3
			C113.8,194.2,114,194.6,114.5,194.8z"/>
		<path id="XMLID_1730_" class="st0" d="M121.6,198.9l3,1.7c0.4,0.2,0.9,0.3,1.4,0.3c0.6,0,1.3-0.2,1.8-0.5l3.5-2
			c0.6-0.3,0.9-0.8,0.9-1.3c0-0.4-0.3-0.8-0.7-1.1l-3-1.7c-0.9-0.5-2.3-0.4-3.3,0.1l-3.5,2c-0.6,0.3-0.9,0.8-0.9,1.3
			C120.9,198.3,121.2,198.7,121.6,198.9z"/>
		<path id="XMLID_1731_" class="st0" d="M128.8,203.1l3,1.7c0.4,0.2,0.9,0.3,1.4,0.3c0.6,0,1.3-0.2,1.8-0.5l3.5-2
			c0.6-0.3,0.9-0.8,0.9-1.3c0-0.4-0.3-0.8-0.7-1.1l-3-1.7c-0.9-0.5-2.3-0.4-3.3,0.1l-3.5,2c-0.6,0.3-0.9,0.8-0.9,1.3
			C128.1,202.4,128.4,202.8,128.8,203.1z"/>
		<path id="XMLID_1732_" class="st0" d="M136,207.2l10.1,5.8c0.4,0.2,0.9,0.3,1.4,0.3c0.6,0,1.3-0.2,1.8-0.5l3.5-2
			c0.6-0.3,0.9-0.8,0.9-1.3c0-0.4-0.3-0.8-0.7-1.1l-10.1-5.8c-0.9-0.5-2.3-0.4-3.3,0.1l-3.5,2c-0.6,0.3-0.9,0.8-0.9,1.3
			C135.2,206.5,135.5,206.9,136,207.2z"/>
		<path id="XMLID_1733_" class="st0" d="M160.2,212.6l-3-1.7c-0.9-0.5-2.3-0.4-3.3,0.1l-11.8,6.8c-0.6,0.3-0.9,0.8-0.9,1.3
			c0,0.4,0.3,0.8,0.7,1.1l3,1.7c0.4,0.2,0.9,0.3,1.4,0.3c0.6,0,1.3-0.2,1.8-0.5L160,215c0.6-0.3,0.9-0.8,0.9-1.3
			C160.9,213.3,160.7,212.9,160.2,212.6z"/>
		<path id="XMLID_1734_" class="st0" d="M59.6,165c0-0.4-0.3-0.8-0.7-1.1l-3-1.7c-0.9-0.5-2.3-0.4-3.3,0.1l-3.5,2
			c-0.6,0.3-0.9,0.8-0.9,1.3c0,0.4,0.3,0.8,0.7,1.1l3,1.7c0.4,0.2,0.9,0.3,1.4,0.3c0.6,0,1.3-0.2,1.8-0.5l3.5-2
			C59.2,165.9,59.6,165.5,59.6,165z"/>
		<path id="XMLID_1736_" class="st0" d="M66.7,169.1c0-0.4-0.3-0.8-0.7-1.1l-3-1.7c-0.9-0.5-2.3-0.4-3.3,0.1l-3.5,2
			c-0.6,0.3-0.9,0.8-0.9,1.3c0,0.4,0.3,0.8,0.7,1.1l3,1.7c0.4,0.2,0.9,0.3,1.4,0.3c0.6,0,1.3-0.2,1.8-0.5l3.5-2
			C66.4,170,66.7,169.6,66.7,169.1z"/>
		<path id="XMLID_1737_" class="st0" d="M73.9,173.2c0-0.4-0.3-0.8-0.7-1.1l-3-1.7c-0.9-0.5-2.3-0.4-3.3,0.1l-3.5,2
			c-0.6,0.3-0.9,0.8-0.9,1.3c0,0.4,0.3,0.8,0.7,1.1l3,1.7c0.4,0.2,0.9,0.3,1.4,0.3c0.6,0,1.3-0.2,1.8-0.5l3.5-2
			C73.6,174.2,73.9,173.7,73.9,173.2z"/>
		<path id="XMLID_1738_" class="st0" d="M81,177.3c0-0.4-0.3-0.8-0.7-1.1l-3-1.7c-0.9-0.5-2.3-0.4-3.3,0.1l-3.5,2
			c-0.6,0.3-0.9,0.8-0.9,1.3c0,0.4,0.3,0.8,0.7,1.1l3,1.7c0.4,0.2,0.9,0.3,1.4,0.3c0.6,0,1.3-0.2,1.8-0.5l3.5-2
			C80.7,178.3,81,177.8,81,177.3z"/>
		<path id="XMLID_1739_" class="st0" d="M109.7,193.8c0-0.4-0.3-0.8-0.7-1.1l-24.5-14.1c-0.9-0.5-2.3-0.4-3.3,0.1l-3.5,2
			c-0.6,0.3-0.9,0.8-0.9,1.3c0,0.4,0.3,0.8,0.7,1.1l24.5,14.1c0.4,0.2,0.9,0.3,1.4,0.3c0.6,0,1.3-0.2,1.8-0.5l3.5-2
			C109.4,194.8,109.7,194.3,109.7,193.8z"/>
		<path id="XMLID_1740_" class="st0" d="M116.8,197.9c0-0.4-0.3-0.8-0.7-1.1l-3-1.7c-0.9-0.5-2.3-0.4-3.3,0.1l-3.5,2
			c-0.6,0.3-0.9,0.8-0.9,1.3c0,0.4,0.3,0.8,0.7,1.1l3,1.7c0.4,0.2,0.9,0.3,1.4,0.3c0.6,0,1.3-0.2,1.8-0.5l3.5-2
			C116.5,198.9,116.8,198.4,116.8,197.9z"/>
		<path id="XMLID_1741_" class="st0" d="M123.9,202c0-0.4-0.3-0.8-0.7-1.1l-3-1.7c-0.9-0.5-2.3-0.4-3.3,0.1l-3.5,2
			c-0.6,0.3-0.9,0.8-0.9,1.3c0,0.4,0.3,0.8,0.7,1.1l3,1.7c0.4,0.2,0.9,0.3,1.4,0.3c0.6,0,1.3-0.2,1.8-0.5l3.5-2
			C123.6,203,123.9,202.5,123.9,202z"/>
		<path id="XMLID_1742_" class="st0" d="M131.1,206.2c0-0.4-0.3-0.8-0.7-1.1l-3-1.7c-0.9-0.5-2.3-0.4-3.3,0.1l-3.5,2
			c-0.6,0.3-0.9,0.8-0.9,1.3c0,0.4,0.3,0.8,0.7,1.1l3,1.7c0.4,0.2,0.9,0.3,1.4,0.3c0.6,0,1.3-0.2,1.8-0.5l3.5-2
			C130.8,207.2,131.1,206.7,131.1,206.2z"/>
		<path id="XMLID_1743_" class="st0" d="M138.3,210.3c0-0.4-0.3-0.8-0.7-1.1l-3-1.7c-0.9-0.5-2.3-0.4-3.3,0.1l-3.5,2
			c-0.6,0.3-0.9,0.8-0.9,1.3c0,0.4,0.3,0.8,0.7,1.1l3,1.7c0.4,0.2,0.9,0.3,1.4,0.3c0.6,0,1.3-0.2,1.8-0.5l3.5-2
			C137.9,211.3,138.3,210.8,138.3,210.3z"/>
		<path id="XMLID_1744_" class="st0" d="M145.4,214.4c0-0.4-0.3-0.8-0.7-1.1l-3-1.7c-0.9-0.5-2.3-0.4-3.3,0.1l-3.5,2
			c-0.6,0.3-0.9,0.8-0.9,1.3c0,0.4,0.3,0.8,0.7,1.1l3,1.7c0.4,0.2,0.9,0.3,1.4,0.3c0.6,0,1.3-0.2,1.8-0.5l3.5-2
			C145.1,215.4,145.4,214.9,145.4,214.4z"/>
	</g>
	<path id="XMLID_1312_" class="st3" d="M85.4,147.5l-2.9-1.6c-0.7-0.4-0.6-1.1,0.2-1.6l1.2-0.7c0.8-0.5,2.1-0.5,2.8-0.1l2.9,1.6
		c0.7,0.4,0.6,1.1-0.2,1.6l-1.2,0.7C87.3,147.9,86.1,147.9,85.4,147.5z"/>
	<path id="XMLID_1313_" class="st0" d="M86.6,148.2c-0.5,0-1-0.1-1.4-0.3h0l-2.9-1.6c-0.5-0.3-0.7-0.7-0.7-1.1c0-0.5,0.3-1,0.9-1.3
		l1.2-0.7c1-0.6,2.4-0.6,3.3-0.1l2.9,1.6c0.5,0.3,0.7,0.7,0.7,1.1c0,0.5-0.3,1-0.9,1.3l-1.2,0.7C87.9,148.1,87.2,148.2,86.6,148.2z
		 M85.6,147.1c0.6,0.3,1.7,0.3,2.4-0.1l1.2-0.7c0.3-0.2,0.5-0.4,0.5-0.5c0-0.1-0.2-0.3-0.3-0.3l-2.9-1.6c-0.6-0.3-1.7-0.3-2.4,0.1
		l-1.2,0.7c-0.3,0.2-0.5,0.4-0.5,0.5c0,0.1,0.2,0.3,0.3,0.3L85.6,147.1z"/>
	<path id="XMLID_1307_" class="st3" d="M92.5,151.6l-2.9-1.6c-0.7-0.4-0.6-1.1,0.2-1.6l1.2-0.7c0.8-0.5,2.1-0.5,2.8-0.1l2.9,1.6
		c0.7,0.4,0.6,1.1-0.2,1.6l-1.2,0.7C94.5,152,93.2,152,92.5,151.6z"/>
	<path id="XMLID_1308_" class="st0" d="M93.7,152.3c-0.5,0-1-0.1-1.4-0.3l-2.9-1.6c-0.5-0.3-0.7-0.7-0.7-1.1c0-0.5,0.3-1,0.9-1.3
		l1.2-0.7c1-0.6,2.4-0.6,3.3-0.1l2.9,1.6c0.5,0.3,0.7,0.7,0.7,1.1c0,0.5-0.3,1-0.9,1.3l-1.2,0.7C95,152.2,94.3,152.3,93.7,152.3z
		 M92.7,151.2c0.6,0.3,1.7,0.3,2.4-0.1l1.2-0.7c0.3-0.2,0.5-0.4,0.5-0.5c0-0.1-0.2-0.3-0.3-0.3l-2.9-1.6c-0.6-0.3-1.7-0.3-2.4,0.1
		l-1.2,0.7c-0.3,0.2-0.5,0.4-0.5,0.5c0,0.1,0.2,0.3,0.3,0.3L92.7,151.2z"/>
	<path id="XMLID_1303_" class="st3" d="M99.6,155.7l-2.9-1.6c-0.7-0.4-0.6-1.1,0.2-1.6l1.2-0.7c0.8-0.5,2.1-0.5,2.8-0.1l2.9,1.6
		c0.7,0.4,0.6,1.1-0.2,1.6l-1.2,0.7C101.6,156.1,100.3,156.1,99.6,155.7z"/>
	<path id="XMLID_1304_" class="st0" d="M100.8,156.4c-0.5,0-1-0.1-1.4-0.3h0l-2.9-1.6c-0.5-0.3-0.7-0.7-0.7-1.1c0-0.5,0.3-1,0.9-1.3
		l1.2-0.7c1-0.6,2.4-0.6,3.3-0.1l2.9,1.6c0.5,0.3,0.7,0.7,0.7,1.1c0,0.5-0.3,1-0.9,1.3l-1.2,0.7
		C102.1,156.3,101.5,156.4,100.8,156.4z M99.8,155.3c0.6,0.3,1.7,0.3,2.4-0.1l1.2-0.7c0.3-0.2,0.5-0.4,0.5-0.5
		c0-0.1-0.2-0.3-0.3-0.3l-2.9-1.6c-0.6-0.3-1.7-0.3-2.4,0.1l-1.2,0.7c-0.3,0.2-0.5,0.4-0.5,0.5c0,0.1,0.2,0.3,0.3,0.3L99.8,155.3z"
		/>
	<path id="XMLID_1299_" class="st3" d="M106.8,159.8l-2.9-1.6c-0.7-0.4-0.6-1.1,0.2-1.6l1.2-0.7c0.8-0.5,2.1-0.5,2.8-0.1l2.9,1.6
		c0.7,0.4,0.6,1.1-0.2,1.6l-1.2,0.7C108.7,160.2,107.5,160.2,106.8,159.8z"/>
	<path id="XMLID_1300_" class="st0" d="M108,160.5c-0.5,0-1.1-0.1-1.4-0.3l-2.9-1.6c-0.5-0.3-0.7-0.7-0.7-1.1c0-0.5,0.3-1,0.9-1.3
		l1.2-0.7c1-0.6,2.4-0.6,3.3-0.1l2.9,1.6c0.5,0.3,0.7,0.7,0.7,1.1c0,0.5-0.3,1-0.9,1.3l-1.2,0.7C109.3,160.4,108.6,160.5,108,160.5z
		 M106.8,155.9c-0.5,0-1,0.1-1.4,0.3l-1.2,0.7c-0.3,0.2-0.5,0.4-0.5,0.5c0,0.1,0.2,0.3,0.3,0.3l2.9,1.6c0.6,0.3,1.7,0.3,2.4-0.1
		l1.2-0.7c0.3-0.2,0.5-0.4,0.5-0.5c0-0.1-0.2-0.3-0.3-0.3l-2.9-1.6C107.6,156,107.2,155.9,106.8,155.9z"/>
	<path id="XMLID_1295_" class="st3" d="M113.9,163.9l-2.9-1.6c-0.7-0.4-0.6-1.1,0.2-1.6l1.2-0.7c0.8-0.5,2.1-0.5,2.8-0.1l2.9,1.6
		c0.7,0.4,0.6,1.1-0.2,1.6l-1.2,0.7C115.9,164.3,114.6,164.3,113.9,163.9z"/>
	<path id="XMLID_1296_" class="st0" d="M115.1,164.6c-0.5,0-1-0.1-1.4-0.3h0l-2.9-1.6c-0.5-0.3-0.7-0.7-0.7-1.1c0-0.5,0.3-1,0.9-1.3
		l1.2-0.7c1-0.6,2.4-0.6,3.3-0.1l2.9,1.6c0.5,0.3,0.7,0.7,0.7,1.1c0,0.5-0.3,1-0.9,1.3l-1.2,0.7
		C116.4,164.5,115.7,164.6,115.1,164.6z M114.1,163.5c0.6,0.3,1.7,0.3,2.4-0.1l1.2-0.7c0.3-0.2,0.5-0.4,0.5-0.5
		c0-0.1-0.2-0.3-0.3-0.3l-2.9-1.6c-0.6-0.3-1.7-0.3-2.4,0.1l-1.2,0.7c-0.3,0.2-0.5,0.4-0.5,0.5c0,0.1,0.2,0.3,0.3,0.3L114.1,163.5z"
		/>
	<path id="XMLID_1291_" class="st3" d="M121,168l-2.9-1.6c-0.7-0.4-0.6-1.1,0.2-1.6l1.2-0.7c0.8-0.5,2.1-0.5,2.8-0.1l2.9,1.6
		c0.7,0.4,0.6,1.1-0.2,1.6l-1.2,0.7C123,168.4,121.7,168.4,121,168z"/>
	<path id="XMLID_1292_" class="st0" d="M122.2,168.7c-0.5,0-1-0.1-1.4-0.3l-2.9-1.6c-0.5-0.3-0.7-0.7-0.7-1.1c0-0.5,0.3-1,0.9-1.3
		l1.2-0.7c1-0.6,2.4-0.6,3.3-0.1l2.9,1.6c0.5,0.3,0.7,0.7,0.7,1.1c0,0.5-0.3,1-0.9,1.3l-1.2,0.7
		C123.5,168.6,122.9,168.7,122.2,168.7z M121.2,167.6c0.6,0.3,1.7,0.3,2.4-0.1l1.2-0.7c0.3-0.2,0.5-0.4,0.5-0.5
		c0-0.1-0.2-0.3-0.3-0.3l-2.9-1.6c-0.6-0.3-1.7-0.3-2.4,0.1l-1.2,0.7c-0.3,0.2-0.5,0.4-0.5,0.5c0,0.1,0.2,0.3,0.3,0.3L121.2,167.6z"
		/>
	<path id="XMLID_1287_" class="st3" d="M128.1,172.1l-2.9-1.6c-0.7-0.4-0.6-1.1,0.2-1.6l1.2-0.7c0.8-0.5,2.1-0.5,2.8-0.1l2.9,1.6
		c0.7,0.4,0.6,1.1-0.2,1.6l-1.2,0.7C130.1,172.5,128.9,172.5,128.1,172.1z"/>
	<path id="XMLID_1288_" class="st0" d="M129.4,172.9c-0.5,0-1-0.1-1.4-0.3h0l-2.9-1.6c-0.5-0.3-0.7-0.7-0.7-1.1c0-0.5,0.3-1,0.9-1.3
		l1.2-0.7c1-0.6,2.4-0.6,3.3-0.1l2.9,1.6c0.5,0.3,0.7,0.7,0.7,1.1c0,0.5-0.3,1-0.9,1.3l-1.2,0.7C130.6,172.7,130,172.9,129.4,172.9z
		 M128.4,171.7c0.6,0.3,1.7,0.3,2.4-0.1l1.2-0.7c0.3-0.2,0.5-0.4,0.5-0.5c0-0.1-0.2-0.3-0.3-0.3l-2.9-1.6c-0.6-0.3-1.7-0.3-2.4,0.1
		l-1.2,0.7c-0.3,0.2-0.5,0.4-0.5,0.5c0,0.1,0.2,0.3,0.3,0.3L128.4,171.7z"/>
	<path id="XMLID_1283_" class="st1" d="M135.3,176.2l-2.9-1.6c-0.7-0.4-0.6-1.1,0.2-1.6l1.2-0.7c0.8-0.5,2.1-0.5,2.8-0.1l2.9,1.6
		c0.7,0.4,0.6,1.1-0.2,1.6l-1.2,0.7C137.2,176.6,136,176.6,135.3,176.2z"/>
	<path id="XMLID_1284_" class="st0" d="M136.5,177c-0.5,0-1-0.1-1.4-0.3h0l-2.9-1.6c-0.5-0.3-0.7-0.7-0.7-1.1c0-0.5,0.3-1,0.9-1.3
		l1.2-0.7c1-0.6,2.4-0.6,3.3-0.1l2.9,1.6c0.5,0.3,0.7,0.7,0.7,1.1c0,0.5-0.3,1-0.9,1.3l-1.2,0.7C137.8,176.8,137.1,177,136.5,177z
		 M135.5,175.8c0.6,0.3,1.7,0.3,2.4-0.1l1.2-0.7c0.3-0.2,0.5-0.4,0.5-0.5c0-0.1-0.2-0.3-0.3-0.3l-2.9-1.6c-0.6-0.3-1.7-0.3-2.4,0.1
		l-1.2,0.7c-0.3,0.2-0.5,0.4-0.5,0.5c0,0.1,0.2,0.3,0.3,0.3L135.5,175.8z"/>
	<path id="XMLID_1279_" class="st1" d="M142.4,180.3l-2.9-1.6c-0.7-0.4-0.6-1.1,0.2-1.6l1.2-0.7c0.8-0.5,2.1-0.5,2.8-0.1l2.9,1.6
		c0.7,0.4,0.6,1.1-0.2,1.6l-1.2,0.7C144.4,180.7,143.1,180.8,142.4,180.3z"/>
	<path id="XMLID_1280_" class="st0" d="M143.6,181.1c-0.5,0-1-0.1-1.4-0.3h0l-2.9-1.6c-0.5-0.3-0.7-0.7-0.7-1.1c0-0.5,0.3-1,0.9-1.3
		l1.2-0.7c1-0.6,2.4-0.6,3.3-0.1l2.9,1.6c0.5,0.3,0.7,0.7,0.7,1.1c0,0.5-0.3,1-0.9,1.3l-1.2,0.7
		C144.9,180.9,144.2,181.1,143.6,181.1z M142.6,179.9c0.6,0.3,1.7,0.3,2.4-0.1l1.2-0.7c0.3-0.2,0.5-0.4,0.5-0.5
		c0-0.1-0.2-0.3-0.3-0.3l-2.9-1.6c-0.6-0.3-1.7-0.3-2.4,0.1l-1.2,0.7c-0.3,0.2-0.5,0.4-0.5,0.5c0,0.1,0.2,0.3,0.3,0.3L142.6,179.9z"
		/>
	<g id="XMLID_862_">
		<path id="XMLID_1275_" class="st1" d="M149.5,184.4l-2.9-1.6c-0.7-0.4-0.6-1.1,0.2-1.6l1.2-0.7c0.8-0.5,2.1-0.5,2.8-0.1l2.9,1.6
			c0.7,0.4,0.6,1.1-0.2,1.6l-1.2,0.7C151.5,184.8,150.2,184.9,149.5,184.4z"/>
		<path id="XMLID_1276_" class="st0" d="M150.7,185.2c-0.5,0-1-0.1-1.4-0.3l-2.9-1.6c-0.5-0.3-0.7-0.7-0.7-1.1c0-0.5,0.3-1,0.9-1.3
			l1.2-0.7c1-0.6,2.4-0.6,3.3-0.1l2.9,1.6c0.5,0.3,0.7,0.7,0.7,1.1c0,0.5-0.3,1-0.9,1.3l-1.2,0.7C152,185,151.4,185.2,150.7,185.2z
			 M149.7,184.1c0.6,0.3,1.7,0.3,2.4-0.1l1.2-0.7c0.3-0.2,0.5-0.4,0.5-0.5c0-0.1-0.2-0.3-0.3-0.3l-2.9-1.6c-0.6-0.3-1.7-0.3-2.4,0.1
			l-1.2,0.7c-0.3,0.2-0.5,0.4-0.5,0.5c0,0.1,0.2,0.3,0.3,0.3L149.7,184.1z"/>
	</g>
	<g id="XMLID_861_">
		<path id="XMLID_1271_" class="st1" d="M156.9,188.7L154,187c-0.7-0.4-0.6-1.1,0.2-1.6l1.2-0.7c0.8-0.5,2.1-0.5,2.8-0.1l2.9,1.6
			c0.7,0.4,0.6,1.1-0.2,1.6l-1.2,0.7C158.8,189,157.6,189.1,156.9,188.7z"/>
		<path id="XMLID_1272_" class="st0" d="M158.1,189.4c-0.5,0-1-0.1-1.4-0.3l-2.9-1.6c-0.5-0.3-0.7-0.7-0.7-1.1c0-0.5,0.3-1,0.9-1.3
			l1.2-0.7c1-0.6,2.4-0.6,3.3-0.1l2.9,1.6c0.5,0.3,0.7,0.7,0.7,1.1c0,0.5-0.3,1-0.9,1.3l-1.2,0.7
			C159.4,189.2,158.7,189.4,158.1,189.4z M157.1,188.3c0.6,0.3,1.7,0.3,2.4-0.1l1.2-0.7c0.3-0.2,0.5-0.4,0.5-0.5
			c0-0.1-0.2-0.3-0.3-0.3L158,185c-0.6-0.3-1.7-0.3-2.4,0.1l-1.2,0.7c-0.3,0.2-0.5,0.4-0.5,0.5c0,0.1,0.2,0.3,0.3,0.3L157.1,188.3z"
			/>
	</g>
	<g id="XMLID_860_">
		<path id="XMLID_1267_" class="st1" d="M164,192.8l-2.9-1.6c-0.7-0.4-0.6-1.1,0.2-1.6l1.2-0.7c0.8-0.5,2.1-0.5,2.8-0.1l2.9,1.6
			c0.7,0.4,0.6,1.1-0.2,1.6l-1.2,0.7C166,193.1,164.7,193.2,164,192.8z"/>
		<path id="XMLID_1268_" class="st0" d="M165.2,193.5c-0.5,0-1-0.1-1.4-0.3l-2.9-1.6c-0.5-0.3-0.7-0.7-0.7-1.1c0-0.5,0.3-1,0.9-1.3
			l1.2-0.7c1-0.6,2.4-0.6,3.3-0.1l2.9,1.6c0.5,0.3,0.7,0.7,0.7,1.1c0,0.5-0.3,1-0.9,1.3L167,193
			C166.5,193.4,165.8,193.5,165.2,193.5z M164.1,188.9c-0.5,0-1,0.1-1.4,0.3l-1.2,0.7c-0.3,0.2-0.5,0.4-0.5,0.5
			c0,0.1,0.2,0.3,0.3,0.3l2.9,1.6c0.6,0.3,1.7,0.3,2.4-0.1l1.2-0.7c0.3-0.2,0.5-0.4,0.5-0.5c0-0.1-0.2-0.3-0.3-0.3l-2.9-1.6
			C164.8,189,164.5,188.9,164.1,188.9z"/>
	</g>
	<g id="XMLID_859_">
		<path id="XMLID_1263_" class="st1" d="M171.1,196.9l-2.9-1.6c-0.7-0.4-0.6-1.1,0.2-1.6l1.2-0.7c0.8-0.5,2.1-0.5,2.8-0.1l2.9,1.6
			c0.7,0.4,0.6,1.1-0.2,1.6l-1.2,0.7C173.1,197.2,171.8,197.3,171.1,196.9z"/>
		<path id="XMLID_1264_" class="st0" d="M172.3,197.6c-0.5,0-1-0.1-1.4-0.3h0l-2.9-1.6c-0.5-0.3-0.7-0.7-0.7-1.1
			c0-0.5,0.3-1,0.9-1.3l1.2-0.7c1-0.6,2.4-0.6,3.3-0.1l2.9,1.6c0.5,0.3,0.7,0.7,0.7,1.1c0,0.5-0.3,1-0.9,1.3l-1.2,0.7
			C173.6,197.5,173,197.6,172.3,197.6z M171.4,196.5c0.6,0.3,1.7,0.3,2.4-0.1l1.2-0.7c0.3-0.2,0.5-0.4,0.5-0.5
			c0-0.1-0.2-0.3-0.3-0.3l-2.9-1.6c-0.6-0.3-1.7-0.3-2.4,0.1l-1.2,0.7c-0.3,0.2-0.5,0.4-0.5,0.5c0,0.1,0.2,0.3,0.3,0.3L171.4,196.5z
			"/>
	</g>
	<g id="XMLID_858_">
		<path id="XMLID_1259_" class="st1" d="M178.3,201l-2.9-1.6c-0.7-0.4-0.6-1.1,0.2-1.6l1.2-0.7c0.8-0.5,2.1-0.5,2.8-0.1l2.9,1.6
			c0.7,0.4,0.6,1.1-0.2,1.6l-1.2,0.7C180.2,201.4,179,201.4,178.3,201z"/>
		<path id="XMLID_1260_" class="st0" d="M179.5,201.7c-0.5,0-1-0.1-1.4-0.3h0l-2.9-1.6c-0.5-0.3-0.7-0.7-0.7-1.1
			c0-0.5,0.3-1,0.9-1.3l1.2-0.7c1-0.6,2.4-0.6,3.3-0.1l2.9,1.6c0.5,0.3,0.7,0.7,0.7,1.1c0,0.5-0.3,1-0.9,1.3l-1.2,0.7
			C180.8,201.6,180.1,201.7,179.5,201.7z M178.5,200.6c0.6,0.3,1.7,0.3,2.4-0.1l1.2-0.7c0.3-0.2,0.5-0.4,0.5-0.5
			c0-0.1-0.2-0.3-0.3-0.3l-2.9-1.6c-0.6-0.3-1.7-0.3-2.4,0.1l-1.2,0.7c-0.3,0.2-0.5,0.4-0.5,0.5c0,0.1,0.2,0.3,0.3,0.3L178.5,200.6z
			"/>
	</g>
	<g id="XMLID_857_">
		<path id="XMLID_1255_" class="st1" d="M77.2,152.3l-3-1.7c-0.7-0.4-0.6-1.1,0.2-1.6l3.5-2c0.8-0.5,2.1-0.5,2.8-0.1l3,1.7
			c0.7,0.4,0.6,1.1-0.2,1.6l-3.5,2C79.2,152.7,77.9,152.7,77.2,152.3z"/>
		<path id="XMLID_1256_" class="st0" d="M78.4,153c-0.5,0-1-0.1-1.4-0.3l-3-1.7c-0.5-0.3-0.7-0.7-0.7-1.1c0-0.5,0.3-1,0.9-1.3l3.5-2
			c1-0.6,2.4-0.6,3.3-0.1l3,1.7c0.5,0.3,0.7,0.7,0.7,1.1c0,0.5-0.3,1-0.9,1.3l-3.5,2C79.7,152.9,79,153,78.4,153z M79.4,147
			c-0.5,0-1,0.1-1.4,0.3l-3.5,2c-0.3,0.2-0.5,0.4-0.5,0.5c0,0.1,0.2,0.3,0.3,0.3l3,1.7c0.6,0.3,1.7,0.3,2.4-0.1l3.5-2
			c0.3-0.2,0.5-0.4,0.5-0.5c0-0.1-0.2-0.3-0.3-0.3l-3-1.7C80.2,147.1,79.8,147,79.4,147z"/>
	</g>
	<g id="XMLID_856_">
		<path id="XMLID_1251_" class="st3" d="M84.3,156.4l-3-1.7c-0.7-0.4-0.6-1.1,0.2-1.6l3.5-2c0.8-0.5,2.1-0.5,2.8-0.1l3,1.7
			c0.7,0.4,0.6,1.1-0.2,1.6l-3.5,2C86.3,156.8,85,156.8,84.3,156.4z"/>
		<path id="XMLID_1252_" class="st0" d="M85.5,157.1c-0.5,0-1-0.1-1.4-0.3l-3-1.7c-0.5-0.3-0.7-0.7-0.7-1.1c0-0.5,0.3-1,0.9-1.3
			l3.5-2c1-0.6,2.4-0.6,3.3-0.1l3,1.7c0.5,0.3,0.7,0.7,0.7,1.1c0,0.5-0.3,1-0.9,1.3l-3.5,2C86.8,157,86.2,157.1,85.5,157.1z
			 M84.5,156c0.6,0.3,1.7,0.3,2.4-0.1l3.5-2c0.3-0.2,0.5-0.4,0.5-0.5c0-0.1-0.2-0.3-0.3-0.3l-3-1.7c-0.6-0.3-1.7-0.3-2.4,0.1l-3.5,2
			c-0.3,0.2-0.5,0.4-0.5,0.5c0,0.1,0.2,0.3,0.3,0.3L84.5,156z"/>
	</g>
	<g id="XMLID_855_">
		<path id="XMLID_1247_" class="st3" d="M91.5,160.6l-3-1.7c-0.7-0.4-0.6-1.1,0.2-1.6l3.5-2c0.8-0.5,2.1-0.5,2.8-0.1l3,1.7
			c0.7,0.4,0.6,1.1-0.2,1.6l-3.5,2C93.5,160.9,92.2,161,91.5,160.6z"/>
		<path id="XMLID_1248_" class="st0" d="M92.7,161.3c-0.5,0-1-0.1-1.4-0.3l-3-1.7c-0.5-0.3-0.7-0.7-0.7-1.1c0-0.5,0.3-1,0.9-1.3
			l3.5-2c1-0.6,2.4-0.6,3.3-0.1l3,1.7c0.5,0.3,0.7,0.7,0.7,1.1c0,0.5-0.3,1-0.9,1.3l-3.5,2C94,161.1,93.4,161.3,92.7,161.3z
			 M91.7,160.2c0.6,0.3,1.7,0.3,2.4-0.1l3.5-2c0.3-0.2,0.5-0.4,0.5-0.5c0-0.1-0.2-0.3-0.3-0.3l-3-1.7c-0.6-0.3-1.7-0.3-2.4,0.1
			l-3.5,2c-0.3,0.2-0.5,0.4-0.5,0.5c0,0.1,0.2,0.3,0.3,0.3L91.7,160.2z"/>
	</g>
	<g id="XMLID_854_">
		<path id="XMLID_1243_" class="st3" d="M98.6,164.7l-3-1.7c-0.7-0.4-0.6-1.1,0.2-1.6l3.5-2c0.8-0.5,2.1-0.5,2.8-0.1l3,1.7
			c0.7,0.4,0.6,1.1-0.2,1.6l-3.5,2C100.6,165,99.4,165.1,98.6,164.7z"/>
		<path id="XMLID_1244_" class="st0" d="M99.9,165.4c-0.5,0-1-0.1-1.4-0.3l-3-1.7c-0.5-0.3-0.7-0.7-0.7-1.1c0-0.5,0.3-1,0.9-1.3
			l3.5-2c1-0.6,2.4-0.6,3.3-0.1l3,1.7c0.5,0.3,0.7,0.7,0.7,1.1c0,0.5-0.3,1-0.9,1.3l-3.5,2C101.1,165.2,100.5,165.4,99.9,165.4z
			 M98.9,164.3c0.6,0.3,1.7,0.3,2.4-0.1l3.5-2c0.3-0.2,0.5-0.4,0.5-0.5c0-0.1-0.2-0.3-0.3-0.3l-3-1.7c-0.6-0.3-1.7-0.3-2.4,0.1
			l-3.5,2c-0.3,0.2-0.5,0.4-0.5,0.5c0,0.1,0.2,0.3,0.3,0.3L98.9,164.3z"/>
	</g>
	<g id="XMLID_853_">
		<path id="XMLID_1239_" class="st3" d="M105.8,168.8l-3-1.7c-0.7-0.4-0.6-1.1,0.2-1.6l3.5-2c0.8-0.5,2.1-0.5,2.8-0.1l3,1.7
			c0.7,0.4,0.6,1.1-0.2,1.6l-3.5,2C107.7,169.1,106.5,169.2,105.8,168.8z"/>
		<path id="XMLID_1240_" class="st0" d="M107,169.5c-0.5,0-1-0.1-1.4-0.3l-3-1.7c-0.5-0.3-0.7-0.7-0.7-1.1c0-0.5,0.3-1,0.9-1.3
			l3.5-2c1-0.6,2.4-0.6,3.3-0.1l3,1.7c0.5,0.3,0.7,0.7,0.7,1.1c0,0.5-0.3,1-0.9,1.3l-3.5,2C108.3,169.4,107.6,169.5,107,169.5z
			 M108,163.5c-0.5,0-1,0.1-1.4,0.3l-3.5,2c-0.3,0.2-0.5,0.4-0.5,0.5c0,0.1,0.2,0.3,0.3,0.3l3,1.7c0.6,0.3,1.7,0.3,2.4-0.1l3.5-2
			c0.3-0.2,0.5-0.4,0.5-0.5c0-0.1-0.2-0.3-0.3-0.3l-3-1.7C108.7,163.5,108.4,163.5,108,163.5z"/>
	</g>
	<g id="XMLID_852_">
		<path id="XMLID_1235_" class="st3" d="M113,172.9l-3-1.7c-0.7-0.4-0.6-1.1,0.2-1.6l3.5-2c0.8-0.5,2.1-0.5,2.8-0.1l3,1.7
			c0.7,0.4,0.6,1.1-0.2,1.6l-3.5,2C114.9,173.3,113.7,173.3,113,172.9z"/>
		<path id="XMLID_1236_" class="st0" d="M114.2,173.7c-0.5,0-1-0.1-1.4-0.3l-3-1.7c-0.5-0.3-0.7-0.7-0.7-1.1c0-0.5,0.3-1,0.9-1.3
			l3.5-2c1-0.6,2.4-0.6,3.3-0.1l3,1.7c0.5,0.3,0.7,0.7,0.7,1.1c0,0.5-0.3,1-0.9,1.3l-3.5,2C115.5,173.5,114.8,173.7,114.2,173.7z
			 M115.2,167.6c-0.5,0-1,0.1-1.4,0.3l-3.5,2c-0.3,0.2-0.5,0.4-0.5,0.5c0,0.1,0.2,0.3,0.3,0.3l3,1.7c0.6,0.3,1.7,0.3,2.4-0.1l3.5-2
			c0.3-0.2,0.5-0.4,0.5-0.5c0-0.1-0.2-0.3-0.3-0.3l-3-1.7C115.9,167.7,115.6,167.6,115.2,167.6z"/>
	</g>
	<g id="XMLID_851_">
		<path id="XMLID_1231_" class="st3" d="M120.1,177l-3-1.7c-0.7-0.4-0.6-1.1,0.2-1.6l3.5-2c0.8-0.5,2.1-0.5,2.8-0.1l3,1.7
			c0.7,0.4,0.6,1.1-0.2,1.6l-3.5,2C122.1,177.4,120.8,177.4,120.1,177z"/>
		<path id="XMLID_1232_" class="st0" d="M121.3,177.8c-0.5,0-1-0.1-1.4-0.3l-3-1.7c-0.5-0.3-0.7-0.7-0.7-1.1c0-0.5,0.3-1,0.9-1.3
			l3.5-2c1-0.6,2.4-0.6,3.3-0.1l3,1.7c0.5,0.3,0.7,0.7,0.7,1.1c0,0.5-0.3,1-0.9,1.3l-3.5,2C122.6,177.6,121.9,177.8,121.3,177.8z
			 M120.3,176.6c0.6,0.3,1.7,0.3,2.4-0.1l3.5-2c0.3-0.2,0.5-0.4,0.5-0.5c0-0.1-0.2-0.3-0.3-0.3l-3-1.7c-0.6-0.3-1.7-0.3-2.4,0.1
			l-3.5,2c-0.3,0.2-0.5,0.4-0.5,0.5c0,0.1,0.2,0.3,0.3,0.3L120.3,176.6z"/>
	</g>
	<g id="XMLID_850_">
		<path id="XMLID_1227_" class="st3" d="M127.3,181.2l-3-1.7c-0.7-0.4-0.6-1.1,0.2-1.6l3.5-2c0.8-0.5,2.1-0.5,2.8-0.1l3,1.7
			c0.7,0.4,0.6,1.1-0.2,1.6l-3.5,2C129.3,181.5,128,181.6,127.3,181.2z"/>
		<path id="XMLID_1228_" class="st0" d="M128.5,181.9c-0.5,0-1-0.1-1.4-0.3l-3-1.7c-0.5-0.3-0.7-0.7-0.7-1.1c0-0.5,0.3-1,0.9-1.3
			l3.5-2c1-0.6,2.4-0.6,3.3-0.1l3,1.7c0.5,0.3,0.7,0.7,0.7,1.1c0,0.5-0.3,1-0.9,1.3l-3.5,2C129.8,181.8,129.1,181.9,128.5,181.9z
			 M129.5,175.9c-0.5,0-1,0.1-1.4,0.3l-3.5,2c-0.3,0.2-0.5,0.4-0.5,0.5c0,0.1,0.2,0.3,0.3,0.3l3,1.7c0.6,0.3,1.7,0.3,2.4-0.1l3.5-2
			c0.3-0.2,0.5-0.4,0.5-0.5c0-0.1-0.2-0.3-0.3-0.3l-3-1.7C130.3,175.9,129.9,175.9,129.5,175.9z"/>
	</g>
	<g id="XMLID_849_">
		<path id="XMLID_1223_" class="st1" d="M134.4,185.3l-3-1.7c-0.7-0.4-0.6-1.1,0.2-1.6l3.5-2c0.8-0.5,2.1-0.5,2.8-0.1l3,1.7
			c0.7,0.4,0.6,1.1-0.2,1.6l-3.5,2C136.4,185.6,135.1,185.7,134.4,185.3z"/>
		<path id="XMLID_1224_" class="st0" d="M135.6,186c-0.5,0-1-0.1-1.4-0.3l-3-1.7c-0.5-0.3-0.7-0.7-0.7-1.1c0-0.5,0.3-1,0.9-1.3
			l3.5-2c1-0.6,2.4-0.6,3.3-0.1l3,1.7c0.5,0.3,0.7,0.7,0.7,1.1c0,0.5-0.3,1-0.9,1.3l-3.5,2C136.9,185.9,136.3,186,135.6,186z
			 M134.6,184.9c0.6,0.3,1.7,0.3,2.4-0.1l3.5-2c0.3-0.2,0.5-0.4,0.5-0.5c0-0.1-0.2-0.3-0.3-0.3l-3-1.7c-0.6-0.3-1.7-0.3-2.4,0.1
			l-3.5,2c-0.3,0.2-0.5,0.4-0.5,0.5c0,0.1,0.2,0.3,0.3,0.3L134.6,184.9z"/>
	</g>
	<g id="XMLID_848_">
		<path id="XMLID_1219_" class="st1" d="M141.6,189.4l-3-1.7c-0.7-0.4-0.6-1.1,0.2-1.6l3.5-2c0.8-0.5,2.1-0.5,2.8-0.1l3,1.7
			c0.7,0.4,0.6,1.1-0.2,1.6l-3.5,2C143.5,189.8,142.3,189.8,141.6,189.4z"/>
		<path id="XMLID_1220_" class="st0" d="M142.8,190.1c-0.5,0-1-0.1-1.4-0.3l-3-1.7c-0.5-0.3-0.7-0.7-0.7-1.1c0-0.5,0.3-1,0.9-1.3
			l3.5-2c1-0.6,2.4-0.6,3.3-0.1l3,1.7c0.5,0.3,0.7,0.7,0.7,1.1c0,0.5-0.3,1-0.9,1.3l-3.5,2C144.1,190,143.4,190.1,142.8,190.1z
			 M141.8,189c0.6,0.3,1.7,0.3,2.4-0.1l3.5-2c0.3-0.2,0.5-0.4,0.5-0.5c0-0.1-0.2-0.3-0.3-0.3l-3-1.7c-0.6-0.3-1.7-0.3-2.4,0.1
			l-3.5,2c-0.3,0.2-0.5,0.4-0.5,0.5c0,0.1,0.2,0.3,0.3,0.3L141.8,189z"/>
	</g>
	<g id="XMLID_847_">
		<path id="XMLID_988_" class="st1" d="M148.8,193.5l-3-1.7c-0.7-0.4-0.6-1.1,0.2-1.6l3.5-2c0.8-0.5,2.1-0.5,2.8-0.1l3,1.7
			c0.7,0.4,0.6,1.1-0.2,1.6l-3.5,2C150.7,193.9,149.5,194,148.8,193.5z"/>
		<path id="XMLID_1216_" class="st0" d="M150,194.3c-0.5,0-1-0.1-1.4-0.3l-3-1.7c-0.5-0.3-0.7-0.7-0.7-1.1c0-0.5,0.3-1,0.9-1.3
			l3.5-2c1-0.6,2.4-0.6,3.3-0.1l3,1.7c0.5,0.3,0.7,0.7,0.7,1.1c0,0.5-0.3,1-0.9,1.3l-3.5,2C151.3,194.1,150.6,194.3,150,194.3z
			 M151,188.2c-0.5,0-1,0.1-1.4,0.3l-3.5,2c-0.3,0.2-0.5,0.4-0.5,0.5c0,0.1,0.2,0.3,0.3,0.3l3,1.7c0.6,0.3,1.7,0.3,2.4-0.1l3.5-2
			c0.3-0.2,0.5-0.4,0.5-0.5c0-0.1-0.2-0.3-0.3-0.3l-3-1.7C151.7,188.3,151.4,188.2,151,188.2z"/>
	</g>
	<g id="XMLID_846_">
		<path id="XMLID_984_" class="st1" d="M155.9,197.6l-3-1.7c-0.7-0.4-0.6-1.1,0.2-1.6l3.5-2c0.8-0.5,2.1-0.5,2.8-0.1l3,1.7
			c0.7,0.4,0.6,1.1-0.2,1.6l-3.5,2C157.9,198,156.6,198.1,155.9,197.6z"/>
		<path id="XMLID_985_" class="st0" d="M157.1,198.4c-0.5,0-1-0.1-1.4-0.3l-3-1.7c-0.5-0.3-0.7-0.7-0.7-1.1c0-0.5,0.3-1,0.9-1.3
			l3.5-2c1-0.6,2.4-0.6,3.3-0.1l3,1.7c0.5,0.3,0.7,0.7,0.7,1.1c0,0.5-0.3,1-0.9,1.3l-3.5,2C158.4,198.2,157.7,198.4,157.1,198.4z
			 M158.1,192.3c-0.5,0-1,0.1-1.4,0.3l-3.5,2c-0.3,0.2-0.5,0.4-0.5,0.5c0,0.1,0.2,0.3,0.3,0.3l3,1.7c0.6,0.3,1.7,0.3,2.4-0.1l3.5-2
			c0.3-0.2,0.5-0.4,0.5-0.5c0-0.1-0.2-0.3-0.3-0.3l-3-1.7C158.9,192.4,158.5,192.3,158.1,192.3z"/>
	</g>
	<g id="XMLID_845_">
		<path id="XMLID_980_" class="st1" d="M163,201.8l-3-1.7c-0.7-0.4-0.6-1.1,0.2-1.6l3.5-2c0.8-0.5,2.1-0.5,2.8-0.1l3,1.7
			c0.7,0.4,0.6,1.1-0.2,1.6l-3.5,2C165,202.1,163.7,202.2,163,201.8z"/>
		<path id="XMLID_981_" class="st0" d="M164.2,202.5c-0.5,0-1-0.1-1.4-0.3l-3-1.7c-0.5-0.3-0.7-0.7-0.7-1.1c0-0.5,0.3-1,0.9-1.3
			l3.5-2c1-0.6,2.4-0.6,3.3-0.1l3,1.7c0.5,0.3,0.7,0.7,0.7,1.1c0,0.5-0.3,1-0.9,1.3l-3.5,2C165.5,202.3,164.9,202.5,164.2,202.5z
			 M163.2,201.4c0.6,0.3,1.7,0.3,2.4-0.1l3.5-2c0.3-0.2,0.5-0.4,0.5-0.5c0-0.1-0.2-0.3-0.3-0.3l-3-1.7c-0.6-0.3-1.7-0.3-2.4,0.1
			l-3.5,2c-0.3,0.2-0.5,0.4-0.5,0.5c0,0.1,0.2,0.3,0.3,0.3L163.2,201.4z"/>
	</g>
	<g id="XMLID_844_">
		<path id="XMLID_976_" class="st1" d="M170.2,205.9l-3-1.7c-0.7-0.4-0.6-1.1,0.2-1.6l3.5-2c0.8-0.5,2.1-0.5,2.8-0.1l3,1.7
			c0.7,0.4,0.6,1.1-0.2,1.6l-3.5,2C172.2,206.3,170.9,206.3,170.2,205.9z"/>
		<path id="XMLID_977_" class="st0" d="M171.4,206.6c-0.5,0-1-0.1-1.4-0.3l-3-1.7c-0.5-0.3-0.7-0.7-0.7-1.1c0-0.5,0.3-1,0.9-1.3
			l3.5-2c1-0.6,2.4-0.6,3.3-0.1l3,1.7c0.5,0.3,0.7,0.7,0.7,1.1c0,0.5-0.3,1-0.9,1.3l-3.5,2C172.7,206.5,172.1,206.6,171.4,206.6z
			 M170.4,205.5c0.6,0.3,1.7,0.3,2.4-0.1l3.5-2c0.3-0.2,0.5-0.4,0.5-0.5c0-0.1-0.2-0.3-0.3-0.3l-3-1.7c-0.6-0.3-1.7-0.3-2.4,0.1
			l-3.5,2c-0.3,0.2-0.5,0.4-0.5,0.5c0,0.1,0.2,0.3,0.3,0.3L170.4,205.5z"/>
	</g>
	<g id="XMLID_842_">
		<path id="XMLID_972_" class="st1" d="M68.9,157.2l-3-1.7c-0.7-0.4-0.6-1.1,0.2-1.6l3.5-2c0.8-0.5,2.1-0.5,2.8-0.1l3,1.7
			c0.7,0.4,0.6,1.1-0.2,1.6l-3.5,2C70.9,157.5,69.7,157.6,68.9,157.2z"/>
		<path id="XMLID_973_" class="st0" d="M70.2,157.9c-0.5,0-1-0.1-1.4-0.3l-3-1.7c-0.5-0.3-0.7-0.7-0.7-1.1c0-0.5,0.3-1,0.9-1.3
			l3.5-2c1-0.6,2.4-0.6,3.3-0.1l3,1.7c0.5,0.3,0.7,0.7,0.7,1.1c0,0.5-0.3,1-0.9,1.3l-3.5,2C71.5,157.8,70.8,157.9,70.2,157.9z
			 M71.2,151.9c-0.5,0-1,0.1-1.4,0.3l-3.5,2c-0.3,0.2-0.5,0.4-0.5,0.5c0,0.1,0.2,0.3,0.3,0.3l3,1.7c0.6,0.3,1.7,0.3,2.4-0.1l3.5-2
			c0.3-0.2,0.5-0.4,0.5-0.5c0-0.1-0.2-0.3-0.3-0.3l-3-1.7C71.9,151.9,71.6,151.9,71.2,151.9z"/>
	</g>
	<g id="XMLID_841_">
		<path id="XMLID_968_" class="st1" d="M76.1,161.3l-3-1.7c-0.7-0.4-0.6-1.1,0.2-1.6l3.5-2c0.8-0.5,2.1-0.5,2.8-0.1l3,1.7
			c0.7,0.4,0.6,1.1-0.2,1.6l-3.5,2C78.1,161.7,76.8,161.7,76.1,161.3z"/>
		<path id="XMLID_969_" class="st0" d="M77.3,162c-0.5,0-1-0.1-1.4-0.3l-3-1.7c-0.5-0.3-0.7-0.7-0.7-1.1c0-0.5,0.3-1,0.9-1.3l3.5-2
			c1-0.6,2.4-0.6,3.3-0.1l3,1.7c0.5,0.3,0.7,0.7,0.7,1.1c0,0.5-0.3,1-0.9,1.3l-3.5,2C78.6,161.9,77.9,162,77.3,162z M76.3,160.9
			c0.6,0.3,1.7,0.3,2.4-0.1l3.5-2c0.3-0.2,0.5-0.4,0.5-0.5c0-0.1-0.2-0.3-0.3-0.3l-3-1.7c-0.6-0.3-1.7-0.3-2.4,0.1l-3.5,2
			c-0.3,0.2-0.5,0.4-0.5,0.5c0,0.1,0.2,0.3,0.3,0.3L76.3,160.9z"/>
	</g>
	<g id="XMLID_840_">
		<path id="XMLID_964_" class="st1" d="M83.3,165.4l-3-1.7c-0.7-0.4-0.6-1.1,0.2-1.6l3.5-2c0.8-0.5,2.1-0.5,2.8-0.1l3,1.7
			c0.7,0.4,0.6,1.1-0.2,1.6l-3.5,2C85.3,165.8,84,165.9,83.3,165.4z"/>
		<path id="XMLID_965_" class="st0" d="M84.5,166.2c-0.5,0-1-0.1-1.4-0.3l-3-1.7c-0.5-0.3-0.7-0.7-0.7-1.1c0-0.5,0.3-1,0.9-1.3
			l3.5-2c1-0.6,2.4-0.6,3.3-0.1l3,1.7c0.5,0.3,0.7,0.7,0.7,1.1c0,0.5-0.3,1-0.9,1.3l-3.5,2C85.8,166,85.1,166.2,84.5,166.2z
			 M83.5,165.1c0.6,0.3,1.7,0.3,2.4-0.1l3.5-2c0.3-0.2,0.5-0.4,0.5-0.5c0-0.1-0.2-0.3-0.3-0.3l-3-1.7c-0.6-0.3-1.7-0.3-2.4,0.1
			l-3.5,2c-0.3,0.2-0.5,0.4-0.5,0.5c0,0.1,0.2,0.3,0.3,0.3L83.5,165.1z"/>
	</g>
	<g id="XMLID_839_">
		<path id="XMLID_960_" class="st1" d="M90.4,169.5l-3-1.7c-0.7-0.4-0.6-1.1,0.2-1.6l3.5-2c0.8-0.5,2.1-0.5,2.8-0.1l3,1.7
			c0.7,0.4,0.6,1.1-0.2,1.6l-3.5,2C92.4,169.9,91.1,170,90.4,169.5z"/>
		<path id="XMLID_961_" class="st0" d="M91.6,170.3c-0.5,0-1-0.1-1.4-0.3l-3-1.7c-0.5-0.3-0.7-0.7-0.7-1.1c0-0.5,0.3-1,0.9-1.3
			l3.5-2c1-0.6,2.4-0.6,3.3-0.1l3,1.7c0.5,0.3,0.7,0.7,0.7,1.1c0,0.5-0.3,1-0.9,1.3l-3.5,2C92.9,170.1,92.3,170.3,91.6,170.3z
			 M92.7,164.2c-0.5,0-1,0.1-1.4,0.3l-3.5,2c-0.3,0.2-0.5,0.4-0.5,0.5c0,0.1,0.2,0.3,0.3,0.3l3,1.7c0.6,0.3,1.7,0.3,2.4-0.1l3.5-2
			c0.3-0.2,0.5-0.4,0.5-0.5c0-0.1-0.2-0.3-0.3-0.3l-3-1.7C93.4,164.3,93,164.2,92.7,164.2z"/>
	</g>
	<g id="XMLID_838_">
		<path id="XMLID_956_" class="st1" d="M97.5,173.7l-3-1.7c-0.7-0.4-0.6-1.1,0.2-1.6l3.5-2c0.8-0.5,2.1-0.5,2.8-0.1l3,1.7
			c0.7,0.4,0.6,1.1-0.2,1.6l-3.5,2C99.5,174,98.3,174.1,97.5,173.7z"/>
		<path id="XMLID_957_" class="st0" d="M98.8,174.4c-0.5,0-1-0.1-1.4-0.3l-3-1.7c-0.5-0.3-0.7-0.7-0.7-1.1c0-0.5,0.3-1,0.9-1.3
			l3.5-2c1-0.6,2.4-0.6,3.3-0.1l3,1.7c0.5,0.3,0.7,0.7,0.7,1.1c0,0.5-0.3,1-0.9,1.3l-3.5,2C100,174.2,99.4,174.4,98.8,174.4z
			 M97.8,173.3c0.6,0.3,1.7,0.3,2.4-0.1l3.5-2c0.3-0.2,0.5-0.4,0.5-0.5c0-0.1-0.2-0.3-0.3-0.3l-3-1.7c-0.6-0.3-1.7-0.3-2.4,0.1
			l-3.5,2c-0.3,0.2-0.5,0.4-0.5,0.5c0,0.1,0.2,0.3,0.3,0.3L97.8,173.3z"/>
	</g>
	<g id="XMLID_837_">
		<path id="XMLID_719_" class="st3" d="M104.7,177.8l-3-1.7c-0.7-0.4-0.6-1.1,0.2-1.6l3.5-2c0.8-0.5,2.1-0.5,2.8-0.1l3,1.7
			c0.7,0.4,0.6,1.1-0.2,1.6l-3.5,2C106.7,178.2,105.5,178.2,104.7,177.8z"/>
		<path id="XMLID_953_" class="st0" d="M106,178.5c-0.5,0-1-0.1-1.4-0.3l-3-1.7c-0.5-0.3-0.7-0.7-0.7-1.1c0-0.5,0.3-1,0.9-1.3l3.5-2
			c1-0.6,2.4-0.6,3.3-0.1l3,1.7c0.5,0.3,0.7,0.7,0.7,1.1c0,0.5-0.3,1-0.9,1.3l-3.5,2C107.2,178.4,106.6,178.5,106,178.5z M105,177.4
			c0.6,0.3,1.7,0.3,2.4-0.1l3.5-2c0.3-0.2,0.5-0.4,0.5-0.5c0-0.1-0.2-0.3-0.3-0.3l-3-1.7c-0.6-0.3-1.7-0.3-2.4,0.1l-3.5,2
			c-0.3,0.2-0.5,0.4-0.5,0.5c0,0.1,0.2,0.3,0.3,0.3L105,177.4z"/>
	</g>
	<g id="XMLID_836_">
		<path id="XMLID_715_" class="st3" d="M111.9,181.9l-3-1.7c-0.7-0.4-0.6-1.1,0.2-1.6l3.5-2c0.8-0.5,2.1-0.5,2.8-0.1l3,1.7
			c0.7,0.4,0.6,1.1-0.2,1.6l-3.5,2C113.8,182.3,112.6,182.3,111.9,181.9z"/>
		<path id="XMLID_716_" class="st0" d="M113.1,182.6c-0.5,0-1-0.1-1.4-0.3l-3-1.7c-0.5-0.3-0.7-0.7-0.7-1.1c0-0.5,0.3-1,0.9-1.3
			l3.5-2c1-0.6,2.4-0.6,3.3-0.1l3,1.7c0.5,0.3,0.7,0.7,0.7,1.1c0,0.5-0.3,1-0.9,1.3l-3.5,2C114.4,182.5,113.7,182.6,113.1,182.6z
			 M112.1,181.5c0.6,0.3,1.7,0.3,2.4-0.1l3.5-2c0.3-0.2,0.5-0.4,0.5-0.5c0-0.1-0.2-0.3-0.3-0.3l-3-1.7c-0.6-0.3-1.7-0.3-2.4,0.1
			l-3.5,2c-0.3,0.2-0.5,0.4-0.5,0.5c0,0.1,0.2,0.3,0.3,0.3L112.1,181.5z"/>
	</g>
	<g id="XMLID_835_">
		<path id="XMLID_711_" class="st1" d="M119.1,186.1l-3-1.7c-0.7-0.4-0.6-1.1,0.2-1.6l3.5-2c0.8-0.5,2.1-0.5,2.8-0.1l3,1.7
			c0.7,0.4,0.6,1.1-0.2,1.6l-3.5,2C121,186.4,119.8,186.5,119.1,186.1z"/>
		<path id="XMLID_712_" class="st0" d="M120.3,186.8c-0.5,0-1-0.1-1.4-0.3l-3-1.7c-0.5-0.3-0.7-0.7-0.7-1.1c0-0.5,0.3-1,0.9-1.3
			l3.5-2c1-0.6,2.4-0.6,3.3-0.1l3,1.7c0.5,0.3,0.7,0.7,0.7,1.1c0,0.5-0.3,1-0.9,1.3l-3.5,2C121.6,186.6,120.9,186.8,120.3,186.8z
			 M121.3,180.7c-0.5,0-1,0.1-1.4,0.3l-3.5,2c-0.3,0.2-0.5,0.4-0.5,0.5c0,0.1,0.2,0.3,0.3,0.3l3,1.7c0.6,0.3,1.7,0.3,2.4-0.1l3.5-2
			c0.3-0.2,0.5-0.4,0.5-0.5c0-0.1-0.2-0.3-0.3-0.3l-3-1.7C122.1,180.8,121.7,180.7,121.3,180.7z"/>
	</g>
	<g id="XMLID_834_">
		<path id="XMLID_707_" class="st1" d="M126.2,190.2l-3-1.7c-0.7-0.4-0.6-1.1,0.2-1.6l3.5-2c0.8-0.5,2.1-0.5,2.8-0.1l3,1.7
			c0.7,0.4,0.6,1.1-0.2,1.6l-3.5,2C128.2,190.5,126.9,190.6,126.2,190.2z"/>
		<path id="XMLID_708_" class="st0" d="M127.4,190.9c-0.5,0-1-0.1-1.4-0.3l-3-1.7c-0.5-0.3-0.7-0.7-0.7-1.1c0-0.5,0.3-1,0.9-1.3
			l3.5-2c1-0.6,2.4-0.6,3.3-0.1l3,1.7c0.5,0.3,0.7,0.7,0.7,1.1c0,0.5-0.3,1-0.9,1.3l-3.5,2C128.7,190.7,128,190.9,127.4,190.9z
			 M128.5,184.8c-0.5,0-1,0.1-1.4,0.3l-3.5,2c-0.3,0.2-0.5,0.4-0.5,0.5c0,0.1,0.2,0.3,0.3,0.3l3,1.7c0.6,0.3,1.7,0.3,2.4-0.1l3.5-2
			c0.3-0.2,0.5-0.4,0.5-0.5c0-0.1-0.2-0.3-0.3-0.3l-3-1.7C129.2,184.9,128.8,184.8,128.5,184.8z"/>
	</g>
	<g id="XMLID_833_">
		<path id="XMLID_660_" class="st1" d="M133.3,194.3l-3-1.7c-0.7-0.4-0.6-1.1,0.2-1.6l3.5-2c0.8-0.5,2.1-0.5,2.8-0.1l3,1.7
			c0.7,0.4,0.6,1.1-0.2,1.6l-3.5,2C135.3,194.6,134,194.7,133.3,194.3z"/>
		<path id="XMLID_671_" class="st0" d="M134.5,195c-0.5,0-1-0.1-1.4-0.3l-3-1.7c-0.5-0.3-0.7-0.7-0.7-1.1c0-0.5,0.3-1,0.9-1.3l3.5-2
			c1-0.6,2.4-0.6,3.3-0.1l3,1.7c0.5,0.3,0.7,0.7,0.7,1.1c0,0.5-0.3,1-0.9,1.3l-3.5,2C135.8,194.8,135.2,195,134.5,195z M133.5,193.9
			c0.6,0.3,1.7,0.3,2.4-0.1l3.5-2c0.3-0.2,0.5-0.4,0.5-0.5c0-0.1-0.2-0.3-0.3-0.3l-3-1.7c-0.6-0.3-1.7-0.3-2.4,0.1l-3.5,2
			c-0.3,0.2-0.5,0.4-0.5,0.5c0,0.1,0.2,0.3,0.3,0.3L133.5,193.9z"/>
	</g>
	<g id="XMLID_832_">
		<path id="XMLID_582_" class="st1" d="M140.5,198.4l-3-1.7c-0.7-0.4-0.6-1.1,0.2-1.6l3.5-2c0.8-0.5,2.1-0.5,2.8-0.1l3,1.7
			c0.7,0.4,0.6,1.1-0.2,1.6l-3.5,2C142.5,198.8,141.2,198.8,140.5,198.4z"/>
		<path id="XMLID_583_" class="st0" d="M141.7,199.1c-0.5,0-1-0.1-1.4-0.3l-3-1.7c-0.5-0.3-0.7-0.7-0.7-1.1c0-0.5,0.3-1,0.9-1.3
			l3.5-2c1-0.6,2.4-0.6,3.3-0.1l3,1.7c0.5,0.3,0.7,0.7,0.7,1.1c0,0.5-0.3,1-0.9,1.3l-3.5,2C143,199,142.4,199.1,141.7,199.1z
			 M140.7,198c0.6,0.3,1.7,0.3,2.4-0.1l3.5-2c0.3-0.2,0.5-0.4,0.5-0.5c0-0.1-0.2-0.3-0.3-0.3l-3-1.7c-0.6-0.3-1.7-0.3-2.4,0.1
			l-3.5,2c-0.3,0.2-0.5,0.4-0.5,0.5c0,0.1,0.2,0.3,0.3,0.3L140.7,198z"/>
	</g>
	<g id="XMLID_831_">
		<path id="XMLID_513_" class="st1" d="M147.7,202.5l-3-1.7c-0.7-0.4-0.6-1.1,0.2-1.6l3.5-2c0.8-0.5,2.1-0.5,2.8-0.1l3,1.7
			c0.7,0.4,0.6,1.1-0.2,1.6l-3.5,2C149.6,202.9,148.4,202.9,147.7,202.5z"/>
		<path id="XMLID_514_" class="st0" d="M148.9,203.2c-0.5,0-1-0.1-1.4-0.3l-3-1.7c-0.5-0.3-0.7-0.7-0.7-1.1c0-0.5,0.3-1,0.9-1.3
			l3.5-2c1-0.6,2.4-0.6,3.3-0.1l3,1.7c0.5,0.3,0.7,0.7,0.7,1.1c0,0.5-0.3,1-0.9,1.3l-3.5,2C150.2,203.1,149.5,203.2,148.9,203.2z
			 M147.9,202.1c0.6,0.3,1.7,0.3,2.4-0.1l3.5-2c0.3-0.2,0.5-0.4,0.5-0.5c0-0.1-0.2-0.3-0.3-0.3l-3-1.7c-0.6-0.3-1.7-0.3-2.4,0.1
			l-3.5,2c-0.3,0.2-0.5,0.4-0.5,0.5c0,0.1,0.2,0.3,0.3,0.3L147.9,202.1z"/>
	</g>
	<g id="XMLID_830_">
		<path id="XMLID_507_" class="st1" d="M162,210.8l-10.2-5.9c-0.7-0.4-0.6-1.1,0.2-1.6l3.5-2c0.8-0.5,2.1-0.5,2.8-0.1l10.2,5.9
			c0.7,0.4,0.6,1.1-0.2,1.6l-3.5,2C164,211.1,162.7,211.2,162,210.8z"/>
		<path id="XMLID_508_" class="st0" d="M163.2,211.5c-0.5,0-1-0.1-1.4-0.3l-10.2-5.9c-0.5-0.3-0.7-0.7-0.7-1.1c0-0.5,0.3-1,0.9-1.3
			l3.5-2c1-0.6,2.4-0.6,3.3-0.1l10.2,5.9c0.5,0.3,0.7,0.7,0.7,1.1c0,0.5-0.3,1-0.9,1.3l-3.5,2C164.5,211.3,163.8,211.5,163.2,211.5z
			 M157,201.3c-0.5,0-1,0.1-1.4,0.3l-3.5,2c-0.3,0.2-0.5,0.4-0.5,0.5c0,0.1,0.2,0.3,0.3,0.3l10.2,5.9c0.6,0.3,1.7,0.3,2.4-0.1l3.5-2
			c0.3-0.2,0.5-0.4,0.5-0.5c0-0.1-0.2-0.3-0.3-0.3l-10.2-5.9C157.8,201.4,157.4,201.3,157,201.3z"/>
	</g>
	<g id="XMLID_827_">
		<path id="XMLID_501_" class="st1" d="M67.4,166.1l-10.1-5.8c-0.7-0.4-0.6-1.1,0.2-1.6l3.5-2c0.8-0.5,2.1-0.5,2.8-0.1l10.1,5.8
			c0.7,0.4,0.6,1.1-0.2,1.6l-3.5,2C69.4,166.5,68.1,166.5,67.4,166.1z"/>
		<path id="XMLID_502_" class="st0" d="M68.6,166.8c-0.5,0-1-0.1-1.4-0.3l-10.1-5.8c-0.5-0.3-0.7-0.7-0.7-1.1c0-0.5,0.3-1,0.9-1.3
			l3.5-2c1-0.6,2.4-0.6,3.3-0.1l10.1,5.8c0.5,0.3,0.7,0.7,0.7,1.1c0,0.5-0.3,1-0.9,1.3l-3.5,2C69.9,166.7,69.3,166.8,68.6,166.8z
			 M67.6,165.7c0.6,0.3,1.7,0.3,2.4-0.1l3.5-2c0.3-0.2,0.5-0.4,0.5-0.5c0-0.1-0.2-0.3-0.3-0.3L63.6,157c-0.6-0.3-1.7-0.3-2.4,0.1
			l-3.5,2c-0.3,0.2-0.5,0.4-0.5,0.5c0,0.1,0.2,0.3,0.3,0.3L67.6,165.7z"/>
	</g>
	<g id="XMLID_826_">
		<path id="XMLID_495_" class="st1" d="M74.7,170.3l-3-1.7c-0.7-0.4-0.6-1.1,0.2-1.6l3.5-2c0.8-0.5,2.1-0.5,2.8-0.1l3,1.7
			c0.7,0.4,0.6,1.1-0.2,1.6l-3.5,2C76.7,170.7,75.4,170.7,74.7,170.3z"/>
		<path id="XMLID_496_" class="st0" d="M75.9,171c-0.5,0-1-0.1-1.4-0.3l-3-1.7c-0.5-0.3-0.7-0.7-0.7-1.1c0-0.5,0.3-1,0.9-1.3l3.5-2
			c1-0.6,2.4-0.6,3.3-0.1l3,1.7c0.5,0.3,0.7,0.7,0.7,1.1c0,0.5-0.3,1-0.9,1.3l-3.5,2C77.2,170.9,76.5,171,75.9,171z M74.9,169.9
			c0.6,0.3,1.7,0.3,2.4-0.1l3.5-2c0.3-0.2,0.5-0.4,0.5-0.5c0-0.1-0.2-0.3-0.3-0.3l-3-1.7c-0.6-0.3-1.7-0.3-2.4,0.1l-3.5,2
			c-0.3,0.2-0.5,0.4-0.5,0.5c0,0.1,0.2,0.3,0.3,0.3L74.9,169.9z"/>
	</g>
	<g id="XMLID_825_">
		<path id="XMLID_489_" class="st1" d="M81.8,174.4l-3-1.7c-0.7-0.4-0.6-1.1,0.2-1.6l3.5-2c0.8-0.5,2.1-0.5,2.8-0.1l3,1.7
			c0.7,0.4,0.6,1.1-0.2,1.6l-3.5,2C83.8,174.8,82.5,174.8,81.8,174.4z"/>
		<path id="XMLID_490_" class="st0" d="M83,175.1c-0.5,0-1-0.1-1.4-0.3l-3-1.7c-0.5-0.3-0.7-0.7-0.7-1.1c0-0.5,0.3-1,0.9-1.3l3.5-2
			c1-0.6,2.4-0.6,3.3-0.1l3,1.7c0.5,0.3,0.7,0.7,0.7,1.1c0,0.5-0.3,1-0.9,1.3l-3.5,2C84.3,175,83.7,175.1,83,175.1z M84.1,169.1
			c-0.5,0-1,0.1-1.4,0.3l-3.5,2c-0.3,0.2-0.5,0.4-0.5,0.5c0,0.1,0.2,0.3,0.3,0.3l3,1.7c0.6,0.3,1.7,0.3,2.4-0.1l3.5-2
			c0.3-0.2,0.5-0.4,0.5-0.5c0-0.1-0.2-0.3-0.3-0.3l-3-1.7C84.8,169.2,84.4,169.1,84.1,169.1z"/>
	</g>
	<g id="XMLID_824_">
		<path id="XMLID_483_" class="st1" d="M88.9,178.5l-3-1.7c-0.7-0.4-0.6-1.1,0.2-1.6l3.5-2c0.8-0.5,2.1-0.5,2.8-0.1l3,1.7
			c0.7,0.4,0.6,1.1-0.2,1.6l-3.5,2C90.9,178.9,89.7,178.9,88.9,178.5z"/>
		<path id="XMLID_484_" class="st0" d="M90.2,179.2c-0.5,0-1-0.1-1.4-0.3l-3-1.7c-0.5-0.3-0.7-0.7-0.7-1.1c0-0.5,0.3-1,0.9-1.3
			l3.5-2c1-0.6,2.4-0.6,3.3-0.1l3,1.7c0.5,0.3,0.7,0.7,0.7,1.1c0,0.5-0.3,1-0.9,1.3l-3.5,2C91.4,179.1,90.8,179.2,90.2,179.2z
			 M89.2,178.1c0.6,0.3,1.7,0.3,2.4-0.1l3.5-2c0.3-0.2,0.5-0.4,0.5-0.5c0-0.1-0.2-0.3-0.3-0.3l-3-1.7c-0.6-0.3-1.7-0.3-2.4,0.1
			l-3.5,2c-0.3,0.2-0.5,0.4-0.5,0.5c0,0.1,0.2,0.3,0.3,0.3L89.2,178.1z"/>
	</g>
	<g id="XMLID_823_">
		<path id="XMLID_477_" class="st1" d="M96.1,182.7l-3-1.7c-0.7-0.4-0.6-1.1,0.2-1.6l3.5-2c0.8-0.5,2.1-0.5,2.8-0.1l3,1.7
			c0.7,0.4,0.6,1.1-0.2,1.6l-3.5,2C98.1,183,96.9,183.1,96.1,182.7z"/>
		<path id="XMLID_478_" class="st0" d="M97.4,183.4c-0.5,0-1-0.1-1.4-0.3l-3-1.7c-0.5-0.3-0.7-0.7-0.7-1.1c0-0.5,0.3-1,0.9-1.3
			l3.5-2c1-0.6,2.4-0.6,3.3-0.1l3,1.7c0.5,0.3,0.7,0.7,0.7,1.1c0,0.5-0.3,1-0.9,1.3l-3.5,2C98.6,183.2,98,183.4,97.4,183.4z
			 M96.4,182.3c0.6,0.3,1.7,0.3,2.4-0.1l3.5-2c0.3-0.2,0.5-0.4,0.5-0.5c0-0.1-0.2-0.3-0.3-0.3l-3-1.7c-0.6-0.3-1.7-0.3-2.4,0.1
			l-3.5,2c-0.3,0.2-0.5,0.4-0.5,0.5c0,0.1,0.2,0.3,0.3,0.3L96.4,182.3z"/>
	</g>
	<g id="XMLID_821_">
		<path id="XMLID_471_" class="st1" d="M103.3,186.8l-3-1.7c-0.7-0.4-0.6-1.1,0.2-1.6l3.5-2c0.8-0.5,2.1-0.5,2.8-0.1l3,1.7
			c0.7,0.4,0.6,1.1-0.2,1.6l-3.5,2C105.2,187.1,104,187.2,103.3,186.8z"/>
		<path id="XMLID_472_" class="st0" d="M104.5,187.5c-0.5,0-1-0.1-1.4-0.3l-3-1.7c-0.5-0.3-0.7-0.7-0.7-1.1c0-0.5,0.3-1,0.9-1.3
			l3.5-2c1-0.6,2.4-0.6,3.3-0.1l3,1.7c0.5,0.3,0.7,0.7,0.7,1.1c0,0.5-0.3,1-0.9,1.3l-3.5,2C105.8,187.3,105.1,187.5,104.5,187.5z
			 M105.5,181.5c-0.5,0-1,0.1-1.4,0.3l-3.5,2c-0.3,0.2-0.5,0.4-0.5,0.5c0,0.1,0.2,0.3,0.3,0.3l3,1.7c0.6,0.3,1.7,0.3,2.4-0.1l3.5-2
			c0.3-0.2,0.5-0.4,0.5-0.5c0-0.1-0.2-0.3-0.3-0.3l-3-1.7C106.3,181.5,105.9,181.5,105.5,181.5z"/>
	</g>
	<g id="XMLID_820_">
		<path id="XMLID_465_" class="st1" d="M110.5,190.9l-3-1.7c-0.7-0.4-0.6-1.1,0.2-1.6l3.5-2c0.8-0.5,2.1-0.5,2.8-0.1l3,1.7
			c0.7,0.4,0.6,1.1-0.2,1.6l-3.5,2C112.4,191.3,111.2,191.3,110.5,190.9z"/>
		<path id="XMLID_466_" class="st0" d="M111.7,191.6c-0.5,0-1-0.1-1.4-0.3l-3-1.7c-0.5-0.3-0.7-0.7-0.7-1.1c0-0.5,0.3-1,0.9-1.3
			l3.5-2c1-0.6,2.4-0.6,3.3-0.1l3,1.7c0.5,0.3,0.7,0.7,0.7,1.1c0,0.5-0.3,1-0.9,1.3l-3.5,2C113,191.5,112.3,191.6,111.7,191.6z
			 M112.7,185.6c-0.5,0-1,0.1-1.4,0.3l-3.5,2c-0.3,0.2-0.5,0.4-0.5,0.5c0,0.1,0.2,0.3,0.3,0.3l3,1.7c0.6,0.3,1.7,0.3,2.4-0.1l3.5-2
			c0.3-0.2,0.5-0.4,0.5-0.5c0-0.1-0.2-0.3-0.3-0.3l-3-1.7C113.5,185.7,113.1,185.6,112.7,185.6z"/>
	</g>
	<g id="XMLID_819_">
		<path id="XMLID_401_" class="st1" d="M117.6,195l-3-1.7c-0.7-0.4-0.6-1.1,0.2-1.6l3.5-2c0.8-0.5,2.1-0.5,2.8-0.1l3,1.7
			c0.7,0.4,0.6,1.1-0.2,1.6l-3.5,2C119.6,195.4,118.3,195.4,117.6,195z"/>
		<path id="XMLID_403_" class="st0" d="M118.8,195.7c-0.5,0-1-0.1-1.4-0.3l-3-1.7c-0.5-0.3-0.7-0.7-0.7-1.1c0-0.5,0.3-1,0.9-1.3
			l3.5-2c1-0.6,2.4-0.6,3.3-0.1l3,1.7c0.5,0.3,0.7,0.7,0.7,1.1c0,0.5-0.3,1-0.9,1.3l-3.5,2C120.1,195.6,119.4,195.7,118.8,195.7z
			 M117.8,194.6c0.6,0.3,1.7,0.3,2.4-0.1l3.5-2c0.3-0.2,0.5-0.4,0.5-0.5c0-0.1-0.2-0.3-0.3-0.3l-3-1.7c-0.6-0.3-1.7-0.3-2.4,0.1
			l-3.5,2c-0.3,0.2-0.5,0.4-0.5,0.5c0,0.1,0.2,0.3,0.3,0.3L117.8,194.6z"/>
	</g>
	<g id="XMLID_818_">
		<path id="XMLID_395_" class="st1" d="M124.7,199.1l-3-1.7c-0.7-0.4-0.6-1.1,0.2-1.6l3.5-2c0.8-0.5,2.1-0.5,2.8-0.1l3,1.7
			c0.7,0.4,0.6,1.1-0.2,1.6l-3.5,2C126.7,199.5,125.4,199.5,124.7,199.1z"/>
		<path id="XMLID_397_" class="st0" d="M125.9,199.9c-0.5,0-1-0.1-1.4-0.3l-3-1.7c-0.5-0.3-0.7-0.7-0.7-1.1c0-0.5,0.3-1,0.9-1.3
			l3.5-2c1-0.6,2.4-0.6,3.3-0.1l3,1.7c0.5,0.3,0.7,0.7,0.7,1.1c0,0.5-0.3,1-0.9,1.3l-3.5,2C127.2,199.7,126.6,199.9,125.9,199.9z
			 M125,198.7c0.6,0.3,1.7,0.3,2.4-0.1l3.5-2c0.3-0.2,0.5-0.4,0.5-0.5c0-0.1-0.2-0.3-0.3-0.3l-3-1.7c-0.6-0.3-1.7-0.3-2.4,0.1
			l-3.5,2c-0.3,0.2-0.5,0.4-0.5,0.5c0,0.1,0.2,0.3,0.3,0.3L125,198.7z"/>
	</g>
	<g id="XMLID_817_">
		<path id="XMLID_389_" class="st1" d="M131.9,203.3l-3-1.7c-0.7-0.4-0.6-1.1,0.2-1.6l3.5-2c0.8-0.5,2.1-0.5,2.8-0.1l3,1.7
			c0.7,0.4,0.6,1.1-0.2,1.6l-3.5,2C133.9,203.6,132.6,203.7,131.9,203.3z"/>
		<path id="XMLID_391_" class="st0" d="M133.1,204c-0.5,0-1-0.1-1.4-0.3l-3-1.7c-0.5-0.3-0.7-0.7-0.7-1.1c0-0.5,0.3-1,0.9-1.3l3.5-2
			c1-0.6,2.4-0.6,3.3-0.1l3,1.7c0.5,0.3,0.7,0.7,0.7,1.1c0,0.5-0.3,1-0.9,1.3l-3.5,2C134.4,203.8,133.8,204,133.1,204z M132.2,202.9
			c0.6,0.3,1.7,0.3,2.4-0.1l3.5-2c0.3-0.2,0.5-0.4,0.5-0.5c0-0.1-0.2-0.3-0.3-0.3l-3-1.7c-0.6-0.3-1.7-0.3-2.4,0.1l-3.5,2
			c-0.3,0.2-0.5,0.4-0.5,0.5c0,0.1,0.2,0.3,0.3,0.3L132.2,202.9z"/>
	</g>
	<g id="XMLID_816_">
		<path id="XMLID_383_" class="st1" d="M146.3,211.6l-10.3-6c-0.7-0.4-0.6-1.1,0.2-1.6l3.5-2c0.8-0.5,2.1-0.5,2.8-0.1l10.3,6
			c0.7,0.4,0.6,1.1-0.2,1.6l-3.5,2C148.3,212,147,212,146.3,211.6z"/>
		<path id="XMLID_385_" class="st0" d="M147.5,212.3c-0.5,0-1-0.1-1.4-0.3l0,0l-10.3-6c-0.5-0.3-0.7-0.7-0.7-1.1
			c0-0.5,0.3-1,0.9-1.3l3.5-2c1-0.6,2.4-0.6,3.3-0.1l10.3,6c0.5,0.3,0.7,0.6,0.7,1.1c0,0.5-0.3,1-0.9,1.3l-3.5,2
			C148.8,212.2,148.2,212.3,147.5,212.3z M146.5,211.2c0.6,0.3,1.7,0.3,2.4-0.1l3.5-2c0.3-0.2,0.5-0.4,0.5-0.5
			c0-0.1-0.2-0.3-0.3-0.3l-10.3-6c-0.6-0.3-1.7-0.3-2.4,0.1l-3.5,2c-0.3,0.2-0.5,0.4-0.5,0.5c0,0.1,0.2,0.3,0.3,0.3L146.5,211.2z"/>
	</g>
	<g id="XMLID_815_">
		<path id="XMLID_376_" class="st1" d="M145.1,220.5l-3-1.7c-0.7-0.4-0.6-1.1,0.2-1.6l11.8-6.8c0.8-0.5,2.1-0.5,2.8-0.1l3,1.7
			c0.7,0.4,0.6,1.1-0.2,1.6l-11.8,6.8C147,220.8,145.8,220.9,145.1,220.5z"/>
		<path id="XMLID_377_" class="st0" d="M146.3,221.2c-0.5,0-1-0.1-1.4-0.3l-3-1.7c-0.5-0.3-0.7-0.7-0.7-1.1c0-0.5,0.3-1,0.9-1.3
			l11.8-6.8c1-0.6,2.4-0.6,3.3-0.1l3,1.7c0.5,0.3,0.7,0.7,0.7,1.1c0,0.5-0.3,1-0.9,1.3l-11.8,6.8C147.6,221,146.9,221.2,146.3,221.2
			z M155.6,210.3c-0.5,0-1,0.1-1.4,0.3l-11.8,6.8c-0.3,0.2-0.5,0.4-0.5,0.5c0,0.1,0.2,0.3,0.3,0.3l3,1.7c0.6,0.3,1.7,0.3,2.4-0.1
			l11.8-6.8c0.3-0.2,0.5-0.4,0.5-0.5c0-0.1-0.2-0.3-0.3-0.3l-3-1.7C156.4,210.4,156,210.3,155.6,210.3z"/>
	</g>
	<g id="XMLID_812_">
		<path id="XMLID_370_" class="st1" d="M52,166.9l-3-1.7c-0.7-0.4-0.6-1.1,0.2-1.6l3.5-2c0.8-0.5,2.1-0.5,2.8-0.1l3,1.7
			c0.7,0.4,0.6,1.1-0.2,1.6l-3.5,2C54,167.2,52.7,167.3,52,166.9z"/>
		<path id="XMLID_371_" class="st0" d="M53.2,167.6c-0.5,0-1-0.1-1.4-0.3l-3-1.7c-0.5-0.3-0.7-0.7-0.7-1.1c0-0.5,0.3-1,0.9-1.3
			l3.5-2c1-0.6,2.4-0.6,3.3-0.1l3,1.7c0.5,0.3,0.7,0.7,0.7,1.1c0,0.5-0.3,1-0.9,1.3l-3.5,2C54.5,167.4,53.9,167.6,53.2,167.6z
			 M54.3,161.6c-0.5,0-1,0.1-1.4,0.3l-3.5,2c-0.3,0.2-0.5,0.4-0.5,0.5c0,0.1,0.2,0.3,0.3,0.3l3,1.7c0.6,0.3,1.7,0.3,2.4-0.1l3.5-2
			c0.3-0.2,0.5-0.4,0.5-0.5c0-0.1-0.2-0.3-0.3-0.3l-3-1.7C55,161.6,54.7,161.6,54.3,161.6z"/>
	</g>
	<g id="XMLID_811_">
		<path id="XMLID_364_" class="st1" d="M59.2,171l-3-1.7c-0.7-0.4-0.6-1.1,0.2-1.6l3.5-2c0.8-0.5,2.1-0.5,2.8-0.1l3,1.7
			c0.7,0.4,0.6,1.1-0.2,1.6l-3.5,2C61.1,171.3,59.9,171.4,59.2,171z"/>
		<path id="XMLID_365_" class="st0" d="M60.4,171.7c-0.5,0-1-0.1-1.4-0.3l-3-1.7c-0.5-0.3-0.7-0.7-0.7-1.1c0-0.5,0.3-1,0.9-1.3
			l3.5-2c1-0.6,2.4-0.6,3.3-0.1l3,1.7c0.5,0.3,0.7,0.7,0.7,1.1c0,0.5-0.3,1-0.9,1.3l-3.5,2C61.7,171.5,61,171.7,60.4,171.7z
			 M59.4,170.6c0.6,0.3,1.7,0.3,2.4-0.1l3.5-2c0.3-0.2,0.5-0.4,0.5-0.5c0-0.1-0.2-0.3-0.3-0.3l-3-1.7c-0.6-0.3-1.7-0.3-2.4,0.1
			l-3.5,2c-0.3,0.2-0.5,0.4-0.5,0.5c0,0.1,0.2,0.3,0.3,0.3L59.4,170.6z"/>
	</g>
	<g id="XMLID_807_">
		<path id="XMLID_356_" class="st1" d="M66.4,175.1l-3-1.7c-0.7-0.4-0.6-1.1,0.2-1.6l3.5-2c0.8-0.5,2.1-0.5,2.8-0.1l3,1.7
			c0.7,0.4,0.6,1.1-0.2,1.6l-3.5,2C68.3,175.5,67.1,175.5,66.4,175.1z"/>
		<path id="XMLID_359_" class="st0" d="M67.6,175.8c-0.5,0-1-0.1-1.4-0.3l-3-1.7c-0.5-0.3-0.7-0.7-0.7-1.1c0-0.5,0.3-1,0.9-1.3
			l3.5-2c1-0.6,2.4-0.6,3.3-0.1l3,1.7c0.5,0.3,0.7,0.7,0.7,1.1c0,0.5-0.3,1-0.9,1.3l-3.5,2C68.9,175.7,68.2,175.8,67.6,175.8z
			 M66.6,174.7c0.6,0.3,1.7,0.3,2.4-0.1l3.5-2c0.3-0.2,0.5-0.4,0.5-0.5c0-0.1-0.2-0.3-0.3-0.3l-3-1.7c-0.6-0.3-1.7-0.3-2.4,0.1
			l-3.5,2c-0.3,0.2-0.5,0.4-0.5,0.5c0,0.1,0.2,0.3,0.3,0.3L66.6,174.7z"/>
	</g>
	<g id="XMLID_806_">
		<path id="XMLID_350_" class="st1" d="M73.5,179.2l-3-1.7c-0.7-0.4-0.6-1.1,0.2-1.6l3.5-2c0.8-0.5,2.1-0.5,2.8-0.1l3,1.7
			c0.7,0.4,0.6,1.1-0.2,1.6l-3.5,2C75.5,179.6,74.2,179.6,73.5,179.2z"/>
		<path id="XMLID_352_" class="st0" d="M74.7,180c-0.5,0-1-0.1-1.4-0.3l-3-1.7c-0.5-0.3-0.7-0.7-0.7-1.1c0-0.5,0.3-1,0.9-1.3l3.5-2
			c1-0.6,2.4-0.6,3.3-0.1l3,1.7c0.5,0.3,0.7,0.7,0.7,1.1c0,0.5-0.3,1-0.9,1.3l-3.5,2C76,179.8,75.3,180,74.7,180z M73.7,178.8
			c0.6,0.3,1.7,0.3,2.4-0.1l3.5-2c0.3-0.2,0.5-0.4,0.5-0.5c0-0.1-0.2-0.3-0.3-0.3l-3-1.7c-0.6-0.3-1.7-0.3-2.4,0.1l-3.5,2
			c-0.3,0.2-0.5,0.4-0.5,0.5c0,0.1,0.2,0.3,0.3,0.3L73.7,178.8z"/>
	</g>
	<g id="XMLID_805_">
		<path id="XMLID_344_" class="st1" d="M102.1,195.7l-24.5-14.1c-0.7-0.4-0.6-1.1,0.2-1.6l3.5-2c0.8-0.5,2.1-0.5,2.8-0.1l24.5,14.1
			c0.7,0.4,0.6,1.1-0.2,1.6l-3.5,2C104.1,196.1,102.9,196.1,102.1,195.7z"/>
		<path id="XMLID_346_" class="st0" d="M103.4,196.5c-0.5,0-1-0.1-1.4-0.3L77.4,182c-0.5-0.3-0.7-0.7-0.7-1.1c0-0.5,0.3-1,0.9-1.3
			l3.5-2c1-0.6,2.4-0.6,3.3-0.1l24.5,14.1c0.5,0.3,0.7,0.7,0.7,1.1c0,0.5-0.3,1-0.9,1.3l-3.5,2C104.7,196.3,104,196.5,103.4,196.5z
			 M102.4,195.3c0.6,0.3,1.7,0.3,2.4-0.1l3.5-2c0.3-0.2,0.5-0.4,0.5-0.5c0-0.1-0.2-0.3-0.3-0.3l-24.5-14.1c-0.6-0.3-1.7-0.3-2.4,0.1
			l-3.5,2c-0.3,0.2-0.5,0.4-0.5,0.5c0,0.1,0.2,0.3,0.3,0.3L102.4,195.3z"/>
	</g>
	<g id="XMLID_804_">
		<path id="XMLID_338_" class="st1" d="M109.3,199.8l-3-1.7c-0.7-0.4-0.6-1.1,0.2-1.6l3.5-2c0.8-0.5,2.1-0.5,2.8-0.1l3,1.7
			c0.7,0.4,0.6,1.1-0.2,1.6l-3.5,2C111.3,200.2,110,200.3,109.3,199.8z"/>
		<path id="XMLID_340_" class="st0" d="M110.5,200.6c-0.5,0-1-0.1-1.4-0.3l-3-1.7c-0.5-0.3-0.7-0.7-0.7-1.1c0-0.5,0.3-1,0.9-1.3
			l3.5-2c1-0.6,2.4-0.6,3.3-0.1l3,1.7c0.5,0.3,0.7,0.7,0.7,1.1c0,0.5-0.3,1-0.9,1.3l-3.5,2C111.8,200.4,111.1,200.6,110.5,200.6z
			 M109.5,199.5c0.6,0.3,1.7,0.3,2.4-0.1l3.5-2c0.3-0.2,0.5-0.4,0.5-0.5c0-0.1-0.2-0.3-0.3-0.3l-3-1.7c-0.6-0.3-1.7-0.3-2.4,0.1
			l-3.5,2c-0.3,0.2-0.5,0.4-0.5,0.5c0,0.1,0.2,0.3,0.3,0.3L109.5,199.5z"/>
	</g>
	<g id="XMLID_801_">
		<path id="XMLID_332_" class="st1" d="M116.4,203.9l-3-1.7c-0.7-0.4-0.6-1.1,0.2-1.6l3.5-2c0.8-0.5,2.1-0.5,2.8-0.1l3,1.7
			c0.7,0.4,0.6,1.1-0.2,1.6l-3.5,2C118.4,204.3,117.1,204.4,116.4,203.9z"/>
		<path id="XMLID_334_" class="st0" d="M117.6,204.7c-0.5,0-1-0.1-1.4-0.3l-3-1.7c-0.5-0.3-0.7-0.7-0.7-1.1c0-0.5,0.3-1,0.9-1.3
			l3.5-2c1-0.6,2.4-0.6,3.3-0.1l3,1.7c0.5,0.3,0.7,0.7,0.7,1.1c0,0.5-0.3,1-0.9,1.3l-3.5,2C118.9,204.5,118.3,204.7,117.6,204.7z
			 M118.7,198.6c-0.5,0-1,0.1-1.4,0.3l-3.5,2c-0.3,0.2-0.5,0.4-0.5,0.5c0,0.1,0.2,0.3,0.3,0.3l3,1.7c0.6,0.3,1.7,0.3,2.4-0.1l3.5-2
			c0.3-0.2,0.5-0.4,0.5-0.5c0-0.1-0.2-0.3-0.3-0.3l-3-1.7C119.4,198.7,119,198.6,118.7,198.6z"/>
	</g>
	<g id="XMLID_799_">
		<path id="XMLID_326_" class="st1" d="M123.6,208.1l-3-1.7c-0.7-0.4-0.6-1.1,0.2-1.6l3.5-2c0.8-0.5,2.1-0.5,2.8-0.1l3,1.7
			c0.7,0.4,0.6,1.1-0.2,1.6l-3.5,2C125.6,208.5,124.3,208.5,123.6,208.1z"/>
		<path id="XMLID_328_" class="st0" d="M124.8,208.8c-0.5,0-1-0.1-1.4-0.3l-3-1.7c-0.5-0.3-0.7-0.7-0.7-1.1c0-0.5,0.3-1,0.9-1.3
			l3.5-2c1-0.6,2.4-0.6,3.3-0.1l3,1.7c0.5,0.3,0.7,0.7,0.7,1.1c0,0.5-0.3,1-0.9,1.3l-3.5,2C126.1,208.7,125.5,208.8,124.8,208.8z
			 M125.9,202.8c-0.5,0-1,0.1-1.4,0.3l-3.5,2c-0.3,0.2-0.5,0.4-0.5,0.5c0,0.1,0.2,0.3,0.3,0.3l3,1.7c0.6,0.3,1.7,0.3,2.4-0.1l3.5-2
			c0.3-0.2,0.5-0.4,0.5-0.5c0-0.1-0.2-0.3-0.3-0.3l-3-1.7C126.6,202.9,126.2,202.8,125.9,202.8z"/>
	</g>
	<g id="XMLID_778_">
		<path id="XMLID_321_" class="st1" d="M130.7,212.2l-3-1.7c-0.7-0.4-0.6-1.1,0.2-1.6l3.5-2c0.8-0.5,2.1-0.5,2.8-0.1l3,1.7
			c0.7,0.4,0.6,1.1-0.2,1.6l-3.5,2C132.7,212.6,131.5,212.6,130.7,212.2z"/>
		<path id="XMLID_322_" class="st0" d="M132,212.9c-0.5,0-1-0.1-1.4-0.3l-3-1.7c-0.5-0.3-0.7-0.7-0.7-1.1c0-0.5,0.3-1,0.9-1.3l3.5-2
			c1-0.6,2.4-0.6,3.3-0.1l3,1.7c0.5,0.3,0.7,0.7,0.7,1.1c0,0.5-0.3,1-0.9,1.3l-3.5,2C133.2,212.8,132.6,212.9,132,212.9z M131,211.8
			c0.6,0.3,1.7,0.3,2.4-0.1l3.5-2c0.3-0.2,0.5-0.4,0.5-0.5c0-0.1-0.2-0.3-0.3-0.3l-3-1.7c-0.6-0.3-1.7-0.3-2.4,0.1l-3.5,2
			c-0.3,0.2-0.5,0.4-0.5,0.5c0,0.1,0.2,0.3,0.3,0.3L131,211.8z"/>
	</g>
	<g id="XMLID_776_">
		<path id="XMLID_316_" class="st1" d="M137.9,216.3l-3-1.7c-0.7-0.4-0.6-1.1,0.2-1.6l3.5-2c0.8-0.5,2.1-0.5,2.8-0.1l3,1.7
			c0.7,0.4,0.6,1.1-0.2,1.6l-3.5,2C139.8,216.7,138.6,216.7,137.9,216.3z"/>
		<path id="XMLID_317_" class="st0" d="M139.1,217c-0.5,0-1-0.1-1.4-0.3l-3-1.7c-0.5-0.3-0.7-0.7-0.7-1.1c0-0.5,0.3-1,0.9-1.3l3.5-2
			c1-0.6,2.4-0.6,3.3-0.1l3,1.7c0.5,0.3,0.7,0.7,0.7,1.1c0,0.5-0.3,1-0.9,1.3l-3.5,2C140.4,216.9,139.7,217,139.1,217z M140.1,211
			c-0.5,0-1,0.1-1.4,0.3l-3.5,2c-0.3,0.2-0.5,0.4-0.5,0.5c0,0.1,0.2,0.3,0.3,0.3l3,1.7c0.6,0.3,1.7,0.3,2.4-0.1l3.5-2
			c0.3-0.2,0.5-0.4,0.5-0.5c0-0.1-0.2-0.3-0.3-0.3l-3-1.7C140.8,211.1,140.5,211,140.1,211z"/>
	</g>
	<path id="XMLID_1632_" class="st0" d="M116.6,246.2c-1.4,0-2.7-0.3-3.7-0.9L5.8,183.6c-1-0.6-1.6-1.5-1.6-2.4c0-1.1,0.8-2.2,2.2-3
		L83,133.8c2.6-1.5,6.3-1.6,8.5-0.3l107.1,61.7c1,0.6,1.6,1.5,1.6,2.4c0,1.1-0.8,2.2-2.2,3L121.4,245
		C120,245.8,118.2,246.2,116.6,246.2z M87.8,133.5c-1.5,0-3.1,0.4-4.4,1.1L6.8,179c-1.1,0.6-1.8,1.5-1.8,2.3c0,0.6,0.4,1.2,1.2,1.6
		l107.1,61.7c1.9,1.1,5.4,1,7.6-0.3l76.7-44.4c1.1-0.6,1.8-1.5,1.8-2.3c0-0.6-0.4-1.2-1.2-1.6L91.1,134.3
		C90.2,133.8,89,133.5,87.8,133.5z"/>
	<path id="XMLID_1869_" class="st0" d="M178.4,98.3v1.4l8.7,5l-1.7,0.9l0.8,1.5l2.7-1.3l2.5,1.4v0.2l-6,3l0.8,1.5l5.2-2.6v2.9l-6,3
		l0.8,1.5l5.2-2.6v2.8l-6,3l0.8,1.5l5.2-2.6v2.9l-6,3l0.8,1.5l5.2-2.6v2.9l-6,3l0.8,1.5l5.2-2.6v2.9l-6,3l0.8,1.5l5.2-2.6v2.8l-6,3
		l0.8,1.5l5.2-2.6v2.9l-6,3l0.8,1.5l5.2-2.6v2.8l-5.9,3l0.8,1.5l5.1-2.5v2.9l-5.9,3l0.8,1.5l5.1-2.5v2.8l-5.9,3l0.8,1.5l5.1-2.5v2.9
		l-5.9,3l0.8,1.5l5.1-2.5v2.9l-5.9,3l0.8,1.5l5.1-2.5v2.9l-3.4,1.7l-39.4-22.7v1.4l44.1,25.4v-69.2L178.4,98.3z M189.8,172.6
		l1.6-0.8v1.7L189.8,172.6z"/>
	<g id="XMLID_6303_">
		<path id="XMLID_6302_" class="st0" d="M57.3,222.7c0.4,0.2,0.4,0.6,0,0.8c-0.4,0.2-1.1,0.2-1.5,0c-0.4-0.2-0.4-0.6,0-0.8
			C56.3,222.5,56.9,222.5,57.3,222.7z"/>
		<path id="XMLID_6301_" class="st0" d="M61.1,220.5c0.4,0.2,0.4,0.6,0,0.8c-0.4,0.2-1.1,0.2-1.5,0c-0.4-0.2-0.4-0.6,0-0.8
			C60.1,220.3,60.7,220.3,61.1,220.5z"/>
		<path id="XMLID_6300_" class="st0" d="M53.5,220.5c0.4,0.2,0.4,0.6,0,0.8c-0.4,0.2-1.1,0.2-1.5,0c-0.4-0.2-0.4-0.6,0-0.8
			C52.5,220.3,53.1,220.3,53.5,220.5z"/>
		<path id="XMLID_6299_" class="st0" d="M57.3,218.3c0.4,0.2,0.4,0.6,0,0.8c-0.4,0.2-1.1,0.2-1.5,0c-0.4-0.2-0.4-0.6,0-0.8
			C56.3,218.1,56.9,218.1,57.3,218.3z"/>
		<path id="XMLID_6298_" class="st0" d="M49.7,218.3c0.4,0.2,0.4,0.6,0,0.8c-0.4,0.2-1.1,0.2-1.5,0c-0.4-0.2-0.4-0.6,0-0.8
			C48.6,218.1,49.3,218.1,49.7,218.3z"/>
		<path id="XMLID_6297_" class="st0" d="M53.5,216.1c0.4,0.2,0.4,0.6,0,0.8c-0.4,0.2-1.1,0.2-1.5,0c-0.4-0.2-0.4-0.6,0-0.8
			C52.5,215.9,53.1,215.9,53.5,216.1z"/>
		<path id="XMLID_6296_" class="st0" d="M45.9,216.1c0.4,0.2,0.4,0.6,0,0.8c-0.4,0.2-1.1,0.2-1.5,0c-0.4-0.2-0.4-0.6,0-0.8
			C44.8,215.9,45.5,215.9,45.9,216.1z"/>
		<path id="XMLID_6295_" class="st0" d="M49.7,213.9c0.4,0.2,0.4,0.6,0,0.8c-0.4,0.2-1.1,0.2-1.5,0c-0.4-0.2-0.4-0.6,0-0.8
			C48.6,213.7,49.3,213.7,49.7,213.9z"/>
		<path id="XMLID_6294_" class="st0" d="M42.1,213.9c0.4,0.2,0.4,0.6,0,0.8c-0.4,0.2-1.1,0.2-1.5,0c-0.4-0.2-0.4-0.6,0-0.8
			C41,213.7,41.7,213.7,42.1,213.9z"/>
		<path id="XMLID_6293_" class="st0" d="M45.9,211.7c0.4,0.2,0.4,0.6,0,0.8c-0.4,0.2-1.1,0.2-1.5,0c-0.4-0.2-0.4-0.6,0-0.8
			C44.8,211.5,45.5,211.5,45.9,211.7z"/>
		<path id="XMLID_6292_" class="st0" d="M38.3,211.7c0.4,0.2,0.4,0.6,0,0.8c-0.4,0.2-1.1,0.2-1.5,0c-0.4-0.2-0.4-0.6,0-0.8
			C37.2,211.5,37.9,211.5,38.3,211.7z"/>
		<path id="XMLID_6291_" class="st0" d="M42.1,209.5c0.4,0.2,0.4,0.6,0,0.8c-0.4,0.2-1.1,0.2-1.5,0c-0.4-0.2-0.4-0.6,0-0.8
			C41,209.3,41.7,209.3,42.1,209.5z"/>
		<path id="XMLID_6290_" class="st0" d="M34.5,209.5c0.4,0.2,0.4,0.6,0,0.8c-0.4,0.2-1.1,0.2-1.5,0c-0.4-0.2-0.4-0.6,0-0.8
			C33.4,209.3,34.1,209.3,34.5,209.5z"/>
		<path id="XMLID_6289_" class="st0" d="M38.3,207.3c0.4,0.2,0.4,0.6,0,0.8c-0.4,0.2-1.1,0.2-1.5,0c-0.4-0.2-0.4-0.6,0-0.8
			C37.2,207.1,37.9,207.1,38.3,207.3z"/>
		<path id="XMLID_6288_" class="st0" d="M30.7,207.3c0.4,0.2,0.4,0.6,0,0.8c-0.4,0.2-1.1,0.2-1.5,0c-0.4-0.2-0.4-0.6,0-0.8
			C29.6,207.1,30.2,207.1,30.7,207.3z"/>
		<path id="XMLID_6287_" class="st0" d="M34.5,205.1c0.4,0.2,0.4,0.6,0,0.8c-0.4,0.2-1.1,0.2-1.5,0c-0.4-0.2-0.4-0.6,0-0.8
			C33.4,204.9,34.1,204.9,34.5,205.1z"/>
		<path id="XMLID_6286_" class="st0" d="M26.8,205.1c0.4,0.2,0.4,0.6,0,0.8c-0.4,0.2-1.1,0.2-1.5,0c-0.4-0.2-0.4-0.6,0-0.8
			C25.8,204.9,26.4,204.9,26.8,205.1z"/>
		<path id="XMLID_6285_" class="st0" d="M30.7,202.9c0.4,0.2,0.4,0.6,0,0.8c-0.4,0.2-1.1,0.2-1.5,0c-0.4-0.2-0.4-0.6,0-0.8
			C29.6,202.7,30.2,202.7,30.7,202.9z"/>
		<path id="XMLID_6284_" class="st0" d="M23,202.9c0.4,0.2,0.4,0.6,0,0.8c-0.4,0.2-1.1,0.2-1.5,0c-0.4-0.2-0.4-0.6,0-0.8
			C22,202.7,22.6,202.7,23,202.9z"/>
		<path id="XMLID_6283_" class="st0" d="M26.8,200.7c0.4,0.2,0.4,0.6,0,0.8c-0.4,0.2-1.1,0.2-1.5,0c-0.4-0.2-0.4-0.6,0-0.8
			C25.8,200.5,26.4,200.5,26.8,200.7z"/>
		<path id="XMLID_6282_" class="st0" d="M19.2,200.7c0.4,0.2,0.4,0.6,0,0.8c-0.4,0.2-1.1,0.2-1.5,0c-0.4-0.2-0.4-0.6,0-0.8
			C18.2,200.5,18.8,200.5,19.2,200.7z"/>
		<path id="XMLID_6281_" class="st0" d="M23,198.5c0.4,0.2,0.4,0.6,0,0.8c-0.4,0.2-1.1,0.2-1.5,0c-0.4-0.2-0.4-0.6,0-0.8
			C22,198.3,22.6,198.3,23,198.5z"/>
		<path id="XMLID_6280_" class="st0" d="M15.4,198.5c0.4,0.2,0.4,0.6,0,0.8c-0.4,0.2-1.1,0.2-1.5,0c-0.4-0.2-0.4-0.6,0-0.8
			C14.4,198.3,15,198.3,15.4,198.5z"/>
		<path id="XMLID_6279_" class="st0" d="M19.2,196.3c0.4,0.2,0.4,0.6,0,0.8c-0.4,0.2-1.1,0.2-1.5,0c-0.4-0.2-0.4-0.6,0-0.8
			C18.2,196.1,18.8,196.1,19.2,196.3z"/>
		<path id="XMLID_6278_" class="st0" d="M11.6,196.3c0.4,0.2,0.4,0.6,0,0.8c-0.4,0.2-1.1,0.2-1.5,0c-0.4-0.2-0.4-0.6,0-0.8
			C10.6,196.1,11.2,196.1,11.6,196.3z"/>
		<path id="XMLID_6277_" class="st0" d="M15.4,194.1c0.4,0.2,0.4,0.6,0,0.8c-0.4,0.2-1.1,0.2-1.5,0c-0.4-0.2-0.4-0.6,0-0.8
			C14.4,193.9,15,193.9,15.4,194.1z"/>
		<ellipse id="XMLID_6276_" class="st0" cx="7.1" cy="194.5" rx="1" ry="0.6"/>
		<path id="XMLID_6275_" class="st0" d="M11.6,191.9c0.4,0.2,0.4,0.6,0,0.8c-0.4,0.2-1.1,0.2-1.5,0c-0.4-0.2-0.4-0.6,0-0.8
			C10.5,191.7,11.2,191.7,11.6,191.9z"/>
		<path id="XMLID_6273_" class="st0" d="M4,191.9c0.4,0.2,0.4,0.6,0,0.8c-0.4,0.2-1.1,0.2-1.5,0c-0.4-0.2-0.4-0.6,0-0.8
			C2.9,191.7,3.6,191.7,4,191.9z"/>
		<path id="XMLID_6272_" class="st0" d="M7.8,189.7c0.4,0.2,0.4,0.6,0,0.8c-0.4,0.2-1.1,0.2-1.5,0c-0.4-0.2-0.4-0.6,0-0.8
			C6.7,189.5,7.4,189.5,7.8,189.7z"/>
		<ellipse id="XMLID_6270_" class="st0" cx="3.3" cy="187.9" rx="1" ry="0.6"/>
		<path id="XMLID_6268_" class="st0" d="M126,257.5c0.4,0.2,0.4,0.6,0,0.8c-0.4,0.2-1.1,0.2-1.5,0c-0.4-0.2-0.4-0.6,0-0.8
			C124.9,257.3,125.6,257.3,126,257.5z"/>
		<path id="XMLID_6267_" class="st0" d="M129.8,255.3c0.4,0.2,0.4,0.6,0,0.8c-0.4,0.2-1.1,0.2-1.5,0c-0.4-0.2-0.4-0.6,0-0.8
			C128.7,255.1,129.4,255.1,129.8,255.3z"/>
		<path id="XMLID_6266_" class="st0" d="M133.6,253.1c0.4,0.2,0.4,0.6,0,0.8c-0.4,0.2-1.1,0.2-1.5,0s-0.4-0.6,0-0.8
			C132.5,252.9,133.2,252.9,133.6,253.1z"/>
		<path id="XMLID_6265_" class="st0" d="M137.4,250.9c0.4,0.2,0.4,0.6,0,0.8c-0.4,0.2-1.1,0.2-1.5,0c-0.4-0.2-0.4-0.6,0-0.8
			C136.3,250.7,137,250.7,137.4,250.9z"/>
		<path id="XMLID_6264_" class="st0" d="M141.2,248.7c0.4,0.2,0.4,0.6,0,0.8c-0.4,0.2-1.1,0.2-1.5,0c-0.4-0.2-0.4-0.6,0-0.8
			C140.2,248.5,140.8,248.5,141.2,248.7z"/>
		<path id="XMLID_6263_" class="st0" d="M145,246.5c0.4,0.2,0.4,0.6,0,0.8c-0.4,0.2-1.1,0.2-1.5,0c-0.4-0.2-0.4-0.6,0-0.8
			C144,246.3,144.6,246.3,145,246.5z"/>
		<path id="XMLID_6262_" class="st0" d="M148.8,244.3c0.4,0.2,0.4,0.6,0,0.8c-0.4,0.2-1.1,0.2-1.5,0c-0.4-0.2-0.4-0.6,0-0.8
			C147.8,244.1,148.4,244.1,148.8,244.3z"/>
		<path id="XMLID_6261_" class="st0" d="M152.6,242.1c0.4,0.2,0.4,0.6,0,0.8c-0.4,0.2-1.1,0.2-1.5,0c-0.4-0.2-0.4-0.6,0-0.8
			C151.6,241.9,152.2,241.9,152.6,242.1z"/>
		<path id="XMLID_6260_" class="st0" d="M156.4,240c0.4,0.2,0.4,0.6,0,0.8c-0.4,0.2-1.1,0.2-1.5,0c-0.4-0.2-0.4-0.6,0-0.8
			C155.4,239.7,156,239.7,156.4,240z"/>
		<path id="XMLID_6259_" class="st0" d="M160.2,237.8c0.4,0.2,0.4,0.6,0,0.8c-0.4,0.2-1.1,0.2-1.5,0c-0.4-0.2-0.4-0.6,0-0.8
			C159.2,237.5,159.8,237.5,160.2,237.8z"/>
		<path id="XMLID_6258_" class="st0" d="M164,235.6c0.4,0.2,0.4,0.6,0,0.8c-0.4,0.2-1.1,0.2-1.5,0c-0.4-0.2-0.4-0.6,0-0.8
			C163,235.3,163.6,235.3,164,235.6z"/>
		<path id="XMLID_6257_" class="st0" d="M167.8,233.4c0.4,0.2,0.4,0.6,0,0.8c-0.4,0.2-1.1,0.2-1.5,0c-0.4-0.2-0.4-0.6,0-0.8
			C166.8,233.1,167.4,233.1,167.8,233.4z"/>
		<path id="XMLID_6256_" class="st0" d="M171.6,231.2c0.4,0.2,0.4,0.6,0,0.8c-0.4,0.2-1.1,0.2-1.5,0c-0.4-0.2-0.4-0.6,0-0.8
			C170.6,230.9,171.2,230.9,171.6,231.2z"/>
		<path id="XMLID_6255_" class="st0" d="M175.4,229c0.4,0.2,0.4,0.6,0,0.8c-0.4,0.2-1.1,0.2-1.5,0s-0.4-0.6,0-0.8
			C174.4,228.7,175,228.7,175.4,229z"/>
		<path id="XMLID_6254_" class="st0" d="M179.2,226.8c0.4,0.2,0.4,0.6,0,0.8c-0.4,0.2-1.1,0.2-1.5,0c-0.4-0.2-0.4-0.6,0-0.8
			C178.2,226.5,178.8,226.5,179.2,226.8z"/>
		<path id="XMLID_6253_" class="st0" d="M118.4,257.5c0.4,0.2,0.4,0.6,0,0.8c-0.4,0.2-1.1,0.2-1.5,0c-0.4-0.2-0.4-0.6,0-0.8
			C117.3,257.3,118,257.3,118.4,257.5z"/>
		<path id="XMLID_6252_" class="st0" d="M122.2,255.3c0.4,0.2,0.4,0.6,0,0.8c-0.4,0.2-1.1,0.2-1.5,0c-0.4-0.2-0.4-0.6,0-0.8
			C121.1,255.1,121.8,255.1,122.2,255.3z"/>
		<path id="XMLID_6251_" class="st0" d="M126,253.1c0.4,0.2,0.4,0.6,0,0.8s-1.1,0.2-1.5,0c-0.4-0.2-0.4-0.6,0-0.8
			C124.9,252.9,125.6,252.9,126,253.1z"/>
		<path id="XMLID_6250_" class="st0" d="M129.8,250.9c0.4,0.2,0.4,0.6,0,0.8c-0.4,0.2-1.1,0.2-1.5,0c-0.4-0.2-0.4-0.6,0-0.8
			C128.7,250.7,129.4,250.7,129.8,250.9z"/>
		<path id="XMLID_6249_" class="st0" d="M133.6,248.7c0.4,0.2,0.4,0.6,0,0.8c-0.4,0.2-1.1,0.2-1.5,0c-0.4-0.2-0.4-0.6,0-0.8
			C132.5,248.5,133.2,248.5,133.6,248.7z"/>
		<path id="XMLID_6248_" class="st0" d="M137.4,246.5c0.4,0.2,0.4,0.6,0,0.8c-0.4,0.2-1.1,0.2-1.5,0c-0.4-0.2-0.4-0.6,0-0.8
			C136.3,246.3,137,246.3,137.4,246.5z"/>
		<ellipse id="XMLID_6247_" class="st0" cx="140.5" cy="244.8" rx="1" ry="0.6"/>
		<path id="XMLID_6246_" class="st0" d="M145,242.1c0.4,0.2,0.4,0.6,0,0.8c-0.4,0.2-1.1,0.2-1.5,0c-0.4-0.2-0.4-0.6,0-0.8
			C144,241.9,144.6,241.9,145,242.1z"/>
		<path id="XMLID_6245_" class="st0" d="M148.8,240c0.4,0.2,0.4,0.6,0,0.8c-0.4,0.2-1.1,0.2-1.5,0c-0.4-0.2-0.4-0.6,0-0.8
			C147.8,239.7,148.4,239.7,148.8,240z"/>
		<path id="XMLID_6244_" class="st0" d="M152.6,237.8c0.4,0.2,0.4,0.6,0,0.8c-0.4,0.2-1.1,0.2-1.5,0c-0.4-0.2-0.4-0.6,0-0.8
			C151.6,237.5,152.2,237.5,152.6,237.8z"/>
		<path id="XMLID_6243_" class="st0" d="M156.4,235.6c0.4,0.2,0.4,0.6,0,0.8c-0.4,0.2-1.1,0.2-1.5,0c-0.4-0.2-0.4-0.6,0-0.8
			C155.4,235.3,156,235.3,156.4,235.6z"/>
		<path id="XMLID_6242_" class="st0" d="M160.2,233.4c0.4,0.2,0.4,0.6,0,0.8c-0.4,0.2-1.1,0.2-1.5,0c-0.4-0.2-0.4-0.6,0-0.8
			C159.2,233.1,159.8,233.1,160.2,233.4z"/>
		<path id="XMLID_6241_" class="st0" d="M164,231.2c0.4,0.2,0.4,0.6,0,0.8c-0.4,0.2-1.1,0.2-1.5,0c-0.4-0.2-0.4-0.6,0-0.8
			C163,230.9,163.6,230.9,164,231.2z"/>
		<ellipse id="XMLID_6240_" class="st0" cx="167.1" cy="229.4" rx="1" ry="0.6"/>
		<path id="XMLID_6239_" class="st0" d="M171.6,226.8c0.4,0.2,0.4,0.6,0,0.8c-0.4,0.2-1.1,0.2-1.5,0c-0.4-0.2-0.4-0.6,0-0.8
			C170.6,226.5,171.2,226.5,171.6,226.8z"/>
		<path id="XMLID_6238_" class="st0" d="M175.4,224.6c0.4,0.2,0.4,0.6,0,0.8c-0.4,0.2-1.1,0.2-1.5,0c-0.4-0.2-0.4-0.6,0-0.8
			C174.4,224.3,175,224.3,175.4,224.6z"/>
		<path id="XMLID_6237_" class="st0" d="M114.6,255.3c0.4,0.2,0.4,0.6,0,0.8c-0.4,0.2-1.1,0.2-1.5,0c-0.4-0.2-0.4-0.6,0-0.8
			C113.5,255.1,114.2,255.1,114.6,255.3z"/>
		<path id="XMLID_6236_" class="st0" d="M118.4,253.1c0.4,0.2,0.4,0.6,0,0.8c-0.4,0.2-1.1,0.2-1.5,0c-0.4-0.2-0.4-0.6,0-0.8
			C117.3,252.9,118,252.9,118.4,253.1z"/>
		<path id="XMLID_6235_" class="st0" d="M122.2,250.9c0.4,0.2,0.4,0.6,0,0.8c-0.4,0.2-1.1,0.2-1.5,0c-0.4-0.2-0.4-0.6,0-0.8
			C121.1,250.7,121.8,250.7,122.2,250.9z"/>
		<path id="XMLID_6234_" class="st0" d="M126,248.7c0.4,0.2,0.4,0.6,0,0.8c-0.4,0.2-1.1,0.2-1.5,0c-0.4-0.2-0.4-0.6,0-0.8
			C124.9,248.5,125.6,248.5,126,248.7z"/>
		<ellipse id="XMLID_6233_" class="st0" cx="129.1" cy="247" rx="1" ry="0.6"/>
		<path id="XMLID_6232_" class="st0" d="M133.6,244.3c0.4,0.2,0.4,0.6,0,0.8c-0.4,0.2-1.1,0.2-1.5,0c-0.4-0.2-0.4-0.6,0-0.8
			C132.5,244.1,133.2,244.1,133.6,244.3z"/>
		<path id="XMLID_6231_" class="st0" d="M137.4,242.1c0.4,0.2,0.4,0.6,0,0.8c-0.4,0.2-1.1,0.2-1.5,0c-0.4-0.2-0.4-0.6,0-0.8
			C136.3,241.9,137,241.9,137.4,242.1z"/>
		<path id="XMLID_6230_" class="st0" d="M141.2,240c0.4,0.2,0.4,0.6,0,0.8c-0.4,0.2-1.1,0.2-1.5,0c-0.4-0.2-0.4-0.6,0-0.8
			C140.2,239.7,140.8,239.7,141.2,240z"/>
		<path id="XMLID_6229_" class="st0" d="M145,237.8c0.4,0.2,0.4,0.6,0,0.8c-0.4,0.2-1.1,0.2-1.5,0c-0.4-0.2-0.4-0.6,0-0.8
			C144,237.5,144.6,237.5,145,237.8z"/>
		<path id="XMLID_6228_" class="st0" d="M148.8,235.6c0.4,0.2,0.4,0.6,0,0.8c-0.4,0.2-1.1,0.2-1.5,0c-0.4-0.2-0.4-0.6,0-0.8
			C147.8,235.3,148.4,235.3,148.8,235.6z"/>
		<path id="XMLID_6227_" class="st0" d="M152.6,233.4c0.4,0.2,0.4,0.6,0,0.8c-0.4,0.2-1.1,0.2-1.5,0c-0.4-0.2-0.4-0.6,0-0.8
			C151.6,233.1,152.2,233.1,152.6,233.4z"/>
		<path id="XMLID_6226_" class="st0" d="M156.4,231.2c0.4,0.2,0.4,0.6,0,0.8c-0.4,0.2-1.1,0.2-1.5,0c-0.4-0.2-0.4-0.6,0-0.8
			C155.4,230.9,156,230.9,156.4,231.2z"/>
		<path id="XMLID_6225_" class="st0" d="M160.2,229c0.4,0.2,0.4,0.6,0,0.8c-0.4,0.2-1.1,0.2-1.5,0c-0.4-0.2-0.4-0.6,0-0.8
			C159.2,228.7,159.8,228.7,160.2,229z"/>
		<path id="XMLID_6224_" class="st0" d="M164,226.8c0.4,0.2,0.4,0.6,0,0.8c-0.4,0.2-1.1,0.2-1.5,0c-0.4-0.2-0.4-0.6,0-0.8
			C163,226.5,163.6,226.5,164,226.8z"/>
		<path id="XMLID_6223_" class="st0" d="M167.8,224.6c0.4,0.2,0.4,0.6,0,0.8c-0.4,0.2-1.1,0.2-1.5,0c-0.4-0.2-0.4-0.6,0-0.8
			C166.8,224.3,167.4,224.3,167.8,224.6z"/>
		<path id="XMLID_6222_" class="st0" d="M171.6,222.4c0.4,0.2,0.4,0.6,0,0.8c-0.4,0.2-1.1,0.2-1.5,0c-0.4-0.2-0.4-0.6,0-0.8
			C170.6,222.1,171.2,222.1,171.6,222.4z"/>
		<path id="XMLID_6221_" class="st0" d="M110.8,253.1c0.4,0.2,0.4,0.6,0,0.8c-0.4,0.2-1.1,0.2-1.5,0c-0.4-0.2-0.4-0.6,0-0.8
			C109.7,252.9,110.4,252.9,110.8,253.1z"/>
		<path id="XMLID_6220_" class="st0" d="M114.6,250.9c0.4,0.2,0.4,0.6,0,0.8c-0.4,0.2-1.1,0.2-1.5,0c-0.4-0.2-0.4-0.6,0-0.8
			C113.5,250.7,114.2,250.7,114.6,250.9z"/>
		<path id="XMLID_6218_" class="st0" d="M107,250.9c0.4,0.2,0.4,0.6,0,0.8c-0.4,0.2-1.1,0.2-1.5,0c-0.4-0.2-0.4-0.6,0-0.8
			C105.9,250.7,106.6,250.7,107,250.9z"/>
		<path id="XMLID_6217_" class="st0" d="M110.8,248.7c0.4,0.2,0.4,0.6,0,0.8c-0.4,0.2-1.1,0.2-1.5,0c-0.4-0.2-0.4-0.6,0-0.8
			C109.7,248.5,110.4,248.5,110.8,248.7z"/>
		<path id="XMLID_6216_" class="st0" d="M103.1,248.7c0.4,0.2,0.4,0.6,0,0.8c-0.4,0.2-1.1,0.2-1.5,0c-0.4-0.2-0.4-0.6,0-0.8
			C102.1,248.5,102.7,248.5,103.1,248.7z"/>
		<path id="XMLID_6215_" class="st0" d="M106.9,246.5c0.4,0.2,0.4,0.6,0,0.8c-0.4,0.2-1.1,0.2-1.5,0c-0.4-0.2-0.4-0.6,0-0.8
			C105.9,246.3,106.5,246.3,106.9,246.5z"/>
		<path id="XMLID_6214_" class="st0" d="M99.3,246.5c0.4,0.2,0.4,0.6,0,0.8c-0.4,0.2-1.1,0.2-1.5,0c-0.4-0.2-0.4-0.6,0-0.8
			C98.3,246.3,98.9,246.3,99.3,246.5z"/>
		<path id="XMLID_6213_" class="st0" d="M103.1,244.3c0.4,0.2,0.4,0.6,0,0.8c-0.4,0.2-1.1,0.2-1.5,0c-0.4-0.2-0.4-0.6,0-0.8
			C102.1,244.1,102.7,244.1,103.1,244.3z"/>
		<path id="XMLID_6212_" class="st0" d="M95.5,244.3c0.4,0.2,0.4,0.6,0,0.8c-0.4,0.2-1.1,0.2-1.5,0c-0.4-0.2-0.4-0.6,0-0.8
			C94.5,244.1,95.1,244.1,95.5,244.3z"/>
		<path id="XMLID_6211_" class="st0" d="M99.3,242.1c0.4,0.2,0.4,0.6,0,0.8c-0.4,0.2-1.1,0.2-1.5,0c-0.4-0.2-0.4-0.6,0-0.8
			C98.3,241.9,98.9,241.9,99.3,242.1z"/>
		<path id="XMLID_6210_" class="st0" d="M91.7,242.1c0.4,0.2,0.4,0.6,0,0.8c-0.4,0.2-1.1,0.2-1.5,0c-0.4-0.2-0.4-0.6,0-0.8
			C90.7,241.9,91.3,241.9,91.7,242.1z"/>
		<path id="XMLID_6209_" class="st0" d="M95.5,239.9c0.4,0.2,0.4,0.6,0,0.8c-0.4,0.2-1.1,0.2-1.5,0c-0.4-0.2-0.4-0.6,0-0.8
			C94.5,239.7,95.1,239.7,95.5,239.9z"/>
		<path id="XMLID_6208_" class="st0" d="M87.9,239.9c0.4,0.2,0.4,0.6,0,0.8c-0.4,0.2-1.1,0.2-1.5,0c-0.4-0.2-0.4-0.6,0-0.8
			C86.9,239.7,87.5,239.7,87.9,239.9z"/>
		<path id="XMLID_6207_" class="st0" d="M91.7,237.7c0.4,0.2,0.4,0.6,0,0.8c-0.4,0.2-1.1,0.2-1.5,0c-0.4-0.2-0.4-0.6,0-0.8
			C90.7,237.5,91.3,237.5,91.7,237.7z"/>
		<path id="XMLID_6206_" class="st0" d="M84.1,237.7c0.4,0.2,0.4,0.6,0,0.8c-0.4,0.2-1.1,0.2-1.5,0c-0.4-0.2-0.4-0.6,0-0.8
			C83.1,237.5,83.7,237.5,84.1,237.7z"/>
		<path id="XMLID_6205_" class="st0" d="M87.9,235.5c0.4,0.2,0.4,0.6,0,0.8c-0.4,0.2-1.1,0.2-1.5,0c-0.4-0.2-0.4-0.6,0-0.8
			C86.9,235.3,87.5,235.3,87.9,235.5z"/>
		<path id="XMLID_6204_" class="st0" d="M80.3,235.5c0.4,0.2,0.4,0.6,0,0.8s-1.1,0.2-1.5,0c-0.4-0.2-0.4-0.6,0-0.8
			C79.3,235.3,79.9,235.3,80.3,235.5z"/>
		<path id="XMLID_6203_" class="st0" d="M84.1,233.3c0.4,0.2,0.4,0.6,0,0.8c-0.4,0.2-1.1,0.2-1.5,0c-0.4-0.2-0.4-0.6,0-0.8
			C83.1,233.1,83.7,233.1,84.1,233.3z"/>
		<path id="XMLID_6202_" class="st0" d="M76.5,233.3c0.4,0.2,0.4,0.6,0,0.8c-0.4,0.2-1.1,0.2-1.5,0c-0.4-0.2-0.4-0.6,0-0.8
			C75.5,233.1,76.1,233.1,76.5,233.3z"/>
		<path id="XMLID_6201_" class="st0" d="M80.3,231.1c0.4,0.2,0.4,0.6,0,0.8c-0.4,0.2-1.1,0.2-1.5,0c-0.4-0.2-0.4-0.6,0-0.8
			C79.3,230.9,79.9,230.9,80.3,231.1z"/>
		<path id="XMLID_6200_" class="st0" d="M72.7,231.1c0.4,0.2,0.4,0.6,0,0.8c-0.4,0.2-1.1,0.2-1.5,0c-0.4-0.2-0.4-0.6,0-0.8
			C71.6,230.9,72.3,230.9,72.7,231.1z"/>
		<path id="XMLID_6199_" class="st0" d="M76.5,228.9c0.4,0.2,0.4,0.6,0,0.8c-0.4,0.2-1.1,0.2-1.5,0c-0.4-0.2-0.4-0.6,0-0.8
			C75.4,228.7,76.1,228.7,76.5,228.9z"/>
		<path id="XMLID_6198_" class="st0" d="M68.9,228.9c0.4,0.2,0.4,0.6,0,0.8c-0.4,0.2-1.1,0.2-1.5,0c-0.4-0.2-0.4-0.6,0-0.8
			C67.8,228.7,68.5,228.7,68.9,228.9z"/>
		<path id="XMLID_6197_" class="st0" d="M72.7,226.7c0.4,0.2,0.4,0.6,0,0.8c-0.4,0.2-1.1,0.2-1.5,0c-0.4-0.2-0.4-0.6,0-0.8
			C71.6,226.5,72.3,226.5,72.7,226.7z"/>
		<path id="XMLID_6196_" class="st0" d="M65.1,226.7c0.4,0.2,0.4,0.6,0,0.8c-0.4,0.2-1.1,0.2-1.5,0c-0.4-0.2-0.4-0.6,0-0.8
			C64,226.5,64.7,226.5,65.1,226.7z"/>
		<path id="XMLID_6195_" class="st0" d="M68.9,224.5c0.4,0.2,0.4,0.6,0,0.8c-0.4,0.2-1.1,0.2-1.5,0c-0.4-0.2-0.4-0.6,0-0.8
			C67.8,224.3,68.5,224.3,68.9,224.5z"/>
		<path id="XMLID_6194_" class="st0" d="M61.3,224.5c0.4,0.2,0.4,0.6,0,0.8c-0.4,0.2-1.1,0.2-1.5,0c-0.4-0.2-0.4-0.6,0-0.8
			C60.2,224.3,60.9,224.3,61.3,224.5z"/>
		<path id="XMLID_6193_" class="st0" d="M65.1,222.3c0.4,0.2,0.4,0.6,0,0.8c-0.4,0.2-1.1,0.2-1.5,0c-0.4-0.2-0.4-0.6,0-0.8
			C64,222.1,64.7,222.1,65.1,222.3z"/>
		<path id="XMLID_6192_" class="st0" d="M183.1,224.6c0.4,0.2,0.4,0.6,0,0.8c-0.4,0.2-1.1,0.2-1.5,0c-0.4-0.2-0.4-0.6,0-0.8
			C182,224.4,182.7,224.4,183.1,224.6z"/>
		<path id="XMLID_6191_" class="st0" d="M186.9,222.4c0.4,0.2,0.4,0.6,0,0.8c-0.4,0.2-1.1,0.2-1.5,0c-0.4-0.2-0.4-0.6,0-0.8
			C185.8,222.2,186.5,222.2,186.9,222.4z"/>
		<path id="XMLID_6190_" class="st0" d="M190.7,220.2c0.4,0.2,0.4,0.6,0,0.8c-0.4,0.2-1.1,0.2-1.5,0c-0.4-0.2-0.4-0.6,0-0.8
			C189.6,220,190.3,220,190.7,220.2z"/>
		<path id="XMLID_6189_" class="st0" d="M194.5,218c0.4,0.2,0.4,0.6,0,0.8c-0.4,0.2-1.1,0.2-1.5,0c-0.4-0.2-0.4-0.6,0-0.8
			C193.4,217.8,194.1,217.8,194.5,218z"/>
		<path id="XMLID_6188_" class="st0" d="M198.3,215.8c0.4,0.2,0.4,0.6,0,0.8c-0.4,0.2-1.1,0.2-1.5,0c-0.4-0.2-0.4-0.6,0-0.8
			C197.2,215.6,197.9,215.6,198.3,215.8z"/>
		<path id="XMLID_6187_" class="st0" d="M202.1,213.6c0.4,0.2,0.4,0.6,0,0.8c-0.4,0.2-1.1,0.2-1.5,0c-0.4-0.2-0.4-0.6,0-0.8
			C201,213.4,201.7,213.4,202.1,213.6z"/>
		<path id="XMLID_6186_" class="st0" d="M205.9,211.4c0.4,0.2,0.4,0.6,0,0.8c-0.4,0.2-1.1,0.2-1.5,0c-0.4-0.2-0.4-0.6,0-0.8
			C204.8,211.2,205.5,211.2,205.9,211.4z"/>
		<path id="XMLID_6185_" class="st0" d="M209.7,209.2c0.4,0.2,0.4,0.6,0,0.8c-0.4,0.2-1.1,0.2-1.5,0c-0.4-0.2-0.4-0.6,0-0.8
			C208.6,209,209.3,209,209.7,209.2z"/>
		<path id="XMLID_6184_" class="st0" d="M177.8,222.4c0.4-0.2,1.1-0.2,1.5,0c0.4,0.2,0.4,0.6,0,0.8c-0.4,0.2-1.1,0.2-1.5,0
			C177.4,223,177.4,222.6,177.8,222.4z"/>
		<path id="XMLID_6183_" class="st0" d="M183.1,220.2c0.4,0.2,0.4,0.6,0,0.8c-0.4,0.2-1.1,0.2-1.5,0c-0.4-0.2-0.4-0.6,0-0.8
			C182,220,182.7,220,183.1,220.2z"/>
		<path id="XMLID_6182_" class="st0" d="M186.9,218c0.4,0.2,0.4,0.6,0,0.8c-0.4,0.2-1.1,0.2-1.5,0c-0.4-0.2-0.4-0.6,0-0.8
			C185.8,217.8,186.5,217.8,186.9,218z"/>
		<path id="XMLID_6181_" class="st0" d="M190.7,215.8c0.4,0.2,0.4,0.6,0,0.8c-0.4,0.2-1.1,0.2-1.5,0c-0.4-0.2-0.4-0.6,0-0.8
			C189.6,215.6,190.3,215.6,190.7,215.8z"/>
		<path id="XMLID_6180_" class="st0" d="M194.5,213.6c0.4,0.2,0.4,0.6,0,0.8c-0.4,0.2-1.1,0.2-1.5,0c-0.4-0.2-0.4-0.6,0-0.8
			C193.4,213.4,194.1,213.4,194.5,213.6z"/>
		<path id="XMLID_6179_" class="st0" d="M198.3,211.4c0.4,0.2,0.4,0.6,0,0.8c-0.4,0.2-1.1,0.2-1.5,0c-0.4-0.2-0.4-0.6,0-0.8
			C197.2,211.2,197.9,211.2,198.3,211.4z"/>
		<path id="XMLID_6178_" class="st0" d="M202.1,209.2c0.4,0.2,0.4,0.6,0,0.8c-0.4,0.2-1.1,0.2-1.5,0c-0.4-0.2-0.4-0.6,0-0.8
			C201,209,201.7,209,202.1,209.2z"/>
		<path id="XMLID_6176_" class="st0" d="M205.9,207c0.4,0.2,0.4,0.6,0,0.8c-0.4,0.2-1.1,0.2-1.5,0c-0.4-0.2-0.4-0.6,0-0.8
			C204.8,206.8,205.5,206.8,205.9,207z"/>
		<path id="XMLID_6175_" class="st0" d="M209.7,204.8c0.4,0.2,0.4,0.6,0,0.8c-0.4,0.2-1.1,0.2-1.5,0c-0.4-0.2-0.4-0.6,0-0.8
			C208.6,204.6,209.3,204.6,209.7,204.8z"/>
		<path id="XMLID_6174_" class="st0" d="M174,220.2c0.4-0.2,1.1-0.2,1.5,0c0.4,0.2,0.4,0.6,0,0.8c-0.4,0.2-1.1,0.2-1.5,0
			C173.6,220.8,173.6,220.4,174,220.2z"/>
		<path id="XMLID_6173_" class="st0" d="M179.3,218c0.4,0.2,0.4,0.6,0,0.8c-0.4,0.2-1.1,0.2-1.5,0c-0.4-0.2-0.4-0.6,0-0.8
			C178.2,217.8,178.9,217.8,179.3,218z"/>
		<path id="XMLID_6172_" class="st0" d="M183.1,215.8c0.4,0.2,0.4,0.6,0,0.8c-0.4,0.2-1.1,0.2-1.5,0c-0.4-0.2-0.4-0.6,0-0.8
			C182,215.6,182.7,215.6,183.1,215.8z"/>
		<path id="XMLID_6171_" class="st0" d="M186.9,213.6c0.4,0.2,0.4,0.6,0,0.8c-0.4,0.2-1.1,0.2-1.5,0c-0.4-0.2-0.4-0.6,0-0.8
			C185.8,213.4,186.5,213.4,186.9,213.6z"/>
		<path id="XMLID_6170_" class="st0" d="M190.7,211.4c0.4,0.2,0.4,0.6,0,0.8c-0.4,0.2-1.1,0.2-1.5,0c-0.4-0.2-0.4-0.6,0-0.8
			C189.6,211.2,190.3,211.2,190.7,211.4z"/>
		<path id="XMLID_6169_" class="st0" d="M194.5,209.2c0.4,0.2,0.4,0.6,0,0.8c-0.4,0.2-1.1,0.2-1.5,0c-0.4-0.2-0.4-0.6,0-0.8
			C193.4,209,194.1,209,194.5,209.2z"/>
		<path id="XMLID_6168_" class="st0" d="M198.3,207c0.4,0.2,0.4,0.6,0,0.8c-0.4,0.2-1.1,0.2-1.5,0c-0.4-0.2-0.4-0.6,0-0.8
			C197.2,206.8,197.9,206.8,198.3,207z"/>
		<path id="XMLID_6167_" class="st0" d="M202.1,204.8c0.4,0.2,0.4,0.6,0,0.8c-0.4,0.2-1.1,0.2-1.5,0c-0.4-0.2-0.4-0.6,0-0.8
			C201,204.6,201.7,204.6,202.1,204.8z"/>
		<ellipse id="XMLID_6166_" class="st0" cx="205.2" cy="203.1" rx="1" ry="0.6"/>
		<path id="XMLID_6165_" class="st0" d="M209.7,200.4c0.4,0.2,0.4,0.6,0,0.8c-0.4,0.2-1.1,0.2-1.5,0c-0.4-0.2-0.4-0.6,0-0.8
			C208.6,200.2,209.3,200.2,209.7,200.4z"/>
		<path id="XMLID_6164_" class="st0" d="M202.1,200.4c0.4,0.2,0.4,0.6,0,0.8c-0.4,0.2-1.1,0.2-1.5,0c-0.4-0.2-0.4-0.6,0-0.8
			C201,200.2,201.7,200.2,202.1,200.4z"/>
		<path id="XMLID_1371_" class="st0" d="M205.9,198.2c0.4,0.2,0.4,0.6,0,0.8c-0.4,0.2-1.1,0.2-1.5,0c-0.4-0.2-0.4-0.6,0-0.8
			C204.8,198,205.5,198,205.9,198.2z"/>
	</g>
	<g id="XMLID_198_">
		<path id="XMLID_543_" class="st1" d="M143.4,136.5c-1.2-3.2,0.5-6.8,3.7-7.9c3.2-1.2,6.8,0.5,7.9,3.7c1.2,3.2-0.5,6.8-3.7,7.9
			C148.1,141.4,144.5,139.7,143.4,136.5z"/>
		<path id="XMLID_828_" class="st0" d="M149.7,128.2c-1-0.2-2-0.1-3.1,0.3c-3,1.1-4.7,4.3-3.8,7.4c1,0.2,2,0.1,3.1-0.3
			C148.9,134.5,150.6,131.2,149.7,128.2z"/>
		<path id="XMLID_199_" class="st0" d="M146.9,128.2c3.4-1.3,7.3,0.5,8.5,4c1.3,3.4-0.5,7.3-4,8.5c-3.4,1.3-7.3-0.5-8.5-4
			S143.5,129.4,146.9,128.2z M151.1,139.8c3-1.1,4.5-4.4,3.4-7.3s-4.4-4.5-7.3-3.4c-3,1.1-4.5,4.4-3.4,7.3
			C144.9,139.3,148.2,140.9,151.1,139.8z"/>
	</g>
	<g id="XMLID_197_">
		<path id="XMLID_358_" class="st1" d="M141.2,153.9c-1.1-3-3.3-5.4-6.2-6.8c-2-0.9-4.2-1.3-6.3-1.1c-0.1-1.2-0.4-2.5-0.8-3.7
			c-0.5-1.3-1.1-2.5-1.9-3.6c0.4-0.9,0.7-1.9,0.9-2.9c0,0,0.1,0,0.1,0c0.9,0,1.8-0.2,2.7-0.5c4.1-1.5,6.2-6,4.7-10.1
			c-0.7-2-2.1-3.6-4-4.5c-1.9-0.9-4-1-6-0.3c-1.3,0.5-2.4,1.3-3.3,2.3c0-1.2-0.1-2.4-0.6-3.5c-0.1-0.2-0.2-0.4-0.3-0.7
			c0.3,0,0.6,0,0.8,0c0.9,0,1.7-0.1,2.5-0.4c3.9-1.4,5.9-5.7,4.5-9.6c-0.7-1.9-2.1-3.4-3.9-4.3c-1.8-0.9-3.8-0.9-5.7-0.3
			c-1.5,0.5-2.7,1.5-3.6,2.8c-0.5-0.8-1.3-1.5-2.2-2c-1.3-0.6-2.8-0.7-4.2-0.2c-2.8,1-4.3,4.2-3.3,7c0.3,0.9,0.8,1.6,1.5,2.2
			c-2.9,1.5-4.7,4.4-5.1,7.6c-0.2,0.1-0.4,0.1-0.7,0.2c-3.4,1.2-5.2,5-4,8.5c0.6,1.7,1.8,3,3.4,3.8c0.9,0.4,1.8,0.6,2.8,0.6
			c0.8,0,1.5-0.1,2.2-0.4c0.2-0.1,0.3-0.1,0.5-0.2c0,0.4,0,0.8,0.1,1.2c-0.9,0.6-1.7,1.4-2.5,2.2c-0.7-0.8-1.6-1.5-2.5-1.9
			c-1.9-0.9-3.9-1-5.9-0.3c-3.6,1.3-5.6,5-5,8.6c-0.3,0.1-0.7,0.2-1,0.3c-6.6,2.4-10,9.7-7.7,16.3c1.1,3.2,3.5,5.8,6.5,7.2
			c1.7,0.8,3.5,1.2,5.4,1.2c1.4,0,2.9-0.3,4.3-0.8c0.1,0,0.1-0.1,0.2-0.1c-0.1,1.9,0.2,3.8,0.8,5.7c1.3,3.7,4,6.7,7.6,8.4
			c2,0.9,4.1,1.4,6.2,1.4c1.7,0,3.4-0.3,5-0.9c5.7-2,9.3-7.2,9.7-12.9c0.9,0.2,1.8,0.3,2.7,0.3c1.4,0,2.7-0.2,4-0.7
			C140.2,167,143.4,160.1,141.2,153.9z"/>
		<path id="XMLID_822_" class="st0" d="M114.6,141c0-5.6-4.6-10.2-10.2-10.2c-2.1,0-4.1,0.7-5.8,1.8c0.5,0.5,1.1,0.9,1.8,1.2
			c0.9,0.4,1.8,0.6,2.8,0.6c0.8,0,1.5-0.1,2.2-0.4c0.2-0.1,0.3-0.1,0.5-0.2c0,0.4,0,0.8,0.1,1.2c-0.9,0.6-1.7,1.4-2.5,2.2
			c-0.7-0.8-1.6-1.5-2.5-1.9c-1.4-0.7-3-0.9-4.6-0.6c-1.4,1.7-2.2,3.9-2.2,6.3c0,5.6,4.6,10.2,10.2,10.2
			C110.1,151.2,114.6,146.7,114.6,141z"/>
		<path id="XMLID_788_" class="st0" d="M127,122.7c0-0.9-0.2-1.8-0.5-2.7c-0.7,0.1-1.4,0.2-2,0.4c-1.3,0.5-2.4,1.3-3.3,2.3
			c0-1.2-0.1-2.4-0.6-3.5c-0.1-0.2-0.2-0.4-0.3-0.7c0.3,0,0.6,0,0.8,0c0.9,0,1.7-0.1,2.5-0.4c0.4-0.1,0.8-0.3,1.1-0.5
			c-1.3-1.2-3-1.9-4.8-1.9c-3.9,0-7,3.1-7,7s3.1,7,7,7C123.8,129.7,127,126.6,127,122.7z"/>
		<path id="XMLID_695_" class="st2" d="M120.3,149.9c-7.2,0-13,5.8-13,13c0,7.2,5.8,13,13,13c2.1,0,4-0.5,5.8-1.4
			c0.7-1.5,1.1-3.2,1.2-4.9c0.9,0.2,1.8,0.3,2.7,0.3c0.4,0,0.9,0,1.3-0.1c1.3-2,2-4.4,2-7C133.3,155.7,127.5,149.9,120.3,149.9z"/>
		<path id="XMLID_667_" class="st0" d="M112.6,183.8c-2.2,0-4.4-0.5-6.4-1.5c-3.7-1.7-6.5-4.8-7.8-8.6c-0.6-1.7-0.9-3.4-0.9-5.2
			c-1.3,0.4-2.6,0.6-4,0.6c0,0,0,0,0,0c-1.9,0-3.8-0.4-5.6-1.3c-3.2-1.5-5.6-4.2-6.8-7.5c-2.4-6.9,1.1-14.4,7.9-16.9
			c0.2-0.1,0.4-0.1,0.6-0.2c-0.4-3.8,1.8-7.4,5.4-8.7c2.1-0.7,4.3-0.6,6.2,0.3c0.9,0.4,1.7,1,2.4,1.7c0.6-0.6,1.3-1.2,2-1.7
			c0-0.1,0-0.2,0-0.3c-1.7,0.6-3.6,0.5-5.3-0.3c-1.7-0.8-3-2.2-3.6-4c-1.3-3.7,0.6-7.8,4.3-9.1c0.1,0,0.3-0.1,0.4-0.1
			c0.4-3,2.2-5.7,4.7-7.3c-0.5-0.6-0.9-1.3-1.2-2c-1.1-3.1,0.5-6.5,3.6-7.6c1.5-0.5,3.1-0.5,4.5,0.2c0.8,0.4,1.5,0.9,2.1,1.6
			c0.9-1.1,2.1-2,3.4-2.4c2-0.7,4.1-0.6,6.1,0.3c1.9,0.9,3.4,2.5,4.1,4.5c1.5,4.1-0.7,8.7-4.8,10.2c-0.9,0.3-1.9,0.5-2.8,0.5
			c0.3,0.8,0.5,1.7,0.6,2.6c0.8-0.7,1.7-1.2,2.7-1.6c2.1-0.8,4.3-0.6,6.3,0.3c2,1,3.5,2.6,4.3,4.7c1.5,4.3-0.7,9.1-5,10.7
			c-0.8,0.3-1.7,0.5-2.6,0.5c-0.2,0.8-0.4,1.6-0.8,2.4c0.8,1.1,1.4,2.3,1.8,3.5c0.4,1.1,0.7,2.2,0.8,3.4c2.1-0.2,4.2,0.2,6.1,1.1
			c3,1.4,5.3,3.9,6.4,7.1l0,0c2.3,6.5-1,13.6-7.5,15.9c-2.1,0.7-4.3,0.9-6.5,0.5c-0.6,5.8-4.5,10.8-9.9,12.8
			C116.1,183.5,114.3,183.8,112.6,183.8z M98.4,167.2l0,0.7c-0.1,1.9,0.2,3.7,0.8,5.5c1.3,3.6,3.9,6.5,7.3,8.1
			c3.4,1.6,7.3,1.8,10.8,0.5c5.3-1.9,9-6.8,9.4-12.5l0-0.5l0.5,0.1c2.2,0.5,4.4,0.4,6.5-0.4c6-2.1,9.1-8.8,6.9-14.7l0,0
			c-1-2.9-3.1-5.2-5.9-6.5c-1.9-0.9-4-1.2-6.1-1l-0.5,0.1l0-0.5c-0.1-1.2-0.4-2.5-0.8-3.6c-0.4-1.2-1.1-2.4-1.8-3.5l-0.2-0.2
			l0.1-0.2c0.4-0.9,0.7-1.8,0.9-2.8l0.1-0.4l0.5,0c0.9,0,1.7-0.1,2.5-0.4c3.8-1.4,5.8-5.6,4.5-9.5c-0.7-1.9-2-3.4-3.8-4.2
			c-1.8-0.8-3.8-0.9-5.6-0.3c-1.2,0.4-2.3,1.2-3.1,2.1l-0.8,1l0-1.3c0-1.2-0.2-2.3-0.5-3.4c-0.1-0.2-0.2-0.4-0.2-0.6l-0.3-0.7
			l0.8,0.1c1.1,0.1,2.2,0,3.2-0.4c3.6-1.3,5.5-5.4,4.2-9c-0.6-1.8-1.9-3.2-3.6-4c-1.7-0.8-3.6-0.9-5.4-0.3c-1.4,0.5-2.5,1.4-3.4,2.6
			l-0.4,0.6l-0.4-0.6c-0.5-0.8-1.2-1.4-2.1-1.8c-1.2-0.6-2.6-0.6-3.8-0.2c-2.6,0.9-4,3.8-3,6.4c0.3,0.8,0.8,1.5,1.4,2.1l0.5,0.4
			l-0.6,0.3c-2.7,1.4-4.5,4.1-4.8,7.2l0,0.3l-0.3,0.1c-0.2,0.1-0.4,0.1-0.6,0.2c-3.2,1.1-4.9,4.7-3.7,7.9c0.6,1.6,1.7,2.8,3.2,3.5
			c1.5,0.7,3.2,0.8,4.7,0.2c0.2-0.1,0.3-0.1,0.5-0.2l0.7-0.3l0,0.7c0,0.4,0,0.8,0.1,1.2l0,0.3l-0.2,0.2c-0.9,0.6-1.7,1.3-2.4,2.1
			l-0.4,0.4l-0.3-0.4c-0.7-0.8-1.5-1.4-2.4-1.8c-1.7-0.8-3.7-0.9-5.5-0.3c-3.3,1.2-5.3,4.6-4.7,8.1l0.1,0.4l-0.4,0.1
			c-0.3,0.1-0.6,0.2-1,0.3c-6.3,2.3-9.6,9.3-7.4,15.7c1.1,3.1,3.3,5.6,6.3,7c1.6,0.8,3.4,1.2,5.2,1.2c0,0,0,0,0,0
			c1.4,0,2.8-0.2,4.1-0.7L98.4,167.2z"/>
		<g id="XMLID_1852_">
			<path id="XMLID_1855_" class="st1" d="M111.4,168c-7.3,0-13.2-5.9-13.2-13.2c0-7.3,5.9-13.2,13.2-13.2c7.3,0,13.2,5.9,13.2,13.2
				C124.6,162.1,118.7,168,111.4,168z M111.4,142.6c-6.8,0-12.2,5.5-12.2,12.2c0,6.8,5.5,12.2,12.2,12.2c6.8,0,12.2-5.5,12.2-12.2
				C123.7,148.1,118.2,142.6,111.4,142.6z"/>
		</g>
	</g>
	<g id="XMLID_894_">
		<path id="XMLID_899_" class="st1" d="M89.6,99.1c4.2,2,6,7.1,3.9,11.3c-2,4.2-7.1,6-11.3,3.9c-4.2-2-6-7.1-3.9-11.3
			C80.3,98.8,85.4,97,89.6,99.1z"/>
		<path id="XMLID_898_" class="st0" d="M91.3,113.3c1.1-0.8,2.1-1.9,2.7-3.2c1.9-4,0.4-8.7-3.3-10.9c-1.1,0.8-2.1,1.9-2.7,3.2
			C86.1,106.4,87.6,111.1,91.3,113.3z"/>
		<path id="XMLID_895_" class="st0" d="M94.1,110.6c-2.2,4.5-7.6,6.4-12.1,4.2c-4.5-2.2-6.4-7.6-4.2-12.1c2.2-4.5,7.6-6.4,12.1-4.2
			C94.4,100.7,96.3,106.1,94.1,110.6z M78.9,103.3c-1.9,3.9-0.2,8.6,3.6,10.4c3.9,1.9,8.6,0.2,10.4-3.6c1.9-3.9,0.2-8.6-3.6-10.4
			C85.4,97.8,80.7,99.4,78.9,103.3z"/>
	</g>
	<g id="XMLID_581_">
		<path id="XMLID_562_" class="st1" d="M127.9,65.5c4.4,0.5-6.5,19.6-9.3,21.1c-2.8,1.5-18.8,12.2-20.7,10
			C95.9,94.5,117.6,64.5,127.9,65.5z"/>
		<path id="XMLID_575_" class="st2" d="M105.5,82.9c0,0,6-0.6,11.6-5.9c3.9-3.8,4.9-9.5,4.9-9.6C116.8,70.2,110.5,76.7,105.5,82.9z"
			/>
		<path id="XMLID_566_" class="st1" d="M144.3,72.5c-3.1-2.9-8.6,18-7.9,21.1c0.7,3,3.4,22.1,6.1,22
			C145.1,115.6,151.4,79.4,144.3,72.5z"/>
		<g id="XMLID_196_">
			<path id="XMLID_577_" class="st2" d="M128.7,89.6c-0.4-0.8-1.4-1.1-2.2-0.7c-2,1-5.9,3.3-8,8c-2.1,4.7-1.6,10.7-0.5,13.3
				c0.5,1,1.6,1.8,2.6,1.4c2.7-1.1,6.8-4.5,8.7-9C131.9,96.4,129.9,91.8,128.7,89.6z"/>
			<path id="XMLID_578_" class="st0" d="M120.1,112.3c-1.1,0-2-0.8-2.5-1.8c-1.2-2.7-1.6-8.9,0.5-13.7c1.6-3.5,4.4-6.3,8.2-8.2
				c1.1-0.5,2.3-0.1,2.9,0.9l0,0c2.3,4.3,2.5,8.8,0.6,13.5c-1.9,4.5-5.9,8-9,9.3C120.6,112.2,120.3,112.3,120.1,112.3z M127.3,89.2
				c-0.2,0-0.4,0-0.5,0.1c-3.6,1.8-6.3,4.5-7.7,7.8c-2,4.5-1.6,10.4-0.5,12.9c0.4,0.8,1.2,1.5,1.9,1.2c2.3-0.9,6.5-4.1,8.4-8.8
				c1.8-4.3,1.6-8.6-0.6-12.6v0C128.1,89.4,127.7,89.2,127.3,89.2z"/>
		</g>
		<g id="XMLID_522_">
			<path id="XMLID_552_" class="st1" d="M127.5,93.4c-0.2-0.4-0.7-0.6-1.2-0.4c-1,0.5-3.1,1.7-4.2,4.2c-1.1,2.5-0.9,5.6-0.3,7
				c0.2,0.6,0.8,1,1.4,0.8c1.4-0.6,3.6-2.3,4.6-4.7C129.2,97,128.1,94.6,127.5,93.4z"/>
			<path id="XMLID_559_" class="st0" d="M122.4,103.8c-0.6,0-1.2-0.5-1.5-1.1c-0.6-1.4-0.9-4.6,0.3-7.2c0.8-1.8,2.3-3.4,4.3-4.3
				c0.7-0.3,1.4-0.1,1.8,0.6c1.2,2.3,1.3,4.7,0.3,7.1c-1,2.3-3.1,4.2-4.7,4.9C122.7,103.8,122.6,103.8,122.4,103.8z M126.1,92
				c-0.1,0-0.1,0-0.2,0c-1.8,0.9-3.1,2.2-3.9,3.9c-1,2.2-0.8,5.2-0.3,6.4c0.1,0.3,0.5,0.6,0.7,0.5c1.4-0.6,3.3-2.3,4.2-4.4
				c0.9-2.2,0.8-4.3-0.3-6.3v0C126.3,92,126.2,92,126.1,92z"/>
		</g>
		<path id="XMLID_571_" class="st0" d="M129.4,66.4c-0.2-0.8-0.7-1.3-1.4-1.4c-9.3-1-25.8,20.7-29.6,28.1c-1.4,2.7-1.2,3.4-0.9,3.8
			c0.3,0.3,0.7,0.4,1.2,0.4c2.6,0,8.5-3.2,17.1-8.5c1.4-0.9,2.5-1.5,3-1.8C121.6,85.6,130.2,70.6,129.4,66.4z M124,66.8
			c0,0-2.2,8.8-8,14.8c-4.8,5-11.9,7.1-14.2,7.7c0.8-1.3,1.8-2.7,3-4.2C110.7,77.2,118.3,69.4,124,66.8z"/>
		<path id="XMLID_558_" class="st1" d="M151.6,14.1l11.5,4.7c0,0-2.9,23.4-10.4,41.7c-7.4,18.3-14.9,30.9-14.9,30.9
			c-1.2,3.1-6.3,4-11.4,1.9c-5-2-8.1-6.2-6.8-9.3c0,0,1.7-10.6,10.6-32.7C139.1,29.2,151.6,14.1,151.6,14.1z"/>
		<path id="XMLID_568_" class="st2" d="M146.1,41.6c7.4-17,9.3-24.6,9.3-24.6l-5-1.9c-2.8,3.5-13,17.4-20.7,36.4
			c-1.3,3.3-2.5,6.3-3.5,9.1c-1.2,6.2-2.1,12.4-0.8,12.9C129.4,75.1,138.5,59.1,146.1,41.6z"/>
		<path id="XMLID_564_" class="st0" d="M144.6,72.2c-0.5-0.5-1.1-0.6-1.7-0.2c-3.5,2-7.6,19.1-7,21.7c0.1,0.6,0.4,1.9,0.6,3.5
			c2.1,12,3.8,19,5.9,19c0,0,0,0,0,0c0.6,0,1.1-0.6,1.7-2.1C147.1,106.5,150.9,78.3,144.6,72.2z M136.9,93.5
			c-0.6-2.7,3.7-19.1,6.5-20.7c0.1-0.1,0.2-0.1,0.3-0.1c0.1,0,0.2,0,0.3,0.1c1.5,1.4,2.4,4.3,2.8,7.8c-0.7,0.5-3.2,3.2-6,12.7
			c-1.4,4.6-1.7,8.5-1.6,11.7c-0.5-2.3-1-5-1.5-8.1C137.2,95.4,137,94.1,136.9,93.5z"/>
		<path id="XMLID_574_" class="st0" d="M151.5,13.5l-0.2,0.3c-0.1,0.2-12.6,15.5-21.5,37.4c-8.5,21.1-10.5,31.9-10.6,32.7
			c-1.3,3.3,1.9,7.8,7.1,9.9c1.9,0.8,3.8,1.1,5.6,1.1c1.3,0,2.6-0.2,3.7-0.7c1.3-0.6,2.3-1.5,2.8-2.6c0.4-0.7,7.8-13.2,15-31
			c7.4-18.2,10.4-41.6,10.4-41.9l0-0.4L151.5,13.5z M120.1,84.2l0-0.1c0-0.1,1.8-10.8,10.6-32.6c8.1-20.2,19.3-34.7,21.1-36.8
			l8.7,3.5l-3.8,1.8c0,0-3.7,17.1-12.8,37.2C137.1,72,132.7,84.9,128.3,88c-2.9,2-6.1,1.5-7.6,0.2C119.9,86.8,119.6,85.4,120.1,84.2
			z"/>
		<g id="XMLID_194_">
			<path id="XMLID_547_" class="st0" d="M142.5,61.2c-1,0-2-0.2-2.9-0.6c-4-1.6-5.9-6.1-4.3-10.1v0c0.8-1.9,2.3-3.4,4.2-4.2
				c1.9-0.8,4-0.8,5.9,0c4,1.6,5.9,6.1,4.3,10.1c-0.8,1.9-2.3,3.4-4.2,4.2C144.6,61,143.6,61.2,142.5,61.2z"/>
			<path id="XMLID_549_" class="st1" d="M142.5,61.5c-1,0-2.1-0.2-3-0.6c-4.1-1.7-6.2-6.4-4.5-10.6c0.8-2,2.4-3.6,4.4-4.5
				c2-0.8,4.2-0.9,6.2,0c4.1,1.7,6.2,6.4,4.5,10.6c-0.8,2-2.4,3.6-4.4,4.5C144.7,61.3,143.6,61.5,142.5,61.5z M142.5,46
				c-1,0-1.9,0.2-2.9,0.6c-1.8,0.8-3.2,2.2-4,4c-1.5,3.8,0.3,8.1,4.1,9.6c1.8,0.7,3.8,0.7,5.6,0c1.8-0.8,3.2-2.2,4-4
				c1.5-3.8-0.3-8.1-4.1-9.6C144.4,46.2,143.5,46,142.5,46z"/>
			<g id="XMLID_602_">
				<path id="XMLID_546_" class="st1" d="M138.1,51.6c-1,2.4,0.2,5.2,2.6,6.2c2.4,1,5.2-0.2,6.2-2.6c1-2.4-0.2-5.2-2.6-6.2
					C141.9,48,139.1,49.2,138.1,51.6z"/>
			</g>
		</g>
		<path id="XMLID_193_" class="st1" d="M151.6,14.1c-0.7,1.9,1.2,4.4,4.4,5.7s6.4,0.8,7.1-1c0.7-1.9,2.3-13.1-0.9-14.4
			C159,3.1,152.4,12.3,151.6,14.1z"/>
		<path id="XMLID_576_" class="st2" d="M138.8,51.8c-0.2,0.5-0.3,1-0.3,1.5c0.4,0.8,1.1,1.4,2,1.8c2.1,0.8,4.4-0.2,5.3-2.2
			c0.2-0.5,0.3-1,0.3-1.5c-0.4-0.8-1.1-1.4-2-1.8C142,48.8,139.6,49.8,138.8,51.8z"/>
		<path id="XMLID_569_" class="st2" d="M160.7,8.1c0.4-1.1,0.6-2.5,0.6-3.9c-2.4,0.5-6.6,5.4-8.6,8.1c0,0-0.5,2.3,1.7,3.3
			C156.1,16.5,159.4,11.6,160.7,8.1z"/>
		<path id="XMLID_570_" class="st0" d="M162.4,3.9c-0.6-0.3-1.4-0.2-2.3,0.2c-3.5,1.5-8.3,8.1-9,9.8v0c-0.9,2.1,1.2,4.9,4.7,6.3
			c1.3,0.5,2.6,0.8,3.7,0.8c0.9,0,1.6-0.1,2.3-0.4c0.8-0.4,1.4-0.9,1.7-1.6C164.2,17.4,166.1,5.4,162.4,3.9z M161.5,19.7
			c-1.3,0.6-3.4,0.4-5.3-0.4c-2.9-1.2-4.8-3.5-4.1-5.1c0.6-1.4,5.2-7.9,8.5-9.3c0.5-0.2,0.9-0.3,1.2-0.2c0.2,1.2,0,4.2-0.8,7.6
			c-1,4.3-2.4,6.3-2.4,6.3s1.5,0.7,4.1-0.2c0,0,0,0.1,0,0.1C162.5,19.1,162.1,19.4,161.5,19.7z"/>
	</g>
	<g id="XMLID_1735_">
		
			<ellipse id="XMLID_1747_" transform="matrix(0.9922 -0.1245 0.1245 0.9922 -20.9466 17.2773)" class="st0" cx="127.7" cy="176.2" rx="9.7" ry="9.7"/>
		<path id="XMLID_1757_" class="st1" d="M129.9,169.2c0,5-4.1,9.1-9.1,9.1c-0.4,0-0.8,0-1.2-0.1c0,0.4,0.1,0.7,0.1,1.1
			c0.3,0,0.7,0.1,1,0.1c5.6,0,10.2-4.6,10.2-10.2c0-0.4,0-0.7-0.1-1.1c-0.4-0.1-0.7-0.1-1.1-0.1
			C129.9,168.4,129.9,168.8,129.9,169.2z"/>
	</g>
</g>
</svg>
