<?xml version="1.0" encoding="utf-8"?>
<!-- Generator: Adobe Illustrator 22.1.0, SVG Export Plug-In . SVG Version: 6.00 Build 0)  -->
<svg version="1.1" id="content" xmlns="http://www.w3.org/2000/svg" xmlns:xlink="http://www.w3.org/1999/xlink" x="0px" y="0px"
	 viewBox="0 0 64 58.5" style="enable-background:new 0 0 64 58.5;" xml:space="preserve">
<style type="text/css">
	.st0{fill:#FFEB00;}
	.st1{fill:#FFEECC;}
	.st2{fill:#16110D;}
</style>
<g id="XMLID_7626_">
	<g id="XMLID_4610_">
		<path id="XMLID_7138_" class="st0" d="M9.1,22.1l2.8-4.9c1.4-1.6,2.5-3.5,3.2-5.5l2.7-5.2l-4-2.1c0,0-0.1,0-0.1-0.1l-0.1,0l-0.1,0
			c-1.1-0.5-2.6-0.4-4.3,0.5c-3.5,2-6.3,6.9-6.3,11c0,1.9,0.7,3.3,1.7,4l0.1,0.1l0,0c0.1,0.1,0.2,0.1,0.4,0.2L9.1,22.1z"/>
		<polygon id="XMLID_6992_" class="st1" points="4.7,9.8 8.3,11.8 7.6,12.7 4.2,10.8 		"/>
		<polygon id="XMLID_4603_" class="st1" points="5.2,8.3 9.1,10.3 13.2,6 10,4.4 		"/>
		<path id="XMLID_7140_" class="st2" d="M9.3,22.7l-4.4-2.3c-0.1-0.1-0.3-0.1-0.4-0.2l-0.1-0.1c-1.3-0.8-1.9-2.4-1.9-4.4
			c0-4.2,3-9.3,6.6-11.4c1.7-1,3.4-1.2,4.7-0.6L14,3.8l4.4,2.3l-2.9,5.7c-0.6,2-1.8,4-3.2,5.6L9.3,22.7z M12.1,4.3
			c-0.8,0-1.7,0.3-2.6,0.8c-3.4,1.9-6.1,6.7-6.1,10.6c0,1.7,0.5,3,1.5,3.6c0.2,0.1,0.3,0.2,0.4,0.2l3.6,1.9l2.6-4.6
			c1.4-1.5,2.5-3.4,3.1-5.4l2.5-4.9l-3.5-1.9l-0.1-0.1l-0.1-0.1C12.9,4.4,12.5,4.3,12.1,4.3z"/>
	</g>
	<g id="XMLID_4607_">
		<path id="XMLID_7133_" class="st0" d="M15,31.5l4.4-7.7c2.2-2.4,3.9-5.5,4.9-8.6l4.1-8.1l-6.1-3.2c-0.1,0-0.1-0.1-0.2-0.1l-0.1,0
			l-0.1,0c-1.8-0.8-4.1-0.6-6.6,0.8C9.8,7.6,5.4,15.3,5.4,21.5c0,3,1,5.1,2.7,6.2l0.1,0.1l0,0c0.2,0.1,0.4,0.2,0.6,0.3L15,31.5z"/>
		<polygon id="XMLID_6991_" class="st1" points="6.8,14.6 13.9,18.8 23.6,7.4 16.7,3.6 11.8,7.2 		"/>
		<polygon id="XMLID_6990_" class="st1" points="6.2,17 12.5,20.8 11.7,22.7 5.7,18.9 		"/>
		<path id="XMLID_7134_" class="st2" d="M15.2,32.1l-6.6-3.5c-0.2-0.1-0.4-0.2-0.6-0.3l-0.1-0.1c-1.9-1.2-2.9-3.6-2.9-6.7
			C4.9,15.1,9.4,7.3,15,4c2.6-1.5,5.1-1.8,7.1-0.9l0.2,0.1c0.1,0.1,0.1,0.1,0.2,0.1l6.6,3.5l-4.4,8.6c-0.9,3.1-2.7,6.2-4.9,8.7
			L15.2,32.1z M19.6,3.6c-1.3,0-2.7,0.4-4.1,1.3C10.2,8,5.9,15.4,5.9,21.5c0,2.7,0.9,4.8,2.4,5.8l0.1,0.1c0.2,0.1,0.3,0.2,0.5,0.3
			l5.8,3.1l4.2-7.3c2.2-2.4,3.9-5.4,4.8-8.4l3.9-7.8l-5.7-3l-0.1-0.1l-0.1-0.1l-0.1,0C21.1,3.8,20.4,3.6,19.6,3.6z"/>
	</g>
	<path id="XMLID_7157_" class="st2" d="M28.9,6.7c-2-1.2-4.7-0.9-7.5,0.7c-5.6,3.2-10.1,11.1-10.1,17.5c0,3.2,1.1,5.6,3.1,6.8
		c0.8,0.5,1.8,0.7,2.8,0.7c1.4,0,3-0.5,4.7-1.4C27.5,27.8,32,20,32,13.5C32,10.3,30.9,7.9,28.9,6.7z"/>
	<g id="XMLID_6994_">
		<path id="XMLID_7154_" class="st0" d="M17.8,30.5c-0.9,0-1.7-0.2-2.4-0.6c-1.7-1-2.6-3-2.6-5.8c0-5.5,3.9-12.3,8.7-15.1
			c2.4-1.4,4.6-1.6,6.3-0.6c1.7,1,2.6,3,2.6,5.8c0,5.5-3.9,12.3-8.7,15.1C20.4,30.1,19,30.5,17.8,30.5z M25.5,8.4
			c-1.1,0-2.4,0.4-3.7,1.1c-4.7,2.7-8.4,9.2-8.4,14.6c0,2.5,0.8,4.4,2.4,5.3c1.5,0.9,3.6,0.7,5.8-0.6c4.7-2.7,8.4-9.2,8.4-14.6
			c0-2.5-0.8-4.4-2.4-5.3C26.9,8.6,26.2,8.4,25.5,8.4z"/>
	</g>
	<g id="XMLID_4608_">
		<path id="XMLID_7122_" class="st0" d="M37.4,31.5l1-1.8c0.5-0.6,0.9-1.3,1.2-2l1-1.9l-16.8-9.3c0,0,0,0,0,0l0,0l0,0
			c-0.4-0.2-1-0.2-1.6,0.2c-1.3,0.7-2.3,2.6-2.3,4c0,0.7,0.2,1.2,0.6,1.5l0,0l0,0c0.1,0,0.1,0,0.1,0.1L37.4,31.5z"/>
		<path id="XMLID_7126_" class="st2" d="M37.6,32.1l-17.3-9.5c0,0-0.1,0-0.2-0.1c-0.6-0.4-0.9-1.1-0.9-1.9c0-1.7,1.1-3.6,2.6-4.5
			c0.7-0.4,1.5-0.5,2-0.2l0.1,0.1l17.3,9.5L40,27.8c-0.2,0.7-0.7,1.5-1.2,2.1L37.6,32.1z M23.1,16.7c-0.2,0-0.5,0.1-0.8,0.2
			c-1.1,0.7-2.1,2.3-2.1,3.6c0,0.5,0.1,0.9,0.4,1.1l0.1,0.1l16.4,9.1l0.9-1.5c0.5-0.5,0.8-1.2,1.1-1.9l0.8-1.6l-16.4-9.1
			C23.4,16.7,23.2,16.7,23.1,16.7z"/>
	</g>
	<path id="XMLID_7071_" class="st0" d="M42.2,47l4.4-7.7c2.2-2.4,3.9-5.5,4.9-8.6l4.1-8.1l-6.1-3.2c-0.1,0-0.1-0.1-0.2-0.1l-0.1,0
		l-0.1,0c-1.8-0.8-4.1-0.6-6.6,0.8c-5.4,3.1-9.9,10.8-9.9,17.1c0,3,1,5.1,2.7,6.2l0.1,0.1l0,0c0.2,0.1,0.4,0.2,0.6,0.3L42.2,47z"/>
	<polygon id="XMLID_6993_" class="st1" points="33.8,30.4 40.9,34.6 50.5,23.2 43.6,19.4 38.7,23 	"/>
	<polygon id="XMLID_4543_" class="st1" points="33.2,32.8 39.4,36.6 38.6,38.5 32.6,34.7 	"/>
	<path id="XMLID_7077_" class="st2" d="M42.4,47.7l-6.6-3.5c-0.2-0.1-0.4-0.2-0.6-0.3L35,43.8c-1.9-1.2-2.9-3.6-2.9-6.7
		c0-6.4,4.5-14.3,10.1-17.5c2.6-1.5,5.1-1.8,7.1-0.9l0.4,0.2l6.6,3.5L51.9,31c-0.9,3.1-2.7,6.2-4.9,8.7L42.4,47.7z M46.8,19.2
		c-1.3,0-2.7,0.4-4.1,1.3c-5.3,3.1-9.6,10.5-9.6,16.6c0,2.7,0.9,4.8,2.4,5.8l0.1,0.1c0.2,0.1,0.3,0.2,0.5,0.3l5.8,3.1l4.2-7.3
		c2.2-2.4,3.9-5.4,4.8-8.4l3.9-7.8l-5.7-3l-0.1-0.1L49,19.7l-0.1,0C48.3,19.4,47.6,19.2,46.8,19.2z"/>
	<path id="XMLID_7129_" class="st2" d="M56.1,22.3c-2-1.2-4.7-0.9-7.5,0.7C43,26.2,38.5,34,38.5,40.5c0,3.2,1.1,5.6,3.1,6.8
		c0.8,0.5,1.8,0.7,2.8,0.7c1.4,0,3-0.5,4.7-1.4c5.6-3.2,10.1-11.1,10.1-17.5C59.2,25.9,58.1,23.5,56.1,22.3z"/>
	<path id="XMLID_7002_" class="st0" d="M50,45.6l2.8-4.9c1.4-1.6,2.5-3.5,3.2-5.5l2.7-5.2l-4-2.1c0,0-0.1,0-0.1-0.1l-0.1,0l-0.1,0
		c-1.1-0.5-2.6-0.4-4.3,0.5c-3.5,2-6.4,6.9-6.4,11c0,1.9,0.7,3.3,1.7,4l0.1,0.1l0,0c0.1,0.1,0.2,0.1,0.4,0.2L50,45.6z"/>
	<path id="XMLID_7003_" class="st0" d="M50.2,46.2l-4.4-2.3c-0.1-0.1-0.3-0.1-0.4-0.2l-0.1-0.1c-1.3-0.8-1.9-2.4-1.9-4.4
		c0-4.2,3-9.3,6.6-11.4c1.7-1,3.4-1.2,4.7-0.6l0.3,0.1l4.4,2.3l-2.9,5.7c-0.6,2-1.8,4-3.2,5.6L50.2,46.2z M52.9,27.8
		c-0.8,0-1.7,0.3-2.6,0.8c-3.4,1.9-6.1,6.7-6.1,10.6c0,1.7,0.5,3,1.5,3.6c0.2,0.1,0.3,0.2,0.4,0.2l3.6,1.9l2.6-4.6
		c1.4-1.5,2.5-3.4,3.1-5.4l2.5-4.9l-3.5-1.9l-0.1-0.1l-0.1-0.1C53.8,27.9,53.4,27.8,52.9,27.8z"/>
	<path id="XMLID_7147_" class="st1" d="M48.7,36.3c0.1-0.3,0.3-0.6,0.5-0.9l-3.6-2c-0.2,0.4-0.4,0.7-0.6,1.1l3.6,2L48.7,36.3z"/>
	<path id="XMLID_7150_" class="st1" d="M54.4,30c0.2-0.1,1-0.6,1.2-0.6l-3.9-1.9c-0.4,0.1-0.7,0.3-1.1,0.5c-1.5,0.9-2.9,2.3-4.1,3.9
		l3.6,1.9C51.4,31.9,52.7,31,54.4,30z"/>
	<path id="XMLID_4606_" class="st2" d="M59,29.5c-1.4-0.8-3.1-0.6-5,0.4c-3.6,2.1-6.6,7.2-6.6,11.4c0,2.1,0.7,3.8,2.1,4.5
		c0.6,0.3,1.2,0.5,1.9,0.5c1,0,2-0.3,3.1-0.9c3.6-2.1,6.6-7.2,6.6-11.4C61.1,31.9,60.3,30.3,59,29.5z"/>
	<g id="XMLID_4605_">
		<path id="XMLID_6995_" class="st0" d="M53.3,41c-0.3,0-0.6-0.1-0.8-0.2c-0.6-0.3-0.9-1-0.9-1.8c0-1.6,1.1-3.4,2.4-4.2
			c0.7-0.4,1.5-0.5,2-0.2c0.6,0.3,0.9,1,0.9,1.8c0,1.6-1.1,3.4-2.4,4.2C54.1,40.9,53.7,41,53.3,41z M55.2,35.4
			c-0.2,0-0.5,0.1-0.7,0.2c-1,0.6-1.9,2.1-1.9,3.3c0,0.5,0.1,0.8,0.4,1c0.2,0.1,0.6,0.1,1-0.2c1-0.6,1.9-2.1,1.9-3.3
			c0-0.5-0.1-0.8-0.4-1C55.4,35.4,55.3,35.4,55.2,35.4z"/>
	</g>
	<g id="XMLID_4591_">
		<path id="XMLID_6981_" class="st0" d="M52.2,39.7l-0.1-0.5c0,0,1.2-0.3,1.9-1.7c0.7-1.4,0.3-2.8,0.3-2.8l0.5-0.1
			c0,0.1,0.5,1.7-0.4,3.2C53.7,39.4,52.3,39.7,52.2,39.7z"/>
	</g>
	<g id="XMLID_7144_">
		<path id="XMLID_7145_" class="st0" d="M51.8,44.9c-0.6,0-1.1-0.1-1.5-0.4c-1.1-0.6-1.7-2-1.7-3.7c0-3.5,2.5-7.8,5.5-9.6
			c1.5-0.9,3-1,4.1-0.4c1.1,0.6,1.7,2,1.7,3.7c0,3.5-2.5,7.8-5.5,9.6C53.5,44.7,52.6,44.9,51.8,44.9z M56.7,30.9
			c-0.7,0-1.5,0.2-2.3,0.7c-2.9,1.7-5.3,5.8-5.3,9.2c0,1.6,0.5,2.7,1.5,3.3c0.9,0.5,2.2,0.4,3.6-0.4c2.9-1.7,5.3-5.8,5.3-9.2
			c0-1.6-0.5-2.7-1.5-3.3C57.6,31,57.1,30.9,56.7,30.9z"/>
	</g>
	<g id="XMLID_7717_">
		<g id="XMLID_7802_">
			<ellipse id="XMLID_7800_" class="st2" cx="29.8" cy="42.4" rx="0.7" ry="0.4"/>
			<path id="XMLID_7797_" class="st2" d="M30.3,39.2c0.3,0.2,0.3,0.4,0,0.6c-0.3,0.2-0.7,0.2-1,0c-0.3-0.2-0.3-0.4,0-0.6
				C29.6,39,30,39,30.3,39.2z"/>
			<ellipse id="XMLID_7795_" class="st2" cx="29.8" cy="36.5" rx="0.7" ry="0.4"/>
			<path id="XMLID_7794_" class="st2" d="M27.8,34.8c0.3,0.2,0.3,0.4,0,0.6c-0.3,0.2-0.7,0.2-1,0c-0.3-0.2-0.3-0.4,0-0.6
				C27.1,34.6,27.5,34.6,27.8,34.8z"/>
			<path id="XMLID_7793_" class="st2" d="M30.3,33.3c0.3,0.2,0.3,0.4,0,0.6c-0.3,0.2-0.7,0.2-1,0c-0.3-0.2-0.3-0.4,0-0.6
				C29.6,33.2,30,33.2,30.3,33.3z"/>
			<ellipse id="XMLID_7792_" class="st2" cx="17.2" cy="38" rx="0.7" ry="0.4"/>
			<ellipse id="XMLID_7791_" class="st2" cx="19.7" cy="36.5" rx="0.7" ry="0.4"/>
			<path id="XMLID_7790_" class="st2" d="M22.7,34.8c0.3,0.2,0.3,0.4,0,0.6c-0.3,0.2-0.7,0.2-1,0c-0.3-0.2-0.3-0.4,0-0.6
				C22,34.6,22.4,34.6,22.7,34.8z"/>
			<path id="XMLID_7789_" class="st2" d="M25.2,33.3c0.3,0.2,0.3,0.4,0,0.6c-0.3,0.2-0.7,0.2-1,0c-0.3-0.2-0.3-0.4,0-0.6
				C24.5,33.2,25,33.2,25.2,33.3z"/>
			<ellipse id="XMLID_7788_" class="st2" cx="27.3" cy="32.1" rx="0.7" ry="0.4"/>
			<ellipse id="XMLID_7787_" class="st2" cx="29.8" cy="30.7" rx="0.7" ry="0.4"/>
			<ellipse id="XMLID_7786_" class="st2" cx="12.1" cy="38" rx="0.7" ry="0.4"/>
			<ellipse id="XMLID_7785_" class="st2" cx="14.6" cy="36.5" rx="0.7" ry="0.4"/>
			<ellipse id="XMLID_7784_" class="st2" cx="17.1" cy="35" rx="0.7" ry="0.4"/>
			<ellipse id="XMLID_7783_" class="st2" cx="19.7" cy="33.6" rx="0.7" ry="0.4"/>
			<path id="XMLID_7781_" class="st2" d="M22.7,31.8c0.3,0.2,0.3,0.4,0,0.6c-0.3,0.2-0.7,0.2-1,0c-0.3-0.2-0.3-0.4,0-0.6
				C22,31.7,22.4,31.7,22.7,31.8z"/>
			<ellipse id="XMLID_7780_" class="st2" cx="24.7" cy="30.7" rx="0.7" ry="0.4"/>
			<path id="XMLID_7779_" class="st2" d="M27.7,28.9c0.3,0.2,0.3,0.4,0,0.6c-0.3,0.2-0.7,0.2-1,0c-0.3-0.2-0.3-0.4,0-0.6
				C27,28.8,27.5,28.8,27.7,28.9z"/>
			<ellipse id="XMLID_7778_" class="st2" cx="9.5" cy="36.5" rx="0.7" ry="0.4"/>
			<ellipse id="XMLID_7777_" class="st2" cx="12.1" cy="35" rx="0.7" ry="0.4"/>
			<path id="XMLID_7776_" class="st2" d="M15.1,33.3c0.3,0.2,0.3,0.4,0,0.6c-0.3,0.2-0.7,0.2-1,0c-0.3-0.2-0.3-0.4,0-0.6
				C14.4,33.1,14.8,33.1,15.1,33.3z"/>
			<ellipse id="XMLID_7775_" class="st2" cx="7" cy="35" rx="0.7" ry="0.4"/>
			<ellipse id="XMLID_7774_" class="st2" cx="9.5" cy="33.6" rx="0.7" ry="0.4"/>
			<ellipse id="XMLID_7773_" class="st2" cx="12.1" cy="32.1" rx="0.7" ry="0.4"/>
			<path id="XMLID_7772_" class="st2" d="M5,33.3c0.3,0.2,0.3,0.4,0,0.6c-0.3,0.2-0.7,0.2-1,0s-0.3-0.4,0-0.6
				C4.3,33.1,4.7,33.1,5,33.3z"/>
			<path id="XMLID_7771_" class="st2" d="M7.5,31.8c0.3,0.2,0.3,0.4,0,0.6c-0.3,0.2-0.7,0.2-1,0c-0.3-0.2-0.3-0.4,0-0.6
				C6.8,31.7,7.2,31.7,7.5,31.8z"/>
			<path id="XMLID_7770_" class="st2" d="M10,30.4c0.3,0.2,0.3,0.4,0,0.6c-0.3,0.2-0.7,0.2-1,0c-0.3-0.2-0.3-0.4,0-0.6
				C9.3,30.2,9.8,30.2,10,30.4z"/>
			<ellipse id="XMLID_7768_" class="st2" cx="4.5" cy="30.7" rx="0.7" ry="0.4"/>
			<path id="XMLID_7767_" class="st2" d="M7.5,28.9c0.3,0.2,0.3,0.4,0,0.6c-0.3,0.2-0.7,0.2-1,0c-0.3-0.2-0.3-0.4,0-0.6
				C6.8,28.8,7.2,28.8,7.5,28.9z"/>
			<path id="XMLID_7765_" class="st2" d="M2.4,28.9c0.3,0.2,0.3,0.4,0,0.6c-0.3,0.2-0.7,0.2-1,0c-0.3-0.2-0.3-0.4,0-0.6
				C1.7,28.8,2.2,28.8,2.4,28.9z"/>
			<path id="XMLID_7764_" class="st2" d="M5,27.5c0.3,0.2,0.3,0.4,0,0.6c-0.3,0.2-0.7,0.2-1,0c-0.3-0.2-0.3-0.4,0-0.6
				C4.3,27.3,4.7,27.3,5,27.5z"/>
			<ellipse id="XMLID_7762_" class="st2" cx="2" cy="26.3" rx="0.7" ry="0.4"/>
			<path id="XMLID_7761_" class="st2" d="M5,24.5c0.3,0.2,0.3,0.4,0,0.6c-0.3,0.2-0.7,0.2-1,0c-0.3-0.2-0.3-0.4,0-0.6
				C4.3,24.4,4.7,24.4,5,24.5z"/>
			<path id="XMLID_7759_" class="st2" d="M2.4,23.1c0.3,0.2,0.3,0.4,0,0.6c-0.3,0.2-0.7,0.2-1,0c-0.3-0.2-0.3-0.4,0-0.6
				C1.7,22.9,2.2,22.9,2.4,23.1z"/>
			<ellipse id="XMLID_7758_" class="st2" cx="4.5" cy="21.9" rx="0.7" ry="0.4"/>
			<path id="XMLID_7751_" class="st2" d="M48.1,55c0.3,0.2,0.3,0.4,0,0.6s-0.7,0.2-1,0c-0.3-0.2-0.3-0.4,0-0.6
				C47.4,54.9,47.9,54.9,48.1,55z"/>
			<path id="XMLID_7750_" class="st2" d="M50.7,53.6c0.3,0.2,0.3,0.4,0,0.6c-0.3,0.2-0.7,0.2-1,0c-0.3-0.2-0.3-0.4,0-0.6
				C50,53.4,50.4,53.4,50.7,53.6z"/>
			<ellipse id="XMLID_7749_" class="st2" cx="52.7" cy="52.4" rx="0.7" ry="0.4"/>
			<ellipse id="XMLID_7748_" class="st2" cx="55.2" cy="50.9" rx="0.7" ry="0.4"/>
			<path id="XMLID_7747_" class="st2" d="M58.3,49.2c0.3,0.2,0.3,0.4,0,0.6c-0.3,0.2-0.7,0.2-1,0c-0.3-0.2-0.3-0.4,0-0.6
				C57.6,49,58,49,58.3,49.2z"/>
			<path id="XMLID_7746_" class="st2" d="M60.8,47.7c0.3,0.2,0.3,0.4,0,0.6c-0.3,0.2-0.7,0.2-1,0c-0.3-0.2-0.3-0.4,0-0.6
				C60.1,47.6,60.5,47.6,60.8,47.7z"/>
			<path id="XMLID_7745_" class="st2" d="M43.1,55c0.3,0.2,0.3,0.4,0,0.6c-0.3,0.2-0.7,0.2-1,0c-0.3-0.2-0.3-0.4,0-0.6
				C42.4,54.9,42.8,54.9,43.1,55z"/>
			<path id="XMLID_7744_" class="st2" d="M45.6,53.6c0.3,0.2,0.3,0.4,0,0.6c-0.3,0.2-0.7,0.2-1,0c-0.3-0.2-0.3-0.4,0-0.6
				C44.9,53.4,45.3,53.4,45.6,53.6z"/>
			<ellipse id="XMLID_7743_" class="st2" cx="47.7" cy="52.4" rx="0.7" ry="0.4"/>
			<ellipse id="XMLID_7742_" class="st2" cx="50.2" cy="50.9" rx="0.7" ry="0.4"/>
			<ellipse id="XMLID_7741_" class="st2" cx="52.7" cy="49.5" rx="0.7" ry="0.4"/>
			<ellipse id="XMLID_7740_" class="st2" cx="55.2" cy="48" rx="0.7" ry="0.4"/>
			<ellipse id="XMLID_7739_" class="st2" cx="57.8" cy="46.5" rx="0.7" ry="0.4"/>
			<ellipse id="XMLID_7738_" class="st2" cx="40.1" cy="53.8" rx="0.7" ry="0.4"/>
			<ellipse id="XMLID_7737_" class="st2" cx="42.6" cy="52.4" rx="0.7" ry="0.4"/>
			<path id="XMLID_7736_" class="st2" d="M45.6,50.6c0.3,0.2,0.3,0.4,0,0.6c-0.3,0.2-0.7,0.2-1,0c-0.3-0.2-0.3-0.4,0-0.6
				C44.9,50.5,45.3,50.5,45.6,50.6z"/>
			<path id="XMLID_7735_" class="st2" d="M48.1,49.2c0.3,0.2,0.3,0.4,0,0.6c-0.3,0.2-0.7,0.2-1,0c-0.3-0.2-0.3-0.4,0-0.6
				C47.4,49,47.9,49,48.1,49.2z"/>
			<path id="XMLID_7734_" class="st2" d="M50.7,47.7c0.3,0.2,0.3,0.4,0,0.6c-0.3,0.2-0.7,0.2-1,0c-0.3-0.2-0.3-0.4,0-0.6
				C50,47.6,50.4,47.6,50.7,47.7z"/>
			<path id="XMLID_7733_" class="st2" d="M38,52.1c0.3,0.2,0.3,0.4,0,0.6c-0.3,0.2-0.7,0.2-1,0c-0.3-0.2-0.3-0.4,0-0.6
				C37.3,51.9,37.7,51.9,38,52.1z"/>
			<path id="XMLID_7732_" class="st2" d="M40.5,50.6c0.3,0.2,0.3,0.4,0,0.6c-0.3,0.2-0.7,0.2-1,0c-0.3-0.2-0.3-0.4,0-0.6
				C39.8,50.5,40.3,50.5,40.5,50.6z"/>
			<ellipse id="XMLID_7731_" class="st2" cx="42.6" cy="49.5" rx="0.7" ry="0.4"/>
			<path id="XMLID_7730_" class="st2" d="M35.5,50.6c0.3,0.2,0.3,0.4,0,0.6c-0.3,0.2-0.7,0.2-1,0c-0.3-0.2-0.3-0.4,0-0.6
				C34.8,50.5,35.2,50.5,35.5,50.6z"/>
			<path id="XMLID_7729_" class="st2" d="M38,49.2c0.3,0.2,0.3,0.4,0,0.6c-0.3,0.2-0.7,0.2-1,0c-0.3-0.2-0.3-0.4,0-0.6
				C37.3,49,37.7,49,38,49.2z"/>
			<ellipse id="XMLID_7728_" class="st2" cx="40" cy="48" rx="0.7" ry="0.4"/>
			<path id="XMLID_7727_" class="st2" d="M32.9,49.2c0.3,0.2,0.3,0.4,0,0.6c-0.3,0.2-0.7,0.2-1,0c-0.3-0.2-0.3-0.4,0-0.6
				C32.2,49,32.7,49,32.9,49.2z"/>
			<ellipse id="XMLID_7726_" class="st2" cx="35" cy="48" rx="0.7" ry="0.4"/>
			<path id="XMLID_7725_" class="st2" d="M38,46.2c0.3,0.2,0.3,0.4,0,0.6c-0.3,0.2-0.7,0.2-1,0c-0.3-0.2-0.3-0.4,0-0.6
				C37.3,46.1,37.7,46.1,38,46.2z"/>
			<ellipse id="XMLID_7723_" class="st2" cx="32.4" cy="46.5" rx="0.7" ry="0.4"/>
			<ellipse id="XMLID_7722_" class="st2" cx="35" cy="45.1" rx="0.7" ry="0.4"/>
			<path id="XMLID_7720_" class="st2" d="M30.4,44.8c0.3,0.2,0.3,0.4,0,0.6s-0.7,0.2-1,0s-0.3-0.4,0-0.6
				C29.7,44.6,30.1,44.6,30.4,44.8z"/>
			<path id="XMLID_7719_" class="st2" d="M32.9,43.3c0.3,0.2,0.3,0.4,0,0.6c-0.3,0.2-0.7,0.2-1,0c-0.3-0.2-0.3-0.4,0-0.6
				C32.2,43.2,32.7,43.2,32.9,43.3z"/>
			<path id="XMLID_7716_" class="st2" d="M59.8,44.8c0.3-0.2,0.7-0.2,1,0c0.3,0.2,0.3,0.4,0,0.6c-0.3,0.2-0.7,0.2-1,0
				C59.6,45.2,59.6,45,59.8,44.8z"/>
			<ellipse id="XMLID_7715_" class="st2" cx="62.9" cy="43.6" rx="0.7" ry="0.4"/>
			<path id="XMLID_7714_" class="st2" d="M57.3,43.3c0.3-0.2,0.7-0.2,1,0c0.3,0.2,0.3,0.4,0,0.6s-0.7,0.2-1,0
				C57,43.8,57,43.5,57.3,43.3z"/>
			<path id="XMLID_7713_" class="st2" d="M60.8,41.9c0.3,0.2,0.3,0.4,0,0.6c-0.3,0.2-0.7,0.2-1,0c-0.3-0.2-0.3-0.4,0-0.6
				C60.1,41.7,60.5,41.7,60.8,41.9z"/>
			<path id="XMLID_7712_" class="st2" d="M63.3,40.4c0.3,0.2,0.3,0.4,0,0.6c-0.3,0.2-0.7,0.2-1,0c-0.3-0.2-0.3-0.4,0-0.6
				C62.6,40.3,63.1,40.3,63.3,40.4z"/>
			<ellipse id="XMLID_7686_" class="st2" cx="60.3" cy="39.2" rx="0.7" ry="0.4"/>
		</g>
		<path id="XMLID_7753_" class="st2" d="M32.7,31.9c0.3,0.2,0.3,0.4,0,0.6c-0.3,0.2-0.7,0.2-1,0c-0.3-0.2-0.3-0.4,0-0.6
			C32,31.7,32.4,31.7,32.7,31.9z"/>
	</g>
</g>
</svg>
