<?xml version="1.0" encoding="utf-8"?>
<!-- Generator: Adobe Illustrator 22.1.0, SVG Export Plug-In . SVG Version: 6.00 Build 0)  -->
<svg version="1.1" id="Capa_1" xmlns="http://www.w3.org/2000/svg" xmlns:xlink="http://www.w3.org/1999/xlink" x="0px" y="0px"
	 viewBox="672 276.5 512 512" style="enable-background:new 672 276.5 512 512;" xml:space="preserve">
<style type="text/css">
	.st0{fill:#FFFFFF;}
</style>
<path d="M1024,276.5H832c-88.4,0-160,71.6-160,160v192c0,88.4,71.6,160,160,160h192c88.4,0,160-71.6,160-160v-192
	C1184,348.1,1112.4,276.5,1024,276.5z M1136,628.5c0,61.8-50.2,112-112,112H832c-61.8,0-112-50.2-112-112v-192
	c0-61.8,50.2-112,112-112h192c61.8,0,112,50.2,112,112V628.5z"/>
<path d="M928,404.5c-70.7,0-128,57.3-128,128s57.3,128,128,128s128-57.3,128-128S998.7,404.5,928,404.5z M928,612.5
	c-44.1,0-80-35.9-80-80c0-44.1,35.9-80,80-80s80,35.9,80,80C1008,576.6,972.1,612.5,928,612.5z"/>
<circle class="st0" cx="1065.6" cy="394.9" r="17.1"/>
</svg>
