<?xml version="1.0" encoding="iso-8859-1"?>
<!-- Generator: Adobe Illustrator 21.1.0, SVG Export Plug-In . SVG Version: 6.00 Build 0)  -->
<svg version="1.1" id="Layer_1" xmlns="http://www.w3.org/2000/svg" xmlns:xlink="http://www.w3.org/1999/xlink" x="0px" y="0px"
	 viewBox="0 0 1370.784 2469.258" style="enable-background:new 0 0 1370.784 2469.258;" xml:space="preserve">
<g>
	<path style="fill:#F5CD3B;" d="M751.423,857.444l353.573-556.689c10.793-16.993,37.092-6.172,32.801,13.496l-184.543,845.824
		c-1.805,8.273-9.129,14.172-17.597,14.172h-225.25c-11.327,0-19.842-10.331-17.68-21.449l56.221-289.135
		C749.376,861.454,750.216,859.344,751.423,857.444z"/>
	<path style="fill:#F5CD3B;" d="M746.965,1735.93l-138.79,524.319c-5.122,19.35,20.413,31.368,32.06,15.089l727.154-1016.364
		c8.528-11.92,0.008-28.491-14.648-28.491h-293.137c-6.327,0-12.189,3.319-15.445,8.745l-295.227,492.045
		C748.061,1732.725,747.398,1734.293,746.965,1735.93z"/>
	<path style="opacity:0.8;fill:#D8B33A;" d="M919.988,592.044c0,0-288.474,975.68,38.004,544.88l-13.817,58.297h-284.94
		l111.008-367.453L919.988,592.044z"/>
	<polygon style="opacity:0.8;fill:#D8B33A;" points="693.156,1950.632 1228.298,1230.483 1059.604,1230.483 750.232,1722.68 	"/>
	<path style="fill:#FFFFFF;" d="M450.833,1458.386l-249.076,983.835c-5.886,23.251,24.821,37.366,38.635,17.759l927.395-1316.303
		c10.092-14.324-0.153-34.074-17.675-34.074h-423.57c-14.062,0-24.382-13.212-20.978-26.856L969,26.963
		c5.884-23.581-25.606-37.433-39.013-17.16L3.627,1410.641c-9.674,14.63,1.179,34.084,18.71,33.537l406.862-12.708
		C443.563,1431.02,454.36,1444.453,450.833,1458.386z"/>
</g>
</svg>
