<?xml version="1.0" encoding="utf-8"?>
<!-- Generator: Adobe Illustrator 22.1.0, SVG Export Plug-In . SVG Version: 6.00 Build 0)  -->
<svg version="1.1" id="Background_2" xmlns="http://www.w3.org/2000/svg" xmlns:xlink="http://www.w3.org/1999/xlink" x="0px"
	 y="0px" viewBox="0 0 255 489" style="enable-background:new 0 0 255 489;" xml:space="preserve">
<style type="text/css">
	.st0{fill:none;stroke:#000000;stroke-width:14;stroke-linecap:round;stroke-linejoin:round;stroke-miterlimit:10;}
</style>
<rect x="83.4" y="396.9" class="st0" width="110.8" height="81.3"/>
<line class="st0" x1="45.4" y1="478.8" x2="232.1" y2="478.8"/>
<rect x="66.1" y="377.6" class="st0" width="145.3" height="18.7"/>
<ellipse class="st0" cx="139.6" cy="79.7" rx="18.7" ry="26.8"/>
<path class="st0" d="M185.9,200.9c-3.3,9-7,23.7-5.8,51.9c0.8,18.4-7.2,66.8-29.2,75.5c-11.3,4.5-25.5,16.1-37.3,38.2
	c-4.7,8.8-8.2,9.3-11.2,9.5c-2.5,0.2-4.7,1.2-6.2-2.1c-4.8-10.1-5.6-31.6-5.6-31.6s-1.7-74.7,1-118c2.3-37.3,32.7-78.7,62-101.3"/>
<path class="st0" d="M157.6,121.6c0,0,4.8,2.8,14,5.3c9.2,2.5,10.8,12.1,18.6,26.1c8.7,15.8,27.7,50.3,27.1,61.6
	c-0.6,11.3-9,36-14.3,23.7s-16.7-43.7-24.7-51.7"/>
<path class="st0" d="M158.9,158.2c0,0-4,56.7-48,70"/>
<path class="st0" d="M119.6,120.9c0,0-15.3,5.3-22.7,17.3c-7.3,12-26.7,17-38,9s-23.3-15.3-40.7-10s-4.7,19,5.3,18.3
	c10-0.7,16.7,7.9,38,21.3c7.3,4.6,33.7-1.2,44.7-2.7"/>
<path class="st0" d="M170.9,308.2l-0.4,60.9c0,4.5-3.6,8.2-8.1,8.3l-5.9,0.2c-4.7,0.1-8.6-3.6-8.6-8.3l-0.1-36.7"/>
<rect x="111.4" y="431.7" class="st0" width="57" height="46.5"/>
<path class="st0" d="M146.9,275.2c-3.8,30.5-47.5,47.5-56.3,66.7"/>
<path class="st0" d="M119.4,271.7c0,0-15.5,21.2-28.5,23.2"/>
</svg>
