<?xml version="1.0" encoding="utf-8"?>
<!-- Generator: Adobe Illustrator 22.1.0, SVG Export Plug-In . SVG Version: 6.00 Build 0)  -->
<svg version="1.1" id="Layer_1" xmlns="http://www.w3.org/2000/svg" xmlns:xlink="http://www.w3.org/1999/xlink" x="0px" y="0px"
	 viewBox="0 0 758.8 182.9" style="enable-background:new 0 0 758.8 182.9;" xml:space="preserve">
<style type="text/css">
	.st0{clip-path:url(#SVGID_2_);}
	.st1{clip-path:url(#SVGID_4_);}
</style>
<g>
	<g>
		<g>
			<defs>
				<rect id="SVGID_1_" x="299.9" y="23" width="151.9" height="136.8"/>
			</defs>
			<clipPath id="SVGID_2_">
				<use xlink:href="#SVGID_1_"  style="overflow:visible;"/>
			</clipPath>
			<path class="st0" d="M421.9,158.9c-1.2,0-2.4-0.3-3.4-1L380.5,132L360,146.7c-1.6,1.2-3.7,1.4-5.5,0.8c-1.9-0.7-3.3-2.2-3.8-4.1
				l-10.3-38.9l-36.7-14c-2.3-0.9-3.8-3.1-3.9-5.6c0-2.5,1.5-4.7,3.8-5.6l139.4-55.5c0.6-0.3,1.3-0.4,2-0.5c0.2,0,0.5,0,0.7,0
				c1.4,0.1,2.8,0.7,3.8,1.7c0.1,0.1,0.2,0.2,0.3,0.3c0.9,1,1.4,2.3,1.5,3.5c0,0.3,0,0.6,0,1c0,0.2-0.1,0.5-0.1,0.7L427.8,154
				c-0.4,2-1.7,3.6-3.6,4.4C423.5,158.7,422.7,158.9,421.9,158.9L421.9,158.9z M383.8,119.8l33.9,23l18.3-96.1l-66.2,63.7l13.7,9.3
				C383.7,119.7,383.8,119.7,383.8,119.8L383.8,119.8z M355.5,114.6l4.5,17.2l9.8-7l-12.8-8.7C356.5,115.7,356,115.2,355.5,114.6
				L355.5,114.6z M322.4,84.7l25.2,9.6c1.8,0.7,3.2,2.2,3.7,4.1l3.2,12.1c0.1-1.4,0.8-2.7,1.8-3.7l63-60.7L322.4,84.7z M322.4,84.7"
				/>
		</g>
	</g>
	<g>
		<g>
			<defs>
				<rect id="SVGID_3_" x="586" width="172.8" height="182.9"/>
			</defs>
			<clipPath id="SVGID_4_">
				<use xlink:href="#SVGID_3_"  style="overflow:visible;"/>
			</clipPath>
			<path class="st1" d="M741.2,20.7c-14.4-14.1-37.6-20.9-69-20.3c-31.7,0.6-52.9,6.2-66.7,17.5c-13.3,10.9-19.5,27-19.5,50.4v23.9
				c0,27.7,14.8,58.1,43.2,62.7c3.3,0.5,6.4-1.7,6.9-5c0.5-3.3-1.7-6.4-5-6.9c-21.5-3.5-33.1-28.8-33.1-50.8V68.3
				c0-33.6,12.5-54.7,74.4-55.9c28.1-0.6,48.4,5.1,60.3,16.8c9.3,9.1,13.9,21.9,13.9,39.1v23.9c0,36.2-16.3,52.2-58,56.9h-29.6
				c-1.6,0-3.1,0.6-4.2,1.8L634,171.7c-2.3,2.3-2.3,6.1,0,8.5c1.2,1.2,2.7,1.8,4.2,1.8c1.5,0,3.1-0.6,4.2-1.8l19.1-19.1H689
				c0.2,0,0.4,0,0.7,0c23.9-2.6,40.2-8.9,51.4-19.5c11.8-11.2,17.5-27.4,17.5-49.3V68.3C758.6,48,752.8,32,741.2,20.7L741.2,20.7z
				 M741.2,20.7"/>
		</g>
		<path d="M676.1,39.5L676.1,39.5c9.7,0,18.8,3.8,25.6,10.6c6.8,6.8,10.6,15.9,10.6,25.6c0,3.3,2.7,6,6,6c3.3,0,6-2.7,6-6
			c0-12.9-5-25-14.1-34.1c-9.1-9.1-21.2-14.1-34.1-14.1h0c-3.3,0-6,2.7-6,6C670.1,36.8,672.8,39.5,676.1,39.5L676.1,39.5z
			 M676.1,39.5"/>
		<path d="M676.1,60.6c8.3,0,15.1,6.8,15.1,15.1c0,3.3,2.7,6,6,6c3.3,0,6-2.7,6-6c0-14.9-12.2-27.1-27.1-27.1c-3.3,0-6,2.7-6,6
			C670.1,57.9,672.8,60.6,676.1,60.6L676.1,60.6z M676.1,60.6"/>
		<path d="M649.2,70.9c-2.7,1.9-3.4,5.6-1.6,8.3c1.9,2.7,5.6,3.4,8.3,1.6c2.2-1.5,7.2-4.9,6.8-11.8c-0.2-4.1-3.9-10-7-14.2
			c-4.5-6.2-8.4-9.9-11.5-11c-2.9-1.1-6-1.1-9.1-0.1c-6.4,2.2-11.1,6.1-13.5,11.3c-2.3,5.1-2.3,11,0.1,17
			c5.8,14.1,13.8,26.5,24,36.9c10.3,10.2,22.7,18.2,36.8,24c3.1,1.2,6.1,1.9,9,1.9c2.8,0,5.5-0.6,8-1.7c5.3-2.4,9.2-7.1,11.3-13.5
			c1-3.1,1-6.2-0.1-9.1c-1.2-3.1-4.9-7-11-11.5c-4.2-3.1-10.1-6.8-14.2-7c-6.9-0.3-10.3,4.7-11.8,6.8c-1.9,2.7-1.2,6.5,1.6,8.3
			c2.7,1.9,6.5,1.2,8.3-1.6c0.7-1,1-1.4,1.2-1.6c3.4,1.1,13,8.1,14.7,10.8c0,0.2,0,0.4-0.1,0.9c-0.8,2.2-2.2,5.2-5,6.4
			c-2.6,1.2-5.5,0.4-7.4-0.4c-12.7-5.2-23.7-12.4-32.8-21.4c-9-9.2-16.2-20.2-21.4-32.9c-0.8-2-1.5-4.9-0.4-7.5
			c1.3-2.7,4.2-4.2,6.4-5c0.5-0.2,0.7-0.2,0.9-0.1c2.7,1.7,9.8,11.3,10.8,14.7C650.5,69.9,650.1,70.3,649.2,70.9L649.2,70.9z
			 M649.2,70.9"/>
	</g>
	<g>
		<path d="M86.4,3.3C38.7,3.3,0,42.1,0,89.7c0,18.6,7.6,35.4,10.8,41.7c1.5,2.9,5.1,4.1,8.1,2.6c2.9-1.5,4.1-5.1,2.6-8.1
			c-2.9-5.6-9.5-20.2-9.5-36.2c0-41,33.4-74.4,74.4-74.4c41,0,74.4,33.4,74.4,74.4c0,41-33.4,74.4-74.4,74.4
			c-16,0-28.8-5.6-33.5-7.9c-1.4-0.7-3-0.8-4.5-0.4l-37.8,12.1c-3.2,1-4.9,4.4-3.9,7.5c0.8,2.5,3.2,4.2,5.7,4.2
			c0.6,0,1.2-0.1,1.8-0.3l35.5-11.3c7.4,3.5,20.5,8.1,36.7,8.1c47.6,0,86.4-38.7,86.4-86.4C172.7,42.1,134,3.3,86.4,3.3L86.4,3.3z
			 M86.4,3.3"/>
		<path d="M69.3,75c-2.6,2-3.1,5.8-1.1,8.4c2,2.6,5.8,3.1,8.4,1.1c1.8-1.4,6.7-5.2,6-11.9c-0.4-4-4.3-9.5-7.5-13.4
			c-4.7-5.7-8.6-9.1-11.7-10c-2.9-0.9-5.9-0.8-8.9,0.4c-6.1,2.4-10.4,6.5-12.5,11.7c-2,5.1-1.6,10.8,1,16.4
			C49.4,91,57.8,102.4,68,111.7c0,0,0.1,0.1,0.1,0.1c10.4,9.2,22.7,16.3,36.5,21c2.6,0.9,5.2,1.4,7.7,1.4c3.1,0,6.1-0.7,8.8-2.1
			c4.9-2.6,8.5-7.3,10.3-13.7c0.8-3.1,0.7-6.1-0.6-8.8c-1.3-3-5.1-6.5-11.3-10.6c-4.2-2.7-10.1-6-14.1-6h0c-6.7,0-9.9,5.3-11.1,7.3
			c-1.7,2.8-0.8,6.5,2,8.2c2.8,1.7,6.5,0.8,8.2-2c0.5-0.8,0.8-1.2,1-1.4c3.4,1,12.5,6.9,14.3,9.4c0,0.1,0,0.3-0.1,0.7
			c-0.6,2.1-1.8,5-4.3,6.3c-2.3,1.2-5.1,0.7-6.9,0c-12.3-4.2-23.2-10.5-32.4-18.6c0,0,0,0,0,0C67,94.6,59.6,84.5,54,72.7
			c-0.9-1.8-1.7-4.5-0.7-6.9c1-2.6,3.7-4.1,5.7-4.9c0.4-0.1,0.6-0.2,0.7-0.1c2.7,1.6,9.6,9.9,10.9,13.2C70.4,74.1,70.1,74.4,69.3,75
			L69.3,75z M69.3,75"/>
	</g>
</g>
</svg>
