<?xml version="1.0" encoding="utf-8"?>
<!-- Generator: Adobe Illustrator 22.1.0, SVG Export Plug-In . SVG Version: 6.00 Build 0)  -->
<svg version="1.1" id="Слой_1" xmlns="http://www.w3.org/2000/svg" xmlns:xlink="http://www.w3.org/1999/xlink" x="0px" y="0px"
	 viewBox="0 0 203.5 101.2" style="enable-background:new 0 0 203.5 101.2;" xml:space="preserve">
<style type="text/css">
	.st0{fill:#16110D;}
	.st1{fill:#FFEC00;stroke:#000000;stroke-width:0.5;stroke-miterlimit:10;}
	.st2{fill:#FFFFFF;}
	.st3{fill:#FFFFFF;stroke:#000000;stroke-width:0.5;stroke-miterlimit:10;}
	.st4{fill:#FFFFFF;stroke:#000000;stroke-miterlimit:10;}
	.st5{fill:#FFEB00;}
	.st6{stroke:#000000;stroke-width:0.5;stroke-miterlimit:10;}
	.st7{fill:#020202;stroke:#000000;stroke-width:0.5;stroke-miterlimit:10;}
</style>
<g>
	<g>
		<g>
			<g>
				<ellipse transform="matrix(0.8053 -0.5929 0.5929 0.8053 -45.5988 23.2346)" class="st0" cx="12.6" cy="81" rx="0.6" ry="0.4"/>
				<ellipse transform="matrix(0.8053 -0.5929 0.5929 0.8053 -45.03 24.9667)" class="st0" cx="15.5" cy="81" rx="0.6" ry="0.4"/>
				<ellipse transform="matrix(0.8053 -0.5929 0.5929 0.8053 -44.4612 26.6988)" class="st0" cx="18.4" cy="81" rx="0.6" ry="0.4"/>
				<ellipse transform="matrix(0.8053 -0.5929 0.5929 0.8053 -43.8923 28.4308)" class="st0" cx="21.3" cy="81" rx="0.6" ry="0.4"/>
				<ellipse transform="matrix(0.8053 -0.5929 0.5929 0.8053 -43.3235 30.1629)" class="st0" cx="24.3" cy="81" rx="0.6" ry="0.4"/>
				<ellipse transform="matrix(0.8053 -0.5929 0.5929 0.8053 -42.7547 31.895)" class="st0" cx="27.2" cy="81" rx="0.6" ry="0.4"/>
				<ellipse transform="matrix(0.8053 -0.5929 0.5929 0.8053 -42.1858 33.6271)" class="st0" cx="30.1" cy="81" rx="0.6" ry="0.4"/>
				<ellipse transform="matrix(0.8053 -0.5929 0.5929 0.8053 -41.617 35.3592)" class="st0" cx="33" cy="81" rx="0.6" ry="0.4"/>
				<ellipse transform="matrix(0.8053 -0.5929 0.5929 0.8053 -41.0482 37.0913)" class="st0" cx="35.9" cy="81" rx="0.6" ry="0.4"/>
				<ellipse transform="matrix(0.8053 -0.5929 0.5929 0.8053 -40.4794 38.8233)" class="st0" cx="38.9" cy="81" rx="0.6" ry="0.4"/>
				<ellipse transform="matrix(0.8053 -0.5929 0.5929 0.8053 -39.9105 40.5554)" class="st0" cx="41.8" cy="81" rx="0.6" ry="0.4"/>
				<ellipse transform="matrix(0.8053 -0.5929 0.5929 0.8053 -39.3417 42.2875)" class="st0" cx="44.7" cy="81" rx="0.6" ry="0.4"/>
				<ellipse transform="matrix(0.8053 -0.5929 0.5929 0.8053 -38.7729 44.0196)" class="st0" cx="47.6" cy="81" rx="0.6" ry="0.4"/>
				<ellipse transform="matrix(0.8053 -0.5929 0.5929 0.8053 -38.204 45.7517)" class="st0" cx="50.6" cy="81" rx="0.6" ry="0.4"/>
				<ellipse transform="matrix(0.8053 -0.5929 0.5929 0.8053 -37.6352 47.4838)" class="st0" cx="53.5" cy="81" rx="0.6" ry="0.4"/>
				<ellipse transform="matrix(0.8053 -0.5929 0.5929 0.8053 -37.0664 49.2158)" class="st0" cx="56.4" cy="81" rx="0.6" ry="0.4"/>
				<ellipse transform="matrix(0.8053 -0.5929 0.5929 0.8053 -36.4975 50.9479)" class="st0" cx="59.3" cy="81" rx="0.6" ry="0.4"/>
				<ellipse transform="matrix(0.8053 -0.5929 0.5929 0.8053 -35.9287 52.68)" class="st0" cx="62.2" cy="81" rx="0.6" ry="0.4"/>
				<ellipse transform="matrix(0.8053 -0.5929 0.5929 0.8053 -35.3599 54.4121)" class="st0" cx="65.2" cy="81" rx="0.6" ry="0.4"/>
				<ellipse transform="matrix(0.8053 -0.5929 0.5929 0.8053 -34.791 56.1442)" class="st0" cx="68.1" cy="81" rx="0.6" ry="0.4"/>
				<ellipse transform="matrix(0.8053 -0.5929 0.5929 0.8053 -34.2222 57.8763)" class="st0" cx="71" cy="81" rx="0.6" ry="0.4"/>
				<ellipse transform="matrix(0.8053 -0.5929 0.5929 0.8053 -33.6534 59.6083)" class="st0" cx="73.9" cy="81" rx="0.6" ry="0.4"/>
				<ellipse transform="matrix(0.8053 -0.5929 0.5929 0.8053 -33.0846 61.3404)" class="st0" cx="76.8" cy="81" rx="0.6" ry="0.4"/>
				<ellipse transform="matrix(0.8053 -0.5929 0.5929 0.8053 -32.5157 63.0725)" class="st0" cx="79.8" cy="81" rx="0.6" ry="0.4"/>
				<ellipse transform="matrix(0.8053 -0.5929 0.5929 0.8053 -31.9469 64.8046)" class="st0" cx="82.7" cy="81" rx="0.6" ry="0.4"/>
				<ellipse transform="matrix(0.8053 -0.5929 0.5929 0.8053 -31.3781 66.5367)" class="st0" cx="85.6" cy="81" rx="0.6" ry="0.4"/>
				<ellipse transform="matrix(0.8053 -0.5929 0.5929 0.8053 -30.8092 68.2688)" class="st0" cx="88.5" cy="81" rx="0.6" ry="0.4"/>
				<ellipse transform="matrix(0.8053 -0.5929 0.5929 0.8053 -30.2404 70.0008)" class="st0" cx="91.5" cy="81" rx="0.6" ry="0.4"/>
				<ellipse transform="matrix(0.8053 -0.5929 0.5929 0.8053 -29.6716 71.7329)" class="st0" cx="94.4" cy="81" rx="0.6" ry="0.4"/>
				<ellipse transform="matrix(0.8053 -0.5929 0.5929 0.8053 -29.1027 73.465)" class="st0" cx="97.3" cy="81" rx="0.6" ry="0.4"/>
				
					<ellipse transform="matrix(0.8053 -0.5929 0.5929 0.8053 -28.5339 75.1971)" class="st0" cx="100.2" cy="81" rx="0.6" ry="0.4"/>
				
					<ellipse transform="matrix(0.8053 -0.5929 0.5929 0.8053 -27.9651 76.9292)" class="st0" cx="103.1" cy="81" rx="0.6" ry="0.4"/>
				
					<ellipse transform="matrix(0.8053 -0.5929 0.5929 0.8053 -27.3962 78.6613)" class="st0" cx="106.1" cy="81" rx="0.6" ry="0.4"/>
				<ellipse transform="matrix(0.8053 -0.5929 0.5929 0.8053 -26.8274 80.3933)" class="st0" cx="109" cy="81" rx="0.6" ry="0.4"/>
				
					<ellipse transform="matrix(0.8053 -0.5929 0.5929 0.8053 -26.2586 82.1254)" class="st0" cx="111.9" cy="81" rx="0.6" ry="0.4"/>
				
					<ellipse transform="matrix(0.8053 -0.5929 0.5929 0.8053 -25.6898 83.8575)" class="st0" cx="114.8" cy="81" rx="0.6" ry="0.4"/>
				
					<ellipse transform="matrix(0.8053 -0.5929 0.5929 0.8053 -25.1209 85.5896)" class="st0" cx="117.7" cy="81" rx="0.6" ry="0.4"/>
				
					<ellipse transform="matrix(0.8053 -0.5929 0.5929 0.8053 -24.5521 87.3217)" class="st0" cx="120.7" cy="81" rx="0.6" ry="0.4"/>
				
					<ellipse transform="matrix(0.8053 -0.5929 0.5929 0.8053 -23.9833 89.0537)" class="st0" cx="123.6" cy="81" rx="0.6" ry="0.4"/>
				
					<ellipse transform="matrix(0.8053 -0.5929 0.5929 0.8053 -23.4144 90.7858)" class="st0" cx="126.5" cy="81" rx="0.6" ry="0.4"/>
				
					<ellipse transform="matrix(0.8053 -0.5929 0.5929 0.8053 -22.8456 92.5179)" class="st0" cx="129.4" cy="81" rx="0.6" ry="0.4"/>
				<ellipse transform="matrix(0.8053 -0.5929 0.5929 0.8053 -22.2768 94.25)" class="st0" cx="132.4" cy="81" rx="0.6" ry="0.4"/>
				
					<ellipse transform="matrix(0.8053 -0.5929 0.5929 0.8053 -21.7079 95.9821)" class="st0" cx="135.3" cy="81" rx="0.6" ry="0.4"/>
				
					<ellipse transform="matrix(0.8053 -0.5929 0.5929 0.8053 -21.1391 97.7142)" class="st0" cx="138.2" cy="81" rx="0.6" ry="0.4"/>
				
					<ellipse transform="matrix(0.8053 -0.5929 0.5929 0.8053 -20.5703 99.4463)" class="st0" cx="141.1" cy="81" rx="0.6" ry="0.4"/>
				<ellipse transform="matrix(0.8053 -0.5929 0.5929 0.8053 -20.0015 101.1783)" class="st0" cx="144" cy="81" rx="0.6" ry="0.4"/>
				<ellipse transform="matrix(0.8053 -0.5929 0.5929 0.8053 -19.4326 102.9104)" class="st0" cx="147" cy="81" rx="0.6" ry="0.4"/>
				
					<ellipse transform="matrix(0.8053 -0.5929 0.5929 0.8053 -18.8638 104.6425)" class="st0" cx="149.9" cy="81" rx="0.6" ry="0.4"/>
				
					<ellipse transform="matrix(0.8053 -0.5929 0.5929 0.8053 -18.295 106.3746)" class="st0" cx="152.8" cy="81" rx="0.6" ry="0.4"/>
				
					<ellipse transform="matrix(0.8053 -0.5929 0.5929 0.8053 -17.7261 108.1067)" class="st0" cx="155.7" cy="81" rx="0.6" ry="0.4"/>
				
					<ellipse transform="matrix(0.8053 -0.5929 0.5929 0.8053 -17.1573 109.8388)" class="st0" cx="158.7" cy="81" rx="0.6" ry="0.4"/>
				
					<ellipse transform="matrix(0.8053 -0.5929 0.5929 0.8053 -16.5885 111.5708)" class="st0" cx="161.6" cy="81" rx="0.6" ry="0.4"/>
			</g>
			<g>
				
					<ellipse transform="matrix(0.8053 -0.5929 0.5929 0.8053 -47.224 22.3831)" class="st0" cx="10.5" cy="83.1" rx="0.6" ry="0.4"/>
				
					<ellipse transform="matrix(0.8053 -0.5929 0.5929 0.8053 -46.6552 24.1152)" class="st0" cx="13.4" cy="83.1" rx="0.6" ry="0.4"/>
				
					<ellipse transform="matrix(0.8053 -0.5929 0.5929 0.8053 -46.0863 25.8473)" class="st0" cx="16.3" cy="83.1" rx="0.6" ry="0.4"/>
				
					<ellipse transform="matrix(0.8053 -0.5929 0.5929 0.8053 -45.5175 27.5794)" class="st0" cx="19.2" cy="83.1" rx="0.6" ry="0.4"/>
				
					<ellipse transform="matrix(0.8053 -0.5929 0.5929 0.8053 -44.9487 29.3114)" class="st0" cx="22.2" cy="83.1" rx="0.6" ry="0.4"/>
				
					<ellipse transform="matrix(0.8053 -0.5929 0.5929 0.8053 -44.3798 31.0435)" class="st0" cx="25.1" cy="83.1" rx="0.6" ry="0.4"/>
				<ellipse transform="matrix(0.8053 -0.5929 0.5929 0.8053 -43.811 32.7756)" class="st0" cx="28" cy="83.1" rx="0.6" ry="0.4"/>
				
					<ellipse transform="matrix(0.8053 -0.5929 0.5929 0.8053 -43.2422 34.5077)" class="st0" cx="30.9" cy="83.1" rx="0.6" ry="0.4"/>
				
					<ellipse transform="matrix(0.8053 -0.5929 0.5929 0.8053 -42.6734 36.2398)" class="st0" cx="33.8" cy="83.1" rx="0.6" ry="0.4"/>
				
					<ellipse transform="matrix(0.8053 -0.5929 0.5929 0.8053 -42.1045 37.9719)" class="st0" cx="36.8" cy="83.1" rx="0.6" ry="0.4"/>
				
					<ellipse transform="matrix(0.8053 -0.5929 0.5929 0.8053 -41.5357 39.7039)" class="st0" cx="39.7" cy="83.1" rx="0.6" ry="0.4"/>
				
					<ellipse transform="matrix(0.8053 -0.5929 0.5929 0.8053 -40.9669 41.436)" class="st0" cx="42.6" cy="83.1" rx="0.6" ry="0.4"/>
				
					<ellipse transform="matrix(0.8053 -0.5929 0.5929 0.8053 -40.398 43.1681)" class="st0" cx="45.5" cy="83.1" rx="0.6" ry="0.4"/>
				
					<ellipse transform="matrix(0.8053 -0.5929 0.5929 0.8053 -39.8292 44.9002)" class="st0" cx="48.4" cy="83.1" rx="0.6" ry="0.4"/>
				
					<ellipse transform="matrix(0.8053 -0.5929 0.5929 0.8053 -39.2604 46.6323)" class="st0" cx="51.4" cy="83.1" rx="0.6" ry="0.4"/>
				
					<ellipse transform="matrix(0.8053 -0.5929 0.5929 0.8053 -38.6915 48.3644)" class="st0" cx="54.3" cy="83.1" rx="0.6" ry="0.4"/>
				
					<ellipse transform="matrix(0.8053 -0.5929 0.5929 0.8053 -38.1227 50.0964)" class="st0" cx="57.2" cy="83.1" rx="0.6" ry="0.4"/>
				
					<ellipse transform="matrix(0.8053 -0.5929 0.5929 0.8053 -37.5539 51.8285)" class="st0" cx="60.1" cy="83.1" rx="0.6" ry="0.4"/>
				
					<ellipse transform="matrix(0.8053 -0.5929 0.5929 0.8053 -36.9851 53.5606)" class="st0" cx="63.1" cy="83.1" rx="0.6" ry="0.4"/>
				<ellipse transform="matrix(0.8053 -0.5929 0.5929 0.8053 -36.4162 55.2927)" class="st0" cx="66" cy="83.1" rx="0.6" ry="0.4"/>
				
					<ellipse transform="matrix(0.8053 -0.5929 0.5929 0.8053 -35.8474 57.0248)" class="st0" cx="68.9" cy="83.1" rx="0.6" ry="0.4"/>
				
					<ellipse transform="matrix(0.8053 -0.5929 0.5929 0.8053 -35.2786 58.7569)" class="st0" cx="71.8" cy="83.1" rx="0.6" ry="0.4"/>
				
					<ellipse transform="matrix(0.8053 -0.5929 0.5929 0.8053 -34.7097 60.4889)" class="st0" cx="74.7" cy="83.1" rx="0.6" ry="0.4"/>
				
					<ellipse transform="matrix(0.8053 -0.5929 0.5929 0.8053 -34.1409 62.221)" class="st0" cx="77.7" cy="83.1" rx="0.6" ry="0.4"/>
				
					<ellipse transform="matrix(0.8053 -0.5929 0.5929 0.8053 -33.5721 63.9531)" class="st0" cx="80.6" cy="83.1" rx="0.6" ry="0.4"/>
				
					<ellipse transform="matrix(0.8053 -0.5929 0.5929 0.8053 -33.0032 65.6852)" class="st0" cx="83.5" cy="83.1" rx="0.6" ry="0.4"/>
				
					<ellipse transform="matrix(0.8053 -0.5929 0.5929 0.8053 -32.4344 67.4173)" class="st0" cx="86.4" cy="83.1" rx="0.6" ry="0.4"/>
				
					<ellipse transform="matrix(0.8053 -0.5929 0.5929 0.8053 -31.8656 69.1494)" class="st0" cx="89.3" cy="83.1" rx="0.6" ry="0.4"/>
				
					<ellipse transform="matrix(0.8053 -0.5929 0.5929 0.8053 -31.2967 70.8814)" class="st0" cx="92.3" cy="83.1" rx="0.6" ry="0.4"/>
				
					<ellipse transform="matrix(0.8053 -0.5929 0.5929 0.8053 -30.7279 72.6135)" class="st0" cx="95.2" cy="83.1" rx="0.6" ry="0.4"/>
				
					<ellipse transform="matrix(0.8053 -0.5929 0.5929 0.8053 -30.1591 74.3456)" class="st0" cx="98.1" cy="83.1" rx="0.6" ry="0.4"/>
				
					<ellipse transform="matrix(0.8053 -0.5929 0.5929 0.8053 -29.5903 76.0777)" class="st0" cx="101" cy="83.1" rx="0.6" ry="0.4"/>
				
					<ellipse transform="matrix(0.8053 -0.5929 0.5929 0.8053 -29.0214 77.8098)" class="st0" cx="104" cy="83.1" rx="0.6" ry="0.4"/>
				
					<ellipse transform="matrix(0.8053 -0.5929 0.5929 0.8053 -28.4526 79.5418)" class="st0" cx="106.9" cy="83.1" rx="0.6" ry="0.4"/>
				
					<ellipse transform="matrix(0.8053 -0.5929 0.5929 0.8053 -27.8838 81.2739)" class="st0" cx="109.8" cy="83.1" rx="0.6" ry="0.4"/>
				
					<ellipse transform="matrix(0.8053 -0.5929 0.5929 0.8053 -27.3149 83.006)" class="st0" cx="112.7" cy="83.1" rx="0.6" ry="0.4"/>
				
					<ellipse transform="matrix(0.8053 -0.5929 0.5929 0.8053 -26.7461 84.7381)" class="st0" cx="115.6" cy="83.1" rx="0.6" ry="0.4"/>
				
					<ellipse transform="matrix(0.8053 -0.5929 0.5929 0.8053 -26.1773 86.4702)" class="st0" cx="118.6" cy="83.1" rx="0.6" ry="0.4"/>
				
					<ellipse transform="matrix(0.8053 -0.5929 0.5929 0.8053 -25.6084 88.2023)" class="st0" cx="121.5" cy="83.1" rx="0.6" ry="0.4"/>
				
					<ellipse transform="matrix(0.8053 -0.5929 0.5929 0.8053 -25.0396 89.9343)" class="st0" cx="124.4" cy="83.1" rx="0.6" ry="0.4"/>
				
					<ellipse transform="matrix(0.8053 -0.5929 0.5929 0.8053 -24.4708 91.6664)" class="st0" cx="127.3" cy="83.1" rx="0.6" ry="0.4"/>
				
					<ellipse transform="matrix(0.8053 -0.5929 0.5929 0.8053 -23.9019 93.3985)" class="st0" cx="130.2" cy="83.1" rx="0.6" ry="0.4"/>
				
					<ellipse transform="matrix(0.8053 -0.5929 0.5929 0.8053 -23.3331 95.1306)" class="st0" cx="133.2" cy="83.1" rx="0.6" ry="0.4"/>
				
					<ellipse transform="matrix(0.8053 -0.5929 0.5929 0.8053 -22.7643 96.8627)" class="st0" cx="136.1" cy="83.1" rx="0.6" ry="0.4"/>
				
					<ellipse transform="matrix(0.8053 -0.5929 0.5929 0.8053 -22.1955 98.5948)" class="st0" cx="139" cy="83.1" rx="0.6" ry="0.4"/>
				
					<ellipse transform="matrix(0.8053 -0.5929 0.5929 0.8053 -21.6266 100.3268)" class="st0" cx="141.9" cy="83.1" rx="0.6" ry="0.4"/>
				
					<ellipse transform="matrix(0.8053 -0.5929 0.5929 0.8053 -21.0578 102.0589)" class="st0" cx="144.9" cy="83.1" rx="0.6" ry="0.4"/>
				
					<ellipse transform="matrix(0.8053 -0.5929 0.5929 0.8053 -20.489 103.791)" class="st0" cx="147.8" cy="83.1" rx="0.6" ry="0.4"/>
				
					<ellipse transform="matrix(0.8053 -0.5929 0.5929 0.8053 -19.9201 105.5231)" class="st0" cx="150.7" cy="83.1" rx="0.6" ry="0.4"/>
				
					<ellipse transform="matrix(0.8053 -0.5929 0.5929 0.8053 -19.3513 107.2552)" class="st0" cx="153.6" cy="83.1" rx="0.6" ry="0.4"/>
				
					<ellipse transform="matrix(0.8053 -0.5929 0.5929 0.8053 -18.7825 108.9873)" class="st0" cx="156.5" cy="83.1" rx="0.6" ry="0.4"/>
				
					<ellipse transform="matrix(0.8053 -0.5929 0.5929 0.8053 -18.2136 110.7193)" class="st0" cx="159.5" cy="83.1" rx="0.6" ry="0.4"/>
			</g>
			<g>
				<ellipse transform="matrix(0.8053 -0.5929 0.5929 0.8053 -48.838 21.5655)" class="st0" cx="8.4" cy="85.1" rx="0.6" ry="0.4"/>
				
					<ellipse transform="matrix(0.8053 -0.5929 0.5929 0.8053 -48.2692 23.2976)" class="st0" cx="11.3" cy="85.1" rx="0.6" ry="0.4"/>
				
					<ellipse transform="matrix(0.8053 -0.5929 0.5929 0.8053 -47.7004 25.0297)" class="st0" cx="14.3" cy="85.1" rx="0.6" ry="0.4"/>
				
					<ellipse transform="matrix(0.8053 -0.5929 0.5929 0.8053 -47.1316 26.7617)" class="st0" cx="17.2" cy="85.1" rx="0.6" ry="0.4"/>
				
					<ellipse transform="matrix(0.8053 -0.5929 0.5929 0.8053 -46.5627 28.4938)" class="st0" cx="20.1" cy="85.1" rx="0.6" ry="0.4"/>
				<ellipse transform="matrix(0.8053 -0.5929 0.5929 0.8053 -45.9939 30.2259)" class="st0" cx="23" cy="85.1" rx="0.6" ry="0.4"/>
				
					<ellipse transform="matrix(0.8053 -0.5929 0.5929 0.8053 -45.4251 31.958)" class="st0" cx="25.9" cy="85.1" rx="0.6" ry="0.4"/>
				
					<ellipse transform="matrix(0.8053 -0.5929 0.5929 0.8053 -44.8562 33.6901)" class="st0" cx="28.9" cy="85.1" rx="0.6" ry="0.4"/>
				
					<ellipse transform="matrix(0.8053 -0.5929 0.5929 0.8053 -44.2874 35.4222)" class="st0" cx="31.8" cy="85.1" rx="0.6" ry="0.4"/>
				
					<ellipse transform="matrix(0.8053 -0.5929 0.5929 0.8053 -43.7186 37.1542)" class="st0" cx="34.7" cy="85.1" rx="0.6" ry="0.4"/>
				
					<ellipse transform="matrix(0.8053 -0.5929 0.5929 0.8053 -43.1497 38.8863)" class="st0" cx="37.6" cy="85.1" rx="0.6" ry="0.4"/>
				
					<ellipse transform="matrix(0.8053 -0.5929 0.5929 0.8053 -42.5809 40.6184)" class="st0" cx="40.6" cy="85.1" rx="0.6" ry="0.4"/>
				
					<ellipse transform="matrix(0.8053 -0.5929 0.5929 0.8053 -42.0121 42.3505)" class="st0" cx="43.5" cy="85.1" rx="0.6" ry="0.4"/>
				
					<ellipse transform="matrix(0.8053 -0.5929 0.5929 0.8053 -41.4432 44.0826)" class="st0" cx="46.4" cy="85.1" rx="0.6" ry="0.4"/>
				
					<ellipse transform="matrix(0.8053 -0.5929 0.5929 0.8053 -40.8744 45.8147)" class="st0" cx="49.3" cy="85.1" rx="0.6" ry="0.4"/>
				
					<ellipse transform="matrix(0.8053 -0.5929 0.5929 0.8053 -40.3056 47.5467)" class="st0" cx="52.2" cy="85.1" rx="0.6" ry="0.4"/>
				
					<ellipse transform="matrix(0.8053 -0.5929 0.5929 0.8053 -39.7368 49.2788)" class="st0" cx="55.2" cy="85.1" rx="0.6" ry="0.4"/>
				
					<ellipse transform="matrix(0.8053 -0.5929 0.5929 0.8053 -39.1679 51.0109)" class="st0" cx="58.1" cy="85.1" rx="0.6" ry="0.4"/>
				<ellipse transform="matrix(0.8053 -0.5929 0.5929 0.8053 -38.5991 52.743)" class="st0" cx="61" cy="85.1" rx="0.6" ry="0.4"/>
				
					<ellipse transform="matrix(0.8053 -0.5929 0.5929 0.8053 -38.0303 54.4751)" class="st0" cx="63.9" cy="85.1" rx="0.6" ry="0.4"/>
				
					<ellipse transform="matrix(0.8053 -0.5929 0.5929 0.8053 -37.4614 56.2072)" class="st0" cx="66.8" cy="85.1" rx="0.6" ry="0.4"/>
				
					<ellipse transform="matrix(0.8053 -0.5929 0.5929 0.8053 -36.8926 57.9392)" class="st0" cx="69.8" cy="85.1" rx="0.6" ry="0.4"/>
				
					<ellipse transform="matrix(0.8053 -0.5929 0.5929 0.8053 -36.3238 59.6713)" class="st0" cx="72.7" cy="85.1" rx="0.6" ry="0.4"/>
				
					<ellipse transform="matrix(0.8053 -0.5929 0.5929 0.8053 -35.7549 61.4034)" class="st0" cx="75.6" cy="85.1" rx="0.6" ry="0.4"/>
				
					<ellipse transform="matrix(0.8053 -0.5929 0.5929 0.8053 -35.1861 63.1355)" class="st0" cx="78.5" cy="85.1" rx="0.6" ry="0.4"/>
				
					<ellipse transform="matrix(0.8053 -0.5929 0.5929 0.8053 -34.6173 64.8676)" class="st0" cx="81.5" cy="85.1" rx="0.6" ry="0.4"/>
				
					<ellipse transform="matrix(0.8053 -0.5929 0.5929 0.8053 -34.0485 66.5997)" class="st0" cx="84.4" cy="85.1" rx="0.6" ry="0.4"/>
				
					<ellipse transform="matrix(0.8053 -0.5929 0.5929 0.8053 -33.4796 68.3317)" class="st0" cx="87.3" cy="85.1" rx="0.6" ry="0.4"/>
				
					<ellipse transform="matrix(0.8053 -0.5929 0.5929 0.8053 -32.9108 70.0638)" class="st0" cx="90.2" cy="85.1" rx="0.6" ry="0.4"/>
				
					<ellipse transform="matrix(0.8053 -0.5929 0.5929 0.8053 -32.342 71.7959)" class="st0" cx="93.1" cy="85.1" rx="0.6" ry="0.4"/>
				
					<ellipse transform="matrix(0.8053 -0.5929 0.5929 0.8053 -31.7731 73.528)" class="st0" cx="96.1" cy="85.1" rx="0.6" ry="0.4"/>
				<ellipse transform="matrix(0.8053 -0.5929 0.5929 0.8053 -31.2043 75.2601)" class="st0" cx="99" cy="85.1" rx="0.6" ry="0.4"/>
				
					<ellipse transform="matrix(0.8053 -0.5929 0.5929 0.8053 -30.6355 76.9922)" class="st0" cx="101.9" cy="85.1" rx="0.6" ry="0.4"/>
				
					<ellipse transform="matrix(0.8053 -0.5929 0.5929 0.8053 -30.0666 78.7242)" class="st0" cx="104.8" cy="85.1" rx="0.6" ry="0.4"/>
				
					<ellipse transform="matrix(0.8053 -0.5929 0.5929 0.8053 -29.4978 80.4563)" class="st0" cx="107.7" cy="85.1" rx="0.6" ry="0.4"/>
				
					<ellipse transform="matrix(0.8053 -0.5929 0.5929 0.8053 -28.929 82.1884)" class="st0" cx="110.7" cy="85.1" rx="0.6" ry="0.4"/>
				
					<ellipse transform="matrix(0.8053 -0.5929 0.5929 0.8053 -28.3601 83.9205)" class="st0" cx="113.6" cy="85.1" rx="0.6" ry="0.4"/>
				
					<ellipse transform="matrix(0.8053 -0.5929 0.5929 0.8053 -27.7913 85.6526)" class="st0" cx="116.5" cy="85.1" rx="0.6" ry="0.4"/>
				
					<ellipse transform="matrix(0.8053 -0.5929 0.5929 0.8053 -27.2225 87.3847)" class="st0" cx="119.4" cy="85.1" rx="0.6" ry="0.4"/>
				
					<ellipse transform="matrix(0.8053 -0.5929 0.5929 0.8053 -26.6537 89.1167)" class="st0" cx="122.4" cy="85.1" rx="0.6" ry="0.4"/>
				
					<ellipse transform="matrix(0.8053 -0.5929 0.5929 0.8053 -26.0848 90.8488)" class="st0" cx="125.3" cy="85.1" rx="0.6" ry="0.4"/>
				
					<ellipse transform="matrix(0.8053 -0.5929 0.5929 0.8053 -25.516 92.5809)" class="st0" cx="128.2" cy="85.1" rx="0.6" ry="0.4"/>
				
					<ellipse transform="matrix(0.8053 -0.5929 0.5929 0.8053 -24.9472 94.313)" class="st0" cx="131.1" cy="85.1" rx="0.6" ry="0.4"/>
				
					<ellipse transform="matrix(0.8053 -0.5929 0.5929 0.8053 -24.3783 96.0451)" class="st0" cx="134" cy="85.1" rx="0.6" ry="0.4"/>
				
					<ellipse transform="matrix(0.8053 -0.5929 0.5929 0.8053 -23.8095 97.7772)" class="st0" cx="137" cy="85.1" rx="0.6" ry="0.4"/>
				
					<ellipse transform="matrix(0.8053 -0.5929 0.5929 0.8053 -23.2407 99.5092)" class="st0" cx="139.9" cy="85.1" rx="0.6" ry="0.4"/>
				
					<ellipse transform="matrix(0.8053 -0.5929 0.5929 0.8053 -22.6718 101.2413)" class="st0" cx="142.8" cy="85.1" rx="0.6" ry="0.4"/>
				
					<ellipse transform="matrix(0.8053 -0.5929 0.5929 0.8053 -22.103 102.9734)" class="st0" cx="145.7" cy="85.1" rx="0.6" ry="0.4"/>
				
					<ellipse transform="matrix(0.8053 -0.5929 0.5929 0.8053 -21.5342 104.7055)" class="st0" cx="148.6" cy="85.1" rx="0.6" ry="0.4"/>
				
					<ellipse transform="matrix(0.8053 -0.5929 0.5929 0.8053 -20.9654 106.4376)" class="st0" cx="151.6" cy="85.1" rx="0.6" ry="0.4"/>
				
					<ellipse transform="matrix(0.8053 -0.5929 0.5929 0.8053 -20.3965 108.1697)" class="st0" cx="154.5" cy="85.1" rx="0.6" ry="0.4"/>
				
					<ellipse transform="matrix(0.8053 -0.5929 0.5929 0.8053 -19.8277 109.9017)" class="st0" cx="157.4" cy="85.1" rx="0.6" ry="0.4"/>
			</g>
			<g>
				
					<ellipse transform="matrix(0.8053 -0.5929 0.5929 0.8053 -50.3945 20.9234)" class="st0" cx="6.7" cy="87.2" rx="0.6" ry="0.4"/>
				
					<ellipse transform="matrix(0.8053 -0.5929 0.5929 0.8053 -49.8256 22.6554)" class="st0" cx="9.6" cy="87.2" rx="0.6" ry="0.4"/>
				
					<ellipse transform="matrix(0.8053 -0.5929 0.5929 0.8053 -49.2568 24.3875)" class="st0" cx="12.5" cy="87.2" rx="0.6" ry="0.4"/>
				
					<ellipse transform="matrix(0.8053 -0.5929 0.5929 0.8053 -48.688 26.1196)" class="st0" cx="15.4" cy="87.2" rx="0.6" ry="0.4"/>
				
					<ellipse transform="matrix(0.8053 -0.5929 0.5929 0.8053 -48.1191 27.8517)" class="st0" cx="18.3" cy="87.2" rx="0.6" ry="0.4"/>
				
					<ellipse transform="matrix(0.8053 -0.5929 0.5929 0.8053 -47.5503 29.5838)" class="st0" cx="21.3" cy="87.2" rx="0.6" ry="0.4"/>
				
					<ellipse transform="matrix(0.8053 -0.5929 0.5929 0.8053 -46.9815 31.3159)" class="st0" cx="24.2" cy="87.2" rx="0.6" ry="0.4"/>
				
					<ellipse transform="matrix(0.8053 -0.5929 0.5929 0.8053 -46.4127 33.0479)" class="st0" cx="27.1" cy="87.2" rx="0.6" ry="0.4"/>
				<ellipse transform="matrix(0.8053 -0.5929 0.5929 0.8053 -45.8438 34.78)" class="st0" cx="30" cy="87.2" rx="0.6" ry="0.4"/>
				<ellipse transform="matrix(0.8053 -0.5929 0.5929 0.8053 -45.275 36.5121)" class="st0" cx="33" cy="87.2" rx="0.6" ry="0.4"/>
				
					<ellipse transform="matrix(0.8053 -0.5929 0.5929 0.8053 -44.7062 38.2442)" class="st0" cx="35.9" cy="87.2" rx="0.6" ry="0.4"/>
				
					<ellipse transform="matrix(0.8053 -0.5929 0.5929 0.8053 -44.1373 39.9763)" class="st0" cx="38.8" cy="87.2" rx="0.6" ry="0.4"/>
				
					<ellipse transform="matrix(0.8053 -0.5929 0.5929 0.8053 -43.5685 41.7084)" class="st0" cx="41.7" cy="87.2" rx="0.6" ry="0.4"/>
				
					<ellipse transform="matrix(0.8053 -0.5929 0.5929 0.8053 -42.9997 43.4404)" class="st0" cx="44.6" cy="87.2" rx="0.6" ry="0.4"/>
				
					<ellipse transform="matrix(0.8053 -0.5929 0.5929 0.8053 -42.4308 45.1725)" class="st0" cx="47.6" cy="87.2" rx="0.6" ry="0.4"/>
				
					<ellipse transform="matrix(0.8053 -0.5929 0.5929 0.8053 -41.862 46.9046)" class="st0" cx="50.5" cy="87.2" rx="0.6" ry="0.4"/>
				
					<ellipse transform="matrix(0.8053 -0.5929 0.5929 0.8053 -41.2932 48.6367)" class="st0" cx="53.4" cy="87.2" rx="0.6" ry="0.4"/>
				
					<ellipse transform="matrix(0.8053 -0.5929 0.5929 0.8053 -40.7243 50.3688)" class="st0" cx="56.3" cy="87.2" rx="0.6" ry="0.4"/>
				
					<ellipse transform="matrix(0.8053 -0.5929 0.5929 0.8053 -40.1555 52.1009)" class="st0" cx="59.2" cy="87.2" rx="0.6" ry="0.4"/>
				
					<ellipse transform="matrix(0.8053 -0.5929 0.5929 0.8053 -39.5867 53.8329)" class="st0" cx="62.2" cy="87.2" rx="0.6" ry="0.4"/>
				
					<ellipse transform="matrix(0.8053 -0.5929 0.5929 0.8053 -39.0179 55.565)" class="st0" cx="65.1" cy="87.2" rx="0.6" ry="0.4"/>
				<ellipse transform="matrix(0.8053 -0.5929 0.5929 0.8053 -38.449 57.2971)" class="st0" cx="68" cy="87.2" rx="0.6" ry="0.4"/>
				
					<ellipse transform="matrix(0.8053 -0.5929 0.5929 0.8053 -37.8802 59.0292)" class="st0" cx="70.9" cy="87.2" rx="0.6" ry="0.4"/>
				
					<ellipse transform="matrix(0.8053 -0.5929 0.5929 0.8053 -37.3114 60.7613)" class="st0" cx="73.9" cy="87.2" rx="0.6" ry="0.4"/>
				
					<ellipse transform="matrix(0.8053 -0.5929 0.5929 0.8053 -36.7425 62.4934)" class="st0" cx="76.8" cy="87.2" rx="0.6" ry="0.4"/>
				
					<ellipse transform="matrix(0.8053 -0.5929 0.5929 0.8053 -36.1737 64.2254)" class="st0" cx="79.7" cy="87.2" rx="0.6" ry="0.4"/>
				
					<ellipse transform="matrix(0.8053 -0.5929 0.5929 0.8053 -35.6049 65.9575)" class="st0" cx="82.6" cy="87.2" rx="0.6" ry="0.4"/>
				
					<ellipse transform="matrix(0.8053 -0.5929 0.5929 0.8053 -35.036 67.6896)" class="st0" cx="85.5" cy="87.2" rx="0.6" ry="0.4"/>
				
					<ellipse transform="matrix(0.8053 -0.5929 0.5929 0.8053 -34.4672 69.4217)" class="st0" cx="88.5" cy="87.2" rx="0.6" ry="0.4"/>
				
					<ellipse transform="matrix(0.8053 -0.5929 0.5929 0.8053 -33.8984 71.1538)" class="st0" cx="91.4" cy="87.2" rx="0.6" ry="0.4"/>
				
					<ellipse transform="matrix(0.8053 -0.5929 0.5929 0.8053 -33.3296 72.8858)" class="st0" cx="94.3" cy="87.2" rx="0.6" ry="0.4"/>
				
					<ellipse transform="matrix(0.8053 -0.5929 0.5929 0.8053 -32.7607 74.6179)" class="st0" cx="97.2" cy="87.2" rx="0.6" ry="0.4"/>
				
					<ellipse transform="matrix(0.8053 -0.5929 0.5929 0.8053 -32.1919 76.35)" class="st0" cx="100.1" cy="87.2" rx="0.6" ry="0.4"/>
				
					<ellipse transform="matrix(0.8053 -0.5929 0.5929 0.8053 -31.6231 78.0821)" class="st0" cx="103.1" cy="87.2" rx="0.6" ry="0.4"/>
				
					<ellipse transform="matrix(0.8053 -0.5929 0.5929 0.8053 -31.0542 79.8142)" class="st0" cx="106" cy="87.2" rx="0.6" ry="0.4"/>
				
					<ellipse transform="matrix(0.8053 -0.5929 0.5929 0.8053 -30.4854 81.5463)" class="st0" cx="108.9" cy="87.2" rx="0.6" ry="0.4"/>
				
					<ellipse transform="matrix(0.8053 -0.5929 0.5929 0.8053 -29.9166 83.2784)" class="st0" cx="111.8" cy="87.2" rx="0.6" ry="0.4"/>
				
					<ellipse transform="matrix(0.8053 -0.5929 0.5929 0.8053 -29.3477 85.0104)" class="st0" cx="114.8" cy="87.2" rx="0.6" ry="0.4"/>
				
					<ellipse transform="matrix(0.8053 -0.5929 0.5929 0.8053 -28.7789 86.7425)" class="st0" cx="117.7" cy="87.2" rx="0.6" ry="0.4"/>
				
					<ellipse transform="matrix(0.8053 -0.5929 0.5929 0.8053 -28.2101 88.4746)" class="st0" cx="120.6" cy="87.2" rx="0.6" ry="0.4"/>
				
					<ellipse transform="matrix(0.8053 -0.5929 0.5929 0.8053 -27.6412 90.2067)" class="st0" cx="123.5" cy="87.2" rx="0.6" ry="0.4"/>
				
					<ellipse transform="matrix(0.8053 -0.5929 0.5929 0.8053 -27.0724 91.9388)" class="st0" cx="126.4" cy="87.2" rx="0.6" ry="0.4"/>
				
					<ellipse transform="matrix(0.8053 -0.5929 0.5929 0.8053 -26.5036 93.6708)" class="st0" cx="129.4" cy="87.2" rx="0.6" ry="0.4"/>
				
					<ellipse transform="matrix(0.8053 -0.5929 0.5929 0.8053 -25.9348 95.4029)" class="st0" cx="132.3" cy="87.2" rx="0.6" ry="0.4"/>
				
					<ellipse transform="matrix(0.8053 -0.5929 0.5929 0.8053 -25.3659 97.135)" class="st0" cx="135.2" cy="87.2" rx="0.6" ry="0.4"/>
				
					<ellipse transform="matrix(0.8053 -0.5929 0.5929 0.8053 -24.7971 98.8671)" class="st0" cx="138.1" cy="87.2" rx="0.6" ry="0.4"/>
				
					<ellipse transform="matrix(0.8053 -0.5929 0.5929 0.8053 -24.2283 100.5992)" class="st0" cx="141" cy="87.2" rx="0.6" ry="0.4"/>
				
					<ellipse transform="matrix(0.8053 -0.5929 0.5929 0.8053 -23.6594 102.3313)" class="st0" cx="144" cy="87.2" rx="0.6" ry="0.4"/>
				
					<ellipse transform="matrix(0.8053 -0.5929 0.5929 0.8053 -23.0906 104.0633)" class="st0" cx="146.9" cy="87.2" rx="0.6" ry="0.4"/>
				
					<ellipse transform="matrix(0.8053 -0.5929 0.5929 0.8053 -22.5218 105.7954)" class="st0" cx="149.8" cy="87.2" rx="0.6" ry="0.4"/>
				
					<ellipse transform="matrix(0.8053 -0.5929 0.5929 0.8053 -21.9529 107.5275)" class="st0" cx="152.7" cy="87.2" rx="0.6" ry="0.4"/>
				
					<ellipse transform="matrix(0.8053 -0.5929 0.5929 0.8053 -21.3841 109.2596)" class="st0" cx="155.7" cy="87.2" rx="0.6" ry="0.4"/>
			</g>
			<g>
				
					<ellipse transform="matrix(0.8053 -0.5929 0.5929 0.8053 -52.0196 20.0719)" class="st0" cx="4.5" cy="89.2" rx="0.6" ry="0.4"/>
				<ellipse transform="matrix(0.8053 -0.5929 0.5929 0.8053 -51.4508 21.804)" class="st0" cx="7.5" cy="89.2" rx="0.6" ry="0.4"/>
				<ellipse transform="matrix(0.8053 -0.5929 0.5929 0.8053 -50.882 23.536)" class="st0" cx="10.4" cy="89.2" rx="0.6" ry="0.4"/>
				
					<ellipse transform="matrix(0.8053 -0.5929 0.5929 0.8053 -50.3131 25.2681)" class="st0" cx="13.3" cy="89.2" rx="0.6" ry="0.4"/>
				
					<ellipse transform="matrix(0.8053 -0.5929 0.5929 0.8053 -49.7443 27.0002)" class="st0" cx="16.2" cy="89.2" rx="0.6" ry="0.4"/>
				
					<ellipse transform="matrix(0.8053 -0.5929 0.5929 0.8053 -49.1755 28.7323)" class="st0" cx="19.2" cy="89.2" rx="0.6" ry="0.4"/>
				
					<ellipse transform="matrix(0.8053 -0.5929 0.5929 0.8053 -48.6067 30.4644)" class="st0" cx="22.1" cy="89.2" rx="0.6" ry="0.4"/>
				<ellipse transform="matrix(0.8053 -0.5929 0.5929 0.8053 -48.0378 32.1965)" class="st0" cx="25" cy="89.2" rx="0.6" ry="0.4"/>
				
					<ellipse transform="matrix(0.8053 -0.5929 0.5929 0.8053 -47.469 33.9285)" class="st0" cx="27.9" cy="89.2" rx="0.6" ry="0.4"/>
				
					<ellipse transform="matrix(0.8053 -0.5929 0.5929 0.8053 -46.9002 35.6606)" class="st0" cx="30.8" cy="89.2" rx="0.6" ry="0.4"/>
				
					<ellipse transform="matrix(0.8053 -0.5929 0.5929 0.8053 -46.3313 37.3927)" class="st0" cx="33.8" cy="89.2" rx="0.6" ry="0.4"/>
				
					<ellipse transform="matrix(0.8053 -0.5929 0.5929 0.8053 -45.7625 39.1248)" class="st0" cx="36.7" cy="89.2" rx="0.6" ry="0.4"/>
				
					<ellipse transform="matrix(0.8053 -0.5929 0.5929 0.8053 -45.1937 40.8569)" class="st0" cx="39.6" cy="89.2" rx="0.6" ry="0.4"/>
				
					<ellipse transform="matrix(0.8053 -0.5929 0.5929 0.8053 -44.6248 42.589)" class="st0" cx="42.5" cy="89.2" rx="0.6" ry="0.4"/>
				<ellipse transform="matrix(0.8053 -0.5929 0.5929 0.8053 -44.056 44.321)" class="st0" cx="45.5" cy="89.2" rx="0.6" ry="0.4"/>
				
					<ellipse transform="matrix(0.8053 -0.5929 0.5929 0.8053 -43.4872 46.0531)" class="st0" cx="48.4" cy="89.2" rx="0.6" ry="0.4"/>
				
					<ellipse transform="matrix(0.8053 -0.5929 0.5929 0.8053 -42.9184 47.7852)" class="st0" cx="51.3" cy="89.2" rx="0.6" ry="0.4"/>
				
					<ellipse transform="matrix(0.8053 -0.5929 0.5929 0.8053 -42.3495 49.5173)" class="st0" cx="54.2" cy="89.2" rx="0.6" ry="0.4"/>
				
					<ellipse transform="matrix(0.8053 -0.5929 0.5929 0.8053 -41.7807 51.2494)" class="st0" cx="57.1" cy="89.2" rx="0.6" ry="0.4"/>
				
					<ellipse transform="matrix(0.8053 -0.5929 0.5929 0.8053 -41.2119 52.9814)" class="st0" cx="60.1" cy="89.2" rx="0.6" ry="0.4"/>
				<ellipse transform="matrix(0.8053 -0.5929 0.5929 0.8053 -40.643 54.7135)" class="st0" cx="63" cy="89.2" rx="0.6" ry="0.4"/>
				
					<ellipse transform="matrix(0.8053 -0.5929 0.5929 0.8053 -40.0742 56.4456)" class="st0" cx="65.9" cy="89.2" rx="0.6" ry="0.4"/>
				
					<ellipse transform="matrix(0.8053 -0.5929 0.5929 0.8053 -39.5054 58.1777)" class="st0" cx="68.8" cy="89.2" rx="0.6" ry="0.4"/>
				
					<ellipse transform="matrix(0.8053 -0.5929 0.5929 0.8053 -38.9365 59.9098)" class="st0" cx="71.7" cy="89.2" rx="0.6" ry="0.4"/>
				
					<ellipse transform="matrix(0.8053 -0.5929 0.5929 0.8053 -38.3677 61.6419)" class="st0" cx="74.7" cy="89.2" rx="0.6" ry="0.4"/>
				
					<ellipse transform="matrix(0.8053 -0.5929 0.5929 0.8053 -37.7989 63.3739)" class="st0" cx="77.6" cy="89.2" rx="0.6" ry="0.4"/>
				<ellipse transform="matrix(0.8053 -0.5929 0.5929 0.8053 -37.23 65.106)" class="st0" cx="80.5" cy="89.2" rx="0.6" ry="0.4"/>
				
					<ellipse transform="matrix(0.8053 -0.5929 0.5929 0.8053 -36.6612 66.8381)" class="st0" cx="83.4" cy="89.2" rx="0.6" ry="0.4"/>
				
					<ellipse transform="matrix(0.8053 -0.5929 0.5929 0.8053 -36.0924 68.5702)" class="st0" cx="86.4" cy="89.2" rx="0.6" ry="0.4"/>
				
					<ellipse transform="matrix(0.8053 -0.5929 0.5929 0.8053 -35.5236 70.3023)" class="st0" cx="89.3" cy="89.2" rx="0.6" ry="0.4"/>
				
					<ellipse transform="matrix(0.8053 -0.5929 0.5929 0.8053 -34.9547 72.0344)" class="st0" cx="92.2" cy="89.2" rx="0.6" ry="0.4"/>
				
					<ellipse transform="matrix(0.8053 -0.5929 0.5929 0.8053 -34.3859 73.7664)" class="st0" cx="95.1" cy="89.2" rx="0.6" ry="0.4"/>
				<ellipse transform="matrix(0.8053 -0.5929 0.5929 0.8053 -33.8171 75.4985)" class="st0" cx="98" cy="89.2" rx="0.6" ry="0.4"/>
				
					<ellipse transform="matrix(0.8053 -0.5929 0.5929 0.8053 -33.2482 77.2306)" class="st0" cx="101" cy="89.2" rx="0.6" ry="0.4"/>
				
					<ellipse transform="matrix(0.8053 -0.5929 0.5929 0.8053 -32.6794 78.9627)" class="st0" cx="103.9" cy="89.2" rx="0.6" ry="0.4"/>
				
					<ellipse transform="matrix(0.8053 -0.5929 0.5929 0.8053 -32.1106 80.6948)" class="st0" cx="106.8" cy="89.2" rx="0.6" ry="0.4"/>
				
					<ellipse transform="matrix(0.8053 -0.5929 0.5929 0.8053 -31.5417 82.4269)" class="st0" cx="109.7" cy="89.2" rx="0.6" ry="0.4"/>
				
					<ellipse transform="matrix(0.8053 -0.5929 0.5929 0.8053 -30.9729 84.1589)" class="st0" cx="112.6" cy="89.2" rx="0.6" ry="0.4"/>
				
					<ellipse transform="matrix(0.8053 -0.5929 0.5929 0.8053 -30.4041 85.891)" class="st0" cx="115.6" cy="89.2" rx="0.6" ry="0.4"/>
				
					<ellipse transform="matrix(0.8053 -0.5929 0.5929 0.8053 -29.8353 87.6231)" class="st0" cx="118.5" cy="89.2" rx="0.6" ry="0.4"/>
				
					<ellipse transform="matrix(0.8053 -0.5929 0.5929 0.8053 -29.2664 89.3552)" class="st0" cx="121.4" cy="89.2" rx="0.6" ry="0.4"/>
				
					<ellipse transform="matrix(0.8053 -0.5929 0.5929 0.8053 -28.6976 91.0873)" class="st0" cx="124.3" cy="89.2" rx="0.6" ry="0.4"/>
				
					<ellipse transform="matrix(0.8053 -0.5929 0.5929 0.8053 -28.1288 92.8194)" class="st0" cx="127.3" cy="89.2" rx="0.6" ry="0.4"/>
				
					<ellipse transform="matrix(0.8053 -0.5929 0.5929 0.8053 -27.5599 94.5514)" class="st0" cx="130.2" cy="89.2" rx="0.6" ry="0.4"/>
				
					<ellipse transform="matrix(0.8053 -0.5929 0.5929 0.8053 -26.9911 96.2835)" class="st0" cx="133.1" cy="89.2" rx="0.6" ry="0.4"/>
				
					<ellipse transform="matrix(0.8053 -0.5929 0.5929 0.8053 -26.4223 98.0156)" class="st0" cx="136" cy="89.2" rx="0.6" ry="0.4"/>
				
					<ellipse transform="matrix(0.8053 -0.5929 0.5929 0.8053 -25.8534 99.7477)" class="st0" cx="138.9" cy="89.2" rx="0.6" ry="0.4"/>
				
					<ellipse transform="matrix(0.8053 -0.5929 0.5929 0.8053 -25.2846 101.4798)" class="st0" cx="141.9" cy="89.2" rx="0.6" ry="0.4"/>
				
					<ellipse transform="matrix(0.8053 -0.5929 0.5929 0.8053 -24.7158 103.2119)" class="st0" cx="144.8" cy="89.2" rx="0.6" ry="0.4"/>
				
					<ellipse transform="matrix(0.8053 -0.5929 0.5929 0.8053 -24.1469 104.9439)" class="st0" cx="147.7" cy="89.2" rx="0.6" ry="0.4"/>
				
					<ellipse transform="matrix(0.8053 -0.5929 0.5929 0.8053 -23.5781 106.676)" class="st0" cx="150.6" cy="89.2" rx="0.6" ry="0.4"/>
				
					<ellipse transform="matrix(0.8053 -0.5929 0.5929 0.8053 -23.0093 108.4081)" class="st0" cx="153.5" cy="89.2" rx="0.6" ry="0.4"/>
			</g>
			<g>
				
					<ellipse transform="matrix(0.8053 -0.5929 0.5929 0.8053 -53.6337 19.2543)" class="st0" cx="2.5" cy="91.3" rx="0.6" ry="0.4"/>
				
					<ellipse transform="matrix(0.8053 -0.5929 0.5929 0.8053 -53.0649 20.9863)" class="st0" cx="5.4" cy="91.3" rx="0.6" ry="0.4"/>
				<ellipse transform="matrix(0.8053 -0.5929 0.5929 0.8053 -52.496 22.7184)" class="st0" cx="8.3" cy="91.3" rx="0.6" ry="0.4"/>
				
					<ellipse transform="matrix(0.8053 -0.5929 0.5929 0.8053 -51.9272 24.4505)" class="st0" cx="11.3" cy="91.3" rx="0.6" ry="0.4"/>
				
					<ellipse transform="matrix(0.8053 -0.5929 0.5929 0.8053 -51.3584 26.1826)" class="st0" cx="14.2" cy="91.3" rx="0.6" ry="0.4"/>
				
					<ellipse transform="matrix(0.8053 -0.5929 0.5929 0.8053 -50.7895 27.9147)" class="st0" cx="17.1" cy="91.3" rx="0.6" ry="0.4"/>
				<ellipse transform="matrix(0.8053 -0.5929 0.5929 0.8053 -50.2207 29.6468)" class="st0" cx="20" cy="91.3" rx="0.6" ry="0.4"/>
				
					<ellipse transform="matrix(0.8053 -0.5929 0.5929 0.8053 -49.6519 31.3788)" class="st0" cx="22.9" cy="91.3" rx="0.6" ry="0.4"/>
				
					<ellipse transform="matrix(0.8053 -0.5929 0.5929 0.8053 -49.083 33.1109)" class="st0" cx="25.9" cy="91.3" rx="0.6" ry="0.4"/>
				
					<ellipse transform="matrix(0.8053 -0.5929 0.5929 0.8053 -48.5142 34.843)" class="st0" cx="28.8" cy="91.3" rx="0.6" ry="0.4"/>
				
					<ellipse transform="matrix(0.8053 -0.5929 0.5929 0.8053 -47.9454 36.5751)" class="st0" cx="31.7" cy="91.3" rx="0.6" ry="0.4"/>
				
					<ellipse transform="matrix(0.8053 -0.5929 0.5929 0.8053 -47.3765 38.3072)" class="st0" cx="34.6" cy="91.3" rx="0.6" ry="0.4"/>
				
					<ellipse transform="matrix(0.8053 -0.5929 0.5929 0.8053 -46.8077 40.0393)" class="st0" cx="37.6" cy="91.3" rx="0.6" ry="0.4"/>
				
					<ellipse transform="matrix(0.8053 -0.5929 0.5929 0.8053 -46.2389 41.7713)" class="st0" cx="40.5" cy="91.3" rx="0.6" ry="0.4"/>
				
					<ellipse transform="matrix(0.8053 -0.5929 0.5929 0.8053 -45.6701 43.5034)" class="st0" cx="43.4" cy="91.3" rx="0.6" ry="0.4"/>
				
					<ellipse transform="matrix(0.8053 -0.5929 0.5929 0.8053 -45.1012 45.2355)" class="st0" cx="46.3" cy="91.3" rx="0.6" ry="0.4"/>
				
					<ellipse transform="matrix(0.8053 -0.5929 0.5929 0.8053 -44.5324 46.9676)" class="st0" cx="49.2" cy="91.3" rx="0.6" ry="0.4"/>
				
					<ellipse transform="matrix(0.8053 -0.5929 0.5929 0.8053 -43.9636 48.6997)" class="st0" cx="52.2" cy="91.3" rx="0.6" ry="0.4"/>
				
					<ellipse transform="matrix(0.8053 -0.5929 0.5929 0.8053 -43.3947 50.4318)" class="st0" cx="55.1" cy="91.3" rx="0.6" ry="0.4"/>
				<ellipse transform="matrix(0.8053 -0.5929 0.5929 0.8053 -42.8259 52.1638)" class="st0" cx="58" cy="91.3" rx="0.6" ry="0.4"/>
				
					<ellipse transform="matrix(0.8053 -0.5929 0.5929 0.8053 -42.2571 53.8959)" class="st0" cx="60.9" cy="91.3" rx="0.6" ry="0.4"/>
				
					<ellipse transform="matrix(0.8053 -0.5929 0.5929 0.8053 -41.6882 55.628)" class="st0" cx="63.8" cy="91.3" rx="0.6" ry="0.4"/>
				
					<ellipse transform="matrix(0.8053 -0.5929 0.5929 0.8053 -41.1194 57.3601)" class="st0" cx="66.8" cy="91.3" rx="0.6" ry="0.4"/>
				
					<ellipse transform="matrix(0.8053 -0.5929 0.5929 0.8053 -40.5506 59.0922)" class="st0" cx="69.7" cy="91.3" rx="0.6" ry="0.4"/>
				
					<ellipse transform="matrix(0.8053 -0.5929 0.5929 0.8053 -39.9818 60.8243)" class="st0" cx="72.6" cy="91.3" rx="0.6" ry="0.4"/>
				
					<ellipse transform="matrix(0.8053 -0.5929 0.5929 0.8053 -39.4129 62.5563)" class="st0" cx="75.5" cy="91.3" rx="0.6" ry="0.4"/>
				
					<ellipse transform="matrix(0.8053 -0.5929 0.5929 0.8053 -38.8441 64.2884)" class="st0" cx="78.5" cy="91.3" rx="0.6" ry="0.4"/>
				
					<ellipse transform="matrix(0.8053 -0.5929 0.5929 0.8053 -38.2753 66.0205)" class="st0" cx="81.4" cy="91.3" rx="0.6" ry="0.4"/>
				
					<ellipse transform="matrix(0.8053 -0.5929 0.5929 0.8053 -37.7064 67.7526)" class="st0" cx="84.3" cy="91.3" rx="0.6" ry="0.4"/>
				
					<ellipse transform="matrix(0.8053 -0.5929 0.5929 0.8053 -37.1376 69.4847)" class="st0" cx="87.2" cy="91.3" rx="0.6" ry="0.4"/>
				
					<ellipse transform="matrix(0.8053 -0.5929 0.5929 0.8053 -36.5688 71.2168)" class="st0" cx="90.1" cy="91.3" rx="0.6" ry="0.4"/>
				
					<ellipse transform="matrix(0.8053 -0.5929 0.5929 0.8053 -35.9999 72.9488)" class="st0" cx="93.1" cy="91.3" rx="0.6" ry="0.4"/>
				<ellipse transform="matrix(0.8053 -0.5929 0.5929 0.8053 -35.4311 74.6809)" class="st0" cx="96" cy="91.3" rx="0.6" ry="0.4"/>
				
					<ellipse transform="matrix(0.8053 -0.5929 0.5929 0.8053 -34.8623 76.413)" class="st0" cx="98.9" cy="91.3" rx="0.6" ry="0.4"/>
				
					<ellipse transform="matrix(0.8053 -0.5929 0.5929 0.8053 -34.2934 78.1451)" class="st0" cx="101.8" cy="91.3" rx="0.6" ry="0.4"/>
				
					<ellipse transform="matrix(0.8053 -0.5929 0.5929 0.8053 -33.7246 79.8772)" class="st0" cx="104.8" cy="91.3" rx="0.6" ry="0.4"/>
				
					<ellipse transform="matrix(0.8053 -0.5929 0.5929 0.8053 -33.1558 81.6093)" class="st0" cx="107.7" cy="91.3" rx="0.6" ry="0.4"/>
				
					<ellipse transform="matrix(0.8053 -0.5929 0.5929 0.8053 -32.587 83.3413)" class="st0" cx="110.6" cy="91.3" rx="0.6" ry="0.4"/>
				
					<ellipse transform="matrix(0.8053 -0.5929 0.5929 0.8053 -32.0181 85.0734)" class="st0" cx="113.5" cy="91.3" rx="0.6" ry="0.4"/>
				
					<ellipse transform="matrix(0.8053 -0.5929 0.5929 0.8053 -31.4493 86.8055)" class="st0" cx="116.4" cy="91.3" rx="0.6" ry="0.4"/>
				
					<ellipse transform="matrix(0.8053 -0.5929 0.5929 0.8053 -30.8805 88.5376)" class="st0" cx="119.4" cy="91.3" rx="0.6" ry="0.4"/>
				
					<ellipse transform="matrix(0.8053 -0.5929 0.5929 0.8053 -30.3116 90.2697)" class="st0" cx="122.3" cy="91.3" rx="0.6" ry="0.4"/>
				
					<ellipse transform="matrix(0.8053 -0.5929 0.5929 0.8053 -29.7428 92.0018)" class="st0" cx="125.2" cy="91.3" rx="0.6" ry="0.4"/>
				
					<ellipse transform="matrix(0.8053 -0.5929 0.5929 0.8053 -29.174 93.7338)" class="st0" cx="128.1" cy="91.3" rx="0.6" ry="0.4"/>
				
					<ellipse transform="matrix(0.8053 -0.5929 0.5929 0.8053 -28.6051 95.4659)" class="st0" cx="131" cy="91.3" rx="0.6" ry="0.4"/>
				<ellipse transform="matrix(0.8053 -0.5929 0.5929 0.8053 -28.0363 97.198)" class="st0" cx="134" cy="91.3" rx="0.6" ry="0.4"/>
				
					<ellipse transform="matrix(0.8053 -0.5929 0.5929 0.8053 -27.4675 98.9301)" class="st0" cx="136.9" cy="91.3" rx="0.6" ry="0.4"/>
				
					<ellipse transform="matrix(0.8053 -0.5929 0.5929 0.8053 -26.8987 100.6622)" class="st0" cx="139.8" cy="91.3" rx="0.6" ry="0.4"/>
				
					<ellipse transform="matrix(0.8053 -0.5929 0.5929 0.8053 -26.3298 102.3942)" class="st0" cx="142.7" cy="91.3" rx="0.6" ry="0.4"/>
				
					<ellipse transform="matrix(0.8053 -0.5929 0.5929 0.8053 -25.761 104.1263)" class="st0" cx="145.7" cy="91.3" rx="0.6" ry="0.4"/>
				
					<ellipse transform="matrix(0.8053 -0.5929 0.5929 0.8053 -25.1922 105.8584)" class="st0" cx="148.6" cy="91.3" rx="0.6" ry="0.4"/>
				
					<ellipse transform="matrix(0.8053 -0.5929 0.5929 0.8053 -24.6233 107.5905)" class="st0" cx="151.5" cy="91.3" rx="0.6" ry="0.4"/>
			</g>
			<ellipse transform="matrix(0.8053 -0.5929 0.5929 0.8053 -55.1577 18.7109)" class="st0" cx="0.9" cy="93.3" rx="0.6" ry="0.4"/>
			<ellipse transform="matrix(0.8053 -0.5929 0.5929 0.8053 -54.5888 20.443)" class="st0" cx="3.8" cy="93.3" rx="0.6" ry="0.4"/>
			<ellipse transform="matrix(0.8053 -0.5929 0.5929 0.8053 -54.02 22.1751)" class="st0" cx="6.8" cy="93.3" rx="0.6" ry="0.4"/>
			<ellipse transform="matrix(0.8053 -0.5929 0.5929 0.8053 -53.4512 23.9072)" class="st0" cx="9.7" cy="93.3" rx="0.6" ry="0.4"/>
			
				<ellipse transform="matrix(0.8053 -0.5929 0.5929 0.8053 -52.8823 25.6393)" class="st0" cx="12.6" cy="93.3" rx="0.6" ry="0.4"/>
			
				<ellipse transform="matrix(0.8053 -0.5929 0.5929 0.8053 -52.3135 27.3714)" class="st0" cx="15.5" cy="93.3" rx="0.6" ry="0.4"/>
			
				<ellipse transform="matrix(0.8053 -0.5929 0.5929 0.8053 -51.7447 29.1034)" class="st0" cx="18.4" cy="93.3" rx="0.6" ry="0.4"/>
			
				<ellipse transform="matrix(0.8053 -0.5929 0.5929 0.8053 -51.1758 30.8355)" class="st0" cx="21.4" cy="93.3" rx="0.6" ry="0.4"/>
			<ellipse transform="matrix(0.8053 -0.5929 0.5929 0.8053 -50.607 32.5676)" class="st0" cx="24.3" cy="93.3" rx="0.6" ry="0.4"/>
			
				<ellipse transform="matrix(0.8053 -0.5929 0.5929 0.8053 -50.0382 34.2997)" class="st0" cx="27.2" cy="93.3" rx="0.6" ry="0.4"/>
			
				<ellipse transform="matrix(0.8053 -0.5929 0.5929 0.8053 -49.4693 36.0318)" class="st0" cx="30.1" cy="93.3" rx="0.6" ry="0.4"/>
			<ellipse transform="matrix(0.8053 -0.5929 0.5929 0.8053 -48.9005 37.7638)" class="st0" cx="33" cy="93.3" rx="0.6" ry="0.4"/>
			<ellipse transform="matrix(0.8053 -0.5929 0.5929 0.8053 -48.3317 39.4959)" class="st0" cx="36" cy="93.3" rx="0.6" ry="0.4"/>
			<ellipse transform="matrix(0.8053 -0.5929 0.5929 0.8053 -47.7629 41.228)" class="st0" cx="38.9" cy="93.3" rx="0.6" ry="0.4"/>
			<ellipse transform="matrix(0.8053 -0.5929 0.5929 0.8053 -47.194 42.9601)" class="st0" cx="41.8" cy="93.3" rx="0.6" ry="0.4"/>
			
				<ellipse transform="matrix(0.8053 -0.5929 0.5929 0.8053 -46.6252 44.6922)" class="st0" cx="44.7" cy="93.3" rx="0.6" ry="0.4"/>
			
				<ellipse transform="matrix(0.8053 -0.5929 0.5929 0.8053 -46.0564 46.4243)" class="st0" cx="47.7" cy="93.3" rx="0.6" ry="0.4"/>
			
				<ellipse transform="matrix(0.8053 -0.5929 0.5929 0.8053 -45.4875 48.1563)" class="st0" cx="50.6" cy="93.3" rx="0.6" ry="0.4"/>
			
				<ellipse transform="matrix(0.8053 -0.5929 0.5929 0.8053 -44.9187 49.8884)" class="st0" cx="53.5" cy="93.3" rx="0.6" ry="0.4"/>
			
				<ellipse transform="matrix(0.8053 -0.5929 0.5929 0.8053 -44.3499 51.6205)" class="st0" cx="56.4" cy="93.3" rx="0.6" ry="0.4"/>
			<ellipse transform="matrix(0.8053 -0.5929 0.5929 0.8053 -43.781 53.3526)" class="st0" cx="59.3" cy="93.3" rx="0.6" ry="0.4"/>
			
				<ellipse transform="matrix(0.8053 -0.5929 0.5929 0.8053 -43.2122 55.0847)" class="st0" cx="62.3" cy="93.3" rx="0.6" ry="0.4"/>
			
				<ellipse transform="matrix(0.8053 -0.5929 0.5929 0.8053 -42.6434 56.8168)" class="st0" cx="65.2" cy="93.3" rx="0.6" ry="0.4"/>
			
				<ellipse transform="matrix(0.8053 -0.5929 0.5929 0.8053 -42.0746 58.5488)" class="st0" cx="68.1" cy="93.3" rx="0.6" ry="0.4"/>
			<ellipse transform="matrix(0.8053 -0.5929 0.5929 0.8053 -41.5057 60.2809)" class="st0" cx="71" cy="93.3" rx="0.6" ry="0.4"/>
			<ellipse transform="matrix(0.8053 -0.5929 0.5929 0.8053 -40.9369 62.013)" class="st0" cx="73.9" cy="93.3" rx="0.6" ry="0.4"/>
			
				<ellipse transform="matrix(0.8053 -0.5929 0.5929 0.8053 -40.3681 63.7451)" class="st0" cx="76.9" cy="93.3" rx="0.6" ry="0.4"/>
			
				<ellipse transform="matrix(0.8053 -0.5929 0.5929 0.8053 -39.7992 65.4772)" class="st0" cx="79.8" cy="93.3" rx="0.6" ry="0.4"/>
			
				<ellipse transform="matrix(0.8053 -0.5929 0.5929 0.8053 -39.2304 67.2093)" class="st0" cx="82.7" cy="93.3" rx="0.6" ry="0.4"/>
			
				<ellipse transform="matrix(0.8053 -0.5929 0.5929 0.8053 -38.6616 68.9413)" class="st0" cx="85.6" cy="93.3" rx="0.6" ry="0.4"/>
			
				<ellipse transform="matrix(0.8053 -0.5929 0.5929 0.8053 -38.0927 70.6734)" class="st0" cx="88.6" cy="93.3" rx="0.6" ry="0.4"/>
			
				<ellipse transform="matrix(0.8053 -0.5929 0.5929 0.8053 -37.5239 72.4055)" class="st0" cx="91.5" cy="93.3" rx="0.6" ry="0.4"/>
			
				<ellipse transform="matrix(0.8053 -0.5929 0.5929 0.8053 -36.9551 74.1376)" class="st0" cx="94.4" cy="93.3" rx="0.6" ry="0.4"/>
			
				<ellipse transform="matrix(0.8053 -0.5929 0.5929 0.8053 -36.3862 75.8697)" class="st0" cx="97.3" cy="93.3" rx="0.6" ry="0.4"/>
			
				<ellipse transform="matrix(0.8053 -0.5929 0.5929 0.8053 -35.8174 77.6018)" class="st0" cx="100.2" cy="93.3" rx="0.6" ry="0.4"/>
			
				<ellipse transform="matrix(0.8053 -0.5929 0.5929 0.8053 -35.2486 79.3338)" class="st0" cx="103.2" cy="93.3" rx="0.6" ry="0.4"/>
			
				<ellipse transform="matrix(0.8053 -0.5929 0.5929 0.8053 -34.6798 81.0659)" class="st0" cx="106.1" cy="93.3" rx="0.6" ry="0.4"/>
			<ellipse transform="matrix(0.8053 -0.5929 0.5929 0.8053 -34.1109 82.798)" class="st0" cx="109" cy="93.3" rx="0.6" ry="0.4"/>
			
				<ellipse transform="matrix(0.8053 -0.5929 0.5929 0.8053 -33.5421 84.5301)" class="st0" cx="111.9" cy="93.3" rx="0.6" ry="0.4"/>
			
				<ellipse transform="matrix(0.8053 -0.5929 0.5929 0.8053 -32.9733 86.2622)" class="st0" cx="114.8" cy="93.3" rx="0.6" ry="0.4"/>
			
				<ellipse transform="matrix(0.8053 -0.5929 0.5929 0.8053 -32.4044 87.9943)" class="st0" cx="117.8" cy="93.3" rx="0.6" ry="0.4"/>
			
				<ellipse transform="matrix(0.8053 -0.5929 0.5929 0.8053 -31.8356 89.7263)" class="st0" cx="120.7" cy="93.3" rx="0.6" ry="0.4"/>
			
				<ellipse transform="matrix(0.8053 -0.5929 0.5929 0.8053 -31.2668 91.4584)" class="st0" cx="123.6" cy="93.3" rx="0.6" ry="0.4"/>
			
				<ellipse transform="matrix(0.8053 -0.5929 0.5929 0.8053 -30.6979 93.1905)" class="st0" cx="126.5" cy="93.3" rx="0.6" ry="0.4"/>
			
				<ellipse transform="matrix(0.8053 -0.5929 0.5929 0.8053 -30.1291 94.9226)" class="st0" cx="129.5" cy="93.3" rx="0.6" ry="0.4"/>
			
				<ellipse transform="matrix(0.8053 -0.5929 0.5929 0.8053 -29.5603 96.6547)" class="st0" cx="132.4" cy="93.3" rx="0.6" ry="0.4"/>
			
				<ellipse transform="matrix(0.8053 -0.5929 0.5929 0.8053 -28.9915 98.3868)" class="st0" cx="135.3" cy="93.3" rx="0.6" ry="0.4"/>
			
				<ellipse transform="matrix(0.8053 -0.5929 0.5929 0.8053 -28.4226 100.1188)" class="st0" cx="138.2" cy="93.3" rx="0.6" ry="0.4"/>
			
				<ellipse transform="matrix(0.8053 -0.5929 0.5929 0.8053 -27.8538 101.8509)" class="st0" cx="141.1" cy="93.3" rx="0.6" ry="0.4"/>
			
				<ellipse transform="matrix(0.8053 -0.5929 0.5929 0.8053 -27.285 103.583)" class="st0" cx="144.1" cy="93.3" rx="0.6" ry="0.4"/>
			
				<ellipse transform="matrix(0.8053 -0.5929 0.5929 0.8053 -26.7161 105.3151)" class="st0" cx="147" cy="93.3" rx="0.6" ry="0.4"/>
			
				<ellipse transform="matrix(0.8053 -0.5929 0.5929 0.8053 -26.1473 107.0472)" class="st0" cx="149.9" cy="93.3" rx="0.6" ry="0.4"/>
			<ellipse transform="matrix(0.8053 -0.5929 0.5929 0.8053 -56.214 19.5915)" class="st0" cx="1.7" cy="95.4" rx="0.6" ry="0.4"/>
			<ellipse transform="matrix(0.8053 -0.5929 0.5929 0.8053 -55.6452 21.3236)" class="st0" cx="4.6" cy="95.4" rx="0.6" ry="0.4"/>
			<ellipse transform="matrix(0.8053 -0.5929 0.5929 0.8053 -55.0763 23.0557)" class="st0" cx="7.6" cy="95.4" rx="0.6" ry="0.4"/>
			
				<ellipse transform="matrix(0.8053 -0.5929 0.5929 0.8053 -54.5075 24.7878)" class="st0" cx="10.5" cy="95.4" rx="0.6" ry="0.4"/>
			
				<ellipse transform="matrix(0.8053 -0.5929 0.5929 0.8053 -53.9387 26.5199)" class="st0" cx="13.4" cy="95.4" rx="0.6" ry="0.4"/>
			
				<ellipse transform="matrix(0.8053 -0.5929 0.5929 0.8053 -53.3698 28.2519)" class="st0" cx="16.3" cy="95.4" rx="0.6" ry="0.4"/>
			<ellipse transform="matrix(0.8053 -0.5929 0.5929 0.8053 -52.801 29.984)" class="st0" cx="19.3" cy="95.4" rx="0.6" ry="0.4"/>
			
				<ellipse transform="matrix(0.8053 -0.5929 0.5929 0.8053 -52.2322 31.7161)" class="st0" cx="22.2" cy="95.4" rx="0.6" ry="0.4"/>
			
				<ellipse transform="matrix(0.8053 -0.5929 0.5929 0.8053 -51.6634 33.4482)" class="st0" cx="25.1" cy="95.4" rx="0.6" ry="0.4"/>
			<ellipse transform="matrix(0.8053 -0.5929 0.5929 0.8053 -51.0945 35.1803)" class="st0" cx="28" cy="95.4" rx="0.6" ry="0.4"/>
			
				<ellipse transform="matrix(0.8053 -0.5929 0.5929 0.8053 -50.5257 36.9124)" class="st0" cx="30.9" cy="95.4" rx="0.6" ry="0.4"/>
			
				<ellipse transform="matrix(0.8053 -0.5929 0.5929 0.8053 -49.9569 38.6444)" class="st0" cx="33.9" cy="95.4" rx="0.6" ry="0.4"/>
			<ellipse transform="matrix(0.8053 -0.5929 0.5929 0.8053 -49.388 40.3765)" class="st0" cx="36.8" cy="95.4" rx="0.6" ry="0.4"/>
			
				<ellipse transform="matrix(0.8053 -0.5929 0.5929 0.8053 -48.8192 42.1086)" class="st0" cx="39.7" cy="95.4" rx="0.6" ry="0.4"/>
			
				<ellipse transform="matrix(0.8053 -0.5929 0.5929 0.8053 -48.2504 43.8407)" class="st0" cx="42.6" cy="95.4" rx="0.6" ry="0.4"/>
			
				<ellipse transform="matrix(0.8053 -0.5929 0.5929 0.8053 -47.6815 45.5728)" class="st0" cx="45.5" cy="95.4" rx="0.6" ry="0.4"/>
			
				<ellipse transform="matrix(0.8053 -0.5929 0.5929 0.8053 -47.1127 47.3049)" class="st0" cx="48.5" cy="95.4" rx="0.6" ry="0.4"/>
			
				<ellipse transform="matrix(0.8053 -0.5929 0.5929 0.8053 -46.5439 49.0369)" class="st0" cx="51.4" cy="95.4" rx="0.6" ry="0.4"/>
			<ellipse transform="matrix(0.8053 -0.5929 0.5929 0.8053 -45.975 50.769)" class="st0" cx="54.3" cy="95.4" rx="0.6" ry="0.4"/>
			
				<ellipse transform="matrix(0.8053 -0.5929 0.5929 0.8053 -45.4062 52.5011)" class="st0" cx="57.2" cy="95.4" rx="0.6" ry="0.4"/>
			
				<ellipse transform="matrix(0.8053 -0.5929 0.5929 0.8053 -44.8374 54.2332)" class="st0" cx="60.2" cy="95.4" rx="0.6" ry="0.4"/>
			
				<ellipse transform="matrix(0.8053 -0.5929 0.5929 0.8053 -44.2686 55.9653)" class="st0" cx="63.1" cy="95.4" rx="0.6" ry="0.4"/>
			<ellipse transform="matrix(0.8053 -0.5929 0.5929 0.8053 -43.6997 57.6974)" class="st0" cx="66" cy="95.4" rx="0.6" ry="0.4"/>
			
				<ellipse transform="matrix(0.8053 -0.5929 0.5929 0.8053 -43.1309 59.4294)" class="st0" cx="68.9" cy="95.4" rx="0.6" ry="0.4"/>
			
				<ellipse transform="matrix(0.8053 -0.5929 0.5929 0.8053 -42.5621 61.1615)" class="st0" cx="71.8" cy="95.4" rx="0.6" ry="0.4"/>
			
				<ellipse transform="matrix(0.8053 -0.5929 0.5929 0.8053 -41.9932 62.8936)" class="st0" cx="74.8" cy="95.4" rx="0.6" ry="0.4"/>
			
				<ellipse transform="matrix(0.8053 -0.5929 0.5929 0.8053 -41.4244 64.6257)" class="st0" cx="77.7" cy="95.4" rx="0.6" ry="0.4"/>
			
				<ellipse transform="matrix(0.8053 -0.5929 0.5929 0.8053 -40.8556 66.3578)" class="st0" cx="80.6" cy="95.4" rx="0.6" ry="0.4"/>
			
				<ellipse transform="matrix(0.8053 -0.5929 0.5929 0.8053 -40.2867 68.0899)" class="st0" cx="83.5" cy="95.4" rx="0.6" ry="0.4"/>
			
				<ellipse transform="matrix(0.8053 -0.5929 0.5929 0.8053 -39.7179 69.8219)" class="st0" cx="86.4" cy="95.4" rx="0.6" ry="0.4"/>
			<ellipse transform="matrix(0.8053 -0.5929 0.5929 0.8053 -39.1491 71.554)" class="st0" cx="89.4" cy="95.4" rx="0.6" ry="0.4"/>
			
				<ellipse transform="matrix(0.8053 -0.5929 0.5929 0.8053 -38.5803 73.2861)" class="st0" cx="92.3" cy="95.4" rx="0.6" ry="0.4"/>
			
				<ellipse transform="matrix(0.8053 -0.5929 0.5929 0.8053 -38.0114 75.0182)" class="st0" cx="95.2" cy="95.4" rx="0.6" ry="0.4"/>
			
				<ellipse transform="matrix(0.8053 -0.5929 0.5929 0.8053 -37.4426 76.7503)" class="st0" cx="98.1" cy="95.4" rx="0.6" ry="0.4"/>
			
				<ellipse transform="matrix(0.8053 -0.5929 0.5929 0.8053 -36.8738 78.4824)" class="st0" cx="101.1" cy="95.4" rx="0.6" ry="0.4"/>
			<ellipse transform="matrix(0.8053 -0.5929 0.5929 0.8053 -36.3049 80.2144)" class="st0" cx="104" cy="95.4" rx="0.6" ry="0.4"/>
			
				<ellipse transform="matrix(0.8053 -0.5929 0.5929 0.8053 -35.7361 81.9465)" class="st0" cx="106.9" cy="95.4" rx="0.6" ry="0.4"/>
			
				<ellipse transform="matrix(0.8053 -0.5929 0.5929 0.8053 -35.1673 83.6786)" class="st0" cx="109.8" cy="95.4" rx="0.6" ry="0.4"/>
			
				<ellipse transform="matrix(0.8053 -0.5929 0.5929 0.8053 -34.5984 85.4107)" class="st0" cx="112.7" cy="95.4" rx="0.6" ry="0.4"/>
			
				<ellipse transform="matrix(0.8053 -0.5929 0.5929 0.8053 -34.0296 87.1428)" class="st0" cx="115.7" cy="95.4" rx="0.6" ry="0.4"/>
			
				<ellipse transform="matrix(0.8053 -0.5929 0.5929 0.8053 -33.4608 88.8749)" class="st0" cx="118.6" cy="95.4" rx="0.6" ry="0.4"/>
			
				<ellipse transform="matrix(0.8053 -0.5929 0.5929 0.8053 -32.8919 90.6069)" class="st0" cx="121.5" cy="95.4" rx="0.6" ry="0.4"/>
			
				<ellipse transform="matrix(0.8053 -0.5929 0.5929 0.8053 -32.3231 92.339)" class="st0" cx="124.4" cy="95.4" rx="0.6" ry="0.4"/>
			
				<ellipse transform="matrix(0.8053 -0.5929 0.5929 0.8053 -31.7543 94.0711)" class="st0" cx="127.3" cy="95.4" rx="0.6" ry="0.4"/>
			
				<ellipse transform="matrix(0.8053 -0.5929 0.5929 0.8053 -31.1855 95.8032)" class="st0" cx="130.3" cy="95.4" rx="0.6" ry="0.4"/>
			
				<ellipse transform="matrix(0.8053 -0.5929 0.5929 0.8053 -30.6166 97.5353)" class="st0" cx="133.2" cy="95.4" rx="0.6" ry="0.4"/>
			
				<ellipse transform="matrix(0.8053 -0.5929 0.5929 0.8053 -30.0478 99.2673)" class="st0" cx="136.1" cy="95.4" rx="0.6" ry="0.4"/>
			<ellipse transform="matrix(0.8053 -0.5929 0.5929 0.8053 -29.479 100.9994)" class="st0" cx="139" cy="95.4" rx="0.6" ry="0.4"/>
			
				<ellipse transform="matrix(0.8053 -0.5929 0.5929 0.8053 -28.9101 102.7315)" class="st0" cx="142" cy="95.4" rx="0.6" ry="0.4"/>
			
				<ellipse transform="matrix(0.8053 -0.5929 0.5929 0.8053 -28.3413 104.4636)" class="st0" cx="144.9" cy="95.4" rx="0.6" ry="0.4"/>
			
				<ellipse transform="matrix(0.8053 -0.5929 0.5929 0.8053 -27.7725 106.1957)" class="st0" cx="147.8" cy="95.4" rx="0.6" ry="0.4"/>
			<ellipse transform="matrix(0.8053 -0.5929 0.5929 0.8053 -57.2592 20.506)" class="st0" cx="2.6" cy="97.4" rx="0.6" ry="0.4"/>
			<ellipse transform="matrix(0.8053 -0.5929 0.5929 0.8053 -56.6904 22.2381)" class="st0" cx="5.5" cy="97.4" rx="0.6" ry="0.4"/>
			<ellipse transform="matrix(0.8053 -0.5929 0.5929 0.8053 -56.1216 23.9702)" class="st0" cx="8.4" cy="97.4" rx="0.6" ry="0.4"/>
			
				<ellipse transform="matrix(0.8053 -0.5929 0.5929 0.8053 -55.5527 25.7023)" class="st0" cx="11.4" cy="97.4" rx="0.6" ry="0.4"/>
			
				<ellipse transform="matrix(0.8053 -0.5929 0.5929 0.8053 -54.9839 27.4343)" class="st0" cx="14.3" cy="97.4" rx="0.6" ry="0.4"/>
			
				<ellipse transform="matrix(0.8053 -0.5929 0.5929 0.8053 -54.4151 29.1664)" class="st0" cx="17.2" cy="97.4" rx="0.6" ry="0.4"/>
			
				<ellipse transform="matrix(0.8053 -0.5929 0.5929 0.8053 -53.8462 30.8985)" class="st0" cx="20.1" cy="97.4" rx="0.6" ry="0.4"/>
			<ellipse transform="matrix(0.8053 -0.5929 0.5929 0.8053 -53.2774 32.6306)" class="st0" cx="23" cy="97.4" rx="0.6" ry="0.4"/>
			<ellipse transform="matrix(0.8053 -0.5929 0.5929 0.8053 -52.7086 34.3627)" class="st0" cx="26" cy="97.4" rx="0.6" ry="0.4"/>
			
				<ellipse transform="matrix(0.8053 -0.5929 0.5929 0.8053 -52.1397 36.0948)" class="st0" cx="28.9" cy="97.4" rx="0.6" ry="0.4"/>
			
				<ellipse transform="matrix(0.8053 -0.5929 0.5929 0.8053 -51.5709 37.8268)" class="st0" cx="31.8" cy="97.4" rx="0.6" ry="0.4"/>
			
				<ellipse transform="matrix(0.8053 -0.5929 0.5929 0.8053 -51.0021 39.5589)" class="st0" cx="34.7" cy="97.4" rx="0.6" ry="0.4"/>
			<ellipse transform="matrix(0.8053 -0.5929 0.5929 0.8053 -50.4332 41.291)" class="st0" cx="37.6" cy="97.4" rx="0.6" ry="0.4"/>
			
				<ellipse transform="matrix(0.8053 -0.5929 0.5929 0.8053 -49.8644 43.0231)" class="st0" cx="40.6" cy="97.4" rx="0.6" ry="0.4"/>
			
				<ellipse transform="matrix(0.8053 -0.5929 0.5929 0.8053 -49.2956 44.7552)" class="st0" cx="43.5" cy="97.4" rx="0.6" ry="0.4"/>
			
				<ellipse transform="matrix(0.8053 -0.5929 0.5929 0.8053 -48.7268 46.4873)" class="st0" cx="46.4" cy="97.4" rx="0.6" ry="0.4"/>
			
				<ellipse transform="matrix(0.8053 -0.5929 0.5929 0.8053 -48.1579 48.2193)" class="st0" cx="49.3" cy="97.4" rx="0.6" ry="0.4"/>
			
				<ellipse transform="matrix(0.8053 -0.5929 0.5929 0.8053 -47.5891 49.9514)" class="st0" cx="52.3" cy="97.4" rx="0.6" ry="0.4"/>
			
				<ellipse transform="matrix(0.8053 -0.5929 0.5929 0.8053 -47.0203 51.6835)" class="st0" cx="55.2" cy="97.4" rx="0.6" ry="0.4"/>
			
				<ellipse transform="matrix(0.8053 -0.5929 0.5929 0.8053 -46.4514 53.4156)" class="st0" cx="58.1" cy="97.4" rx="0.6" ry="0.4"/>
			<ellipse transform="matrix(0.8053 -0.5929 0.5929 0.8053 -45.8826 55.1477)" class="st0" cx="61" cy="97.4" rx="0.6" ry="0.4"/>
			
				<ellipse transform="matrix(0.8053 -0.5929 0.5929 0.8053 -45.3138 56.8797)" class="st0" cx="63.9" cy="97.4" rx="0.6" ry="0.4"/>
			
				<ellipse transform="matrix(0.8053 -0.5929 0.5929 0.8053 -44.7449 58.6118)" class="st0" cx="66.9" cy="97.4" rx="0.6" ry="0.4"/>
			
				<ellipse transform="matrix(0.8053 -0.5929 0.5929 0.8053 -44.1761 60.3439)" class="st0" cx="69.8" cy="97.4" rx="0.6" ry="0.4"/>
			<ellipse transform="matrix(0.8053 -0.5929 0.5929 0.8053 -43.6073 62.076)" class="st0" cx="72.7" cy="97.4" rx="0.6" ry="0.4"/>
			
				<ellipse transform="matrix(0.8053 -0.5929 0.5929 0.8053 -43.0385 63.8081)" class="st0" cx="75.6" cy="97.4" rx="0.6" ry="0.4"/>
			
				<ellipse transform="matrix(0.8053 -0.5929 0.5929 0.8053 -42.4696 65.5402)" class="st0" cx="78.5" cy="97.4" rx="0.6" ry="0.4"/>
			
				<ellipse transform="matrix(0.8053 -0.5929 0.5929 0.8053 -41.9008 67.2722)" class="st0" cx="81.5" cy="97.4" rx="0.6" ry="0.4"/>
			<ellipse transform="matrix(0.8053 -0.5929 0.5929 0.8053 -41.332 69.0043)" class="st0" cx="84.4" cy="97.4" rx="0.6" ry="0.4"/>
			
				<ellipse transform="matrix(0.8053 -0.5929 0.5929 0.8053 -40.7631 70.7364)" class="st0" cx="87.3" cy="97.4" rx="0.6" ry="0.4"/>
			
				<ellipse transform="matrix(0.8053 -0.5929 0.5929 0.8053 -40.1943 72.4685)" class="st0" cx="90.2" cy="97.4" rx="0.6" ry="0.4"/>
			
				<ellipse transform="matrix(0.8053 -0.5929 0.5929 0.8053 -39.6255 74.2006)" class="st0" cx="93.2" cy="97.4" rx="0.6" ry="0.4"/>
			
				<ellipse transform="matrix(0.8053 -0.5929 0.5929 0.8053 -39.0566 75.9327)" class="st0" cx="96.1" cy="97.4" rx="0.6" ry="0.4"/>
			<ellipse transform="matrix(0.8053 -0.5929 0.5929 0.8053 -38.4878 77.6647)" class="st0" cx="99" cy="97.4" rx="0.6" ry="0.4"/>
			
				<ellipse transform="matrix(0.8053 -0.5929 0.5929 0.8053 -37.919 79.3968)" class="st0" cx="101.9" cy="97.4" rx="0.6" ry="0.4"/>
			
				<ellipse transform="matrix(0.8053 -0.5929 0.5929 0.8053 -37.3501 81.1289)" class="st0" cx="104.8" cy="97.4" rx="0.6" ry="0.4"/>
			
				<ellipse transform="matrix(0.8053 -0.5929 0.5929 0.8053 -36.7813 82.861)" class="st0" cx="107.8" cy="97.4" rx="0.6" ry="0.4"/>
			
				<ellipse transform="matrix(0.8053 -0.5929 0.5929 0.8053 -36.2125 84.5931)" class="st0" cx="110.7" cy="97.4" rx="0.6" ry="0.4"/>
			
				<ellipse transform="matrix(0.8053 -0.5929 0.5929 0.8053 -35.6437 86.3252)" class="st0" cx="113.6" cy="97.4" rx="0.6" ry="0.4"/>
			
				<ellipse transform="matrix(0.8053 -0.5929 0.5929 0.8053 -35.0748 88.0572)" class="st0" cx="116.5" cy="97.4" rx="0.6" ry="0.4"/>
			
				<ellipse transform="matrix(0.8053 -0.5929 0.5929 0.8053 -34.506 89.7893)" class="st0" cx="119.5" cy="97.4" rx="0.6" ry="0.4"/>
			
				<ellipse transform="matrix(0.8053 -0.5929 0.5929 0.8053 -33.9372 91.5214)" class="st0" cx="122.4" cy="97.4" rx="0.6" ry="0.4"/>
			
				<ellipse transform="matrix(0.8053 -0.5929 0.5929 0.8053 -33.3683 93.2535)" class="st0" cx="125.3" cy="97.4" rx="0.6" ry="0.4"/>
			
				<ellipse transform="matrix(0.8053 -0.5929 0.5929 0.8053 -32.7995 94.9856)" class="st0" cx="128.2" cy="97.4" rx="0.6" ry="0.4"/>
			
				<ellipse transform="matrix(0.8053 -0.5929 0.5929 0.8053 -32.2307 96.7177)" class="st0" cx="131.1" cy="97.4" rx="0.6" ry="0.4"/>
			
				<ellipse transform="matrix(0.8053 -0.5929 0.5929 0.8053 -31.6618 98.4497)" class="st0" cx="134.1" cy="97.4" rx="0.6" ry="0.4"/>
			<ellipse transform="matrix(0.8053 -0.5929 0.5929 0.8053 -31.093 100.1818)" class="st0" cx="137" cy="97.4" rx="0.6" ry="0.4"/>
			
				<ellipse transform="matrix(0.8053 -0.5929 0.5929 0.8053 -30.5242 101.9139)" class="st0" cx="139.9" cy="97.4" rx="0.6" ry="0.4"/>
			
				<ellipse transform="matrix(0.8053 -0.5929 0.5929 0.8053 -29.9554 103.646)" class="st0" cx="142.8" cy="97.4" rx="0.6" ry="0.4"/>
			
				<ellipse transform="matrix(0.8053 -0.5929 0.5929 0.8053 -29.3865 105.3781)" class="st0" cx="145.7" cy="97.4" rx="0.6" ry="0.4"/>
			
				<ellipse transform="matrix(0.8053 -0.5929 0.5929 0.8053 -22.409 110.2359)" class="st0" cx="156.6" cy="89.2" rx="0.6" ry="0.4"/>
			
				<ellipse transform="matrix(0.8053 -0.5929 0.5929 0.8053 -21.8402 111.968)" class="st0" cx="159.6" cy="89.2" rx="0.6" ry="0.4"/>
			
				<ellipse transform="matrix(0.8053 -0.5929 0.5929 0.8053 -21.2713 113.7001)" class="st0" cx="162.5" cy="89.2" rx="0.6" ry="0.4"/>
			
				<ellipse transform="matrix(0.8053 -0.5929 0.5929 0.8053 -20.7025 115.4322)" class="st0" cx="165.4" cy="89.2" rx="0.6" ry="0.4"/>
			
				<ellipse transform="matrix(0.8053 -0.5929 0.5929 0.8053 -20.1337 117.1643)" class="st0" cx="168.3" cy="89.2" rx="0.6" ry="0.4"/>
			
				<ellipse transform="matrix(0.8053 -0.5929 0.5929 0.8053 -19.5649 118.8964)" class="st0" cx="171.2" cy="89.2" rx="0.6" ry="0.4"/>
			
				<ellipse transform="matrix(0.8053 -0.5929 0.5929 0.8053 -18.996 120.6284)" class="st0" cx="174.2" cy="89.2" rx="0.6" ry="0.4"/>
			
				<ellipse transform="matrix(0.8053 -0.5929 0.5929 0.8053 -18.4272 122.3605)" class="st0" cx="177.1" cy="89.2" rx="0.6" ry="0.4"/>
			
				<ellipse transform="matrix(0.8053 -0.5929 0.5929 0.8053 -17.8584 124.0926)" class="st0" cx="180" cy="89.2" rx="0.6" ry="0.4"/>
			
				<ellipse transform="matrix(0.8053 -0.5929 0.5929 0.8053 -17.2895 125.8247)" class="st0" cx="182.9" cy="89.2" rx="0.6" ry="0.4"/>
			
				<ellipse transform="matrix(0.8053 -0.5929 0.5929 0.8053 -16.7207 127.5568)" class="st0" cx="185.8" cy="89.2" rx="0.6" ry="0.4"/>
			
				<ellipse transform="matrix(0.8053 -0.5929 0.5929 0.8053 -24.0231 109.4183)" class="st0" cx="154.6" cy="91.3" rx="0.6" ry="0.4"/>
			
				<ellipse transform="matrix(0.8053 -0.5929 0.5929 0.8053 -23.4542 111.1504)" class="st0" cx="157.5" cy="91.3" rx="0.6" ry="0.4"/>
			
				<ellipse transform="matrix(0.8053 -0.5929 0.5929 0.8053 -22.8854 112.8825)" class="st0" cx="160.4" cy="91.3" rx="0.6" ry="0.4"/>
			
				<ellipse transform="matrix(0.8053 -0.5929 0.5929 0.8053 -22.3166 114.6146)" class="st0" cx="163.3" cy="91.3" rx="0.6" ry="0.4"/>
			
				<ellipse transform="matrix(0.8053 -0.5929 0.5929 0.8053 -21.7477 116.3467)" class="st0" cx="166.3" cy="91.3" rx="0.6" ry="0.4"/>
			
				<ellipse transform="matrix(0.8053 -0.5929 0.5929 0.8053 -21.1789 118.0788)" class="st0" cx="169.2" cy="91.3" rx="0.6" ry="0.4"/>
			
				<ellipse transform="matrix(0.8053 -0.5929 0.5929 0.8053 -20.6101 119.8108)" class="st0" cx="172.1" cy="91.3" rx="0.6" ry="0.4"/>
			
				<ellipse transform="matrix(0.8053 -0.5929 0.5929 0.8053 -20.0412 121.5429)" class="st0" cx="175" cy="91.3" rx="0.6" ry="0.4"/>
			
				<ellipse transform="matrix(0.8053 -0.5929 0.5929 0.8053 -19.4724 123.275)" class="st0" cx="177.9" cy="91.3" rx="0.6" ry="0.4"/>
			
				<ellipse transform="matrix(0.8053 -0.5929 0.5929 0.8053 -18.9036 125.0071)" class="st0" cx="180.9" cy="91.3" rx="0.6" ry="0.4"/>
			
				<ellipse transform="matrix(0.8053 -0.5929 0.5929 0.8053 -18.3347 126.7392)" class="st0" cx="183.8" cy="91.3" rx="0.6" ry="0.4"/>
			<ellipse transform="matrix(0.8053 -0.5929 0.5929 0.8053 -25.547 108.875)" class="st0" cx="153" cy="93.3" rx="0.6" ry="0.4"/>
			
				<ellipse transform="matrix(0.8053 -0.5929 0.5929 0.8053 -24.9782 110.6071)" class="st0" cx="155.9" cy="93.3" rx="0.6" ry="0.4"/>
			
				<ellipse transform="matrix(0.8053 -0.5929 0.5929 0.8053 -24.4094 112.3392)" class="st0" cx="158.8" cy="93.3" rx="0.6" ry="0.4"/>
			
				<ellipse transform="matrix(0.8053 -0.5929 0.5929 0.8053 -23.8405 114.0713)" class="st0" cx="161.8" cy="93.3" rx="0.6" ry="0.4"/>
			
				<ellipse transform="matrix(0.8053 -0.5929 0.5929 0.8053 -23.2717 115.8033)" class="st0" cx="164.7" cy="93.3" rx="0.6" ry="0.4"/>
			
				<ellipse transform="matrix(0.8053 -0.5929 0.5929 0.8053 -22.7029 117.5354)" class="st0" cx="167.6" cy="93.3" rx="0.6" ry="0.4"/>
			
				<ellipse transform="matrix(0.8053 -0.5929 0.5929 0.8053 -22.134 119.2675)" class="st0" cx="170.5" cy="93.3" rx="0.6" ry="0.4"/>
			
				<ellipse transform="matrix(0.8053 -0.5929 0.5929 0.8053 -21.5652 120.9996)" class="st0" cx="173.4" cy="93.3" rx="0.6" ry="0.4"/>
			
				<ellipse transform="matrix(0.8053 -0.5929 0.5929 0.8053 -20.9964 122.7317)" class="st0" cx="176.4" cy="93.3" rx="0.6" ry="0.4"/>
			
				<ellipse transform="matrix(0.8053 -0.5929 0.5929 0.8053 -20.4275 124.4638)" class="st0" cx="179.3" cy="93.3" rx="0.6" ry="0.4"/>
			
				<ellipse transform="matrix(0.8053 -0.5929 0.5929 0.8053 -19.8587 126.1958)" class="st0" cx="182.2" cy="93.3" rx="0.6" ry="0.4"/>
			
				<ellipse transform="matrix(0.8053 -0.5929 0.5929 0.8053 -27.1722 108.0235)" class="st0" cx="150.9" cy="95.4" rx="0.6" ry="0.4"/>
			
				<ellipse transform="matrix(0.8053 -0.5929 0.5929 0.8053 -26.6034 109.7556)" class="st0" cx="153.8" cy="95.4" rx="0.6" ry="0.4"/>
			
				<ellipse transform="matrix(0.8053 -0.5929 0.5929 0.8053 -26.0345 111.4877)" class="st0" cx="156.7" cy="95.4" rx="0.6" ry="0.4"/>
			
				<ellipse transform="matrix(0.8053 -0.5929 0.5929 0.8053 -25.4657 113.2198)" class="st0" cx="159.6" cy="95.4" rx="0.6" ry="0.4"/>
			
				<ellipse transform="matrix(0.8053 -0.5929 0.5929 0.8053 -24.8969 114.9519)" class="st0" cx="162.6" cy="95.4" rx="0.6" ry="0.4"/>
			
				<ellipse transform="matrix(0.8053 -0.5929 0.5929 0.8053 -24.328 116.6839)" class="st0" cx="165.5" cy="95.4" rx="0.6" ry="0.4"/>
			
				<ellipse transform="matrix(0.8053 -0.5929 0.5929 0.8053 -23.7592 118.416)" class="st0" cx="168.4" cy="95.4" rx="0.6" ry="0.4"/>
			
				<ellipse transform="matrix(0.8053 -0.5929 0.5929 0.8053 -23.1904 120.1481)" class="st0" cx="171.3" cy="95.4" rx="0.6" ry="0.4"/>
			
				<ellipse transform="matrix(0.8053 -0.5929 0.5929 0.8053 -22.6216 121.8802)" class="st0" cx="174.3" cy="95.4" rx="0.6" ry="0.4"/>
			
				<ellipse transform="matrix(0.8053 -0.5929 0.5929 0.8053 -22.0527 123.6123)" class="st0" cx="177.2" cy="95.4" rx="0.6" ry="0.4"/>
			
				<ellipse transform="matrix(0.8053 -0.5929 0.5929 0.8053 -28.7862 107.2059)" class="st0" cx="148.8" cy="97.4" rx="0.6" ry="0.4"/>
			
				<ellipse transform="matrix(0.8053 -0.5929 0.5929 0.8053 -28.2174 108.938)" class="st0" cx="151.7" cy="97.4" rx="0.6" ry="0.4"/>
			
				<ellipse transform="matrix(0.8053 -0.5929 0.5929 0.8053 -27.6486 110.6701)" class="st0" cx="154.7" cy="97.4" rx="0.6" ry="0.4"/>
			
				<ellipse transform="matrix(0.8053 -0.5929 0.5929 0.8053 -27.0798 112.4022)" class="st0" cx="157.6" cy="97.4" rx="0.6" ry="0.4"/>
			
				<ellipse transform="matrix(0.8053 -0.5929 0.5929 0.8053 -26.5109 114.1342)" class="st0" cx="160.5" cy="97.4" rx="0.6" ry="0.4"/>
			
				<ellipse transform="matrix(0.8053 -0.5929 0.5929 0.8053 -25.9421 115.8663)" class="st0" cx="163.4" cy="97.4" rx="0.6" ry="0.4"/>
			
				<ellipse transform="matrix(0.8053 -0.5929 0.5929 0.8053 -25.3733 117.5984)" class="st0" cx="166.4" cy="97.4" rx="0.6" ry="0.4"/>
			
				<ellipse transform="matrix(0.8053 -0.5929 0.5929 0.8053 -24.8044 119.3305)" class="st0" cx="169.3" cy="97.4" rx="0.6" ry="0.4"/>
			
				<ellipse transform="matrix(0.8053 -0.5929 0.5929 0.8053 -24.2356 121.0626)" class="st0" cx="172.2" cy="97.4" rx="0.6" ry="0.4"/>
			
				<ellipse transform="matrix(0.8053 -0.5929 0.5929 0.8053 -14.7222 113.9446)" class="st0" cx="166.1" cy="79.4" rx="0.6" ry="0.4"/>
			
				<ellipse transform="matrix(0.8053 -0.5929 0.5929 0.8053 -14.1534 115.6767)" class="st0" cx="169" cy="79.4" rx="0.6" ry="0.4"/>
			
				<ellipse transform="matrix(0.8053 -0.5929 0.5929 0.8053 -13.5845 117.4088)" class="st0" cx="172" cy="79.4" rx="0.6" ry="0.4"/>
			
				<ellipse transform="matrix(0.8053 -0.5929 0.5929 0.8053 -12.4469 120.873)" class="st0" cx="177.8" cy="79.4" rx="0.6" ry="0.4"/>
			
				<ellipse transform="matrix(0.8053 -0.5929 0.5929 0.8053 -11.878 122.6051)" class="st0" cx="180.7" cy="79.4" rx="0.6" ry="0.4"/>
			
				<ellipse transform="matrix(0.8053 -0.5929 0.5929 0.8053 -11.3092 124.3371)" class="st0" cx="183.6" cy="79.4" rx="0.6" ry="0.4"/>
			
				<ellipse transform="matrix(0.8053 -0.5929 0.5929 0.8053 -10.7404 126.0692)" class="st0" cx="186.6" cy="79.4" rx="0.6" ry="0.4"/>
			
				<ellipse transform="matrix(0.8053 -0.5929 0.5929 0.8053 -10.1715 127.8013)" class="st0" cx="189.5" cy="79.4" rx="0.6" ry="0.4"/>
			
				<ellipse transform="matrix(0.8053 -0.5929 0.5929 0.8053 -9.6027 129.5334)" class="st0" cx="192.4" cy="79.4" rx="0.6" ry="0.4"/>
			
				<ellipse transform="matrix(0.8053 -0.5929 0.5929 0.8053 -9.0339 131.2655)" class="st0" cx="195.3" cy="79.4" rx="0.6" ry="0.4"/>
			
				<ellipse transform="matrix(0.8053 -0.5929 0.5929 0.8053 -12.2348 116.3277)" class="st0" cx="171" cy="76.8" rx="0.6" ry="0.4"/>
			
				<ellipse transform="matrix(0.8053 -0.5929 0.5929 0.8053 -11.666 118.0598)" class="st0" cx="173.9" cy="76.8" rx="0.6" ry="0.4"/>
			
				<ellipse transform="matrix(0.8053 -0.5929 0.5929 0.8053 -11.0971 119.7919)" class="st0" cx="176.8" cy="76.8" rx="0.6" ry="0.4"/>
			
				<ellipse transform="matrix(0.8053 -0.5929 0.5929 0.8053 -10.5283 121.5239)" class="st0" cx="179.8" cy="76.8" rx="0.6" ry="0.4"/>
			
				<ellipse transform="matrix(0.8053 -0.5929 0.5929 0.8053 -9.9595 123.256)" class="st0" cx="182.7" cy="76.8" rx="0.6" ry="0.4"/>
			
				<ellipse transform="matrix(0.8053 -0.5929 0.5929 0.8053 -9.3907 124.9881)" class="st0" cx="185.6" cy="76.8" rx="0.6" ry="0.4"/>
			
				<ellipse transform="matrix(0.8053 -0.5929 0.5929 0.8053 -8.8218 126.7202)" class="st0" cx="188.5" cy="76.8" rx="0.6" ry="0.4"/>
			
				<ellipse transform="matrix(0.8053 -0.5929 0.5929 0.8053 -8.253 128.4523)" class="st0" cx="191.4" cy="76.8" rx="0.6" ry="0.4"/>
			
				<ellipse transform="matrix(0.8053 -0.5929 0.5929 0.8053 -7.6842 130.1844)" class="st0" cx="194.4" cy="76.8" rx="0.6" ry="0.4"/>
			
				<ellipse transform="matrix(0.8053 -0.5929 0.5929 0.8053 -7.1153 131.9164)" class="st0" cx="197.3" cy="76.8" rx="0.6" ry="0.4"/>
			
				<ellipse transform="matrix(0.8053 -0.5929 0.5929 0.8053 -8.8503 122.0189)" class="st0" cx="181.3" cy="74.5" rx="0.6" ry="0.4"/>
			
				<ellipse transform="matrix(0.8053 -0.5929 0.5929 0.8053 -8.2814 123.751)" class="st0" cx="184.3" cy="74.5" rx="0.6" ry="0.4"/>
			
				<ellipse transform="matrix(0.8053 -0.5929 0.5929 0.8053 -7.7126 125.483)" class="st0" cx="187.2" cy="74.5" rx="0.6" ry="0.4"/>
			
				<ellipse transform="matrix(0.8053 -0.5929 0.5929 0.8053 -7.1438 127.2151)" class="st0" cx="190.1" cy="74.5" rx="0.6" ry="0.4"/>
			<ellipse transform="matrix(0.8053 -0.5929 0.5929 0.8053 -6.575 128.9472)" class="st0" cx="193" cy="74.5" rx="0.6" ry="0.4"/>
			<ellipse transform="matrix(0.8053 -0.5929 0.5929 0.8053 -6.0061 130.6793)" class="st0" cx="196" cy="74.5" rx="0.6" ry="0.4"/>
			
				<ellipse transform="matrix(0.8053 -0.5929 0.5929 0.8053 -5.4373 132.4114)" class="st0" cx="198.9" cy="74.5" rx="0.6" ry="0.4"/>
			
				<ellipse transform="matrix(0.8053 -0.5929 0.5929 0.8053 -7.1149 122.4871)" class="st0" cx="182.9" cy="72.1" rx="0.6" ry="0.4"/>
			
				<ellipse transform="matrix(0.8053 -0.5929 0.5929 0.8053 -6.5461 124.2192)" class="st0" cx="185.9" cy="72.1" rx="0.6" ry="0.4"/>
			
				<ellipse transform="matrix(0.8053 -0.5929 0.5929 0.8053 -5.9772 125.9513)" class="st0" cx="188.8" cy="72.1" rx="0.6" ry="0.4"/>
			
				<ellipse transform="matrix(0.8053 -0.5929 0.5929 0.8053 -5.4084 127.6833)" class="st0" cx="191.7" cy="72.1" rx="0.6" ry="0.4"/>
			
				<ellipse transform="matrix(0.8053 -0.5929 0.5929 0.8053 -4.8396 129.4154)" class="st0" cx="194.6" cy="72.1" rx="0.6" ry="0.4"/>
			
				<ellipse transform="matrix(0.8053 -0.5929 0.5929 0.8053 -4.2707 131.1475)" class="st0" cx="197.5" cy="72.1" rx="0.6" ry="0.4"/>
			
				<ellipse transform="matrix(0.8053 -0.5929 0.5929 0.8053 -3.7019 132.8796)" class="st0" cx="200.5" cy="72.1" rx="0.6" ry="0.4"/>
			<ellipse transform="matrix(0.8053 -0.5929 0.5929 0.8053 -5.3768 122.613)" class="st0" cx="184" cy="69.5" rx="0.6" ry="0.4"/>
			
				<ellipse transform="matrix(0.8053 -0.5929 0.5929 0.8053 -4.8079 124.3451)" class="st0" cx="186.9" cy="69.5" rx="0.6" ry="0.4"/>
			
				<ellipse transform="matrix(0.8053 -0.5929 0.5929 0.8053 -4.2391 126.0772)" class="st0" cx="189.8" cy="69.5" rx="0.6" ry="0.4"/>
			
				<ellipse transform="matrix(0.8053 -0.5929 0.5929 0.8053 -3.6703 127.8093)" class="st0" cx="192.8" cy="69.5" rx="0.6" ry="0.4"/>
			
				<ellipse transform="matrix(0.8053 -0.5929 0.5929 0.8053 -3.1014 129.5414)" class="st0" cx="195.7" cy="69.5" rx="0.6" ry="0.4"/>
			
				<ellipse transform="matrix(0.8053 -0.5929 0.5929 0.8053 -2.5326 131.2734)" class="st0" cx="198.6" cy="69.5" rx="0.6" ry="0.4"/>
			
				<ellipse transform="matrix(0.8053 -0.5929 0.5929 0.8053 -1.9638 133.0055)" class="st0" cx="201.5" cy="69.5" rx="0.6" ry="0.4"/>
			
				<ellipse transform="matrix(0.8053 -0.5929 0.5929 0.8053 -3.9631 121.105)" class="st0" cx="182.4" cy="66.6" rx="0.6" ry="0.4"/>
			
				<ellipse transform="matrix(0.8053 -0.5929 0.5929 0.8053 -3.3943 122.8371)" class="st0" cx="185.3" cy="66.6" rx="0.6" ry="0.4"/>
			
				<ellipse transform="matrix(0.8053 -0.5929 0.5929 0.8053 -2.8255 124.5691)" class="st0" cx="188.2" cy="66.6" rx="0.6" ry="0.4"/>
			
				<ellipse transform="matrix(0.8053 -0.5929 0.5929 0.8053 -2.2566 126.3012)" class="st0" cx="191.2" cy="66.6" rx="0.6" ry="0.4"/>
			
				<ellipse transform="matrix(0.8053 -0.5929 0.5929 0.8053 -1.6878 128.0333)" class="st0" cx="194.1" cy="66.6" rx="0.6" ry="0.4"/>
			<ellipse transform="matrix(0.8053 -0.5929 0.5929 0.8053 -1.119 129.7654)" class="st0" cx="197" cy="66.6" rx="0.6" ry="0.4"/>
			
				<ellipse transform="matrix(0.8053 -0.5929 0.5929 0.8053 -0.5502 131.4975)" class="st0" cx="199.9" cy="66.6" rx="0.6" ry="0.4"/>
			
				<ellipse transform="matrix(0.8053 -0.5929 0.5929 0.8053 -2.8912 119.3066)" class="st0" cx="180.2" cy="64.1" rx="0.6" ry="0.4"/>
			
				<ellipse transform="matrix(0.8053 -0.5929 0.5929 0.8053 -2.3223 121.0387)" class="st0" cx="183.1" cy="64.1" rx="0.6" ry="0.4"/>
			<ellipse transform="matrix(0.8053 -0.5929 0.5929 0.8053 -1.7535 122.7708)" class="st0" cx="186" cy="64.1" rx="0.6" ry="0.4"/>
			<ellipse transform="matrix(0.8053 -0.5929 0.5929 0.8053 -1.1847 124.5029)" class="st0" cx="189" cy="64.1" rx="0.6" ry="0.4"/>
			
				<ellipse transform="matrix(0.8053 -0.5929 0.5929 0.8053 -0.6158 126.235)" class="st0" cx="191.9" cy="64.1" rx="0.6" ry="0.4"/>
			
				<ellipse transform="matrix(0.8053 -0.5929 0.5929 0.8053 -4.701152e-02 127.967)" class="st0" cx="194.8" cy="64.1" rx="0.6" ry="0.4"/>
			
				<ellipse transform="matrix(0.8053 -0.5929 0.5929 0.8053 0.5218 129.6991)" class="st0" cx="197.7" cy="64.1" rx="0.6" ry="0.4"/>
			
				<ellipse transform="matrix(0.8053 -0.5929 0.5929 0.8053 -2.2678 116.8922)" class="st0" cx="176.8" cy="61.9" rx="0.6" ry="0.4"/>
			
				<ellipse transform="matrix(0.8053 -0.5929 0.5929 0.8053 -1.699 118.6243)" class="st0" cx="179.8" cy="61.9" rx="0.6" ry="0.4"/>
			
				<ellipse transform="matrix(0.8053 -0.5929 0.5929 0.8053 -1.1302 120.3564)" class="st0" cx="182.7" cy="61.9" rx="0.6" ry="0.4"/>
			
				<ellipse transform="matrix(0.8053 -0.5929 0.5929 0.8053 -0.5613 122.0885)" class="st0" cx="185.6" cy="61.9" rx="0.6" ry="0.4"/>
			
				<ellipse transform="matrix(0.8053 -0.5929 0.5929 0.8053 7.509745e-03 123.8206)" class="st0" cx="188.5" cy="61.9" rx="0.6" ry="0.4"/>
			
				<ellipse transform="matrix(0.8053 -0.5929 0.5929 0.8053 0.5763 125.5526)" class="st0" cx="191.4" cy="61.9" rx="0.6" ry="0.4"/>
			
				<ellipse transform="matrix(0.8053 -0.5929 0.5929 0.8053 1.1452 127.2847)" class="st0" cx="194.4" cy="61.9" rx="0.6" ry="0.4"/>
			
				<ellipse transform="matrix(0.8053 -0.5929 0.5929 0.8053 -10.4039 116.7116)" class="st0" cx="172.5" cy="74.2" rx="0.6" ry="0.4"/>
			
				<ellipse transform="matrix(0.8053 -0.5929 0.5929 0.8053 -9.8351 118.4437)" class="st0" cx="175.4" cy="74.2" rx="0.6" ry="0.4"/>
			
				<ellipse transform="matrix(0.8053 -0.5929 0.5929 0.8053 -9.2663 120.1758)" class="st0" cx="178.3" cy="74.2" rx="0.6" ry="0.4"/>
			
				<ellipse transform="matrix(0.8053 -0.5929 0.5929 0.8053 -8.6542 116.8486)" class="st0" cx="173.6" cy="71.6" rx="0.6" ry="0.4"/>
			
				<ellipse transform="matrix(0.8053 -0.5929 0.5929 0.8053 -8.0854 118.5806)" class="st0" cx="176.5" cy="71.6" rx="0.6" ry="0.4"/>
			
				<ellipse transform="matrix(0.8053 -0.5929 0.5929 0.8053 -7.5165 120.3127)" class="st0" cx="179.4" cy="71.6" rx="0.6" ry="0.4"/>
			
				<ellipse transform="matrix(0.8053 -0.5929 0.5929 0.8053 -6.9477 122.0448)" class="st0" cx="182.3" cy="71.6" rx="0.6" ry="0.4"/>
			
				<ellipse transform="matrix(0.8053 -0.5929 0.5929 0.8053 -6.6208 116.9222)" class="st0" cx="174.7" cy="68.5" rx="0.6" ry="0.4"/>
			
				<ellipse transform="matrix(0.8053 -0.5929 0.5929 0.8053 -6.052 118.6543)" class="st0" cx="177.6" cy="68.5" rx="0.6" ry="0.4"/>
			
				<ellipse transform="matrix(0.8053 -0.5929 0.5929 0.8053 -5.4832 120.3864)" class="st0" cx="180.5" cy="68.5" rx="0.6" ry="0.4"/>
			
				<ellipse transform="matrix(0.8053 -0.5929 0.5929 0.8053 -4.9143 122.1184)" class="st0" cx="183.5" cy="68.5" rx="0.6" ry="0.4"/>
			
				<ellipse transform="matrix(0.8053 -0.5929 0.5929 0.8053 -16.3362 113.127)" class="st0" cx="164.1" cy="81.4" rx="0.6" ry="0.4"/>
			
				<ellipse transform="matrix(0.8053 -0.5929 0.5929 0.8053 -15.7674 114.8591)" class="st0" cx="167" cy="81.4" rx="0.6" ry="0.4"/>
			
				<ellipse transform="matrix(0.8053 -0.5929 0.5929 0.8053 -15.1986 116.5912)" class="st0" cx="169.9" cy="81.4" rx="0.6" ry="0.4"/>
			
				<ellipse transform="matrix(0.8053 -0.5929 0.5929 0.8053 -14.6297 118.3233)" class="st0" cx="172.8" cy="81.4" rx="0.6" ry="0.4"/>
			
				<ellipse transform="matrix(0.8053 -0.5929 0.5929 0.8053 -14.0609 120.0554)" class="st0" cx="175.8" cy="81.4" rx="0.6" ry="0.4"/>
			
				<ellipse transform="matrix(0.8053 -0.5929 0.5929 0.8053 -13.4921 121.7874)" class="st0" cx="178.7" cy="81.4" rx="0.6" ry="0.4"/>
			
				<ellipse transform="matrix(0.8053 -0.5929 0.5929 0.8053 -12.9233 123.5195)" class="st0" cx="181.6" cy="81.4" rx="0.6" ry="0.4"/>
			
				<ellipse transform="matrix(0.8053 -0.5929 0.5929 0.8053 -12.3544 125.2516)" class="st0" cx="184.5" cy="81.4" rx="0.6" ry="0.4"/>
			
				<ellipse transform="matrix(0.8053 -0.5929 0.5929 0.8053 -11.7856 126.9837)" class="st0" cx="187.4" cy="81.4" rx="0.6" ry="0.4"/>
			
				<ellipse transform="matrix(0.8053 -0.5929 0.5929 0.8053 -11.2168 128.7158)" class="st0" cx="190.4" cy="81.4" rx="0.6" ry="0.4"/>
			
				<ellipse transform="matrix(0.8053 -0.5929 0.5929 0.8053 -10.6479 130.4479)" class="st0" cx="193.3" cy="81.4" rx="0.6" ry="0.4"/>
			
				<ellipse transform="matrix(0.8053 -0.5929 0.5929 0.8053 -17.8602 112.5837)" class="st0" cx="162.5" cy="83.5" rx="0.6" ry="0.4"/>
			
				<ellipse transform="matrix(0.8053 -0.5929 0.5929 0.8053 -17.2914 114.3158)" class="st0" cx="165.4" cy="83.5" rx="0.6" ry="0.4"/>
			
				<ellipse transform="matrix(0.8053 -0.5929 0.5929 0.8053 -16.7225 116.0479)" class="st0" cx="168.3" cy="83.5" rx="0.6" ry="0.4"/>
			
				<ellipse transform="matrix(0.8053 -0.5929 0.5929 0.8053 -16.1537 117.78)" class="st0" cx="171.2" cy="83.5" rx="0.6" ry="0.4"/>
			
				<ellipse transform="matrix(0.8053 -0.5929 0.5929 0.8053 -15.5849 119.512)" class="st0" cx="174.2" cy="83.5" rx="0.6" ry="0.4"/>
			
				<ellipse transform="matrix(0.8053 -0.5929 0.5929 0.8053 -15.0161 121.2441)" class="st0" cx="177.1" cy="83.5" rx="0.6" ry="0.4"/>
			
				<ellipse transform="matrix(0.8053 -0.5929 0.5929 0.8053 -14.4472 122.9762)" class="st0" cx="180" cy="83.5" rx="0.6" ry="0.4"/>
			
				<ellipse transform="matrix(0.8053 -0.5929 0.5929 0.8053 -13.8784 124.7083)" class="st0" cx="182.9" cy="83.5" rx="0.6" ry="0.4"/>
			
				<ellipse transform="matrix(0.8053 -0.5929 0.5929 0.8053 -13.3096 126.4404)" class="st0" cx="185.9" cy="83.5" rx="0.6" ry="0.4"/>
			
				<ellipse transform="matrix(0.8053 -0.5929 0.5929 0.8053 -12.7407 128.1725)" class="st0" cx="188.8" cy="83.5" rx="0.6" ry="0.4"/>
			
				<ellipse transform="matrix(0.8053 -0.5929 0.5929 0.8053 -12.1719 129.9045)" class="st0" cx="191.7" cy="83.5" rx="0.6" ry="0.4"/>
			
				<ellipse transform="matrix(0.8053 -0.5929 0.5929 0.8053 -19.4854 111.7322)" class="st0" cx="160.4" cy="85.5" rx="0.6" ry="0.4"/>
			
				<ellipse transform="matrix(0.8053 -0.5929 0.5929 0.8053 -18.9166 113.4643)" class="st0" cx="163.3" cy="85.5" rx="0.6" ry="0.4"/>
			
				<ellipse transform="matrix(0.8053 -0.5929 0.5929 0.8053 -18.3477 115.1964)" class="st0" cx="166.2" cy="85.5" rx="0.6" ry="0.4"/>
			
				<ellipse transform="matrix(0.8053 -0.5929 0.5929 0.8053 -17.7789 116.9285)" class="st0" cx="169.1" cy="85.5" rx="0.6" ry="0.4"/>
			
				<ellipse transform="matrix(0.8053 -0.5929 0.5929 0.8053 -17.2101 118.6605)" class="st0" cx="172.1" cy="85.5" rx="0.6" ry="0.4"/>
			
				<ellipse transform="matrix(0.8053 -0.5929 0.5929 0.8053 -16.6412 120.3926)" class="st0" cx="175" cy="85.5" rx="0.6" ry="0.4"/>
			
				<ellipse transform="matrix(0.8053 -0.5929 0.5929 0.8053 -16.0724 122.1247)" class="st0" cx="177.9" cy="85.5" rx="0.6" ry="0.4"/>
			
				<ellipse transform="matrix(0.8053 -0.5929 0.5929 0.8053 -15.5036 123.8568)" class="st0" cx="180.8" cy="85.5" rx="0.6" ry="0.4"/>
			
				<ellipse transform="matrix(0.8053 -0.5929 0.5929 0.8053 -14.9347 125.5889)" class="st0" cx="183.7" cy="85.5" rx="0.6" ry="0.4"/>
			
				<ellipse transform="matrix(0.8053 -0.5929 0.5929 0.8053 -14.3659 127.321)" class="st0" cx="186.7" cy="85.5" rx="0.6" ry="0.4"/>
			
				<ellipse transform="matrix(0.8053 -0.5929 0.5929 0.8053 -13.7971 129.053)" class="st0" cx="189.6" cy="85.5" rx="0.6" ry="0.4"/>
			
				<ellipse transform="matrix(0.8053 -0.5929 0.5929 0.8053 -21.0994 110.9146)" class="st0" cx="158.3" cy="87.6" rx="0.6" ry="0.4"/>
			
				<ellipse transform="matrix(0.8053 -0.5929 0.5929 0.8053 -20.5306 112.6467)" class="st0" cx="161.2" cy="87.6" rx="0.6" ry="0.4"/>
			
				<ellipse transform="matrix(0.8053 -0.5929 0.5929 0.8053 -19.9618 114.3788)" class="st0" cx="164.2" cy="87.6" rx="0.6" ry="0.4"/>
			
				<ellipse transform="matrix(0.8053 -0.5929 0.5929 0.8053 -19.3929 116.1109)" class="st0" cx="167.1" cy="87.6" rx="0.6" ry="0.4"/>
			
				<ellipse transform="matrix(0.8053 -0.5929 0.5929 0.8053 -18.8241 117.8429)" class="st0" cx="170" cy="87.6" rx="0.6" ry="0.4"/>
			
				<ellipse transform="matrix(0.8053 -0.5929 0.5929 0.8053 -18.2553 119.575)" class="st0" cx="172.9" cy="87.6" rx="0.6" ry="0.4"/>
			
				<ellipse transform="matrix(0.8053 -0.5929 0.5929 0.8053 -17.6864 121.3071)" class="st0" cx="175.8" cy="87.6" rx="0.6" ry="0.4"/>
			
				<ellipse transform="matrix(0.8053 -0.5929 0.5929 0.8053 -17.1176 123.0392)" class="st0" cx="178.8" cy="87.6" rx="0.6" ry="0.4"/>
			
				<ellipse transform="matrix(0.8053 -0.5929 0.5929 0.8053 -16.5488 124.7713)" class="st0" cx="181.7" cy="87.6" rx="0.6" ry="0.4"/>
			
				<ellipse transform="matrix(0.8053 -0.5929 0.5929 0.8053 -15.98 126.5034)" class="st0" cx="184.6" cy="87.6" rx="0.6" ry="0.4"/>
			
				<ellipse transform="matrix(0.8053 -0.5929 0.5929 0.8053 -15.4111 128.2354)" class="st0" cx="187.5" cy="87.6" rx="0.6" ry="0.4"/>
		</g>
		<g>
			<ellipse transform="matrix(0.8262 -0.5634 0.5634 0.8262 -55.4345 20.8125)" class="st0" cx="6" cy="100.2" rx="0.6" ry="0.4"/>
			<ellipse transform="matrix(0.8262 -0.5634 0.5634 0.8262 -54.909 22.5155)" class="st0" cx="9" cy="100.2" rx="0.6" ry="0.4"/>
			
				<ellipse transform="matrix(0.8262 -0.5634 0.5634 0.8262 -54.3836 24.2186)" class="st0" cx="12.1" cy="100.2" rx="0.6" ry="0.4"/>
			
				<ellipse transform="matrix(0.8262 -0.5634 0.5634 0.8262 -53.8582 25.9217)" class="st0" cx="15.1" cy="100.2" rx="0.6" ry="0.4"/>
			
				<ellipse transform="matrix(0.8262 -0.5634 0.5634 0.8262 -53.3327 27.6247)" class="st0" cx="18.1" cy="100.2" rx="0.6" ry="0.4"/>
			
				<ellipse transform="matrix(0.8262 -0.5634 0.5634 0.8262 -52.8073 29.3278)" class="st0" cx="21.1" cy="100.2" rx="0.6" ry="0.4"/>
			
				<ellipse transform="matrix(0.8262 -0.5634 0.5634 0.8262 -52.2818 31.0309)" class="st0" cx="24.1" cy="100.2" rx="0.6" ry="0.4"/>
			
				<ellipse transform="matrix(0.8262 -0.5634 0.5634 0.8262 -51.7564 32.7339)" class="st0" cx="27.2" cy="100.2" rx="0.6" ry="0.4"/>
			<ellipse transform="matrix(0.8262 -0.5634 0.5634 0.8262 -51.231 34.437)" class="st0" cx="30.2" cy="100.2" rx="0.6" ry="0.4"/>
			
				<ellipse transform="matrix(0.8262 -0.5634 0.5634 0.8262 -50.7055 36.1401)" class="st0" cx="33.2" cy="100.2" rx="0.6" ry="0.4"/>
			
				<ellipse transform="matrix(0.8262 -0.5634 0.5634 0.8262 -50.1801 37.8431)" class="st0" cx="36.2" cy="100.2" rx="0.6" ry="0.4"/>
			
				<ellipse transform="matrix(0.8262 -0.5634 0.5634 0.8262 -49.6546 39.5462)" class="st0" cx="39.3" cy="100.2" rx="0.6" ry="0.4"/>
			
				<ellipse transform="matrix(0.8262 -0.5634 0.5634 0.8262 -49.1292 41.2493)" class="st0" cx="42.3" cy="100.2" rx="0.6" ry="0.4"/>
			
				<ellipse transform="matrix(0.8262 -0.5634 0.5634 0.8262 -48.6038 42.9523)" class="st0" cx="45.3" cy="100.2" rx="0.6" ry="0.4"/>
			
				<ellipse transform="matrix(0.8262 -0.5634 0.5634 0.8262 -48.0783 44.6554)" class="st0" cx="48.3" cy="100.2" rx="0.6" ry="0.4"/>
			
				<ellipse transform="matrix(0.8262 -0.5634 0.5634 0.8262 -47.5529 46.3584)" class="st0" cx="51.4" cy="100.2" rx="0.6" ry="0.4"/>
			
				<ellipse transform="matrix(0.8262 -0.5634 0.5634 0.8262 -47.0274 48.0615)" class="st0" cx="54.4" cy="100.2" rx="0.6" ry="0.4"/>
			
				<ellipse transform="matrix(0.8262 -0.5634 0.5634 0.8262 -46.502 49.7646)" class="st0" cx="57.4" cy="100.2" rx="0.6" ry="0.4"/>
			
				<ellipse transform="matrix(0.8262 -0.5634 0.5634 0.8262 -45.9766 51.4676)" class="st0" cx="60.4" cy="100.2" rx="0.6" ry="0.4"/>
			
				<ellipse transform="matrix(0.8262 -0.5634 0.5634 0.8262 -45.4511 53.1707)" class="st0" cx="63.4" cy="100.2" rx="0.6" ry="0.4"/>
			
				<ellipse transform="matrix(0.8262 -0.5634 0.5634 0.8262 -44.9257 54.8738)" class="st0" cx="66.5" cy="100.2" rx="0.6" ry="0.4"/>
			
				<ellipse transform="matrix(0.8262 -0.5634 0.5634 0.8262 -44.4002 56.5768)" class="st0" cx="69.5" cy="100.2" rx="0.6" ry="0.4"/>
			
				<ellipse transform="matrix(0.8262 -0.5634 0.5634 0.8262 -43.8748 58.2799)" class="st0" cx="72.5" cy="100.2" rx="0.6" ry="0.4"/>
			
				<ellipse transform="matrix(0.8262 -0.5634 0.5634 0.8262 -43.3494 59.983)" class="st0" cx="75.5" cy="100.2" rx="0.6" ry="0.4"/>
			
				<ellipse transform="matrix(0.8262 -0.5634 0.5634 0.8262 -42.8239 61.686)" class="st0" cx="78.6" cy="100.2" rx="0.6" ry="0.4"/>
			
				<ellipse transform="matrix(0.8262 -0.5634 0.5634 0.8262 -42.2985 63.3891)" class="st0" cx="81.6" cy="100.2" rx="0.6" ry="0.4"/>
			
				<ellipse transform="matrix(0.8262 -0.5634 0.5634 0.8262 -41.773 65.0922)" class="st0" cx="84.6" cy="100.2" rx="0.6" ry="0.4"/>
			
				<ellipse transform="matrix(0.8262 -0.5634 0.5634 0.8262 -41.2476 66.7952)" class="st0" cx="87.6" cy="100.2" rx="0.6" ry="0.4"/>
			
				<ellipse transform="matrix(0.8262 -0.5634 0.5634 0.8262 -40.7222 68.4983)" class="st0" cx="90.6" cy="100.2" rx="0.6" ry="0.4"/>
			
				<ellipse transform="matrix(0.8262 -0.5634 0.5634 0.8262 -40.1967 70.2014)" class="st0" cx="93.7" cy="100.2" rx="0.6" ry="0.4"/>
			
				<ellipse transform="matrix(0.8262 -0.5634 0.5634 0.8262 -39.6713 71.9044)" class="st0" cx="96.7" cy="100.2" rx="0.6" ry="0.4"/>
			
				<ellipse transform="matrix(0.8262 -0.5634 0.5634 0.8262 -39.1459 73.6075)" class="st0" cx="99.7" cy="100.2" rx="0.6" ry="0.4"/>
			
				<ellipse transform="matrix(0.8262 -0.5634 0.5634 0.8262 -38.6204 75.3106)" class="st0" cx="102.7" cy="100.2" rx="0.6" ry="0.4"/>
			
				<ellipse transform="matrix(0.8262 -0.5634 0.5634 0.8262 -38.095 77.0136)" class="st0" cx="105.8" cy="100.2" rx="0.6" ry="0.4"/>
			
				<ellipse transform="matrix(0.8262 -0.5634 0.5634 0.8262 -37.5695 78.7167)" class="st0" cx="108.8" cy="100.2" rx="0.6" ry="0.4"/>
			
				<ellipse transform="matrix(0.8262 -0.5634 0.5634 0.8262 -37.0441 80.4198)" class="st0" cx="111.8" cy="100.2" rx="0.6" ry="0.4"/>
			
				<ellipse transform="matrix(0.8262 -0.5634 0.5634 0.8262 -36.5187 82.1228)" class="st0" cx="114.8" cy="100.2" rx="0.6" ry="0.4"/>
			
				<ellipse transform="matrix(0.8262 -0.5634 0.5634 0.8262 -35.9932 83.8259)" class="st0" cx="117.9" cy="100.2" rx="0.6" ry="0.4"/>
			
				<ellipse transform="matrix(0.8262 -0.5634 0.5634 0.8262 -35.4678 85.5289)" class="st0" cx="120.9" cy="100.2" rx="0.6" ry="0.4"/>
			
				<ellipse transform="matrix(0.8262 -0.5634 0.5634 0.8262 -34.9423 87.232)" class="st0" cx="123.9" cy="100.2" rx="0.6" ry="0.4"/>
			
				<ellipse transform="matrix(0.8262 -0.5634 0.5634 0.8262 -34.4169 88.9351)" class="st0" cx="126.9" cy="100.2" rx="0.6" ry="0.4"/>
			
				<ellipse transform="matrix(0.8262 -0.5634 0.5634 0.8262 -33.8915 90.6381)" class="st0" cx="129.9" cy="100.2" rx="0.6" ry="0.4"/>
			<ellipse transform="matrix(0.8262 -0.5634 0.5634 0.8262 -33.366 92.3412)" class="st0" cx="133" cy="100.2" rx="0.6" ry="0.4"/>
			
				<ellipse transform="matrix(0.8262 -0.5634 0.5634 0.8262 -32.8406 94.0443)" class="st0" cx="136" cy="100.2" rx="0.6" ry="0.4"/>
			
				<ellipse transform="matrix(0.8262 -0.5634 0.5634 0.8262 -32.3151 95.7473)" class="st0" cx="139" cy="100.2" rx="0.6" ry="0.4"/>
			
				<ellipse transform="matrix(0.8262 -0.5634 0.5634 0.8262 -31.7897 97.4504)" class="st0" cx="142" cy="100.2" rx="0.6" ry="0.4"/>
			
				<ellipse transform="matrix(0.8262 -0.5634 0.5634 0.8262 -31.2643 99.1535)" class="st0" cx="145.1" cy="100.2" rx="0.6" ry="0.4"/>
			
				<ellipse transform="matrix(0.8262 -0.5634 0.5634 0.8262 -30.7388 100.8565)" class="st0" cx="148.1" cy="100.2" rx="0.6" ry="0.4"/>
			
				<ellipse transform="matrix(0.8262 -0.5634 0.5634 0.8262 -30.2134 102.5596)" class="st0" cx="151.1" cy="100.2" rx="0.6" ry="0.4"/>
			
				<ellipse transform="matrix(0.8262 -0.5634 0.5634 0.8262 -29.6879 104.2627)" class="st0" cx="154.1" cy="100.2" rx="0.6" ry="0.4"/>
			
				<ellipse transform="matrix(0.8262 -0.5634 0.5634 0.8262 -29.1625 105.9657)" class="st0" cx="157.1" cy="100.2" rx="0.6" ry="0.4"/>
			
				<ellipse transform="matrix(0.8262 -0.5634 0.5634 0.8262 -28.6371 107.6688)" class="st0" cx="160.2" cy="100.2" rx="0.6" ry="0.4"/>
		</g>
	</g>
	<g>
		<path class="st1" d="M13.8,13L26.3,2.3c1.9-1.1,4.1-1.7,6.3-1.7l143.5,0.7c5,0,9,4,9,9l0.4,57.1c0,3.1-1.4,6-3.9,7.9l-12,9.9
			L13.8,13z"/>
		<polygon class="st2" points="22.4,9.9 29.2,4.3 169,4.5 157.6,14.1 		"/>
		<path class="st2" d="M165.9,10.4l7.2-6.1h0.5c3.5,0,6.6,2.1,7.4,4.8l0.3,1.1l-8.1,6.8L165.9,10.4z"/>
		<path class="st1" d="M163.3,87.1h-141c-6.6,0-12-5.4-12-12v-54c0-6.6,5.4-12,12-12h141c6.6,0,12,5.4,12,12v54
			C175.3,81.7,169.9,87.1,163.3,87.1z"/>
		<path class="st3" d="M164.2,80.8H21.4c-2.8,0-5.1-2.3-5.1-5.1V20.9c0-2.8,2.3-5.1,5.1-5.1h142.8c2.8,0,5.1,2.3,5.1,5.1v54.8
			C169.3,78.5,167,80.8,164.2,80.8z"/>
		<path class="st4" d="M163.1,77.8H22.5c-1.7,0-3.2-1.4-3.2-3.2V22c0-1.7,1.4-3.2,3.2-3.2h140.7c1.7,0,3.2,1.4,3.2,3.2v52.7
			C166.3,76.4,164.9,77.8,163.1,77.8z"/>
		<g>
			<path id="XMLID_12_" class="st5" d="M181.3,31.5c-0.7,0.4-1.3,1.3-1.3,2.1l0,7.5c0,0.3,0.1,0.6,0.4,0.7l-1.2-0.6l-0.1-0.1
				c-0.3-0.1-0.4-0.3-0.4-0.7l0-7.5c0-0.7,0.6-1.6,1.3-2.1c0.4-0.2,0.6-0.3,0.8-0.2l0.1,0l0,0c0,0,0,0,0,0l1.3,0.6
				C182,31.2,181.6,31.3,181.3,31.5z"/>
			<path id="XMLID_9_" class="st0" d="M182.1,31.5c-0.2-0.1-0.5,0-0.7,0.1c-0.7,0.4-1.2,1.2-1.2,1.9l0,7.5c0,0.2,0,0.4,0.2,0.5l0,0
				l0,0l-0.2,0.4l0,0l0,0l-1.3-0.6c-0.3-0.1-0.6-0.4-0.6-0.9l0-7.5c0-0.8,0.6-1.8,1.4-2.2c0.3-0.2,0.7-0.3,1-0.2l1.5,0.7L182.1,31.5
				z M179.1,40.9l0.7,0.3c0-0.1,0-0.1,0-0.2l0-7.5c0-0.8,0.6-1.8,1.4-2.2c0.1,0,0.2-0.1,0.2-0.1l-0.7-0.3l-0.1,0
				c-0.2-0.1-0.4,0-0.7,0.2c-0.7,0.4-1.2,1.2-1.2,1.9l0,7.5c0,0.2,0,0.3,0.1,0.3C178.9,40.9,179,40.9,179.1,40.9z"/>
			<g id="XMLID_6_">
				<path id="XMLID_7_" class="st2" d="M182.6,39.5l0-7.5c0-0.7-0.6-1-1.3-0.6l0,0c-0.7,0.4-1.3,1.3-1.3,2.1l0,7.5
					c0,0.7,0.6,1,1.3,0.6l0,0C182,41.2,182.6,40.3,182.6,39.5z"/>
			</g>
			<path id="XMLID_2_" class="st0" d="M182.8,32l0,7.5c0,0.8-0.6,1.8-1.4,2.2c-0.4,0.3-0.9,0.3-1.2,0.1c-0.3-0.2-0.4-0.5-0.4-0.8
				l0-7.5c0-0.8,0.6-1.8,1.4-2.2c0.4-0.3,0.9-0.3,1.2-0.1c0.1,0.1,0.2,0.2,0.3,0.3C182.7,31.6,182.8,31.8,182.8,32z M180.4,41.6
				c0.2,0.1,0.5,0.1,0.8-0.1c0.7-0.4,1.2-1.2,1.2-1.9l0-7.5c0-0.2,0-0.4-0.2-0.5c-0.2-0.1-0.5-0.1-0.8,0.1c-0.7,0.4-1.2,1.2-1.2,1.9
				l0,7.5c0,0.1,0,0.2,0.1,0.4C180.3,41.5,180.3,41.5,180.4,41.6z"/>
		</g>
		<g>
			<path id="XMLID_23_" class="st5" d="M181.3,45.4c-0.7,0.4-1.3,1.3-1.3,2.1l0,7.5c0,0.3,0.1,0.6,0.4,0.7l-1.2-0.6L179,55
				c-0.3-0.1-0.4-0.3-0.4-0.7l0-7.5c0-0.7,0.6-1.6,1.3-2.1c0.4-0.2,0.6-0.3,0.8-0.2l0.1,0l0,0c0,0,0,0,0,0l1.3,0.6
				C182,45.1,181.6,45.2,181.3,45.4z"/>
			<path id="XMLID_20_" class="st0" d="M182.1,45.4c-0.2-0.1-0.5,0-0.7,0.1c-0.7,0.4-1.2,1.2-1.2,1.9l0,7.5c0,0.2,0,0.4,0.2,0.5l0,0
				l0,0l-0.2,0.4l0,0l0,0l-1.3-0.6c-0.3-0.1-0.6-0.4-0.6-0.9l0-7.5c0-0.8,0.6-1.8,1.4-2.2c0.3-0.2,0.7-0.3,1-0.2l1.5,0.7L182.1,45.4
				z M179.1,54.8l0.7,0.3c0-0.1,0-0.1,0-0.2l0-7.5c0-0.8,0.6-1.8,1.4-2.2c0.1,0,0.2-0.1,0.2-0.1l-0.7-0.3l-0.1,0
				c-0.2-0.1-0.4,0-0.7,0.2c-0.7,0.4-1.2,1.2-1.2,1.9l0,7.5c0,0.2,0,0.3,0.1,0.3C178.9,54.7,179,54.8,179.1,54.8z"/>
			<g id="XMLID_13_">
				<path id="XMLID_14_" class="st2" d="M182.6,53.4l0-7.5c0-0.7-0.6-1-1.3-0.6l0,0c-0.7,0.4-1.3,1.3-1.3,2.1l0,7.5
					c0,0.7,0.6,1,1.3,0.6l0,0C182,55.1,182.6,54.1,182.6,53.4z"/>
			</g>
			<path id="XMLID_1_" class="st0" d="M182.8,45.9l0,7.5c0,0.8-0.6,1.8-1.4,2.2c-0.4,0.3-0.9,0.3-1.2,0.1c-0.3-0.2-0.4-0.5-0.4-0.8
				l0-7.5c0-0.8,0.6-1.8,1.4-2.2c0.4-0.3,0.9-0.3,1.2-0.1c0.1,0.1,0.2,0.2,0.3,0.3C182.7,45.5,182.8,45.7,182.8,45.9z M180.4,55.4
				c0.2,0.1,0.5,0.1,0.8-0.1c0.7-0.4,1.2-1.2,1.2-1.9l0-7.5c0-0.2,0-0.4-0.2-0.5c-0.2-0.1-0.5-0.1-0.8,0.1c-0.7,0.4-1.2,1.2-1.2,1.9
				l0,7.5c0,0.1,0,0.2,0.1,0.4C180.3,55.3,180.3,55.4,180.4,55.4z"/>
		</g>
		<polygon points="173.1,82.1 174.8,78.9 175.4,75.5 185.6,66.9 185.4,69.5 184.7,71.5 183.3,73.8 181,75.9 173.3,82.3 		"/>
		<polygon class="st6" points="93.3,18.8 160.6,18.8 164.2,15.8 97.1,15.8 		"/>
		<polygon class="st6" points="86.1,18.8 89.8,18.8 93.3,15.8 89.9,15.8 		"/>
		<polygon class="st7" points="166.3,59 166.3,62.5 169.2,60 169.3,56.5 		"/>
		<polygon class="st6" points="78.1,18.8 79.9,18.8 83.5,15.8 81.9,15.8 		"/>
		<polygon points="164.7,19.3 165.9,20.4 166.3,22 166.6,56.8 169.4,54.4 169.3,20.9 169,19.2 168.2,17.7 167,16.7 165.5,16 
			163.8,15.8 160.2,18.8 		"/>
	</g>
</g>
</svg>
