<?xml version="1.0" encoding="utf-8"?>
<!-- Generator: Adobe Illustrator 22.1.0, SVG Export Plug-In . SVG Version: 6.00 Build 0)  -->
<svg version="1.1" id="content" xmlns="http://www.w3.org/2000/svg" xmlns:xlink="http://www.w3.org/1999/xlink" x="0px" y="0px"
	 viewBox="0 0 73.6 10.1" style="enable-background:new 0 0 73.6 10.1;" xml:space="preserve">
<style type="text/css">
	.st0{fill:#FFEB00;}
</style>
<g>
	<g id="XMLID_1368_">
		<path id="XMLID_1369_" class="st0" d="M31.6,5.8c1.2,2.1,3.1,3.2,5.1,3.2c2.1,0,4-1.3,5.3-3.5c0.6-1.1,1.5-1.8,2.4-1.8
			c0.8,0,1.6,0.5,2.2,1.5l1,1.6c1.2,2,3,3.1,4.9,3.1c2,0,3.9-1.1,5.1-3.1l0.8-1.3c0.6-1,1.5-1.6,2.3-1.5c0.8,0,1.6,0.6,2.2,1.6
			l0.3,0.5c1.2,2.1,3.1,3.3,5.1,3.3c2.1,0,4-1.3,5.3-3.5l-2.9-1.6c-0.6,1.1-1.5,1.8-2.4,1.8c-0.8,0-1.6-0.6-2.2-1.6l-0.3-0.5
			c-1.2-2.1-3-3.3-5-3.3c-2-0.1-3.9,1.1-5.2,3.1l-0.8,1.3c-0.6,1-1.5,1.6-2.3,1.5c-0.8,0-1.6-0.5-2.1-1.5l-1-1.6
			c-1.2-2-3.1-3.1-5.1-3.1c-2.1,0-4,1.3-5.2,3.5c-0.6,1.1-1.5,1.8-2.4,1.8c-0.8,0-1.6-0.6-2.2-1.6L31.6,5.8z"/>
	</g>
	<g id="XMLID_1_">
		<path id="XMLID_2_" class="st0" d="M0,5.4c1.2,2.1,3.1,3.2,5.1,3.2c2.1,0,4-1.3,5.3-3.5C11,4,11.9,3.3,12.8,3.3
			c0.8,0,1.6,0.5,2.2,1.5l1,1.6c1.2,2,3,3.1,4.9,3.1c2,0,3.9-1.1,5.1-3.1l0.8-1.3c0.6-1,1.5-1.6,2.3-1.5c0.8,0,1.6,0.6,2.2,1.6
			l0.3,0.5c1.2,2.1,3.1,3.3,5.1,3.3c2.1,0,4-1.3,5.3-3.5l-2.9-1.6c-0.6,1.1-1.5,1.8-2.4,1.8c-0.8,0-1.6-0.6-2.2-1.6l-0.3-0.5
			c-1.2-2.1-3-3.3-5-3.3c-2-0.1-3.9,1.1-5.2,3.1l-0.8,1.3c-0.6,1-1.5,1.6-2.3,1.5c-0.8,0-1.6-0.5-2.1-1.5l-1-1.6
			c-1.2-2-3.1-3.1-5.1-3.1c-2.1,0-4,1.3-5.2,3.5C6.8,4.6,6,5.3,5.1,5.3c-0.8,0-1.6-0.6-2.2-1.6L0,5.4z"/>
	</g>
</g>
</svg>
